<?xml version="1.0" standalone="no"?>
<!DOCTYPE svg PUBLIC "-//W3C//DTD SVG 1.1//EN" "http://www.w3.org/Graphics/SVG/1.1/DTD/svg11.dtd" >
<svg xmlns="http://www.w3.org/2000/svg">
<metadata>
This is a custom SVG webfont generated by Fontspring.
</metadata>
<defs>
<font id="webfont5acQ4kpw" horiz-adv-x="1026" >
<font-face units-per-em="2048" ascent="1536" descent="-512" />
<missing-glyph horiz-adv-x="483" />
<glyph unicode=" "  horiz-adv-x="483" />
<glyph unicode="&#x09;" horiz-adv-x="483" />
<glyph unicode="&#xa0;" horiz-adv-x="483" />
<glyph unicode="!" horiz-adv-x="468" d="M137 348l-14 1032h223l-14 -1032h-195zM115 0v217h237v-217h-237z" />
<glyph unicode="&#x22;" horiz-adv-x="681" d="M98 774l-18 606h217l-16 -606h-183zM403 774l-18 606h217l-16 -606h-183z" />
<glyph unicode="#" horiz-adv-x="1085" d="M446 1360h224l-105 -381h119l104 381h220l-105 -381h119v-176h-170l-64 -246h134l-2 -180h-183l-104 -377h-213l102 377h-119l-106 -377h-219l100 377h-115v180h164l62 246h-135l2 176h186zM514 803l-63 -246h120l66 246h-123z" />
<glyph unicode="$" d="M729 1362q109 -45 201 -129l-82 -189q-168 152 -350 152q-70 0 -118 -42t-56 -103q-12 -117 125 -179l299 -137q119 -57 176 -151.5t57 -192.5q0 -178 -108.5 -285.5t-268.5 -123.5v-189h-184v193q-72 10 -131 37q-160 68 -244 159l98 189q80 -80 189.5 -130.5 t210.5 -50.5q139 0 190 127q23 61 -5 118t-83 89l-323 148q-127 59 -186.5 151t-59.5 189q0 156 100 257t250 126h-6v174h184v-174q37 -4 125 -33z" />
<glyph unicode="%" horiz-adv-x="1452" d="M76 1008q0 -166 75.5 -260.5t209 -94.5t211 94.5t77.5 260.5q0 164 -77.5 258t-211 94t-209 -93t-75.5 -259zM475 1007.5q0 -77.5 -29.5 -130t-85 -52.5t-83 51.5t-27.5 131t27.5 131t83 51.5t85 -52.5t29.5 -130zM803 332q0 -166 76.5 -260.5t207.5 -94.5 q133 0 211 94.5t78 260.5t-76.5 259t-212.5 93q-131 0 -207.5 -94t-76.5 -258zM1202 332q0 -78 -28.5 -130t-86.5 -52q-53 0 -81.5 52t-28.5 130t28.5 130t81.5 52q57 0 86 -51t29 -131zM326 0l684 1380h127l-684 -1380h-127z" />
<glyph unicode="&#x26;" horiz-adv-x="1116" d="M293 389q0 -104 51 -168.5t145 -64.5q131 0 197 151h2l-246 301q-61 -23 -105 -80t-44 -139zM598 1061q-6 61 -32.5 103t-76.5 44q-51 -2 -78.5 -45t-31.5 -102q-4 -68 26.5 -137.5t79.5 -87.5q55 29 86 92t27 133zM635 709l131 -162q0 10 4 31q4 37 4 57v74h199 q0 -10 1 -30t1 -30q0 -174 -45 -293h-2q57 -66 83.5 -104.5t50 -105t23.5 -146.5h-213q-2 109 -34 164q-45 -78 -137.5 -132.5t-211.5 -54.5q-209 0 -317.5 115t-108.5 283q0 250 230 370h-2q-139 129 -131 322q8 147 105 229t224 82q121 0 217.5 -85t108.5 -224 q-2 -90 -46 -192t-134 -168z" />
<glyph unicode="'" horiz-adv-x="376" d="M98 774l-18 606h217l-16 -606h-183z" />
<glyph unicode="(" horiz-adv-x="690" d="M98 494q2 412 136.5 649t357.5 237v-168q-117 -2 -198 -182t-81 -541q0 -354 81 -533t198 -181v-168q-223 0 -357.5 237.5t-136.5 649.5z" />
<glyph unicode=")" horiz-adv-x="690" d="M592 493.5q0 -409.5 -134 -648t-360 -238.5v168q117 2 199 181t82 533q0 358 -82 539.5t-199 183.5v168q225 0 359.5 -238.5t134.5 -648z" />
<glyph unicode="*" horiz-adv-x="733" d="M444 1200l136 100l90 -170l-170 -94l170 -90l-90 -172l-136 100l9 -180h-170l8 185l-139 -105l-89 172l168 90q-29 14 -91 49l-77 43l89 172l139 -104q0 18 -2 55t-2 56q-4 49 -4 73h170z" />
<glyph unicode="+" horiz-adv-x="1013" d="M63 758h343v395h202v-395h342v-203h-342v-393h-202v393h-343v203z" />
<glyph unicode="," horiz-adv-x="540" d="M63 -160l166 400h248l-217 -400h-197z" />
<glyph unicode="-" horiz-adv-x="768" d="M705 416h-642v235h642v-235z" />
<glyph unicode="." horiz-adv-x="411" d="M80 0v240h252v-240h-252z" />
<glyph unicode="/" horiz-adv-x="667" d="M623 1380l-406 -1380h-172l406 1380h172z" />
<glyph unicode="0" d="M508 -27q-205 0 -322.5 186.5t-117.5 510.5q0 322 117.5 503t322.5 181q213 0 333 -180.5t120 -504t-121 -510t-332 -186.5zM508 1157q-100 0 -158.5 -144.5t-58.5 -342.5q0 -205 58.5 -352.5t158.5 -147.5q72 0 125 72.5t77.5 183.5t24.5 244q0 129 -24.5 236.5 t-77.5 179t-125 71.5z" />
<glyph unicode="1" d="M289 883l-101 149l287 299h195v-1331h-224v1038z" />
<glyph unicode="2" d="M512 1126q-51 0 -96 -18t-83 -57t-52.5 -56.5t-44.5 -60.5l-115 164q31 49 75 97t135 97t189 49q172 0 290 -113.5t118 -297.5q0 -57 -21.5 -112.5t-48.5 -94.5t-80 -86t-88 -73.5t-100 -71.5l-31 -23q-84 -66 -155.5 -140.5t-77.5 -117.5h581v-211h-811v131 q0 72 21.5 137.5t49.5 111.5t81 97t91 81t103 77l37 29q102 76 142 114q86 92 86 162q0 80 -52.5 133t-142.5 53z" />
<glyph unicode="3" d="M516 -27q-104 0 -194.5 38t-128 72t-87.5 89l95 172q150 -170 307 -170q84 0 130 57.5t46 139.5q0 84 -49 145.5t-135 61.5h-138v208h132q86 0 131 52.5t45 126.5q0 78 -45 135t-123 57q-150 0 -266 -160l-97 158q129 199 371 199q170 2 280.5 -100.5t110.5 -284.5 q0 -82 -49 -168t-141 -111q98 -23 153.5 -126t55.5 -189q0 -180 -120 -292t-284 -110z" />
<glyph unicode="4" d="M803 0h-228v270q-41 0 -125.5 -1t-127.5 -1h-261v187q92 236 210 428t311 448h221v-872h160v-191h-160v-268zM272 459h303v542q-88 -113 -178 -276.5t-125 -265.5z" />
<glyph unicode="5" d="M719 440q0 113 -58.5 176.5t-144.5 63.5q-135 0 -188 -123h-189l80 756h637v-223h-455l-32 -277q41 39 97 57.5t91 18.5q170 0 271.5 -124t101.5 -331q0 -211 -128 -336t-323 -125q-248 0 -387 240l129 154q111 -180 248 -181q131 0 190.5 78t59.5 176z" />
<glyph unicode="6" d="M858 1260l-63 -168q-100 72 -199 71q-219 0 -268 -372q47 45 107.5 68.5t103.5 23.5q170 0 281.5 -124t111.5 -329q0 -211 -115 -333t-297 -122q-90 0 -161.5 30t-116.5 83t-76 115.5t-46.5 139.5t-21.5 141.5t-6 133.5q0 356 131 546t348 190q168 0 287 -94zM516 166 q90 0 136 83t46 181t-47 183t-135 85q-80 0 -127 -74.5t-47 -181.5q0 -119 47 -197.5t127 -78.5z" />
<glyph unicode="7" d="M96 1118v213h832v-174q-178 -264 -293 -539.5t-207 -617.5h-258q217 690 535 1118h-609z" />
<glyph unicode="8" d="M514 -27q-207 0 -316.5 113t-109.5 279q0 98 58.5 199.5t183.5 131.5q-98 35 -151.5 123t-53.5 182q0 150 88 235t211 110q2 0 6 1t6 1q27 6 78 6q82 0 90 -8h-2q125 -25 213 -110t88 -235q0 -94 -53 -181t-154 -124q123 -33 183.5 -136t60.5 -195q0 -166 -109.5 -279 t-316.5 -113zM514 166q90 0 144.5 63.5t54.5 147.5q0 90 -52.5 161.5t-146.5 73.5q-92 -2 -143.5 -73.5t-51.5 -161.5q0 -84 52.5 -147.5t142.5 -63.5zM514 797q80 0 125 49t47 135q0 72 -47 133.5t-125 61.5t-126 -61.5t-48 -129.5q2 -88 48 -138t126 -50z" />
<glyph unicode="9" d="M166 70l65 168q100 -72 199 -72q104 0 174 94t92 279q-47 -45 -107.5 -69t-101.5 -24q-172 0 -283.5 124t-111.5 329q0 211 115 333t297 122q90 0 161.5 -30t116.5 -83t77 -115.5t46.5 -139.5t20.5 -141.5t6 -133.5q0 -356 -131 -546t-346 -190q-166 1 -289 95zM508 1163 q-88 0 -135 -83t-47 -181t48 -183t136 -85q80 0 127 74.5t47 181.5q0 119 -48 197.5t-128 78.5z" />
<glyph unicode=":" horiz-adv-x="411" d="M80 0v240h252v-240h-252zM80 752v239h252v-239h-252z" />
<glyph unicode=";" horiz-adv-x="575" d="M227 752v239h248v-239h-248zM80 -160l166 400h250l-217 -400h-199z" />
<glyph unicode="&#x3c;" horiz-adv-x="1038" d="M45 432v123l895 465v-248l-567 -278l567 -279v-248z" />
<glyph unicode="=" horiz-adv-x="897" d="M834 766h-771v182h771v-182zM834 391h-771v184h771v-184z" />
<glyph unicode="&#x3e;" horiz-adv-x="1038" d="M991 555v-123l-893 -465v248l568 279l-568 278v248z" />
<glyph unicode="?" horiz-adv-x="966" d="M590 813q78 82 78 191q0 80 -47.5 131t-133.5 51t-151.5 -59.5t-97.5 -125.5l-132 138q16 37 42 72.5t72 82.5t118 77t156 30q176 0 292.5 -105.5t116.5 -304.5q0 -180 -182 -356l-19 -19q-51 -51 -71.5 -75.5t-36.5 -73.5t-16 -119h-222q0 158 38 229.5t196 235.5z M346 0v217h238v-217h-238z" />
<glyph unicode="@" horiz-adv-x="1464" d="M1255 184l54 -88q-94 -113 -244 -179.5t-299 -66.5q-303 0 -494.5 212t-191.5 561q0 344 193.5 559t476.5 215q131 0 239.5 -39t179 -103.5t120.5 -147.5t71.5 -170t21.5 -173q0 -150 -38.5 -266.5t-101 -183t-130.5 -99.5t-135 -33q-63 0 -101 42t-45 100 q-104 -102 -192 -103q-266 0 -266 303q0 193 105.5 328t228.5 135q117 0 159 -69q2 8 4 26.5t4 26.5h209l-92 -500q-12 -16 -4 -71.5t51 -55.5q18 0 49 23.5t64 69.5t55.5 129t22.5 186q0 246 -142.5 372.5t-336.5 126.5q-223 0 -366.5 -174t-143.5 -454q0 -287 141 -464 t391 -177q229 -1 483 202zM760 831q-121 0 -166 -233q-6 -41 -6 -82q0 -141 67 -141q35 0 82 35.5t62 97.5l32 235q6 49 -20 68.5t-51 19.5z" />
<glyph unicode="A" horiz-adv-x="1226" d="M264 0h-254l488 1380h231l488 -1380h-254l-107 311h-487zM614 1094l-180 -576h357z" />
<glyph unicode="B" horiz-adv-x="1099" d="M662 590h-314v-381h314q76 0 118.5 54t42.5 128q0 80 -42.5 139.5t-118.5 59.5zM1006 1001q0 -31 -8.5 -72.5t-47.5 -105t-100 -96.5q90 -23 151.5 -125t61.5 -213q0 -145 -94.5 -267t-263.5 -122h-599v1380h543q178 0 267.5 -109.5t89.5 -269.5zM348 799h289 q66 0 98.5 59.5t32.5 120.5q0 88 -38 140t-116 52h-266v-372z" />
<glyph unicode="C" horiz-adv-x="1093" d="M63 690q0 305 165 509t440 204q236 0 379 -90l-60 -183q-145 61 -282 62q-104 0 -184.5 -44t-125.5 -118t-66.5 -159t-21.5 -181q0 -207 98.5 -356.5t299.5 -149.5q137 0 288 62l54 -183q-143 -90 -379 -90q-274 0 -439.5 205t-165.5 512z" />
<glyph unicode="D" horiz-adv-x="1200" d="M551 0h-445v1380h445q287 0 445.5 -175t158.5 -515t-158.5 -515t-445.5 -175zM346 209h211q160 0 260.5 120t100.5 361q0 248 -99.5 364.5t-267.5 116.5h-205v-962z" />
<glyph unicode="E" horiz-adv-x="1021" d="M950 0h-844v1380h832v-209h-590v-370h545v-209h-545v-383h602v-209z" />
<glyph unicode="F" horiz-adv-x="956" d="M348 -2l-242 2v1380h795v-209h-553v-370h510v-209h-510v-594z" />
<glyph unicode="G" horiz-adv-x="1222" d="M922 551h-236v213h463v-678q-74 -49 -203 -81t-231 -32q-295 0 -473.5 206t-178.5 511t178.5 509t473.5 204q236 0 407 -127l-82 -176q-66 49 -148.5 71.5t-135.5 22.5q-152 0 -257.5 -78t-148.5 -187.5t-43 -238.5q0 -94 26.5 -182t78 -161t135.5 -118t188 -45 q84 0 191 37h-4v330z" />
<glyph unicode="H" horiz-adv-x="1189" d="M842 623h-494v-623h-242v1380h242v-546h494v546h239v-1380h-239v623z" />
<glyph unicode="I" horiz-adv-x="487" d="M125 0v1380h237v-1380h-237z" />
<glyph unicode="J" horiz-adv-x="782" d="M10 70l58 188q121 -78 241 -78q49 0 86 21h-2q47 37 47 194v985h236v-997q0 -223 -97.5 -316.5t-248.5 -93.5q-59 0 -144 19q-76 19 -176 78z" />
<glyph unicode="K" horiz-adv-x="1087" d="M1079 0h-284l-363 559l-43 -65l-43 -64h2v-430h-242v1380h242v-594l383 594h270l-417 -622h2z" />
<glyph unicode="L" horiz-adv-x="964" d="M348 1380v-1169h553v-211h-795v1380h242z" />
<glyph unicode="M" horiz-adv-x="1523" d="M664 0l-299 940l-52 -940h-241l61 1380h311l318 -989l317 989h314l57 -1380h-240l-49 942l-303 -942h-194z" />
<glyph unicode="N" horiz-adv-x="1200" d="M795 0l-449 1022v-1022h-240v1380h314l434 -1007v1007h238v-1380h-297z" />
<glyph unicode="O" horiz-adv-x="1294" d="M645 -27q-270 0 -426 191.5t-156 525.5t156 523.5t426 189.5q272 0 429 -189.5t157 -523.5t-158 -525.5t-428 -191.5zM645 1198q-160 0 -246 -145.5t-86 -362.5q0 -225 85 -368.5t247 -143.5q164 0 250 142.5t86 369.5q0 217 -87 362.5t-249 145.5z" />
<glyph unicode="P" horiz-adv-x="1050" d="M664 512h-316v-512h-242v1380h545q100 0 175 -42t116 -111.5t60.5 -143t19.5 -151.5q0 -25 -4 -60.5t-24.5 -103.5t-55.5 -121t-106.5 -94t-167.5 -41zM348 723h291q53 0 89 42t47 88t11 87q0 96 -45 163.5t-133 67.5h-260v-448z" />
<glyph unicode="Q" horiz-adv-x="1275" d="M645 -27q-260 0 -421 193.5t-161 523.5q0 334 156 523.5t426 189.5q272 0 429 -189.5t157 -523.5q0 -195 -70.5 -354.5t-185.5 -257.5q70 -59 147 -60h95v-192h-89q-209 2 -317 125l-20 22h-146zM645 1198q-160 0 -246 -145.5t-86 -362.5q0 -225 85 -366.5t247 -141.5 q164 0 250 141.5t86 366.5q0 217 -87 362.5t-249 145.5z" />
<glyph unicode="R" horiz-adv-x="1103" d="M1022 940q0 -18 -7 -53t-26.5 -89.5t-67 -107.5t-110.5 -86q90 -39 127 -151l141 -453h-252l-108 350q-49 180 -168 180h-203v-530h-242v1380h527q113 0 193.5 -41t120.5 -109.5t57.5 -139t17.5 -150.5zM348 739h291q78 0 111.5 64.5t33.5 134.5q0 98 -38.5 165.5 t-122.5 67.5h-275v-432z" />
<glyph unicode="S" d="M729 1362q109 -45 201 -129l-82 -178q-156 141 -350 141q-70 0 -118 -42t-56 -103q-1 -10 -1 -19q0 -103 126 -160l299 -137q119 -57 176 -151.5t57 -192.5q0 -193 -129 -303.5t-311 -110.5q-285 0 -496 205l98 178q78 -78 187.5 -124t212.5 -46q139 0 190 127 q10 28 10 55q0 33 -15 63q-28 56 -83 89l-323 148q-127 59 -186.5 151t-59.5 189q0 180 129 285.5t303 105.5q110 0 221 -41z" />
<glyph unicode="T" horiz-adv-x="985" d="M975 1171h-363v-1171h-239v1171h-363v209h965v-209z" />
<glyph unicode="U" horiz-adv-x="1232" d="M616.5 -27q-249.5 0 -380 148.5t-130.5 494.5v764h242v-768q0 -215 63.5 -314t205 -99t205 99t63.5 314v768h241v-764q0 -348 -130 -495.5t-379.5 -147.5z" />
<glyph unicode="V" horiz-adv-x="1138" d="M10 1380h246l313 -1095l316 1095h241l-442 -1380h-229z" />
<glyph unicode="W" horiz-adv-x="1658" d="M946 1331l225 -944l228 993h250l-361 -1380h-233l-226 924l-225 -924h-233l-361 1380h248l229 -991l226 942h233z" />
<glyph unicode="X" horiz-adv-x="1161" d="M872 0l-292 500l-293 -500h-277l441 682l-420 698h274l275 -516l276 516h274l-419 -698l438 -682h-277z" />
<glyph unicode="Y" horiz-adv-x="1167" d="M709 0h-246v483l-453 897h277l299 -684l295 684h276l-448 -895v-485z" />
<glyph unicode="Z" horiz-adv-x="1064" d="M989 0h-944v201l672 970h-643v209h946v-194l-682 -973h651v-213z" />
<glyph unicode="[" horiz-adv-x="571" d="M473 1198h-156v-1409h156v-182h-375v1773h375v-182z" />
<glyph unicode="\" horiz-adv-x="667" d="M453 0l-408 1380h174l404 -1380h-170z" />
<glyph unicode="]" horiz-adv-x="571" d="M254 1198h-156v182h375v-1773h-375v182h156v1409z" />
<glyph unicode="^" horiz-adv-x="829" d="M63 752l269 628h168l266 -628h-221l-131 360l-41 -115l-88 -245h-222z" />
<glyph unicode="_" horiz-adv-x="1122" d="M63 -63h996v-191h-996v191z" />
<glyph unicode="`" horiz-adv-x="546" d="M322 1430l161 -310h-198l-219 310h256z" />
<glyph unicode="a" horiz-adv-x="903" d="M813 0h-242v113q-41 -76 -115.5 -108t-133.5 -32q-98 0 -187.5 78t-89.5 219q0 164 141.5 266.5t391.5 122.5v25q-6 152 -154 152q-123 0 -260 -82l-60 159q0 4 38 28t120 49.5t172 25.5q2 -2 22 1q6 1 13 1q17 0 40 -5q34 -7 74 -14.5t81 -33t74.5 -58.5t54 -89 t20.5 -128v-690zM391 162q16 0 43 7t61.5 24.5t58.5 57.5t24 93v143q-137 -14 -226 -70q-86 -55 -86 -135q0 -57 38 -89q36 -31 87 -31z" />
<glyph unicode="b" horiz-adv-x="983" d="M334 1380v-477q37 59 93 87t105 28q174 0 285 -134t111 -388q0 -256 -101.5 -389.5t-271.5 -133.5q-12 0 -34.5 5.5t-59.5 17.5t-73 43t-56 74v-113h-234v1380h236zM485 821q-47 0 -99 -47t-52 -141v-281q0 -180 182 -180q88 0 128 93t40 231q0 325 -199 325z" />
<glyph unicode="c" horiz-adv-x="831" d="M55 495.5q0 243.5 119 383t326 139.5q164 0 286 -76l-45 -180q-129 53 -213 53q-121 0 -181 -91t-60 -228.5t60.5 -230.5t180.5 -93q68 0 213 57l45 -180q-123 -76 -286 -76q-207 0 -326 139.5t-119 383z" />
<glyph unicode="d" horiz-adv-x="983" d="M649 903v477h236v-1380h-234v113q-20 -43 -56 -74t-73 -43t-59.5 -17.5t-34.5 -5.5q-170 0 -271.5 133.5t-101.5 389.5q0 254 110.5 388t285.5 134q49 0 105 -28t93 -87zM498 821q-199 0 -199 -325q0 -137 40 -230.5t128 -93.5q182 0 182 180v281q0 94 -52 141t-99 47z " />
<glyph unicode="e" horiz-adv-x="956" d="M496 -25q-188 0 -314.5 141.5t-126.5 379.5q0 229 115 375.5t309.5 146.5t308 -136.5t113.5 -371.5q0 -23 -4 -68q0 -6 -1 -19t-1 -17h-608q18 -100 76.5 -166t146.5 -66q129 0 289 76l49 -176q-137 -99 -352 -99zM479 819q-72 0 -124 -68.5t-56 -158.5h373 q-2 100 -59.5 163.5t-133.5 63.5z" />
<glyph unicode="f" horiz-adv-x="505" d="M10 991h101v86q0 94 23.5 161t51 97.5t71.5 48t65.5 18.5t52.5 1h8q78 0 164 -55l-25 -154q-76 35 -114 35q-61 0 -62 -117v-121h156v-174h-156v-817h-235v817h-101v174z" />
<glyph unicode="g" horiz-adv-x="987" d="M500 172q16 0 37.5 6t49 20.5t46 46t18.5 77.5v317q0 180 -182 180q-88 0 -128 -93t-40 -230q0 -324 199 -324zM653 -33v123q-37 -59 -96 -88t-119 -29q-147 0 -265 138.5t-118 384.5q0 252 110.5 387t276.5 135q20 0 49 -5t81.5 -38t80.5 -86v102h236v-1052 q0 -92 -35 -160t-95.5 -103.5t-128 -52t-145.5 -16.5q-98 0 -194 29.5t-141 68.5l51 178q51 -37 129 -63.5t145 -26.5q172 0 178 174z" />
<glyph unicode="h" horiz-adv-x="980" d="M883 580v-580h-236v580q0 240 -131 239q-23 0 -49.5 -8t-59 -30.5t-53 -73t-20.5 -121.5v-586h-236v1380h236v-481q41 66 105.5 92.5t119.5 26.5q160 0 242 -104.5t82 -333.5z" />
<glyph unicode="i" horiz-adv-x="434" d="M98 0v991h238v-991h-238zM98 1143v237h238v-237h-238z" />
<glyph unicode="j" horiz-adv-x="446" d="M348 991v-1059q0 -94 -23.5 -160.5t-53 -98t-72.5 -48t-66.5 -17.5t-52.5 -1q-82 0 -174 55l24 156q86 -39 127 -39q55 0 56 162v1050h235zM113 1143v237h235v-237h-235z" />
<glyph unicode="k" horiz-adv-x="913" d="M537 612l366 -612h-264l-256 457l-43 -47h2v-410h-236v1380h236v-680l240 291h276l-323 -379h2z" />
<glyph unicode="l" horiz-adv-x="434" d="M98 0v1380h238v-1380h-238z" />
<glyph unicode="m" horiz-adv-x="1433" d="M602 0v608q0 211 -133 211q-51 0 -92 -59.5t-41 -198.5v-561h-238v991h228v-117q74 143 225 144q57 0 125.5 -35t105.5 -102q84 137 242 137q311 0 311 -408v-610h-235v578q0 123 -30 182t-101 59q-10 0 -22.5 -2t-34 -14t-38 -32.5t-28.5 -62.5t-12 -98v-610h-232z" />
<glyph unicode="n" horiz-adv-x="980" d="M883 575v-575h-236v575q0 244 -131 244q-23 0 -48.5 -9t-58 -31.5t-54 -74t-21.5 -122.5v-582h-236v991h226v-125q47 92 109.5 122t156.5 30q293 -1 293 -443z" />
<glyph unicode="o" horiz-adv-x="968" d="M55 495.5q0 241.5 115 382t311 140.5q201 0 316.5 -140.5t115.5 -382t-115.5 -382t-316.5 -140.5q-197 0 -311.5 140.5t-114.5 382zM680 496q0 131 -54.5 229t-144.5 98t-141 -97t-51 -230.5t51 -230.5t141 -97t144.5 98.5t54.5 229.5z" />
<glyph unicode="p" horiz-adv-x="983" d="M334 100v-493h-236v1384h234v-104q74 131 237 131q162 0 260.5 -132t98.5 -388t-103.5 -390.5t-273.5 -134.5q-59 0 -120.5 28.5t-96.5 98.5zM485 170q199 0 199 328q0 137 -40 229t-128 92q-182 0 -182 -178v-297q0 -88 55 -131t96 -43z" />
<glyph unicode="q" horiz-adv-x="983" d="M649 -393v493q-35 -70 -96 -98.5t-121 -28.5q-170 0 -273.5 134.5t-103.5 390.5t98.5 388t260.5 132q164 0 237 -131v104h234v-1384h-236zM498 170q41 0 96 43t55 131v297q0 178 -182 178q-88 0 -128 -92t-40 -229q0 -328 199 -328z" />
<glyph unicode="r" horiz-adv-x="634" d="M621 1008v-205h-101q-88 0 -134 -63.5t-46 -170.5v-569h-234v991h228v-127q70 143 215 144h72z" />
<glyph unicode="s" horiz-adv-x="829" d="M436 176q78 0 113 70q6 19 6 35q0 35 -31 55l-84 38l-113 50q-56 25 -69 29q-188 92 -188 260q0 141 100 223t242 82q182 0 344 -129l-82 -162q-49 43 -124 71.5t-130 28.5q-45 0 -80 -29.5t-39 -66.5q-2 -43 22.5 -62.5t100.5 -50.5q86 -33 176 -73q182 -92 182 -258 q0 -72 -28 -133q-35 -84 -119 -130.5t-201 -46.5q-96 0 -194 35q-111 37 -195 127l96 168q131 -131 295 -131z" />
<glyph unicode="t" horiz-adv-x="614" d="M147 817h-133v174h133v238h234v-238h184v-174h-184v-512q0 -133 70 -133q33 0 118 31l17 -176q-86 -51 -166 -52q-33 0 -56.5 1t-67.5 17.5t-72.5 48.5t-52.5 98.5t-24 160.5v516z" />
<glyph unicode="u" horiz-adv-x="980" d="M98 416v575h236v-575q0 -246 131 -246q18 0 40.5 6t58.5 23.5t59.5 63.5t23.5 116v612h236v-991h-226v113q-35 -57 -94 -91t-92 -41.5t-49 -7.5q-133 0 -228.5 107t-95.5 336z" />
<glyph unicode="v" horiz-adv-x="974" d="M604 0h-233l-361 991h248l229 -731l230 731h246z" />
<glyph unicode="w" horiz-adv-x="1402" d="M10 991h248l162 -674l160 674h243l162 -672l162 672h246l-293 -991h-213l-185 680l-182 -680h-215z" />
<glyph unicode="x" horiz-adv-x="956" d="M657 991h265l-304 -489l326 -502h-264l-203 344l-201 -344h-266l326 502l-305 489h266l180 -332z" />
<glyph unicode="y" horiz-adv-x="974" d="M139 -354l25 184q82 -29 98 -29q33 0 60 54l57 165l-105 277l-264 694h248l236 -651l223 651h246l-439 -1216q-25 -68 -77 -109t-91 -50t-73 -9q-54 0 -144 39z" />
<glyph unicode="z" horiz-adv-x="833" d="M37 0v168l473 627h-455v196h742v-168l-473 -626h456v-197h-743z" />
<glyph unicode="{" horiz-adv-x="655" d="M279 494q55 -18 105 -94t48 -169v-346q0 -104 66 -104h94v-174h-143q-78 0 -148 68.5t-70 170.5l2 359q0 104 -25.5 158.5t-109.5 64.5v131q84 10 109.5 64.5t25.5 158.5l-2 359q0 102 70 170.5t148 68.5h143v-174h-94q-66 0 -66 -104v-346q2 -90 -46 -162.5t-107 -99.5z " />
<glyph unicode="|" horiz-adv-x="380" d="M98 -180v1720h185v-1720h-185z" />
<glyph unicode="}" horiz-adv-x="655" d="M375 494q-57 27 -106.5 99.5t-47.5 162.5v346q0 104 -65 104h-93v174h142q78 0 147.5 -68.5t69.5 -170.5l-2 -359q0 -102 26.5 -157.5t110.5 -65.5v-131q-84 -10 -110.5 -65.5t-26.5 -157.5l2 -359q0 -102 -69.5 -170.5t-147.5 -68.5h-142v174h93q66 0 65 104v346 q-2 92 48.5 168.5t105.5 94.5z" />
<glyph unicode="~" horiz-adv-x="876" d="M313 745q49 0 136 -40q78 -37 110 -37q20 0 47 26.5t43 81.5h164q-18 -78 -27.5 -110.5t-30 -83t-44 -69.5t-63.5 -35.5t-93 -16.5q-45 0 -135 43q-78 37 -107 37q-18 0 -45.5 -31t-46.5 -84h-158q14 66 22.5 98.5t24 76.5t31 64.5t40 42t57 29.5t75.5 8z" />
<glyph unicode="&#xa2;" horiz-adv-x="831" d="M428 1014v157h158v-159q102 -14 200 -70l-45 -180q-129 53 -213 53q-121 0 -181 -91t-60 -228.5t60.5 -230.5t180.5 -93q68 0 213 57l45 -180q-78 -51 -200 -69v-177h-158v174h6q-178 20 -278.5 158.5t-100.5 360t100.5 358.5t278.5 160h-6z" />
<glyph unicode="&#xa3;" horiz-adv-x="950" d="M440 676v-469h447v-207h-795v207h109v469h-138v184h138v58q0 209 94 323.5t221 138.5q25 6 92 6q158 0 275 -90l-62 -172q-104 74 -213 74q-82 0 -125 -77t-43 -203v-58h285v-184h-285z" />
<glyph unicode="&#xa5;" horiz-adv-x="1030" d="M631 0h-230v221h-276v174h276v107h-276v174h225l-332 704h258l240 -589l240 589h256l-332 -704h223v-174h-272v-107h272v-174h-272v-221z" />
<glyph unicode="&#xa9;" horiz-adv-x="1374" d="M61 688q0 297 183.5 506t443.5 209q258 0 441.5 -209t183.5 -506t-183.5 -506t-441.5 -209q-260 0 -443.5 209t-183.5 506zM199 686q0 -242 144 -412t349 -170t350.5 170t145.5 412t-145.5 412t-350.5 170t-349 -170t-144 -412zM354 684q0 -178 97.5 -296t257.5 -118 q141 0 219 49l-33 105q-92 -37 -168 -37q-121 0 -175 85t-54 212q0 125 55 211t176 86q80 0 162 -39l37 107q-78 49 -219 49q-160 0 -257.5 -118t-97.5 -296z" />
<glyph unicode="&#xad;" horiz-adv-x="768" d="M705 416h-642v235h642v-235z" />
<glyph unicode="&#xae;" horiz-adv-x="1374" d="M965 844q0 -147 -121 -195h2q43 -25 69 -94l86 -258h-145l-86 252q-29 57 -68 57h-131v-309h-139v799h309q86 0 139.5 -42t69 -94.5t15.5 -115.5zM571 723h172q86 0 86 121q0 139 -94 139h-164v-260zM61 688q0 297 183.5 506t443.5 209q258 0 441.5 -209t183.5 -506 t-183.5 -506t-441.5 -209q-260 0 -443.5 209t-183.5 506zM199 686q0 -242 144 -412t349 -170t350.5 170t145.5 412t-145.5 412t-350.5 170t-349 -170t-144 -412z" />
<glyph unicode="&#xb4;" horiz-adv-x="546" d="M63 1120l162 310h256l-219 -310h-199z" />
<glyph unicode="&#x2000;" horiz-adv-x="784" />
<glyph unicode="&#x2001;" horiz-adv-x="1569" />
<glyph unicode="&#x2002;" horiz-adv-x="784" />
<glyph unicode="&#x2003;" horiz-adv-x="1569" />
<glyph unicode="&#x2004;" horiz-adv-x="523" />
<glyph unicode="&#x2005;" horiz-adv-x="392" />
<glyph unicode="&#x2006;" horiz-adv-x="261" />
<glyph unicode="&#x2007;" horiz-adv-x="261" />
<glyph unicode="&#x2008;" horiz-adv-x="196" />
<glyph unicode="&#x2009;" horiz-adv-x="313" />
<glyph unicode="&#x200a;" horiz-adv-x="87" />
<glyph unicode="&#x2010;" horiz-adv-x="768" d="M705 416h-642v235h642v-235z" />
<glyph unicode="&#x2011;" horiz-adv-x="768" d="M705 416h-642v235h642v-235z" />
<glyph unicode="&#x2012;" horiz-adv-x="768" d="M705 416h-642v235h642v-235z" />
<glyph unicode="&#x2013;" horiz-adv-x="1005" d="M63 647h879v-205h-879v205z" />
<glyph unicode="&#x2014;" horiz-adv-x="1327" d="M63 647h1201v-203h-1201v203z" />
<glyph unicode="&#x2018;" horiz-adv-x="579" d="M500 1380l-172 -379h-248l221 379h199z" />
<glyph unicode="&#x2019;" horiz-adv-x="581" d="M80 1004l172 376h248l-221 -376h-199z" />
<glyph unicode="&#x201c;" horiz-adv-x="892" d="M326 1380l174 -376h-199l-221 376h246zM641 1380l172 -376h-197l-221 376h246z" />
<glyph unicode="&#x201d;" horiz-adv-x="892" d="M393 1004l174 376h246l-221 -376h-199zM80 1004l172 376h246l-222 -376h-196z" />
<glyph unicode="&#x2022;" horiz-adv-x="616" d="M80 618.5q0 102.5 65.5 172t161.5 69.5t162 -70.5t66 -171t-66 -170t-162 -69.5t-161.5 68.5t-65.5 171z" />
<glyph unicode="&#x2026;" horiz-adv-x="1202" d="M80 0v240h237v-240h-237zM483 0v240h236v-240h-236zM887 0v240h235v-240h-235z" />
<glyph unicode="&#x202f;" horiz-adv-x="313" />
<glyph unicode="&#x205f;" horiz-adv-x="392" />
<glyph unicode="&#x20ac;" horiz-adv-x="1179" d="M31 465l57 164h139q-4 27 0 49q0 4 1 15.5t1 15.5h-200l59 161h156q51 227 203.5 367.5t375.5 140.5q156 0 293 -84l-74 -170q-86 55 -182 56q-145 0 -238.5 -86t-134.5 -224h502l-67 -161h-463q0 -4 -1 -15.5t-1 -13.5q0 -31 2 -51h448l-67 -164h-344q41 -125 134 -206 t230 -81q82 0 201 72l55 -184q-78 -47 -140.5 -68t-152.5 -21q-213 0 -365.5 136.5t-207.5 351.5h-219z" />
<glyph unicode="&#x2122;" horiz-adv-x="1421" d="M557 1255h-174v-694h-147v694h-216v125h736l188 -581l184 581h193l37 -819h-152l-28 545l-177 -545h-120l-174 549l-29 -549h-150z" />
<glyph unicode="&#xe000;" horiz-adv-x="990" d="M0 990h990v-990h-990v990z" />
<glyph unicode="&#xfb01;" horiz-adv-x="940" d="M604 0v817h-258v-817h-237l2 817h-101v174h101v86q0 94 23.5 161t51 97.5t71.5 48t65.5 18.5t52.5 1h8q78 0 164 -55l-25 -154q-76 35 -114 35q-61 0 -62 -117v-121h496v-991h-238z" />
<glyph unicode="&#xfb02;" horiz-adv-x="940" d="M604 0v1206h-196q-61 0 -62 -116v-99h156v-174h-156v-817h-237l2 817h-101v174h101v64q0 92 24.5 158.5t56 97t76.5 48t66.5 19.5t48.5 2h459v-1380h-238z" />
<glyph unicode="&#xfb03;" horiz-adv-x="1445" d="M10 991h101v86q0 94 23.5 161t51 97.5t71.5 48t65.5 18.5t52.5 1h8q78 0 164 -55l-25 -154q-76 35 -114 35q-61 0 -62 -117v-121h270v86q0 94 24 161t51.5 97.5t71.5 48t65.5 18.5t52.5 1h8q78 0 166 -55l-25 -154q-76 35 -117 35q-61 0 -61 -117v-121h496v-991h-236v817 h-260v-817h-236v817h-270v-817h-237l2 817h-101v174z" />
<glyph unicode="&#xfb04;" horiz-adv-x="1445" d="M1112 0v1229h-199q-61 0 -61 -117v-121h158v-174h-158v-817h-236v817h-270v-817h-237l2 817h-101v174h101v86q0 94 23.5 161t51 97.5t71.5 48t65.5 18.5t52.5 1h8q78 0 164 -55l-25 -154q-76 35 -114 35q-61 0 -62 -117v-121h270v86q0 92 25 159t56.5 97.5t76.5 48 t66.5 19.5t48.5 2h459v-1403h-236z" />
</font>
</defs>
</svg>
