<?xml version="1.0" standalone="no"?>
<!DOCTYPE svg PUBLIC "-//W3C//DTD SVG 1.1//EN" "http://www.w3.org/Graphics/SVG/1.1/DTD/svg11.dtd" >
<svg xmlns="http://www.w3.org/2000/svg">
<metadata>
This is a custom SVG webfont generated by Fontspring.
</metadata>
<defs>
<font id="webfont5r2ypUey" horiz-adv-x="1167" >
<font-face units-per-em="2048" ascent="1536" descent="-512" />
<missing-glyph horiz-adv-x="569" />
<glyph unicode=" "  horiz-adv-x="569" />
<glyph unicode="&#x09;" horiz-adv-x="569" />
<glyph unicode="&#xa0;" horiz-adv-x="569" />
<glyph unicode="!" horiz-adv-x="409" d="M193 291l145 1089h123l-162 -1089h-106zM143 0l23 156h121l-23 -156h-121z" />
<glyph unicode="&#x22;" horiz-adv-x="600" d="M229 795l68 585h117l-95 -585h-90zM506 795l69 585h117l-96 -585h-90z" />
<glyph unicode="#" horiz-adv-x="1169" d="M741 1380h107l-180 -389h288l181 389h102l-178 -389h196l-12 -94h-229l-174 -381h217l-15 -94h-245l-197 -422h-96l192 422h-284l-203 -422h-100l192 422h-192l12 94h221l174 381h-223l14 94h252zM627 897l-174 -381h288l174 381h-288z" />
<glyph unicode="$" horiz-adv-x="1122" d="M483 -186l23 168q-250 23 -424 170q10 12 34.5 48t35.5 48q80 -68 200.5 -114t247.5 -46q117 0 222.5 54.5t144.5 156.5q70 178 -125 270l-398 156q-123 47 -175 142.5t-17 228.5q39 129 162 213t293 92l20 153h100l-20 -153q219 -16 360 -133l-61 -97q-164 119 -373 119 q-274 0 -356 -205q-12 -33 -12 -62.5t6 -52t23.5 -44t33.5 -34.5t46 -29.5t49 -24.5l55 -23l337 -139q88 -35 136.5 -93.5t57.5 -108.5t1 -103q-29 -176 -173 -282.5t-331 -111.5l-22 -163h-101z" />
<glyph unicode="%" horiz-adv-x="1746" d="M385 0l1010 1380h96l-1008 -1380h-98zM223 985q0 180 104.5 290.5t264.5 110.5q125 0 198.5 -77.5t73.5 -212.5q0 -182 -105.5 -292t-262.5 -110q-125 0 -199 78t-74 213zM748 1094q0 188 -170 188q-240 0 -240 -295q0 -186 172 -186q125 0 181.5 82t56.5 211zM1075 266 q0 180 104.5 291t264.5 111q123 0 197.5 -78t74.5 -213q0 -182 -106.5 -292t-263.5 -110q-125 0 -198 78t-73 213zM1597 375q0 188 -167 188q-240 0 -240 -295q0 -186 172 -186q125 0 180 82t55 211z" />
<glyph unicode="&#x26;" horiz-adv-x="1239" d="M252 326q0 -121 78 -187.5t229 -66.5q223 0 375 235l-326 371q-137 -25 -246.5 -117t-109.5 -235zM928 1110q4 86 -46.5 141.5t-148.5 55.5t-164.5 -59.5t-85.5 -135.5q-20 -121 24 -194.5t140 -131.5q139 66 202 135.5t79 188.5zM727 723l274 -322q66 109 91 279h106 q-25 -217 -119 -344q76 -92 109 -166t20 -170h-110v30v26q0 7 -1 23.5t-4 26t-9.5 25.5t-15.5 31.5t-23.5 36t-32.5 43.5q-162 -268 -467 -269q-207 0 -311.5 97.5t-104.5 244.5q0 305 391 428q-184 137 -155 340q25 162 135 241t245 79q133 0 224.5 -76t68.5 -231 q-32 -242 -311 -373z" />
<glyph unicode="'" horiz-adv-x="321" d="M229 795l68 585h117l-95 -585h-90z" />
<glyph unicode="(" horiz-adv-x="667" d="M547 -289q-217 12 -309.5 224t-34.5 628q57 397 208.5 598t368.5 219l-12 -94q-104 -12 -184 -64.5t-146.5 -160t-102.5 -298t-36 -454.5q0 -471 260 -499z" />
<glyph unicode=")" horiz-adv-x="667" d="M276 1380q213 -18 308.5 -218.5t40.5 -598.5q-57 -416 -210 -630t-374 -226l14 96q100 10 182 68.5t149 171.5t103.5 304.5t36.5 449.5q0 256 -69.5 364.5t-194.5 124.5z" />
<glyph unicode="*" horiz-adv-x="765" d="M580 1108l231 145l39 -71l-227 -127l186 -125l-53 -76l-191 147l-39 -274h-80l39 272l-237 -145l-31 76l221 125l-190 127l55 71l197 -143l39 270h79z" />
<glyph unicode="+" horiz-adv-x="1134" d="M776 1159l-61 -444h438l-16 -111h-439l-61 -438h-111l62 438h-422l16 111h422l62 444h110z" />
<glyph unicode="," horiz-adv-x="450" d="M18 -205l224 357h147l-258 -357h-113z" />
<glyph unicode="-" horiz-adv-x="817" d="M803 475h-653l16 119h653z" />
<glyph unicode="." horiz-adv-x="350" d="M102 0l25 176h145l-24 -176h-146z" />
<glyph unicode="/" horiz-adv-x="716" d="M842 1380l-672 -1380h-109l670 1380h111z" />
<glyph unicode="0" d="M573 -29q-190 0 -293.5 143.5t-103.5 401.5q0 389 163 622.5t431 233.5q197 0 302.5 -142.5t105.5 -402.5q0 -389 -164.5 -622.5t-440.5 -233.5zM756 1270q-143 0 -252 -113t-160 -277.5t-51 -344.5q0 -203 73.5 -333t221.5 -130q152 0 262.5 113.5t158.5 275.5t48 344 q0 203 -73.5 334t-227.5 131z" />
<glyph unicode="1" d="M578 999l-52 86l318 265h137l-188 -1350h-121l170 1223z" />
<glyph unicode="2" d="M780 1260q-104 0 -208.5 -55.5t-165.5 -119.5l-62 86q59 70 178 135.5t266 65.5q178 0 285 -94t107 -242q0 -225 -215 -374q-68 -47 -202 -123l-222 -129q-88 -53 -166 -134t-92 -163h761l-16 -113h-899l6 47q23 113 75 202t135 154.5t160 111.5l188.5 107.5t180.5 108.5 q100 68 141.5 133.5t41.5 147.5q0 94 -75 171t-202 77z" />
<glyph unicode="3" d="M578 -29q-262 0 -410 168l63 82q150 -139 351 -139q170 0 269 89t99 210q0 104 -77.5 178t-223.5 74h-86l17 115h77q170 0 267.5 83.5t97.5 196.5q0 98 -75 168t-208 70q-188 0 -340 -138q-39 80 -39 82q53 57 157 109.5t249 52.5q166 0 269.5 -84t103.5 -237 q0 -117 -86 -230.5t-238 -130.5q115 -4 186.5 -91t71.5 -204q0 -184 -152.5 -306t-342.5 -118z" />
<glyph unicode="4" d="M879 0h-115l41 293h-674l16 113l75 107q38 54 85 114l80 102q33 43 91 112l85 99l95 108l87 97l97 106q78 86 88 99h139l-135 -955h196l-14 -102h-196zM264 395h555l115 809q-455 -469 -670 -809z" />
<glyph unicode="5" d="M985 473q0 133 -73.5 223t-213.5 90q-88 0 -155.5 -21.5t-128.5 -88.5h-142q37 125 96 360l78 314h680l-16 -113h-582l-110 -440q106 98 295 98q168 0 276.5 -110.5t108.5 -288.5q0 -248 -160 -384.5t-395 -136.5q-135 0 -222.5 47.5t-160.5 137.5l71 112 q41 -82 123 -136t183 -54q133 0 227 40t139 105.5t63.5 125t18.5 120.5z" />
<glyph unicode="6" d="M1116 1319l-43 -92q-111 49 -199 49q-225 0 -362 -160t-178 -444q131 215 399 215q176 0 274.5 -106.5t98.5 -284.5q0 -242 -146.5 -382.5t-365.5 -140.5q-113 0 -194 47.5t-121.5 126t-58 160.5t-17.5 174q0 428 184 659.5t469 231.5q154 0 260 -53zM604 76 q123 0 214 66.5t131 153.5t40 175q0 125 -68.5 218t-220.5 93q-172 0 -275 -118.5t-103 -280.5q0 -135 74.5 -221t207.5 -86z" />
<glyph unicode="7" d="M305 1237l17 113h905l-19 -129q-504 -549 -815 -1221h-141q213 406 392 684.5t439 552.5h-778z" />
<glyph unicode="8" d="M580 -29q-207 0 -312.5 90.5t-105.5 231.5q0 43 14 95t49 119.5t111 123t180 76.5q-106 12 -157.5 95t-51.5 185q0 152 112.5 258.5t252.5 120.5q47 6 104 6l101 -6q113 -10 192.5 -93t79.5 -206q0 -117 -81 -231.5t-220 -128.5q139 -31 195.5 -127.5t56.5 -196.5 q0 -174 -135 -293t-385 -119zM674 643q-184 -2 -288.5 -97t-104.5 -220q0 -109 81.5 -184.5t229.5 -75.5q176 0 284.5 97t108.5 222q0 109 -79.5 182.5t-231.5 75.5zM762 1278q-164 0 -251 -86t-87 -203q0 -223 266 -223q150 0 235 68.5t103 193.5q14 102 -51 176t-215 74z " />
<glyph unicode="9" d="M242 27l43 92q106 -49 198 -49q225 0 362.5 159.5t176.5 444.5q-129 -215 -397 -215q-176 0 -275.5 106.5t-99.5 284.5q0 242 147.5 382t366.5 140q113 0 193.5 -47t121.5 -126t58.5 -161t17.5 -174q0 -428 -184.5 -659.5t-468.5 -231.5q-154 1 -260 54zM754 1270 q-123 0 -214 -66.5t-131 -153.5t-40 -176q0 -125 68.5 -218t219.5 -93q172 0 275.5 119t103.5 281q0 135 -75.5 221t-206.5 86z" />
<glyph unicode=":" horiz-adv-x="329" d="M217 815l25 176h127l-25 -176h-127zM102 0l25 176h127l-25 -176h-127z" />
<glyph unicode=";" horiz-adv-x="512" d="M377 815l24 176h127l-24 -176h-127zM55 -205l224 357h147l-258 -357h-113z" />
<glyph unicode="&#x3c;" d="M1180 969l-17 -115l-882 -360l782 -361l-16 -117l-922 439l10 80z" />
<glyph unicode="=" horiz-adv-x="1181" d="M1198 834h-977l15 104h976zM1141 432h-977l14 105h977z" />
<glyph unicode="&#x3e;" d="M242 854l16 115l924 -434l-13 -80l-1044 -439l16 117l881 361z" />
<glyph unicode="?" horiz-adv-x="1060" d="M596 291h-107q14 88 31 142t64 111.5t93 97.5t157 128q174 131 174 289q0 106 -77 176t-220 70q-100 0 -189.5 -55.5t-146.5 -121.5q-16 12 -27.5 21.5t-24 22t-22.5 20.5q61 80 170 146.5t264 66.5q172 0 281.5 -86t109.5 -250q0 -109 -60 -205t-196 -196 q-143 -106 -198.5 -172t-69.5 -168zM446 0l23 156h121l-23 -156h-121z" />
<glyph unicode="@" horiz-adv-x="1765" d="M1505 111l31 -66q-127 -86 -305 -142.5t-344 -56.5q-336 0 -521.5 186.5t-185.5 479.5q0 240 128 446.5t337 325.5t442 119q176 0 313.5 -53.5t215.5 -140.5t118 -186t40 -206q0 -166 -56.5 -296t-145.5 -200.5t-180.5 -106.5t-177.5 -36q-61 0 -102 36t-29 116 q-129 -106 -303 -107q-229 0 -229 234q0 219 137 368.5t356 149.5q66 0 116 -32t67 -85q14 20 39 100h110l-184 -516q-31 -78 -14.5 -126t71.5 -48q63 0 132 29t136.5 88t111.5 170t44 254q0 242 -175 371t-423 129q-322 0 -555 -229.5t-233 -557.5q0 -268 165.5 -428 t430.5 -160q333 1 622 177zM1034 891q-244 0 -344 -291q-27 -76 -26 -141q0 -143 151 -144q225 0 291 170l84 254q10 76 -48.5 114t-107.5 38z" />
<glyph unicode="A" horiz-adv-x="1331" d="M145 0h-125l768 1380h144l379 -1380h-125l-90 336h-768zM844 1270l-459 -824h686z" />
<glyph unicode="B" horiz-adv-x="1214" d="M836 639h-494l-74 -528h494q154 0 242 87t88 203q0 100 -65.5 169t-190.5 69zM1010 709q92 -14 150.5 -102.5t58.5 -198.5q0 -147 -113 -277.5t-303 -130.5h-670l195 1380h596q162 0 239.5 -87t77.5 -216q0 -55 -15.5 -114.5t-70.5 -134t-145 -119.5zM358 752h471 q86 8 146.5 40.5t87.5 82t37 90.5t10 84q0 221 -246 221h-434z" />
<glyph unicode="C" horiz-adv-x="1204" d="M170 588q0 338 222 576.5t564 238.5q250 0 375 -60q-10 -20 -27 -51l-24 -41q-131 39 -289 39q-143 0 -262 -42t-197.5 -110.5t-133 -159.5t-78 -185.5t-23.5 -192.5q0 -102 28.5 -190t88 -163t164 -118t243.5 -43q168 0 305 39q4 -20 11.5 -51t9.5 -41 q-141 -59 -391 -60q-272 0 -429 174.5t-157 440.5z" />
<glyph unicode="D" horiz-adv-x="1345" d="M608 0h-475l195 1380h475q281 0 435.5 -144t154.5 -423q0 -391 -210 -602t-575 -211zM270 111h363q274 0 457.5 172t183.5 514q0 244 -129 358.5t-357 114.5h-356z" />
<glyph unicode="E" horiz-adv-x="1112" d="M1020 0h-887l195 1380h872l-16 -110h-754l-72 -516h699l-17 -113h-698l-74 -530h768z" />
<glyph unicode="F" horiz-adv-x="1028" d="M252 0h-119l195 1380h823l-16 -110h-705l-72 -516h650l-17 -113h-649z" />
<glyph unicode="G" horiz-adv-x="1372" d="M1257 596h-301l17 113h403l-90 -650q-162 -82 -471 -82q-301 0 -473 175.5t-172 445.5q0 336 237.5 570.5t608.5 234.5q254 0 401 -94l-63 -99q-61 41 -150.5 61.5t-152.5 20.5q-188 0 -338 -61.5t-238 -160.5t-133 -215t-45 -237q0 -217 142.5 -372.5t416.5 -155.5 q172 0 340 55z" />
<glyph unicode="H" horiz-adv-x="1318" d="M1161 670h-815l-94 -670h-119l195 1380h118l-84 -598h816l84 598h118l-194 -1380h-119z" />
<glyph unicode="I" horiz-adv-x="425" d="M154 0l194 1380h119l-195 -1380h-118z" />
<glyph unicode="J" horiz-adv-x="804" d="M27 39l41 96q119 -51 243 -51q96 0 154 29q68 35 99.5 93t47.5 171l142 1003h112l-143 -1018q-16 -111 -56 -188.5t-97.5 -118.5t-118 -59.5t-132.5 -18.5q-163 1 -292 62z" />
<glyph unicode="K" horiz-adv-x="1140" d="M1120 0h-155l-406 668l-248 -246l-59 -422h-119l195 1380h118l-112 -796l749 796h146l-582 -616z" />
<glyph unicode="L" horiz-adv-x="1038" d="M446 1380l-178 -1269h705l-17 -113h-823l195 1382h118z" />
<glyph unicode="M" horiz-adv-x="1705" d="M793 0l-363 1253l-217 -1253h-121l250 1380h166l364 -1249l715 1249h166l-139 -1380h-119l133 1253l-713 -1253h-122z" />
<glyph unicode="N" horiz-adv-x="1335" d="M1057 0l-631 1235l-174 -1235h-119l195 1380h166l610 -1228l174 1228h119l-195 -1380h-145z" />
<glyph unicode="O" horiz-adv-x="1464" d="M729 -27q-264 0 -412.5 159t-148.5 437q0 379 210 606.5t552 227.5q264 0 412.5 -156.5t148.5 -433.5q0 -381 -209 -610.5t-553 -229.5zM915 1298q-193 0 -335 -103t-210.5 -263t-68.5 -350q0 -225 111.5 -364.5t330.5 -139.5q289 0 453 205.5t164 507.5q0 221 -114 364 t-331 143z" />
<glyph unicode="P" horiz-adv-x="1150" d="M825 555h-495l-78 -555h-119l195 1380h600q117 0 192.5 -58t102 -135t26.5 -167q0 -31 -8 -78t-35.5 -117.5t-71.5 -128t-125.5 -99.5t-183.5 -42zM346 668h465q74 0 131 25.5t90 63.5t53.5 86t27.5 86t7 72q0 115 -62.5 192t-197.5 77h-430z" />
<glyph unicode="Q" horiz-adv-x="1443" d="M729 -27q-264 0 -412.5 159t-148.5 437q0 379 210 606.5t552 227.5q264 0 412.5 -156.5t148.5 -433.5q0 -274 -125 -478t-348 -312q45 -57 129 -89t178 -32h41l-12 -95h-33q-119 0 -213 31t-133 58.5t-92 76.5h-154zM915 1298q-193 0 -335 -103t-210.5 -263t-68.5 -350 q0 -225 111.5 -364.5t330.5 -139.5q289 0 453 205.5t164 507.5q0 221 -114 364t-331 143z" />
<glyph unicode="R" horiz-adv-x="1212" d="M936 614q59 -35 79.5 -67.5t45.5 -136.5q4 -20 11 -66.5t25.5 -130.5t51.5 -213h-127l-100 436q-31 139 -203 139h-387l-80 -575h-119l195 1380h577q188 0 267 -100t79 -244q0 -41 -11 -91t-40 -120.5t-97.5 -129t-166.5 -81.5zM348 686h465q88 0 154.5 35t100.5 88 t49.5 104.5t15.5 98.5q0 113 -61.5 185.5t-197.5 72.5h-444z" />
<glyph unicode="S" horiz-adv-x="1122" d="M748 1403q256 0 419 -135l-61 -97q-164 119 -373 119q-274 0 -356 -205q-12 -33 -12 -62.5t6 -52t22.5 -44t33.5 -34.5t46 -28.5t50 -24.5l55 -24l337 -139q88 -35 136.5 -93.5t57.5 -108.5q5 -27 5 -54q0 -24 -4 -49q-31 -180 -179.5 -287t-340.5 -107q-301 0 -508 175 q10 12 34.5 48t35.5 48q80 -68 200.5 -114t247.5 -46q117 0 222.5 54.5t144.5 156.5q18 47 18 88q0 115 -143 182l-398 156q-123 49 -175 144q-31 57 -31 128q0 47 14 99q41 137 176.5 222t319.5 85z" />
<glyph unicode="T" horiz-adv-x="1060" d="M1229 1270h-461l-178 -1270h-119l178 1270h-461l17 110h1040z" />
<glyph unicode="U" horiz-adv-x="1378" d="M684 -27q-270 0 -392 140q-89 102 -89 300q0 74 12 160l113 807h121l-113 -794q-10 -76 -10 -141q0 -158 60 -246q85 -125 312 -125q229 0 351 125t157 387l113 794h121l-113 -807q-45 -322 -209 -461t-434 -139z" />
<glyph unicode="V" horiz-adv-x="1230" d="M215 1380h121l297 -1261l651 1261h121l-717 -1380h-145z" />
<glyph unicode="W" horiz-adv-x="1904" d="M1212 1327l199 -1180l541 1233h127l-617 -1380h-143l-201 1171l-530 -1171h-146l-227 1380h127l195 -1233l530 1180h145z" />
<glyph unicode="X" horiz-adv-x="1202" d="M1034 0l-352 588l-261 -298l-255 -290h-146l611 682l-395 698h147l326 -606l499 606h146l-590 -698l418 -682h-148z" />
<glyph unicode="Y" horiz-adv-x="1224" d="M676 0h-127l67 483l-401 897h143l338 -782l555 782h148l-656 -897z" />
<glyph unicode="Z" horiz-adv-x="1179" d="M1079 0h-1018l21 147l1069 1123h-875l17 110h1020l-21 -139l-1087 -1126h891z" />
<glyph unicode="[" horiz-adv-x="509" d="M610 1292h-198l-211 -1495h198l-12 -88h-305l235 1671h306z" />
<glyph unicode="\" horiz-adv-x="708" d="M539 0l-283 1380h111l280 -1380h-108z" />
<glyph unicode="]" horiz-adv-x="509" d="M463 1292h-199l12 88h306l-236 -1671h-305l12 88h199z" />
<glyph unicode="^" horiz-adv-x="774" d="M184 797l359 583h78l194 -583h-106l-146 463l-274 -463h-105z" />
<glyph unicode="_" horiz-adv-x="1245" d="M41 -154h1122l-16 -110h-1122z" />
<glyph unicode="`" horiz-adv-x="468" d="M418 1380l127 -264h-103l-166 264h142z" />
<glyph unicode="a" horiz-adv-x="966" d="M854 0h-123l17 113q-109 -139 -342 -140q-133 0 -221.5 68t-88.5 188q0 195 177.5 283t547.5 106l13 89q2 10 2 26.5t-8.5 51t-28 60t-66.5 47t-117 21.5q-170 0 -317 -65l-18 96q12 8 50 22.5t127 33t181 18.5h39q25 0 84 -14.5t102 -42t73 -92.5q21 -46 21 -105 q0 -25 -4 -51zM442 76q33 0 75 8t103.5 29.5t106.5 76t57 134.5l29 198q-575 -29 -600 -250q-1 -11 -1 -20q0 -78 56 -124q63 -52 174 -52z" />
<glyph unicode="b" horiz-adv-x="1099" d="M438 1380l-73 -514q109 152 352 152q193 0 291 -116t98 -312q0 -268 -140.5 -442.5t-385.5 -174.5q-199 0 -322 140l-16 -113h-119l194 1380h121zM670 915q-43 0 -112 -22.5t-139.5 -81.5t-80.5 -139l-45 -326q-4 -25 -4 -48q0 -50 18 -89q27 -57 80 -84t101.5 -37 t99.5 -10q104 0 182 44t117 101.5t61.5 136t26.5 125.5t4 90q0 55 -12.5 107.5t-43 109t-96 90t-157.5 33.5z" />
<glyph unicode="c" horiz-adv-x="897" d="M133 408q0 279 155.5 444.5t418.5 165.5q172 0 266 -43l-39 -96q-98 33 -225 32q-129 0 -222.5 -45t-139.5 -120.5t-66.5 -157.5t-20.5 -174q0 -150 78 -243t252 -93q123 0 237 35q2 -18 4.5 -49t6.5 -48q-111 -45 -279 -45q-203 0 -314.5 116t-111.5 321z" />
<glyph unicode="d" horiz-adv-x="1099" d="M977 862l74 518h120l-194 -1380h-119l16 113q-162 -139 -362 -140q-184 0 -281.5 117t-97.5 311q0 270 141.5 443.5t395.5 173.5q92 0 181 -35t126 -121zM688 915q-119 0 -207 -49t-134 -129t-66.5 -162.5t-20.5 -168.5q0 -61 12.5 -114.5t41 -104t85 -80t133.5 -29.5 q51 0 102.5 10t112 37t103.5 84t55 137l45 326q2 13 2 25q0 64 -45 114q-53 59 -114.5 81.5t-104.5 22.5z" />
<glyph unicode="e" horiz-adv-x="1064" d="M553 -27q-186 0 -302 119t-116 324q0 252 160 427t381 175q178 0 287.5 -116t109.5 -312q0 -88 -18 -137h-793q-4 -32 -4 -63q0 -124 75 -207q93 -103 271 -103q150 0 289 51l27 -90q-144 -68 -367 -68zM662 913q-135 0 -249 -108.5t-134 -251.5h671q5 38 5 71 q0 124 -65 197q-83 92 -228 92z" />
<glyph unicode="f" horiz-adv-x="518" d="M164 991h151l15 107q12 88 42.5 150.5t62.5 92t77 45t65.5 16.5t49.5 1h8q61 0 117 -27l-27 -80q-43 16 -78 17q-170 0 -194 -191l-19 -131h207l-14 -96h-207l-184 -1305h-121l186 1305h-151z" />
<glyph unicode="g" horiz-adv-x="1099" d="M573 78q31 0 76 10t100.5 31.5t97.5 69t52 108.5l49 360q4 23 4 45q0 38 -12 70q-18 49 -49 75.5t-78 43t-84 20.5t-78 4q-135 0 -226 -81.5t-126 -191.5t-35 -236q0 -328 309 -328zM846 -86l28 199q-131 -139 -333 -140q-190 0 -299 107.5t-109 318.5q0 299 148.5 459 t380.5 160q20 0 46.5 -3t82 -13.5t107.5 -41t85 -77.5l14 108h119l-155 -1110q-25 -166 -159 -238.5t-319 -72.5q-225 0 -331 65l43 99q121 -61 288 -62q92 0 159 16.5t102.5 38t58 57.5t30 62.5t13.5 67.5z" />
<glyph unicode="h" horiz-adv-x="1087" d="M1047 590l-82 -590h-121l82 590q7 49 7 90q0 235 -226 235q-33 0 -70 -6t-89 -26.5t-95 -53t-79 -93t-46 -140.5l-84 -596h-121l194 1380h121l-76 -532q59 76 139.5 117t129.5 47t117 6q168 0 249 -104q59 -74 59 -207q0 -54 -9 -117z" />
<glyph unicode="i" horiz-adv-x="366" d="M123 0l139 991h121l-139 -991h-121zM293 1204l24 176h121l-24 -176h-121z" />
<glyph unicode="j" horiz-adv-x="409" d="M426 991l-156 -1097q-42 -303 -295 -304h-14q-59 0 -117 25l29 86q57 -14 90 -14q57 0 94 18.5t56.5 58t25.5 64.5t15 74l151 1089h121zM336 1204l24 176h121l-24 -176h-121z" />
<glyph unicode="k" horiz-adv-x="940" d="M575 631l355 -631h-139l-310 569l-180 -159l-57 -410h-121l194 1380h121l-116 -833l522 444h145z" />
<glyph unicode="l" horiz-adv-x="366" d="M123 0l194 1380h121l-194 -1380h-121z" />
<glyph unicode="m" horiz-adv-x="1683" d="M782 0l90 621q4 28 4 54q0 87 -41 153q-54 87 -188 87q-109 0 -203 -78.5t-120 -267.5l-80 -569h-121l139 991h109l-21 -149q119 176 344 176q88 0 168 -47t113 -156q115 203 364 203q317 0 317 -298q0 -45 -7 -97l-88 -623h-121l82 588q8 55 8 100q0 93 -34 147 q-50 81 -193 80q-27 0 -66 -11t-94.5 -37.5t-99.5 -91t-56 -152.5l-88 -623h-117z" />
<glyph unicode="n" horiz-adv-x="1087" d="M1047 586l-82 -586h-121l82 586q7 48 6 89q0 241 -225 240q-41 0 -91.5 -12t-114 -44t-111.5 -101.5t-62 -165.5l-84 -592h-121l139 991h107l-23 -162q131 188 359 189q195 0 284 -97q66 -71 66 -219q1 -53 -8 -116z" />
<glyph unicode="o" horiz-adv-x="1044" d="M113 406q0 279 151.5 445.5t401.5 166.5q190 0 297.5 -115t107.5 -317q0 -281 -151.5 -448t-401.5 -167q-190 0 -297.5 116t-107.5 319zM950 557q0 152 -77.5 257.5t-221.5 105.5q-186 0 -302 -149.5t-116 -340.5q0 -152 77 -256t222 -104q182 0 300 150.5t118 336.5z " />
<glyph unicode="p" horiz-adv-x="1099" d="M262 125l-76 -535h-120l196 1401h119l-16 -112q162 139 362 139q184 0 281.5 -117t97.5 -311q0 -270 -141.5 -443.5t-395.5 -173.5q-241 0 -307 152zM551 76q119 0 207 49t134 129t66.5 163t20.5 169q0 135 -61.5 231t-210.5 96q-51 0 -102.5 -10t-112 -36.5t-103.5 -84 t-55 -137.5l-45 -326q-2 -13 -2 -25q0 -64 45 -114q53 -59 114.5 -81.5t104.5 -22.5z" />
<glyph unicode="q" horiz-adv-x="1099" d="M799 -410l75 535q-109 -152 -352 -152q-193 0 -291 116t-98 312q0 268 140.5 442.5t385.5 174.5q201 0 322 -139l16 112h119l-196 -1401h-121zM569 76q43 0 112 22.5t139.5 82t80.5 138.5l45 326q4 25 4 48q0 50 -18 89q-27 57 -80 84t-101.5 37t-99.5 10 q-104 0 -182 -44t-116 -101t-60.5 -137t-26.5 -125t-4 -90q0 -55 12.5 -107.5t42 -109t95 -90t157.5 -33.5z" />
<glyph unicode="r" horiz-adv-x="598" d="M682 1018h35l-17 -121h-55q-113 0 -200 -72.5t-105 -210.5l-86 -614h-121l139 991h109l-23 -153q119 176 324 180z" />
<glyph unicode="s" horiz-adv-x="854" d="M688 193q19 37 19 69q0 13 -4 26q-11 42 -29.5 60.5t-43 30.5t-298.5 123q-96 47 -130 118q-18 37 -18 83q0 43 15 94q29 98 128 160.5t230 62.5q174 0 315 -94l-59 -92q-152 80 -256 79q-111 0 -174.5 -43t-71.5 -110q-2 -14 -2 -26q0 -46 30 -80q38 -42 130 -74 l201 -80q82 -35 123 -92.5t41 -120.5q0 -139 -117 -227.5t-277 -88.5q-213 0 -364 125l65 92q170 -115 297 -114q80 0 148.5 31t101.5 88z" />
<glyph unicode="t" horiz-adv-x="643" d="M340 895h-170l14 96h170l37 264h119l-37 -264h242l-15 -96h-241l-86 -610l-8 -109q0 -43 35 -74q38 -33 120 -32q45 0 80 10l2 -80q-61 -27 -133 -27q-9 -1 -18 0q-26 0 -50 4q-31 6 -76.5 31t-66.5 93q-11 38 -11 89q0 40 7 89z" />
<glyph unicode="u" horiz-adv-x="1087" d="M178 406l84 585h121l-84 -585q-7 -49 -7 -92q0 -94 35 -154q50 -86 214 -86q25 0 51 3t79.5 19.5t95.5 45t79 87t49 138.5l88 624h121l-139 -991h-107l19 131q-35 -53 -92.5 -88t-118 -48t-93 -17.5t-51.5 -4.5q-197 0 -286 100q-66 73 -67 218q0 53 9 115z" />
<glyph unicode="v" horiz-adv-x="1048" d="M606 0h-164l-282 991h127l252 -895l501 895h127z" />
<glyph unicode="w" horiz-adv-x="1624" d="M160 991h129l168 -868l413 868h164l170 -868l414 868h125l-481 -991h-142l-180 899l-430 -899h-143z" />
<glyph unicode="x" horiz-adv-x="972" d="M926 991h139l-424 -489l311 -502h-141l-262 438l-389 -438h-140l453 502l-287 489h140l241 -422z" />
<glyph unicode="y" horiz-adv-x="1048" d="M106 -416l21 92q33 -5 61 -4q43 0 76 11q55 18 103 98l102 184l-309 1026h127l258 -889l495 889h127l-721 -1272q-49 -86 -121.5 -117.5t-131.5 -31.5q-40 0 -87 14z" />
<glyph unicode="z" horiz-adv-x="913" d="M51 0l17 119l794 778h-661l12 94h788l-16 -121l-792 -776h659l-12 -94h-789z" />
<glyph unicode="{" horiz-adv-x="671" d="M190 487l11 72q109 18 155.5 93t65.5 206l45 313q12 88 83 148.5t142 60.5h90q-2 -20 -6 -47.5t-6 -38.5h-47q-129 0 -150 -133l-47 -332q-10 -88 -50 -161.5t-67.5 -100t-52.5 -43.5q117 -117 84 -307l-41 -291q-18 -133 113 -133h47l-6 -48q-4 -32 -4 -36h-90 q-74 0 -127 60.5t-41 148.5l37 270q18 131 -8 205t-130 94z" />
<glyph unicode="|" horiz-adv-x="346" d="M90 -227l248 1767h100l-248 -1767h-100z" />
<glyph unicode="}" horiz-adv-x="671" d="M627 559l-11 -72q-109 -20 -155.5 -94t-65.5 -205l-39 -270q-12 -90 -82.5 -149.5t-142.5 -59.5h-90l12 84h47q131 0 150 133l41 291q23 195 172 307q-18 14 -40 42t-41.5 101.5t-4.5 161.5l47 332q18 133 -113 133h-47q8 61 12 86h91q72 0 125 -60t40 -149l-43 -313 q-18 -131 9 -206t129 -93z" />
<glyph unicode="~" horiz-adv-x="970" d="M426 741q55 0 153.5 -46t157.5 -46q123 0 144 127h94q-27 -231 -256 -231q-55 0 -151.5 45t-153.5 45q-119 0 -148 -133h-94q43 239 254 239z" />
<glyph unicode="&#xa2;" horiz-adv-x="897" d="M786 1182l-22 -166q133 -8 209 -41l-39 -96q-98 33 -227 32.5t-221.5 -45.5t-139.5 -120.5t-66.5 -156.5t-19.5 -175q0 -150 78 -243t252 -93q123 0 237 35q2 -18 4.5 -49t6.5 -48q-90 -37 -222 -43l-26 -186h-101l27 186q-182 10 -282.5 125t-100.5 308 q0 266 143.5 430.5t387.5 179.5l22 166h100z" />
<glyph unicode="&#xa3;" horiz-adv-x="960" d="M455 752l-90 -639h569l-16 -113h-840l16 113h146l88 639h-181l13 92h178l12 94q33 231 164 348t346 117q154 0 258 -64l-65 -79q-90 51 -205 51q-158 0 -252 -101.5t-119 -271.5l-12 -94h375l-13 -92h-372z" />
<glyph unicode="&#xa5;" horiz-adv-x="1101" d="M614 0h-125l39 270h-358l12 84h359l22 170h-358l12 86h336l-326 791h142l284 -731l475 731h144l-551 -791h332l-13 -86h-352l-22 -170h352l-12 -84h-353z" />
<glyph unicode="&#xa9;" horiz-adv-x="1576" d="M172 608q0 211 114.5 395.5t302 292t396.5 107.5q264 0 439 -182.5t175 -448.5q0 -319 -246.5 -558t-568.5 -239q-264 0 -438 183.5t-174 449.5zM272 618q0 -227 149.5 -384.5t377.5 -157.5q276 0 487 204.5t211 481.5q0 229 -149.5 385t-376.5 156q-274 0 -486.5 -204.5 t-212.5 -480.5zM483.5 684q24.5 184 152.5 306t314 122q147 0 238 -45l-31 -57q-8 -16 -14 -39q-94 33 -180 33q-180 0 -274.5 -112t-94.5 -255q0 -115 67.5 -195t210.5 -80q90 0 191 29l8 -47q6 -43 8 -47q-96 -43 -250 -43q-184 0 -277 123t-68.5 307z" />
<glyph unicode="&#xad;" horiz-adv-x="817" d="M803 475h-653l16 119h653z" />
<glyph unicode="&#xae;" horiz-adv-x="1576" d="M172 608q0 211 114.5 395.5t302 292t396.5 107.5q264 0 439 -182.5t175 -448.5q0 -319 -246.5 -558t-568.5 -239q-264 0 -438 183.5t-174 449.5zM272 618q0 -227 149.5 -384.5t377.5 -157.5q276 0 487 204.5t211 481.5q0 229 -149.5 385t-376.5 156q-274 0 -486.5 -204.5 t-212.5 -480.5zM1214 891q0 88 -48 149.5t-162 61.5h-342l-117 -819h98l47 327h203q84 0 102 -67q18 -63 25 -105q16 -88 43 -155h106q-29 84 -61 256q-12 51 -25.5 72.5t-42.5 35.5q98 33 136 104.5t38 139.5zM952 709h-247l40 297h236q70 0 101.5 -38t31.5 -95.5 t-38 -110.5t-124 -53z" />
<glyph unicode="&#xb4;" horiz-adv-x="468" d="M240 1116l200 264h142l-240 -264h-102z" />
<glyph unicode="&#x2000;" horiz-adv-x="777" />
<glyph unicode="&#x2001;" horiz-adv-x="1554" />
<glyph unicode="&#x2002;" horiz-adv-x="777" />
<glyph unicode="&#x2003;" horiz-adv-x="1554" />
<glyph unicode="&#x2004;" horiz-adv-x="518" />
<glyph unicode="&#x2005;" horiz-adv-x="388" />
<glyph unicode="&#x2006;" horiz-adv-x="259" />
<glyph unicode="&#x2007;" horiz-adv-x="259" />
<glyph unicode="&#x2008;" horiz-adv-x="194" />
<glyph unicode="&#x2009;" horiz-adv-x="310" />
<glyph unicode="&#x200a;" horiz-adv-x="86" />
<glyph unicode="&#x2010;" horiz-adv-x="817" d="M803 475h-653l16 119h653z" />
<glyph unicode="&#x2011;" horiz-adv-x="817" d="M803 475h-653l16 119h653z" />
<glyph unicode="&#x2012;" horiz-adv-x="817" d="M803 475h-653l16 119h653z" />
<glyph unicode="&#x2013;" horiz-adv-x="1130" d="M166 594h967l-17 -113h-966z" />
<glyph unicode="&#x2014;" horiz-adv-x="1835" d="M166 594h1671l-16 -111h-1671z" />
<glyph unicode="&#x2018;" horiz-adv-x="528" d="M430 1038l-133 342h94l182 -342h-143z" />
<glyph unicode="&#x2019;" horiz-adv-x="528" d="M248 1038l227 342h143l-276 -342h-94z" />
<glyph unicode="&#x201c;" horiz-adv-x="823" d="M725 1038l-133 342h94l182 -342h-143zM430 1038l-133 342h94l182 -342h-143z" />
<glyph unicode="&#x201d;" horiz-adv-x="823" d="M543 1038l227 342h143l-276 -342h-94zM248 1038l227 342h143l-276 -342h-94z" />
<glyph unicode="&#x2022;" horiz-adv-x="612" d="M188 608q0 94 71 165t165 71q78 0 128 -53.5t50 -133.5q0 -94 -71.5 -163.5t-165.5 -69.5q-78 0 -127.5 53t-49.5 131z" />
<glyph unicode="&#x2026;" horiz-adv-x="1384" d="M102 0l25 176h123l-25 -176h-123zM590 0l24 176h125l-24 -176h-125zM1120 0l25 176h125l-25 -176h-125z" />
<glyph unicode="&#x202f;" horiz-adv-x="310" />
<glyph unicode="&#x205f;" horiz-adv-x="388" />
<glyph unicode="&#x20ac;" horiz-adv-x="1329" d="M389 778h-237q10 20 23 43t20 37h215q90 254 289.5 409.5t463.5 155.5q160 0 275 -59l-29 -50q-18 -32 -23 -38q-92 43 -186 43q-248 0 -418 -130t-252 -331h650l-47 -78h-623q-27 -115 -25 -182h549l-47 -78h-498q33 -193 166 -315.5t371 -122.5q98 0 207 43l10 -45 l10 -43q-139 -61 -292 -62q-256 0 -412 149.5t-180 395.5h-254l43 78h207q6 104 24 180z" />
<glyph unicode="&#x2122;" horiz-adv-x="1771" d="M297 1380h819l176 -710l381 710h162l-84 -811h-100l80 742l-388 -733h-122l-183 733l-123 -742h-104l129 721h-309l-101 -721h-98l100 721h-247z" />
<glyph unicode="&#xe000;" horiz-adv-x="990" d="M0 990h990v-990h-990v990z" />
<glyph unicode="&#xfb01;" horiz-adv-x="884" d="M641 0l125 895h-346l-182 -1305h-121l184 1305h-151l14 96h151l15 107q12 88 42.5 150.5t62.5 92t77 45t65.5 16.5t49.5 1h8q61 0 117 -27l-27 -80q-43 16 -78 17q-170 0 -194 -191l-19 -131h467l-139 -991h-121z" />
<glyph unicode="&#xfb02;" horiz-adv-x="884" d="M641 0l180 1284h-178q-170 0 -194 -190l-15 -103h207l-14 -96h-207l-184 -1305h-121l186 1305h-151l14 96h149l13 84q12 86 46 148.5t67.5 91t79.5 45t66.5 18.5t45.5 2h323l-192 -1380h-121z" />
<glyph unicode="&#xfb03;" horiz-adv-x="1402" d="M1159 0l125 895h-346l-182 -1305h-121l184 1305h-399l-182 -1305h-121l184 1305h-151l14 96h151l15 107q12 88 42.5 150.5t62.5 92t77 45t65.5 16.5t49.5 1h8q61 0 117 -27l-27 -80q-43 16 -78 17q-170 0 -194 -191l-19 -131h400l14 107q12 88 43 150.5t62.5 92t76.5 45 t65.5 16.5t49.5 1h8q61 0 117 -27l-27 -80q-43 16 -78 17q-170 0 -194 -191l-19 -131h467l-139 -991h-121z" />
<glyph unicode="&#xfb04;" horiz-adv-x="1402" d="M1159 0l180 1286h-180q-170 0 -192 -186l-15 -109h207l-14 -96h-207l-184 -1305h-121l186 1305h-399l-184 -1305h-121l186 1305h-151l14 96h151l15 107q12 88 42.5 150.5t62.5 92t77 45t65.5 16.5t49.5 1h8q61 0 117 -27l-27 -80q-43 16 -78 17q-170 0 -194 -191 l-19 -131h397l13 84q12 86 46 148.5t67.5 91t79.5 45t66.5 18.5t45.5 2h324l-193 -1380h-121z" />
</font>
</defs>
</svg>
