<?xml version="1.0" standalone="no"?>
<!DOCTYPE svg PUBLIC "-//W3C//DTD SVG 1.1//EN" "http://www.w3.org/Graphics/SVG/1.1/DTD/svg11.dtd" >
<svg xmlns="http://www.w3.org/2000/svg">
<metadata>
This is a custom SVG webfont generated by Fontspring.
</metadata>
<defs>
<font id="webfontJwjH9eEZ" horiz-adv-x="991" >
<font-face units-per-em="2048" ascent="1536" descent="-512" />
<missing-glyph horiz-adv-x="483" />
<glyph unicode=" "  horiz-adv-x="483" />
<glyph unicode="&#x09;" horiz-adv-x="483" />
<glyph unicode="&#xa0;" horiz-adv-x="483" />
<glyph unicode="!" horiz-adv-x="348" d="M164 291l145 1089h117l-160 -1089h-102zM115 0l22 156h117l-23 -156h-116z" />
<glyph unicode="&#x22;" horiz-adv-x="509" d="M205 795l69 585h113l-92 -585h-90zM440 795l72 585h113l-95 -585h-90z" />
<glyph unicode="#" horiz-adv-x="993" d="M653 1380h103l-162 -389h233l162 389h98l-159 -389h168l-13 -94h-194l-156 -381h185l-15 -94h-209l-176 -422h-94l172 422h-229l-181 -422h-98l172 422h-164l13 94h188l156 381h-189l15 94h213zM557 897l-156 -381h234l156 381h-234z" />
<glyph unicode="$" horiz-adv-x="954" d="M403 -186l23 168h6q-215 23 -364 172l41 63l22 37q70 -70 173.5 -118t209.5 -48q96 0 185 54.5t124 156.5q16 49 17 86q0 117 -113 184l-334 156q-104 51 -149 145.5t-11 225.5q35 129 142.5 213t257.5 92h-6l20 153h96l-20 -153q184 -16 303 -135l-57 -101 q-59 53 -145.5 89t-172.5 36q-225 0 -301 -205q-47 -158 160 -270l287 -139q98 -53 136 -141.5t25 -163.5q-29 -174 -152.5 -280.5t-283.5 -113.5l-22 -163h-97z" />
<glyph unicode="%" horiz-adv-x="1484" d="M205 977q0 184 93 296.5t234 112.5q106 0 169 -75.5t63 -206.5q0 -184 -94.5 -297t-233.5 -113q-106 0 -168.5 76t-62.5 207zM651 1102q0 180 -133 180q-205 0 -205 -305q0 -176 138 -176q106 0 153 86t47 215zM911 258q0 184 94.5 297t235.5 113q104 0 168 -76t64 -207 q0 -184 -95.5 -297t-234.5 -113q-106 0 -169 76t-63 207zM1362 383q0 180 -135 180q-205 0 -205 -305q0 -176 137 -176q106 0 154.5 85t48.5 216zM334 0l885 1380h94l-883 -1380h-96z" />
<glyph unicode="&#x26;" horiz-adv-x="1052" d="M227 317q0 -117 63.5 -181t186.5 -64q182 0 320 235h2l-273 369q-115 -27 -207 -120.5t-92 -238.5zM807 1110q4 88 -35 142.5t-121 54.5t-137 -59.5t-72 -135.5q-20 -119 15 -193.5t112 -130.5q117 68 169.5 136.5t68.5 185.5zM637 723l223 -313q51 104 76 270h102 q-20 -211 -106 -344h-2q63 -96 90 -169t12 -167h-104l2 33q0 41 -2 59.5t-16.5 56t-45.5 84.5q-137 -260 -401 -260q-176 0 -265 95.5t-89 238.5q0 311 346 436h-2q-131 119 -131 289q0 186 104 278.5t238 92.5q102 0 177 -64.5t75 -193.5q0 -106 -63.5 -221t-217.5 -201z " />
<glyph unicode="'" horiz-adv-x="272" d="M205 795l69 585h113l-92 -585h-90z" />
<glyph unicode="(" horiz-adv-x="567" d="M465 -289h-6q-186 12 -262 224t-19 628q57 397 193.5 598t326.5 219l-12 -94q-422 -59 -422 -1001q0 -446 213 -475z" />
<glyph unicode=")" horiz-adv-x="567" d="M258 1380h6q182 -18 260 -218.5t25 -598.5q-57 -414 -195.5 -628t-330.5 -228l14 96q190 23 306 272t116 748q0 166 -30 269.5t-75 144.5t-110 49z" />
<glyph unicode="*" horiz-adv-x="651" d="M524 1116l195 144l35 -78l-199 -127l158 -127l-49 -80l-158 145l-37 -266h-80l37 266l-201 -145l-26 80l192 127l-160 129l52 76l161 -142l37 262h80z" />
<glyph unicode="+" horiz-adv-x="964" d="M690 1159l-61 -444h372l-16 -111h-373l-61 -438h-107l62 438h-359l17 111h358l62 444h106z" />
<glyph unicode="," horiz-adv-x="382" d="M6 -205l197 357h137l-227 -357h-107z" />
<glyph unicode="-" horiz-adv-x="694" d="M698 475h-567l16 119h568z" />
<glyph unicode="." horiz-adv-x="296" d="M80 0l24 176h138l-25 -176h-137z" />
<glyph unicode="/" horiz-adv-x="608" d="M752 1380l-600 -1380h-107l600 1380h107z" />
<glyph unicode="0" d="M487 -29q-160 0 -246.5 139.5t-86.5 387.5q0 391 146 632.5t384 241.5q164 0 253 -137t89 -387q0 -391 -147.5 -634t-391.5 -243zM670 1270q-125 0 -219.5 -119t-139.5 -289t-45 -352q0 -193 58.5 -315.5t177.5 -122.5q98 0 178 68.5t129 180t74.5 243.5t25.5 265 q0 190 -59 315.5t-180 125.5z" />
<glyph unicode="1" d="M510 993l-45 90l276 267h127l-188 -1350h-115l170 1210z" />
<glyph unicode="2" d="M690 1260q-92 0 -189.5 -59.5t-133.5 -121.5l-54 95q49 68 152.5 133t232.5 65q152 0 242 -92t90 -238q0 -229 -192 -380q-86 -68 -199 -140q-168 -111 -269.5 -205t-121.5 -204h649l-16 -113h-777l7 47q18 102 61 186t112.5 153t125 110t147.5 100q145 94 197 135 q160 127 159 285q0 94 -60.5 169t-162.5 75z" />
<glyph unicode="3" d="M489 -29q-223 0 -350 170l60 86q135 -145 297 -145q143 0 228 91t85 214q0 102 -63.5 174t-180.5 72h-80l17 115h73q143 0 226.5 86t83.5 198q0 96 -60.5 165t-169.5 69q-152 0 -297 -146q-10 25 -14 43l-18 47q135 162 352 162q141 0 229 -82t88 -231 q0 -119 -79.5 -233.5t-208.5 -135.5q96 -6 157.5 -91t61.5 -198q0 -186 -134.5 -310t-302.5 -120z" />
<glyph unicode="4" d="M754 0h-111l41 293h-573l16 113q190 326 637 884l51 60h129l-135 -955h166l-14 -102h-166zM240 395h458l113 795q-368 -439 -571 -795z" />
<glyph unicode="5" d="M840 483q0 131 -58.5 217t-171.5 86q-150 0 -237 -110h-133q43 166 98 407l63 267h590l-16 -113h-494l-102 -428q90 86 246 86q143 0 234 -107.5t91 -281.5q0 -250 -142 -390.5t-347 -140.5q-117 0 -190.5 47.5t-137.5 139.5l72 125q33 -88 102.5 -146.5t151.5 -58.5 q113 0 192.5 42t117.5 108.5t54.5 128t16.5 122.5z" />
<glyph unicode="6" d="M983 1317l-39 -90q-88 49 -174 49q-180 0 -299 -154.5t-164 -421.5q125 186 334 187q150 0 233.5 -103.5t83.5 -277.5q0 -244 -130 -388.5t-324 -144.5q-94 0 -162 44t-101.5 120t-49 155t-15.5 167q0 434 164 673.5t418 239.5q133 0 225 -55zM516 76q152 0 241 130 t89 275q0 121 -56.5 211t-177.5 90q-145 0 -234 -122.5t-89 -286.5q0 -131 60.5 -214t166.5 -83z" />
<glyph unicode="7" d="M279 1237l16 113h782l-18 -129q-238 -297 -407 -588t-312 -633h-131q174 375 343 669t390 568h-663z" />
<glyph unicode="8" d="M492 -29q-176 0 -265.5 89.5t-89.5 226.5q0 43 12.5 96t43 121.5t98 125t160.5 77.5h2q-88 12 -132.5 93t-44.5 181q0 147 101.5 253.5t224.5 131.5q2 0 14.5 1t32 3t39.5 2l88 -6q92 -20 161 -102t69 -197t-74 -230.5t-197 -129.5h2q82 -20 132.5 -81t64.5 -118t14 -117 q0 -178 -117.5 -299t-338.5 -121zM586 643q-154 -2 -244 -99.5t-90 -224.5q0 -106 66.5 -179.5t185.5 -73.5q152 0 245 99t93 226q0 106 -64.5 178t-191.5 74zM676 1278q-137 0 -213 -88t-76 -207q0 -217 217 -217q246 0 285 262q16 102 -36 176t-177 74z" />
<glyph unicode="9" d="M201 29l37 94q98 -53 174 -53q180 0 298.5 154.5t161.5 420.5q-68 -102 -157.5 -144t-173.5 -42q-150 0 -233 103.5t-83 277.5q0 244 130 388t323 144q94 0 162.5 -45t102.5 -121t49.5 -154.5t15.5 -168.5q0 -430 -165 -670t-417 -240q-137 1 -225 56zM668 1270 q-104 0 -183 -67.5t-114 -158t-35 -180.5q0 -121 56.5 -211t178.5 -90q145 0 234.5 123t89.5 287q0 129 -60.5 213t-166.5 84z" />
<glyph unicode=":" horiz-adv-x="280" d="M195 815l24 176h121l-25 -176h-120zM80 0l24 176h121l-24 -176h-121z" />
<glyph unicode=";" horiz-adv-x="434" d="M332 815l24 176h119l-24 -176h-119zM37 -205l196 357h138l-226 -357h-108z" />
<glyph unicode="&#x3c;" d="M1028 973l-16 -117l-760 -362l659 -363l-16 -119l-786 445l10 75l651 316z" />
<glyph unicode="=" horiz-adv-x="1003" d="M1042 834h-843l14 104h844zM985 432h-844l15 105h843z" />
<glyph unicode="&#x3e;" d="M219 856l17 117l309 -172l477 -269l-12 -75l-910 -445l17 119l760 363z" />
<glyph unicode="?" horiz-adv-x="901" d="M518 291h-102q14 88 29.5 141t56.5 110.5t81 97.5t138 130q152 133 151 295q0 102 -62 171t-179 69q-143 0 -289 -181q-16 14 -68 70q145 211 379 211q147 0 239.5 -84t92.5 -244q0 -203 -227 -409q-113 -100 -165 -171t-69 -169zM371 0l22 156h117l-23 -156h-116z" />
<glyph unicode="@" horiz-adv-x="1501" d="M1286 117l27 -70q-113 -88 -267.5 -144.5t-295.5 -56.5q-285 0 -439.5 181.5t-154.5 468.5q0 182 67.5 351t178 289.5t256 193.5t296.5 73q119 0 217.5 -35t164 -91t110.5 -132t65.5 -156t20.5 -162q0 -135 -34 -248.5t-87 -185t-120.5 -122t-131 -72t-123.5 -21.5 q-53 0 -90 33t-26 108q-104 -96 -252 -96q-197 0 -197 226q0 219 123 372.5t315 153.5q51 0 93 -28.5t61 -74.5q2 2 27 86h106l-100 -307l-70 -209q-16 -59 -16 -88q0 -86 55 -86q53 0 113.5 30t120 91.5t97.5 174t38 257.5q0 236 -143.5 362t-348.5 126q-276 0 -479 -235.5 t-203 -567.5q0 -260 136 -416t352 -156q284 1 538 183zM897 891q-201 0 -291 -291q-29 -96 -28 -147q0 -137 120 -138q39 0 80 10.5t91.5 51.5t74.5 108l76 254q10 76 -36 114t-87 38z" />
<glyph unicode="A" horiz-adv-x="1130" d="M129 0h-119l682 1380h135l293 -1380h-119l-69 336h-641zM741 1251l-399 -805h571z" />
<glyph unicode="B" horiz-adv-x="1032" d="M723 639h-412l-73 -528h411q131 0 206 88t75 209q0 98 -52.5 164.5t-154.5 66.5zM877 709h-5q80 -14 129.5 -100.5t49.5 -194.5q0 -92 -40 -184.5t-127 -161t-202 -68.5h-576l195 1380h514q137 0 202.5 -85t65.5 -210q0 -98 -46.5 -204t-159.5 -172zM328 752h393 q123 18 180 109t57 196q0 213 -196 213h-363z" />
<glyph unicode="C" horiz-adv-x="1024" d="M150 573q0 342 196.5 586t495.5 244q217 0 323 -62l-26 -53l-19 -39q-117 41 -250 41q-154 0 -273.5 -65.5t-187 -171t-102.5 -225t-35 -244.5q0 -135 39 -241.5t138.5 -181.5t250.5 -75q141 0 267 41q0 -8 6 -51l8 -41q-123 -61 -340 -62q-229 0 -360 169t-131 431z" />
<glyph unicode="D" horiz-adv-x="1142" d="M516 0h-410l195 1380h410q238 0 367.5 -140t129.5 -411q0 -397 -185 -613t-507 -216zM238 111h303q113 0 210 42t175 124.5t123 221t45 316.5q0 233 -105.5 344t-292.5 111h-297z" />
<glyph unicode="E" horiz-adv-x="946" d="M872 0h-766l195 1380h754l-17 -110h-639l-71 -516h592l-17 -113h-592l-73 -530h651z" />
<glyph unicode="F" horiz-adv-x="874" d="M221 0h-115l195 1380h713l-17 -110h-598l-71 -516h551l-17 -113h-551z" />
<glyph unicode="G" horiz-adv-x="1165" d="M1063 596h-242l17 113h354l-92 -648q-68 -41 -184.5 -62.5t-221.5 -21.5q-256 0 -399 170t-143 437q0 340 209.5 579.5t531.5 239.5q217 0 348 -96l-61 -103q-55 43 -131 65.5t-127 22.5q-131 0 -241 -42t-183.5 -110.5t-126 -158.5t-76 -184.5t-23.5 -190.5 q0 -135 46.5 -248.5t153 -190.5t257.5 -77q135 0 270 55z" />
<glyph unicode="H" horiz-adv-x="1120" d="M995 670h-680l-94 -670h-115l195 1380h115l-84 -598h680l84 598h112l-194 -1380h-113z" />
<glyph unicode="I" horiz-adv-x="362" d="M125 0l194 1380h113l-194 -1380h-113z" />
<glyph unicode="J" horiz-adv-x="684" d="M16 41l39 98q111 -55 211 -55q80 0 127 29q57 35 85 93t44 171l142 1003h108l-143 -1018q-53 -385 -359 -385q-143 1 -254 64z" />
<glyph unicode="K" horiz-adv-x="968" d="M958 0h-145l-328 659l-206 -237h2l-60 -422h-115l195 1380h115l-111 -782l641 782h131l-508 -616h2z" />
<glyph unicode="L" horiz-adv-x="882" d="M416 1380l-178 -1269h598l-17 -113h-713l195 1382h115z" />
<glyph unicode="M" horiz-adv-x="1449" d="M668 0l-275 1219l-207 -1219h-114l241 1380h154l278 -1233l627 1233h154l-148 -1380h-114l137 1219l-617 -1219h-116z" />
<glyph unicode="N" horiz-adv-x="1134" d="M893 0l-502 1212l-170 -1212h-115l195 1380h154l485 -1206l170 1206h113l-195 -1380h-135z" />
<glyph unicode="O" horiz-adv-x="1245" d="M618 -27q-223 0 -347 154t-124 424q0 385 185.5 618.5t486.5 233.5q223 0 347 -151.5t124 -422.5q0 -385 -185.5 -620.5t-486.5 -235.5zM805 1298q-164 0 -288 -106.5t-184.5 -270t-60.5 -356.5q0 -219 91.5 -353t269.5 -134q168 0 291 104.5t182 268t59 358.5 q0 213 -91 351t-269 138z" />
<glyph unicode="P" horiz-adv-x="978" d="M713 555h-414l-78 -555h-115l195 1380h516q143 0 209 -104.5t66 -247.5q0 -33 -8.5 -82t-34 -119.5t-64.5 -129t-110.5 -100.5t-161.5 -42zM315 668h387q61 0 110.5 26.5t78.5 65.5t47 88t24.5 89t6.5 75q0 111 -50.5 184.5t-160.5 73.5h-359z" />
<glyph unicode="Q" horiz-adv-x="1226" d="M618 -27q-223 0 -347 154t-124 424q0 385 185.5 618.5t486.5 233.5q223 0 347 -151.5t124 -422.5q0 -266 -117.5 -476t-302.5 -330q37 -55 108 -88t146 -33h41l-12 -95h-35q-98 0 -178 31t-116 59.5t-79 75.5h-127zM805 1298q-164 0 -288 -106.5t-184.5 -270 t-60.5 -356.5q0 -219 91.5 -353t269.5 -134q168 0 291 104.5t182 268t59 358.5q0 213 -91 351t-269 138z" />
<glyph unicode="R" horiz-adv-x="1030" d="M811 614h2q49 -33 66.5 -69.5t35.5 -134.5l11 -72q14 -133 57 -338h-121l-71 436q-35 139 -168 139h-322l-80 -575h-115l195 1380h498q160 0 227.5 -98t67.5 -238q0 -43 -10.5 -96t-38 -123.5t-88 -128t-146.5 -82.5zM317 686h388q98 0 163.5 62.5t88 134t22.5 139.5 q0 106 -50 177t-159 71h-371z" />
<glyph unicode="S" horiz-adv-x="954" d="M668 1403q221 0 358 -137l-57 -101q-59 53 -145.5 89t-172.5 36q-225 0 -301 -205q-9 -29 -9 -57q0 -122 169 -213l287 -139q98 -53 136 -141q29 -66 28 -126q0 -19 -3 -38q-29 -180 -158.5 -287t-297.5 -107q-258 0 -434 177l41 63l22 37q70 -70 173.5 -118t209.5 -48 q96 0 185 54.5t124 156.5q16 49 17 86q0 117 -113 184l-334 156q-104 51 -149 145q-25 53 -26 118q0 50 15 108q37 137 156 222t279 85z" />
<glyph unicode="T" horiz-adv-x="901" d="M1077 1270h-391l-178 -1270h-115l178 1270h-391l17 110h897z" />
<glyph unicode="U" horiz-adv-x="1171" d="M581.5 -27q-233.5 0 -335.5 140q-71 97 -71 281q0 81 13 179l113 807h115l-113 -794q-12 -88 -12 -161q0 -143 46 -226q69 -125 259 -125q193 0 297 125t139 387l113 794h115l-113 -807q-45 -322 -188.5 -461t-377 -139z" />
<glyph unicode="V" horiz-adv-x="1046" d="M205 1380h117l223 -1241l268 586l301 655h115l-637 -1380h-137z" />
<glyph unicode="W" horiz-adv-x="1617" d="M1065 1327l141 -1153l226 571l249 635h121l-553 -1380h-135l-143 1145l-232 -570l-233 -575h-135l-166 1380h121l137 -1210l465 1157h137z" />
<glyph unicode="X" horiz-adv-x="1021" d="M872 0l-280 578l-232 -299l-213 -279h-137l535 682l-322 698h137l261 -596l430 596h135l-516 -698l340 -682h-138z" />
<glyph unicode="Y" horiz-adv-x="1040" d="M580 0h-119l67 483l-323 897h135l266 -770l481 770h138l-578 -897z" />
<glyph unicode="Z" horiz-adv-x="1003" d="M924 0h-879l21 145l935 1125h-745l16 110h879l-21 -137l-950 -1128h760z" />
<glyph unicode="[" horiz-adv-x="434" d="M553 1292h-170l-211 -1495h170l-12 -88h-273l236 1671h272z" />
<glyph unicode="\" horiz-adv-x="602" d="M453 0l-213 1380h106l211 -1380h-104z" />
<glyph unicode="]" horiz-adv-x="434" d="M414 1292h-168l12 88h272l-235 -1671h-272l12 88h168z" />
<glyph unicode="^" horiz-adv-x="657" d="M168 797l315 583h80l154 -583h-105l-108 448l-236 -448h-100z" />
<glyph unicode="_" horiz-adv-x="1058" d="M25 -154h966l-16 -110h-967z" />
<glyph unicode="`" horiz-adv-x="399" d="M391 1380l103 -264h-101l-135 264h133z" />
<glyph unicode="a" horiz-adv-x="821" d="M731 0h-117l13 92q-98 -119 -285 -119q-113 0 -188.5 65.5t-75.5 184.5q0 197 153.5 286t470.5 109l13 89q2 10 3 26.5t-5 51t-21.5 60t-54.5 47t-96 21.5q-139 0 -275 -69l-16 98q127 76 313 76h34q22 0 73 -14.5t88 -42t61 -92.5q16 -43 17 -98q0 -28 -5 -58zM375 76 q27 0 62.5 8t86.5 29.5t90 76t52 134.5l26 198q-471 -29 -502 -250q-1 -13 -1 -24q0 -75 44 -120q52 -52 142 -52z" />
<glyph unicode="b" horiz-adv-x="933" d="M408 1380l-70 -491q94 129 293 129q162 0 246 -112.5t84 -303.5q0 -270 -126 -449.5t-343 -179.5q-164 0 -267 127l-14 -100h-113l195 1380h115zM588 915q-66 0 -165 -64.5t-116 -178.5l-45 -326q-4 -29 -4 -55q0 -46 13 -82q22 -57 65 -84t83 -37t83 -10q86 0 151.5 44 t99 103.5t54 137t26 130t5.5 97.5q0 53 -10.5 103t-35 103.5t-77.5 86t-127 32.5z" />
<glyph unicode="c" horiz-adv-x="761" d="M117 395q0 283 137 453t369 170q150 0 231 -45l-35 -96q-90 35 -196 34q-113 0 -194 -47t-121 -128t-56 -161.5t-16 -173.5q0 -324 268 -323q106 0 209 37q4 -33 4 -52q0 -33 2 -45q-96 -47 -244 -47q-172 0 -265 111.5t-93 312.5z" />
<glyph unicode="d" horiz-adv-x="933" d="M844 885l69 495h115l-192 -1380h-113l14 100q-141 -127 -303 -127q-156 0 -237.5 113t-81.5 303q0 272 126 450.5t349 178.5q74 0 146.5 -30.5t107.5 -102.5zM602 915q-131 0 -218 -88t-119 -199.5t-32 -234.5q0 -82 17.5 -147.5t70 -116.5t134.5 -51q41 0 84 10t94 37 t88 84t47 137l47 326q2 15 2 30q0 61 -35 109q-43 59 -93 81.5t-87 22.5z" />
<glyph unicode="e" horiz-adv-x="905" d="M467 -27q-156 0 -253 117t-97 316q0 256 142 434t337 178q152 0 243 -111.5t91 -304.5q0 -76 -19 -149h-673q-3 -29 -3 -57q0 -124 61 -211q75 -105 218 -105h8q117 0 244 55l22 -94q-126 -68 -321 -68zM582 913q-109 0 -206 -109.5t-122 -250.5h559q4 38 4 72 q0 121 -51 194q-65 94 -184 94z" />
<glyph unicode="f" horiz-adv-x="440" d="M154 991h129l14 107q14 109 50 177t84 93t73.5 30t58.5 5h6q53 0 105 -29l-27 -82q-41 20 -69 21q-139 0 -164 -191l-19 -131h176l-14 -96h-176l-182 -1305h-115l184 1305h-129z" />
<glyph unicode="g" horiz-adv-x="933" d="M487 78q70 0 164 52t111 167l51 360q4 29 5 55q0 45 -14 82q-22 56 -66 79.5t-83 32.5t-82 9q-90 0 -157.5 -49t-104.5 -129t-55 -167t-18 -179q-1 -313 249 -313zM711 -86l26 184q-117 -125 -278.5 -125t-252.5 104.5t-91 309.5q0 301 132 466t337 165q27 0 60.5 -4 t101 -35t102.5 -84l14 96h113l-156 -1110q-25 -166 -142.5 -238.5t-277.5 -72.5q-199 0 -284 68l39 100q109 -66 247 -66q94 0 157 20.5t92.5 61.5t42 75t18.5 85z" />
<glyph unicode="h" horiz-adv-x="923" d="M907 590l-82 -590h-114l82 590q8 58 8 105q0 221 -180 220q-35 0 -77 -12t-96.5 -42t-95.5 -98.5t-55 -166.5l-84 -596h-115l195 1380h115l-72 -510q39 51 83 84t91 45.5t75.5 15.5t71.5 3q260 0 260 -299q0 -58 -10 -129z" />
<glyph unicode="i" horiz-adv-x="311" d="M98 0l140 991h114l-139 -991h-115zM268 1204l25 176h115l-25 -176h-115z" />
<glyph unicode="j" horiz-adv-x="348" d="M389 991l-156 -1097q-12 -88 -40.5 -149.5t-55 -91.5t-68.5 -45.5t-60.5 -16.5t-49.5 -1q-53 0 -106 27l26 86q53 -16 84 -16q45 0 76 18.5t47 58t22.5 63t14.5 75.5l151 1089h115zM305 1204l25 176h114l-24 -176h-115z" />
<glyph unicode="k" horiz-adv-x="798" d="M508 631l289 -631h-131l-246 561l-152 -151h2l-57 -410h-115l195 1380h115l-117 -821l442 432h133l-360 -360h2z" />
<glyph unicode="l" horiz-adv-x="311" d="M98 0l195 1380h115l-195 -1380h-115z" />
<glyph unicode="m" horiz-adv-x="1431" d="M659 0l91 621q5 34 4 66q0 39 -6 74q-12 65 -58.5 109.5t-120.5 44.5q-90 0 -170 -78.5t-106 -267.5l-80 -569h-115l140 991h104l-16 -123q100 150 286 150q74 0 142.5 -43t97.5 -144q104 186 309 187q268 0 269 -286q0 -50 -9 -109l-88 -623h-114l81 588q9 63 10 114 q0 83 -25 133q-40 81 -159 80q-23 0 -55.5 -11t-78.5 -37.5t-84 -91t-50 -152.5l-88 -623h-111z" />
<glyph unicode="n" horiz-adv-x="923" d="M907 586l-82 -586h-114l82 586q8 57 7 103q0 226 -179 226q-35 0 -77 -12t-95.5 -44t-95.5 -101.5t-56 -165.5l-84 -592h-115l140 991h102l-21 -139q113 166 302 166q168 0 243 -97q53 -68 53 -205q0 -58 -10 -130z" />
<glyph unicode="o" horiz-adv-x="886" d="M96 393q0 283 135.5 454t356.5 171q160 0 250 -111.5t90 -308.5q0 -283 -134.5 -455t-353.5 -172q-162 0 -253 112.5t-91 309.5zM813 569q0 147 -62.5 249t-177.5 102q-160 0 -259 -154t-99 -348q0 -147 61.5 -247.5t178.5 -100.5q154 0 256 154.5t102 344.5z" />
<glyph unicode="p" horiz-adv-x="933" d="M227 102l-71 -512h-115l197 1401h112l-14 -100q137 127 303 127q158 0 240 -112.5t82 -303.5q0 -272 -127 -450.5t-351 -178.5q-72 0 -145.5 29.5t-110.5 99.5zM469 76q100 0 176 50t116 130t59.5 167t19.5 175q0 129 -50.5 222t-168.5 93q-43 0 -86 -10t-94.5 -36.5 t-88.5 -84t-49 -137.5l-45 -326q-2 -16 -2 -30q0 -61 34 -109q42 -59 92 -81.5t87 -22.5z" />
<glyph unicode="q" horiz-adv-x="933" d="M664 -410l71 512q-96 -129 -293 -129q-160 0 -243.5 113t-83.5 303q0 270 125 449.5t342 179.5q162 0 266 -127l14 100h113l-197 -1401h-114zM485 76q66 0 165.5 64.5t115.5 178.5l45 326q4 29 4 55q0 46 -13 82q-22 57 -65 84t-84 37t-82 10q-88 0 -153.5 -44t-99 -103 t-53 -138t-24.5 -129t-5 -96q0 -76 16 -142t75.5 -125.5t157.5 -59.5z" />
<glyph unicode="r" horiz-adv-x="507" d="M602 1018h35l-16 -121h-54q-92 0 -165.5 -72.5t-94.5 -210.5l-86 -614h-115l140 991h104l-18 -127q100 150 270 154z" />
<glyph unicode="s" horiz-adv-x="724" d="M582 193q18 45 17 82q0 66 -56 104q-86 47 -174 86l-78 37q-123 74 -124 210q0 40 11 85q29 98 117 160.5t201 62.5q152 0 272 -96l-57 -95q-123 84 -217 84q-100 0 -155.5 -51t-55.5 -127q0 -100 131 -155l168 -80q70 -35 104.5 -92.5t34.5 -116.5q0 -141 -103.5 -230.5 t-244.5 -89.5q-184 0 -314 127l64 97q150 -121 252 -121q66 0 122 31t85 88z" />
<glyph unicode="t" horiz-adv-x="546" d="M301 895h-143l14 96h143l37 264h115l-37 -264h205l-14 -96h-205l-86 -610q-10 -82 -10 -111q0 -42 26 -72q29 -33 96 -32q41 0 76 12v-80q-57 -29 -121 -29h-21q-7 0 -27.5 3.5t-32 7.5t-31 14t-30.5 24.5t-23.5 38t-17.5 53.5q-6 36 -6 81q0 38 7 84z" />
<glyph unicode="u" horiz-adv-x="923" d="M154 406l84 585h114l-84 -585q-8 -58 -8 -107q0 -86 26 -140q40 -85 175 -85q20 0 42.5 3t66.5 19.5t80 45t68 87t44 138.5l88 624h115l-140 -991h-102l14 106q-43 -51 -116.5 -84.5t-115.5 -41t-63 -7.5q-170 0 -245 100q-53 69 -53 204q0 59 10 129z" />
<glyph unicode="v" horiz-adv-x="890" d="M522 0h-151l-221 991h120l193 -878l436 878h121z" />
<glyph unicode="w" horiz-adv-x="1380" d="M150 991h122l123 -846l359 846h151l125 -846l361 846h118l-430 -991h-133l-133 877l-373 -877h-135z" />
<glyph unicode="x" horiz-adv-x="827" d="M801 991h131l-371 -489l254 -502h-131l-211 428l-332 -428h-131l396 502l-232 489h129l193 -411z" />
<glyph unicode="y" horiz-adv-x="890" d="M78 -414l18 92q23 -5 45 -4q104 0 162 107l90 184l-243 1026h120l199 -872l430 872h121l-639 -1272q-78 -150 -225 -149q-35 0 -78 16z" />
<glyph unicode="z" horiz-adv-x="776" d="M37 0l16 117l695 780h-564l13 94h682l-17 -119l-692 -778h561l-12 -94h-682z" />
<glyph unicode="{" horiz-adv-x="571" d="M166 487l10 72q94 18 135 93t60 206l45 313q12 88 75.5 148.5t124.5 60.5h84l-12 -86h-47q-102 0 -123 -133l-47 -332q-10 -86 -45 -158.5t-60.5 -100t-48.5 -46.5q98 -123 68 -307l-41 -291q-18 -133 86 -133h47l-10 -84h-84q-63 0 -109.5 60.5t-33.5 148.5l36 270 q25 113 1.5 196t-111.5 103z" />
<glyph unicode="|" horiz-adv-x="294" d="M66 -227l247 1767h99l-248 -1767h-98z" />
<glyph unicode="}" horiz-adv-x="571" d="M551 559l-10 -72q-94 -20 -135 -94t-60 -205l-39 -270q-12 -88 -75.5 -148.5t-127.5 -60.5h-81l12 84h47q104 0 123 133l41 291q23 193 153 307q-12 12 -23 29.5t-28.5 59.5t-20.5 92.5t5 123.5l47 332q18 133 -86 133h-47l12 86h82q63 0 109.5 -60t33.5 -149l-43 -313 q-25 -113 -1 -197t112 -102z" />
<glyph unicode="~" horiz-adv-x="825" d="M377 741q49 0 131 -45q86 -47 133 -47q98 0 117 127h94q-31 -231 -229 -231q-51 0 -129 45t-129 45q-96 0 -121 -133h-94q43 239 227 239z" />
<glyph unicode="&#xa2;" horiz-adv-x="761" d="M702 1182l-24 -166q106 -6 176 -43l-33 -96q-90 35 -198 34q-113 0 -194 -47t-121 -128t-56 -161.5t-16 -173.5q0 -145 63 -234t207 -89q104 0 207 37q6 -29 6 -58q0 -27 2 -39q-76 -39 -189 -45l-26 -186h-98l26 186h6q-156 10 -239.5 121t-83.5 299q0 270 127 439 t342 184h-6l24 166h98z" />
<glyph unicode="&#xa3;" horiz-adv-x="817" d="M408 752l-91 -639h486l-17 -113h-727l17 113h125l88 639h-154l12 92h152l12 94q33 231 148.5 348t300.5 117q139 0 225 -64l-59 -84q-82 55 -178 56q-131 0 -211 -101.5t-105 -271.5l-12 -94h317l-12 -92h-317z" />
<glyph unicode="&#xa5;" horiz-adv-x="935" d="M528 0h-118l39 270h-306l13 84h305l22 170h-305l12 86h287l-260 791h133l221 -717l412 717h133l-485 -791h282l-12 -86h-299l-22 -170h299l-13 -84h-299z" />
<glyph unicode="&#xa9;" horiz-adv-x="1339" d="M152 594q0 326 218 567.5t496 241.5q225 0 369.5 -177t144.5 -440q0 -326 -217 -568.5t-497 -242.5q-221 0 -367.5 179.5t-146.5 439.5zM252 606q0 -223 122 -376.5t306 -153.5q236 0 420 209t184 489q0 223 -122 376t-310 153q-233 0 -416.5 -209t-183.5 -488zM414 614 q0 205 117.5 351.5t299.5 146.5q129 0 207 -47l-26 -55q-8 -16 -17 -41q-80 35 -155 35q-154 0 -235 -115t-81 -260q0 -113 55.5 -190t170.5 -77q76 0 168 31l6 -49l2 -18l6 -27q-90 -45 -221 -45q-139 0 -218 102t-79 258z" />
<glyph unicode="&#xad;" horiz-adv-x="694" d="M698 475h-567l16 119h568z" />
<glyph unicode="&#xae;" horiz-adv-x="1339" d="M152 594q0 326 218 567.5t496 241.5q225 0 369.5 -177t144.5 -440q0 -326 -217 -568.5t-497 -242.5q-221 0 -367.5 179.5t-146.5 439.5zM252 606q0 -223 122 -376.5t306 -153.5q236 0 420 209t184 489q0 223 -122 376t-310 153q-233 0 -416.5 -209t-183.5 -488zM1051 897 q0 84 -40 144.5t-134 60.5h-291l-117 -819h84l47 327h172q72 0 86 -67q8 -39 19 -105q12 -84 32 -155h90q-20 76 -47 256q-12 84 -55 108q154 60 154 250zM825 709h-211l41 297h199q111 0 111 -129q0 -59 -33 -113.5t-107 -54.5z" />
<glyph unicode="&#xb4;" horiz-adv-x="399" d="M221 1116l176 264h133l-211 -264h-98z" />
<glyph unicode="&#x2000;" horiz-adv-x="777" />
<glyph unicode="&#x2001;" horiz-adv-x="1554" />
<glyph unicode="&#x2002;" horiz-adv-x="777" />
<glyph unicode="&#x2003;" horiz-adv-x="1554" />
<glyph unicode="&#x2004;" horiz-adv-x="518" />
<glyph unicode="&#x2005;" horiz-adv-x="388" />
<glyph unicode="&#x2006;" horiz-adv-x="259" />
<glyph unicode="&#x2007;" horiz-adv-x="259" />
<glyph unicode="&#x2008;" horiz-adv-x="194" />
<glyph unicode="&#x2009;" horiz-adv-x="310" />
<glyph unicode="&#x200a;" horiz-adv-x="86" />
<glyph unicode="&#x2010;" horiz-adv-x="694" d="M698 475h-567l16 119h568z" />
<glyph unicode="&#x2011;" horiz-adv-x="694" d="M698 475h-567l16 119h568z" />
<glyph unicode="&#x2012;" horiz-adv-x="694" d="M698 475h-567l16 119h568z" />
<glyph unicode="&#x2013;" horiz-adv-x="960" d="M147 594h834l-16 -113h-834z" />
<glyph unicode="&#x2014;" horiz-adv-x="1560" d="M147 594h1434l-16 -111h-1434z" />
<glyph unicode="&#x2018;" horiz-adv-x="448" d="M381 1038l-107 342h95l147 -342h-135z" />
<glyph unicode="&#x2019;" horiz-adv-x="448" d="M225 1038l201 342h135l-242 -342h-94z" />
<glyph unicode="&#x201c;" horiz-adv-x="700" d="M633 1038l-107 342h92l148 -342h-133zM381 1038l-107 342h95l147 -342h-135z" />
<glyph unicode="&#x201d;" horiz-adv-x="700" d="M477 1038l201 342h133l-242 -342h-92zM225 1038l201 342h135l-242 -342h-94z" />
<glyph unicode="&#x2022;" horiz-adv-x="520" d="M166 604q0 96 64.5 168t148.5 72q68 0 110.5 -52.5t42.5 -129.5q0 -96 -64.5 -167t-148.5 -71q-68 0 -110.5 52t-42.5 128z" />
<glyph unicode="&#x2026;" horiz-adv-x="1177" d="M80 0l24 176h117l-24 -176h-117zM496 0l24 176h119l-25 -176h-118zM946 0l25 176h119l-25 -176h-119z" />
<glyph unicode="&#x202f;" horiz-adv-x="310" />
<glyph unicode="&#x205f;" horiz-adv-x="388" />
<glyph unicode="&#x20ac;" horiz-adv-x="1130" d="M342 778h-203q16 37 25 53q0 2 6 12.5t8 14.5h182q82 250 258.5 407.5t399.5 157.5q141 0 239 -61q-4 -6 -14 -27.5t-16 -31.5v4q-2 -2 -15 -35q-90 47 -163 47q-201 0 -349.5 -132t-224.5 -329h551l-41 -78h-528q-25 -92 -25 -147v-35h465l-41 -78h-422 q25 -190 134.5 -314t305.5 -124q80 0 181 47l18 -90q-121 -63 -258 -64q-213 0 -344 154t-154 391h-215l39 78h174q2 8 2 31q5 63 25 149z" />
<glyph unicode="&#x2122;" horiz-adv-x="1505" d="M274 1380h709l133 -692l330 692h149l-88 -811h-98l82 707l-330 -698h-117l-133 696l-114 -705h-101l123 721h-250l-100 -721h-96l100 721h-211z" />
<glyph unicode="&#xe000;" horiz-adv-x="990" d="M0 990h990v-990h-990v990z" />
<glyph unicode="&#xfb01;" horiz-adv-x="751" d="M539 0l125 895h-283l-180 -1305h-115l182 1305h-129l15 96h129l14 107q14 109 50 177t84 93t73.5 30t58.5 5h6q53 0 105 -29l-27 -82q-41 20 -69 21q-139 0 -164 -191l-19 -131h398l-140 -991h-114z" />
<glyph unicode="&#xfb02;" horiz-adv-x="751" d="M539 0l180 1284h-146q-139 0 -163 -190l-15 -103h176l-14 -96h-176l-180 -1305h-115l182 1305h-129l15 96h129l10 84q12 86 42 148.5t60.5 91t71.5 45t59.5 18.5t38.5 2h281l-193 -1380h-114z" />
<glyph unicode="&#xfb03;" horiz-adv-x="1191" d="M979 0l125 895h-283l-182 -1305h-115l185 1305h-328l-182 -1305h-115l184 1305h-129l15 96h129l14 107q14 109 50 177t84 93t73.5 30t58.5 5h6q53 0 105 -29l-27 -82q-41 20 -69 21q-139 0 -164 -191l-19 -131h328l14 107q14 109 50 177t84.5 93t74 30t58.5 5h6 q53 0 104 -29l-27 -82q-41 20 -69 21q-139 0 -164 -191l-18 -131h397l-139 -991h-115z" />
<glyph unicode="&#xfb04;" horiz-adv-x="1191" d="M979 0l180 1286h-147q-133 0 -162 -186l-14 -109h176l-15 -96h-176l-182 -1305h-115l185 1305h-328l-182 -1305h-115l184 1305h-129l15 96h129l14 107q14 109 50 177t84 93t73.5 30t58.5 5h6q53 0 105 -29l-27 -82q-41 20 -69 21q-139 0 -164 -191l-19 -131h328l10 84 q12 86 42 148.5t60.5 91t71.5 45t59.5 18.5t39.5 2h280l-192 -1380h-115z" />
</font>
</defs>
</svg>
