<?xml version="1.0" standalone="no"?>
<!DOCTYPE svg PUBLIC "-//W3C//DTD SVG 1.1//EN" "http://www.w3.org/Graphics/SVG/1.1/DTD/svg11.dtd" >
<svg xmlns="http://www.w3.org/2000/svg">
<metadata>
This is a custom SVG webfont generated by Fontspring.
</metadata>
<defs>
<font id="webfontBg23q9Eu" horiz-adv-x="995" >
<font-face units-per-em="2048" ascent="1536" descent="-512" />
<missing-glyph horiz-adv-x="483" />
<glyph unicode=" "  horiz-adv-x="483" />
<glyph unicode="&#x09;" horiz-adv-x="483" />
<glyph unicode="&#xa0;" horiz-adv-x="483" />
<glyph unicode="!" horiz-adv-x="413" d="M145 276l-14 1104h152l-15 -1104h-123zM123 0v168h168v-168h-168z" />
<glyph unicode="&#x22;" horiz-adv-x="1081" d="M360 774l-10 606h156l-10 -606h-136zM586 774l-11 606h156l-10 -606h-135z" />
<glyph unicode="#" horiz-adv-x="1024" d="M459 1380h149l-108 -401h180l104 401h146l-105 -401h152v-127h-191l-84 -324h168v-127h-206l-109 -401h-141l108 401h-176l-113 -401h-147l109 401h-150v127h184l84 324h-172l2 127h207zM465 852l-82 -324h176l84 324h-178z" />
<glyph unicode="$" horiz-adv-x="999" d="M455 -246v228q-90 10 -176 43q-139 55 -226 143l72 139q72 -72 182.5 -123t212.5 -51q178 0 246 160q10 41 10 67q0 68 -35.5 116t-91.5 71l-338 153q-227 100 -227 324q0 20 4 61q18 135 119.5 221.5t255.5 94.5h-8v213h112v-217h-4q80 -10 150 -35q102 -43 176 -113 l-62 -137q-59 59 -155.5 100t-184.5 41q-84 0 -146 -44t-85 -136q-6 -92 38 -139t122 -82h-2l24 -10l289 -133q217 -94 217 -326q0 -94 -33 -178q-41 -96 -132 -156.5t-212 -68.5v-226h-112z" />
<glyph unicode="%" horiz-adv-x="1415" d="M287 0l698 1380h117l-696 -1380h-119zM813 338q0 166 67.5 259t188.5 93t188.5 -93t67.5 -259q0 -168 -67.5 -262t-188.5 -94t-188.5 94t-67.5 262zM1217 338q0 100 -36 164.5t-112 64.5q-145 0 -145 -229q0 -242 145 -242q76 0 112 70t36 172zM86 1036q0 166 67.5 259.5 t188.5 93.5t188.5 -93.5t67.5 -259.5q0 -168 -67.5 -262t-188.5 -94t-188.5 94t-67.5 262zM489 1036q0 100 -35.5 165t-111.5 65q-145 0 -145 -230q0 -242 145 -241q76 0 111.5 69.5t35.5 171.5z" />
<glyph unicode="&#x26;" horiz-adv-x="1103" d="M233 383q0 -127 66 -204t182 -77q170 0 258 195h2l-292 354q-82 -18 -149 -91t-67 -177zM641 1098q-4 78 -45 131t-115 55q-74 -2 -113.5 -55t-43.5 -131q-4 -86 42 -173t115 -104q78 33 121 112t39 165zM590 725l211 -262q18 55 18 215v12h135q0 -10 1 -31.5t1 -31.5 q0 -186 -51 -281h-2l15 -16q55 -66 82.5 -104t50 -98t22.5 -128h-158q-2 72 -15 104.5t-48 73.5q-4 0 -4 4q-119 -205 -367 -205q-201 0 -305 112t-104 280q0 141 73.5 240.5t192.5 146.5h-2q-80 59 -119 157.5t-41 190.5q12 135 102.5 217t202.5 82q119 0 209 -79t98 -220 q4 -88 -34.5 -185.5t-126.5 -162.5l-39 -31h2z" />
<glyph unicode="'" horiz-adv-x="333" d="M100 774l-12 606h156l-11 -606h-133z" />
<glyph unicode="(" horiz-adv-x="620" d="M549 -412q-203 0 -323 240t-120 664q2 420 122 654t321 234v-123q-125 -2 -207 -191t-82 -583q0 -391 82 -579.5t207 -190.5v-125z" />
<glyph unicode=")" horiz-adv-x="620" d="M72 1380q203 0 322.5 -237.5t119.5 -661.5q-2 -420 -122 -656.5t-320 -236.5v125q125 2 206.5 190.5t81.5 579.5q0 393 -81.5 582.5t-206.5 191.5v123z" />
<glyph unicode="*" horiz-adv-x="698" d="M395 1137l174 139l58 -111l-199 -116l99.5 -56.5l99.5 -56.5l-58 -113l-174 142q2 -41 8.5 -123t8.5 -123h-123l16 248l-176 -144l-57 113l196 113l-196 116l57 111l176 -141q-2 41 -8 122.5t-8 122.5h123z" />
<glyph unicode="+" horiz-adv-x="1001" d="M72 745h364v431h131v-431h363v-133h-363v-428h-131v428h-364v133z" />
<glyph unicode="," horiz-adv-x="446" d="M49 -193l156 386h174l-199 -386h-131z" />
<glyph unicode="-" horiz-adv-x="739" d="M668 455h-596v159h596v-159z" />
<glyph unicode="." horiz-adv-x="358" d="M88 0v193h180v-193h-180z" />
<glyph unicode="/" horiz-adv-x="649" d="M594 1380l-406 -1380h-135l406 1380h135z" />
<glyph unicode="0" d="M494 -27q-199 0 -311.5 182.5t-112.5 508.5q0 328 112.5 509t311.5 181q203 0 317.5 -181.5t114.5 -509t-114.5 -509t-317.5 -181.5zM494 1206q-86 0 -147.5 -79.5t-87.5 -198.5t-26 -264q0 -236 66 -391.5t195 -155.5q133 0 200.5 155.5t67.5 391.5q0 145 -26.5 264 t-89 198.5t-152.5 79.5z" />
<glyph unicode="1" d="M330 901l-90 107l270 323h154v-1331h-156v1122z" />
<glyph unicode="2" d="M438 1204q-92 0 -173 -56t-124 -114l-57 135q121 182 362 183q190 0 292 -112t102 -275q0 -111 -40 -190t-175 -179q-186 -125 -282.5 -229.5t-98.5 -210.5h596v-156h-756v82q0 111 33 202t104.5 169.5t138 132t181.5 131.5q145 111 145 244q0 125 -69.5 184t-178.5 59z " />
<glyph unicode="3" d="M498 -27q-227 0 -381 177l-8 6l57 131q45 -43 70.5 -65.5t102.5 -60.5t150 -38q115 0 177.5 63.5t62.5 171.5q0 111 -69.5 172.5t-172.5 61.5h-120v158h120q106 0 159.5 61t55.5 152q2 94 -58 168.5t-163 74.5q-86 0 -164.5 -56t-117.5 -112l-56 133q12 20 32 43t62 59 t108.5 58.5t146.5 22.5q152 0 262 -96.5t110 -290.5q0 -94 -54 -178t-161 -117q113 -33 174.5 -118t61.5 -192q0 -182 -106.5 -285.5t-280.5 -103.5z" />
<glyph unicode="4" d="M764 0h-160v285h-543v164q59 137 152.5 295.5t150.5 243.5l181 263l57 80h162v-907h170v-139h-170v-285zM199 424h405v686q-292 -422 -405 -686z" />
<glyph unicode="5" d="M739 432q0 113 -61.5 205t-192.5 92q-158 0 -194 -133h-158l74 735h608v-160h-475l-45 -376q74 82 242 82q147 0 252.5 -125t105.5 -326q0 -221 -121 -337t-307 -116q-244 0 -367 185l70 139q41 -74 124 -127t155 -53q143 0 216.5 88t73.5 227z" />
<glyph unicode="6" d="M586 1212q-150 0 -236 -124.5t-94 -348.5q37 70 113.5 105t146.5 35q170 0 277.5 -124t107.5 -329q0 -211 -110.5 -331t-284.5 -120q-86 0 -154.5 31t-111.5 84t-74 116.5t-45.5 141.5t-20.5 143.5t-6 135.5q0 360 127 543.5t340 183.5q84 0 143.5 -14.5t84 -30 t53.5 -41.5l-56 -127q-75 71 -200 71zM504 121q115 0 175 95t60 210q0 117 -61.5 217t-175.5 100q-106 0 -168 -89t-62 -216q0 -137 63 -227t169 -90z" />
<glyph unicode="7" d="M98 1167v164h799v-151q-190 -285 -311 -561.5t-215 -618.5h-185q215 676 551 1167h-639z" />
<glyph unicode="8" d="M498 1354l88 -6q111 -23 197.5 -118t86.5 -229q0 -98 -50 -180t-158 -123q76 -25 128 -70.5t75.5 -100t32.5 -97.5t9 -84q0 -160 -107.5 -266.5t-301.5 -106.5q-201 0 -305.5 105.5t-104.5 267.5q0 41 9 84t33 97.5t76 100.5t128 70q-109 41 -159 123t-50 180 q0 131 87 227.5t196 119.5q24 6 90 6zM497.5 113q114.5 0 183.5 73.5t69 173.5q0 104 -66 182.5t-186 80.5q-121 -2 -185.5 -79t-64.5 -184q0 -100 67.5 -173.5t182 -73.5zM497.5 772q204.5 0 209.5 229q0 88 -53.5 153t-156 65t-155.5 -64.5t-53 -153.5q4 -229 208.5 -229z " />
<glyph unicode="9" d="M410 117q147 0 233 125t94 348q-37 -72 -112.5 -105.5t-145.5 -33.5q-170 0 -277.5 123.5t-107.5 328.5q0 211 110.5 331t284.5 120q86 0 155 -31t112 -84t73.5 -116.5t45 -141.5t20.5 -143.5t6 -135.5q0 -360 -127 -543.5t-340 -183.5q-84 0 -143.5 14.5t-84 30 t-52.5 41.5l55 125q74 -69 201 -69zM492 1208q-115 0 -175.5 -95t-60.5 -210q0 -117 61.5 -217t176.5 -100q106 0 167.5 89t61.5 216q0 137 -62.5 227t-168.5 90z" />
<glyph unicode=":" horiz-adv-x="358" d="M88 0v193h180v-193h-180zM88 799v192h180v-192h-180z" />
<glyph unicode=";" horiz-adv-x="499" d="M229 799v192h181v-192h-181zM88 -170l152 363h170l-197 -363h-125z" />
<glyph unicode="&#x3c;" horiz-adv-x="1024" d="M918 995v-161l-678 -340l678 -340v-160l-865 450v101z" />
<glyph unicode="=" horiz-adv-x="1036" d="M948 807h-860v133h860v-133zM948 410h-860v133h860v-133z" />
<glyph unicode="&#x3e;" horiz-adv-x="1024" d="M106 834v161l863 -450v-101l-863 -450v160l678 340z" />
<glyph unicode="?" horiz-adv-x="944" d="M526 276h-149q0 190 36 269.5t199 247.5q96 96 97 227q0 100 -63.5 168.5t-172.5 68.5q-84 0 -153.5 -72.5t-81.5 -121.5l-123 108q16 33 39.5 64t66.5 74t111.5 68.5t148.5 25.5q164 0 277.5 -107.5t113.5 -287.5q0 -182 -174 -355q-172 -176 -172 -317v-60zM365 0v193 h180v-193h-180z" />
<glyph unicode="@" horiz-adv-x="1507" d="M1276 133l37 -63q-84 -102 -231.5 -159.5t-301.5 -57.5q-317 0 -504.5 221t-187.5 551q0 319 197.5 545.5t474.5 226.5q164 0 294 -60.5t206.5 -157t116.5 -206t40 -219.5q0 -152 -41 -268.5t-105.5 -179t-133 -93.5t-136.5 -31q-119 0 -145 111q-35 -29 -87 -46.5 t-81 -20.5t-43 -3q-246 0 -246 299q0 207 101.5 337t271.5 130q88 0 143 -55l9 39h151l-98 -520q-12 -63 0 -108.5t41 -45.5q94 0 188 112.5t94 327.5q0 170 -83.5 300t-204.5 192.5t-252 62.5q-223 0 -387 -200.5t-164 -468.5q0 -295 160.5 -487.5t416.5 -192.5 q261 0 490 188zM774 868q-170 0 -209 -264q-8 -41 -8 -92q0 -168 107 -168q51 0 106 37t74 119l39 245q-2 59 -40 91t-69 32z" />
<glyph unicode="A" horiz-adv-x="1183" d="M193 0h-175l488 1380h172l487 -1380h-174l-112 324h-576zM592 1176l-240 -697h477z" />
<glyph unicode="B" horiz-adv-x="1073" d="M651 616h-370v-460h370q98 0 150.5 64.5t52.5 158.5q0 98 -52.5 167.5t-150.5 69.5zM809 719q98 -18 158.5 -116.5t60.5 -225.5q0 -143 -86 -260t-244 -117h-583v1380h524q166 0 248 -106.5t82 -259.5q0 -201 -160 -295zM281 774h350q86 14 126 80t40 137q0 233 -195 234 h-321v-451z" />
<glyph unicode="C" horiz-adv-x="1067" d="M72 690q0 305 161.5 509t428.5 204q233 0 350 -72l-45 -137q-119 51 -267 51q-121 0 -212 -48t-142 -130t-76.5 -176t-25.5 -200.5t25.5 -201t76.5 -176.5t142.5 -130t211.5 -48q145 0 271 51l41 -137q-117 -72 -350 -72q-266 0 -428 204t-162 509z" />
<glyph unicode="D" horiz-adv-x="1181" d="M539 0h-424v1380h424q276 0 431.5 -175t155.5 -515t-155.5 -515t-431.5 -175zM281 156h264q184 0 301 132t117 402q0 276 -114 405.5t-310 129.5h-258v-1069z" />
<glyph unicode="E" horiz-adv-x="991" d="M911 0h-796v1380h784v-155h-618v-449h546v-158h-546v-462h630v-156z" />
<glyph unicode="F" horiz-adv-x="921" d="M281 -2l-166 2v1380h745v-155h-579v-449h532v-158h-532v-620z" />
<glyph unicode="G" horiz-adv-x="1202" d="M969 575h-248v158h399v-661q-61 -43 -182 -69t-227 -26q-289 0 -464 204t-175 509t175 509t464 204q231 0 381 -111l-68 -139q-63 49 -141 71.5t-131 22.5q-131 0 -231.5 -48t-159 -130t-88 -178t-29.5 -200.5t30.5 -201t88 -177.5t153.5 -129t215 -48q127 0 244 45h-6 v395z" />
<glyph unicode="H" horiz-adv-x="1163" d="M881 637h-600v-637h-166v1380h166v-585h600v585h166v-1380h-166v637z" />
<glyph unicode="I" horiz-adv-x="432" d="M133 0v1380h166v-1380h-166z" />
<glyph unicode="J" horiz-adv-x="741" d="M18 51l37 137q63 -49 163 -58q21 -2 41 -2q75 0 134 28q72 47 72 231v993h162v-1005q0 -217 -91.5 -307.5t-232.5 -90.5q-66 0 -139 19q-76 16 -146 55z" />
<glyph unicode="K" horiz-adv-x="1038" d="M1018 0h-199l-397 625l-143 -199h2v-426h-166v1380h166v-704l469 704h190l-420 -618z" />
<glyph unicode="L" horiz-adv-x="931" d="M281 1380v-1224h579v-158h-745v1382h166z" />
<glyph unicode="M" horiz-adv-x="1476" d="M670 0l-389 1176l-19 -588q-12 -393 -16 -588h-166l45 1380h248l364 -1108l365 1108h248l45 -1380h-166l-35 1176l-389 -1176h-135z" />
<glyph unicode="N" horiz-adv-x="1175" d="M819 0l-538 1180v-1180h-166v1380h258l522 -1173v1173h166v-1380h-242z" />
<glyph unicode="O" horiz-adv-x="1277" d="M639 -23q-262 0 -414.5 189.5t-152.5 523.5t152.5 523.5t414.5 189.5t414.5 -189.5t152.5 -523.5t-152.5 -523.5t-414.5 -189.5zM639 1251q-188 0 -290.5 -160.5t-102.5 -400.5q0 -250 101.5 -405.5t291.5 -155.5t290.5 155.5t100.5 405.5q0 240 -101.5 400.5 t-289.5 160.5z" />
<glyph unicode="P" horiz-adv-x="1021" d="M653 535h-372v-535h-166v1380h526q94 0 163.5 -41t107.5 -108.5t55.5 -139t17.5 -147.5q0 -25 -3 -59.5t-22.5 -100t-51 -118t-98.5 -92t-157 -39.5zM281 692h348q55 0 94 26.5t56.5 69.5t24.5 80t7 74q0 117 -52 200t-161 83h-317v-533z" />
<glyph unicode="Q" horiz-adv-x="1259" d="M639 -23q-262 0 -414.5 189.5t-152.5 523.5t152.5 523.5t414.5 189.5t414.5 -189.5t152.5 -523.5q0 -225 -75.5 -390t-210.5 -251q125 -92 217 -92h67v-139h-61q-102 0 -186.5 28.5t-116 53t-76.5 65.5l-12 12h-113zM639 1251q-188 0 -290.5 -160.5t-102.5 -400.5 q0 -250 101.5 -405.5t291.5 -155.5t290.5 155.5t100.5 405.5q0 240 -101.5 400.5t-289.5 160.5z" />
<glyph unicode="R" horiz-adv-x="1077" d="M745 604q94 -14 148 -174l139 -430h-178l-141 434q-49 121 -150 121h-282v-555h-166v1380h508q106 0 181 -40t112.5 -106.5t53 -135t15.5 -146.5q0 -31 -5 -63.5t-23.5 -98t-73 -116t-138.5 -70.5zM281 711h348q55 0 95 25.5t59.5 65.5t27.5 76.5t8 71.5q0 117 -50 196 t-159 79h-329v-514z" />
<glyph unicode="S" horiz-adv-x="999" d="M713 1362h2q102 -43 174 -113l-62 -137q-59 59 -155.5 100t-184.5 41q-84 0 -146 -44t-85 -136q-2 -14 -2 -27q0 -65 42 -110q50 -53 142 -94l289 -133q217 -94 217 -326q0 -94 -33 -178q-43 -104 -145 -166t-238 -62q-115 0 -249 48q-139 55 -226 143l72 139 q72 -72 182.5 -123t212.5 -51q178 0 246 160q10 41 10 67q0 68 -35.5 116t-91.5 71l-338 153q-227 100 -227 324q0 20 4 61q18 141 129 229.5t275 88.5q102 0 221 -41z" />
<glyph unicode="T" horiz-adv-x="942" d="M932 1225h-377v-1225h-166v1225h-379v155h922v-155z" />
<glyph unicode="U" horiz-adv-x="1210" d="M606.5 -27q-237.5 0 -364.5 141.5t-127 463.5v802h168v-790q0 -240 77.5 -354.5t245.5 -114.5t245 113.5t77 355.5v790h168v-802q0 -322 -126 -463.5t-363.5 -141.5z" />
<glyph unicode="V" horiz-adv-x="1099" d="M18 1380h170l361 -1169l362 1169h168l-442 -1380h-174z" />
<glyph unicode="W" horiz-adv-x="1646" d="M909 1329l273 -1083l272 1134h172l-358 -1380h-172l-273 1061l-272 -1061h-172l-361 1380h172l275 -1136l272 1085h172z" />
<glyph unicode="X" horiz-adv-x="1097" d="M883 0l-334 561l-334 -561h-195l439 682l-420 698h194l316 -569l315 569h195l-420 -698l438 -682h-194z" />
<glyph unicode="Y" horiz-adv-x="1124" d="M649 0h-174v485l-448 895h194l340 -729l340 729h197l-449 -895v-485z" />
<glyph unicode="Z" horiz-adv-x="1042" d="M956 0h-903v172l727 1053h-696v155h903v-166l-737 -1054h706v-160z" />
<glyph unicode="[" horiz-adv-x="491" d="M420 1247h-160v-1523h160v-134h-314v1790h314v-133z" />
<glyph unicode="\" horiz-adv-x="649" d="M461 0l-408 1380h137l404 -1380h-133z" />
<glyph unicode="]" horiz-adv-x="491" d="M231 1247h-159v133h313v-1790h-313v134h159v1523z" />
<glyph unicode="^" horiz-adv-x="733" d="M63 776l246 604h115l246 -604h-142l-163 414l-162 -414h-140z" />
<glyph unicode="_" horiz-adv-x="1081" d="M53 -147h975v-105h-975v105z" />
<glyph unicode="`" horiz-adv-x="450" d="M244 1380l139 -270h-131l-184 270h176z" />
<glyph unicode="a" horiz-adv-x="866" d="M768 0h-170v94q-84 -117 -227 -117q-135 0 -226.5 79t-91.5 220q0 178 142.5 260t414.5 99h-8v61q0 152 -143 174q-23 4 -47 4q-53 0 -101.5 -13t-70 -23.5t-80.5 -42.5l-47 125q0 4 35.5 25.5t111.5 46t160 24.5h38q24 0 83 -14.5t105 -43t84 -95t38 -161.5v-702z M375 121q23 0 52.5 7t73.5 25.5t72.5 64.5t28.5 114v176q-184 -12 -290 -71q-103 -57 -103 -151q0 -77 48 -122q46 -43 118 -43z" />
<glyph unicode="b" horiz-adv-x="968" d="M272 1380v-491q35 63 100.5 95t131.5 32q182 0 291.5 -132t109.5 -388t-107.5 -387.5t-285.5 -131.5q-170 0 -242 107v-84h-164v1380h166zM477 870q-49 0 -120.5 -57t-84.5 -151v-320q0 -219 236 -219q117 0 170 107.5t53 265.5q0 374 -254 374z" />
<glyph unicode="c" horiz-adv-x="804" d="M63 495.5q0 243.5 115 382t316 138.5q170 0 258 -55l-35 -138q-102 43 -191 43q-152 0 -227.5 -105.5t-75.5 -265t76 -266t227 -106.5q84 0 191 45l35 -137q-92 -57 -258 -58q-201 0 -316 139.5t-115 383z" />
<glyph unicode="d" horiz-adv-x="968" d="M696 889v491h166v-1380h-164v84q-35 -43 -94 -69.5t-93 -32t-54 -5.5q-178 0 -286 131.5t-108 387.5t110 388t292 132q68 0 132 -32t99 -95zM492 870q-254 0 -254 -374q0 -158 53 -265.5t170 -107.5q236 0 235 219v320q-12 94 -83.5 151t-120.5 57z" />
<glyph unicode="e" horiz-adv-x="940" d="M489 -27q-182 0 -304 142.5t-122 380.5q0 229 110 374.5t296 145.5q188 0 298 -134t110 -370q0 -25 -5 -82h-643q4 -135 78 -222t197 -87h10q111 0 254 69l49 -133q-121 -84 -328 -84zM469 868q-96 0 -163.5 -91t-72.5 -202h480q-8 137 -74 215t-170 78z" />
<glyph unicode="f" horiz-adv-x="493" d="M41 991h106v96q0 111 28 182.5t75 97.5t74.5 31t62.5 5h6q70 0 133 -39l-14 -121q-66 25 -100 25q-100 0 -101 -158v-119h166v-133h-166v-858h-164v858h-106v133z" />
<glyph unicode="g" horiz-adv-x="968" d="M492 123q59 0 131.5 44t72.5 140v342q0 70 -23.5 117t-64.5 68.5t-74.5 28.5t-72.5 7q-117 0 -170 -107.5t-53 -266.5q0 -373 254 -373zM698 -57l-2 137q-35 -53 -99.5 -78t-131.5 -25q-182 0 -292 131.5t-110 387.5t109 388t285 132q20 0 54 -6t93.5 -39t93.5 -86v106 h164v-1079q0 -170 -110.5 -246t-272.5 -76q-98 0 -187 25t-126 57l39 131q109 -78 262 -77q80 0 130 19t70.5 57t25.5 67t5 74z" />
<glyph unicode="h" horiz-adv-x="962" d="M856 586v-586h-166v586q0 285 -182 284q-31 0 -64.5 -10t-75.5 -36.5t-69 -86t-27 -145.5v-592h-166v1380h166v-501q88 137 256 137q328 0 328 -430z" />
<glyph unicode="i" horiz-adv-x="378" d="M106 0v991h166v-991h-166zM106 1202v178h166v-178h-166z" />
<glyph unicode="j" horiz-adv-x="405" d="M299 991l-2 -1091q0 -90 -20.5 -153.5t-47 -93.5t-65.5 -45.5t-59.5 -16.5t-47.5 -1h-8q-80 0 -135 33l18 131q80 -27 107 -26q33 0 54.5 15t28.5 48t9 55.5t2 61.5v1083h166zM133 1202v178h166v-178h-166z" />
<glyph unicode="k" horiz-adv-x="856" d="M473 623l371 -623h-185l-297 518l-41 -52q-32 -40 -51 -60h2v-406h-166v1380h166v-755l318 366h198z" />
<glyph unicode="l" horiz-adv-x="378" d="M106 0v1380h166v-1380h-166z" />
<glyph unicode="m" horiz-adv-x="1441" d="M639 0l2 614q0 256 -182 256q-74 0 -130.5 -70.5t-56.5 -234.5v-565h-166v991h156v-135q57 160 238 160q195 0 258 -152q63 152 256 152q154 0 237.5 -87t83.5 -313v-616h-166v584q0 145 -41 215.5t-139 70.5q-14 0 -31.5 -3t-47 -17t-52 -39t-40 -75t-17.5 -120v-616 h-162z" />
<glyph unicode="n" horiz-adv-x="944" d="M848 582v-582h-168v582q0 289 -180 288q-29 0 -63 -11t-76 -37.5t-69.5 -87t-27.5 -146.5v-588h-166v991h156v-137q41 84 111.5 122t138.5 38q344 0 344 -432z" />
<glyph unicode="o" horiz-adv-x="954" d="M63 495.5q0 243.5 111 382t303.5 138.5t304 -138.5t111.5 -382t-112.5 -383t-303.5 -139.5q-193 0 -303.5 139.5t-110.5 383zM727 496q0 152 -67.5 265t-182.5 113q-119 0 -184.5 -111.5t-65.5 -267t65.5 -268t184.5 -112.5q115 0 182.5 113.5t67.5 267.5z" />
<glyph unicode="p" horiz-adv-x="968" d="M272 82v-492h-166v1403h164l2 -110q84 133 267 133q174 0 270 -129t96 -389q0 -256 -110.5 -390.5t-290.5 -134.5q-63 0 -130 28t-102 81zM477 119q254 0 254 379q0 158 -53 265t-170 107q-80 0 -158 -64.5t-78 -195.5v-301q0 -98 73 -144t132 -46z" />
<glyph unicode="q" horiz-adv-x="968" d="M696 -410v492q-35 -53 -100.5 -81t-130.5 -28q-180 0 -291 134.5t-111 390.5q0 260 96.5 389t270.5 129q182 0 266 -133q0 20 1 55t1 55h164v-1403h-166zM492 119q59 0 131.5 46t72.5 144v301q0 131 -77.5 195.5t-157.5 64.5q-117 0 -170 -107.5t-53 -264.5 q0 -379 254 -379z" />
<glyph unicode="r" horiz-adv-x="573" d="M551 1014v-164q-43 2 -59 2h-31q-76 0 -128 -62.5t-52 -181.5v-608h-166v991h155v-119q57 141 211 142h70z" />
<glyph unicode="s" horiz-adv-x="768" d="M555 217q6 24 6 44q0 66 -65 99l-2 2l-254 117q-166 84 -166 246q0 25 4 61q14 104 96 168t205 64q84 0 170 -33q70 -27 133 -76l-64 -127q-102 82 -229 82q-70 0 -115 -29.5t-43 -86.5q0 -59 30 -86t120 -66q102 -41 172 -78q162 -80 162 -248q0 -61 -25 -131 q-31 -78 -107.5 -122t-179.5 -44q-84 0 -182 35q-111 45 -168 107l68 131q47 -47 131 -82t158 -35q114 0 145 88z" />
<glyph unicode="t" horiz-adv-x="559" d="M141 850h-118v141h118v252h164v-252h195v-141h-195v-555q0 -176 109 -176q33 0 98 24l10 -131q-57 -35 -133 -35h-8q-27 0 -47.5 1.5t-59 16.5t-65.5 46t-47.5 94.5t-20.5 153.5v561z" />
<glyph unicode="u" horiz-adv-x="962" d="M106 410v581h166v-581q0 -291 183 -291q16 0 36.5 3t58.5 17.5t66.5 39t51 75.5t22.5 119v618h166v-991h-156v109q-47 -61 -126.5 -98.5t-122.5 -37.5q-345 1 -345 437z" />
<glyph unicode="v" horiz-adv-x="907" d="M547 0h-187l-358 991h174l279 -813l276 813h174z" />
<glyph unicode="w" horiz-adv-x="1384" d="M10 991h176l201 -766l211 766h190l213 -768l201 768h172l-293 -991h-161l-228 813l-225 -813h-162z" />
<glyph unicode="x" horiz-adv-x="901" d="M672 991h186l-303 -489l326 -502h-187l-243 387l-244 -387h-187l326 502l-301 489h186l220 -373z" />
<glyph unicode="y" horiz-adv-x="942" d="M145 -383l15 145q35 -23 80 -22h8q29 0 52.5 19.5t31.5 37t8 21.5l59 172l-381 1001h177l282 -784l273 784h174l-449 -1243q-25 -63 -72 -102t-81.5 -47.5t-67.5 -8.5q-56 0 -109 27z" />
<glyph unicode="z" horiz-adv-x="815" d="M45 0v143l530 701h-512v147h705v-143l-526 -701h510v-147h-707z" />
<glyph unicode="{" horiz-adv-x="624" d="M106 434v109q88 10 117 75.5t29 188.5v352q0 96 59.5 159.5t130.5 63.5h109v-122h-72q-37 0 -57.5 -42t-20.5 -102v-336q2 -86 -23.5 -155.5t-47 -95t-41.5 -40.5q33 -37 73.5 -135t38.5 -217v-280q0 -61 20.5 -104.5t57.5 -43.5h74v-119h-111q-70 0 -130 64.5t-60 159.5 v295q-1 309 -146 325z" />
<glyph unicode="|" horiz-adv-x="325" d="M106 -258v1884h113v-1884h-113z" />
<glyph unicode="}" horiz-adv-x="624" d="M518 543v-109q-145 -16 -145 -325v-295q0 -94 -60.5 -159t-130.5 -65h-110v119h73q35 0 56.5 44t21.5 104v280q-2 119 39 217.5t74 134.5q-20 14 -42 40t-47.5 95.5t-23.5 155.5v336q0 59 -20.5 101.5t-57.5 42.5h-71v122h108q72 0 131.5 -63.5t59.5 -159.5v-352 q0 -123 28.5 -188.5t116.5 -75.5z" />
<glyph unicode="~" horiz-adv-x="837" d="M285 743q47 0 141 -43q82 -39 121 -38q68 0 104 114h115l-6 -24q-14 -63 -25.5 -99.5t-35 -76t-62.5 -57t-94 -17.5q-57 0 -148 47l-37 18q-41 20 -71 21q-63 0 -101 -121h-114l10 47q14 61 23.5 91t31 69t57.5 54t91 15z" />
<glyph unicode="&#xa2;" horiz-adv-x="804" d="M565 -23v-204h-112v202h8q-186 12 -292 149.5t-106 371t105.5 369.5t292.5 149h-8v194h112v-196q123 -10 187 -51l-35 -138q-102 43 -191 43q-152 0 -227.5 -105.5t-75.5 -265t76 -266t227 -106.5q84 0 191 45l35 -137q-66 -44 -187 -54z" />
<glyph unicode="&#xa3;" horiz-adv-x="854" d="M352 719v-572h473v-147h-759v147h116v572h-145v133h145v84q0 217 88 328.5t211 132.5q35 6 74 6q139 0 250 -88l-70 -117q-72 68 -162 68q-109 0 -165 -90.5t-56 -239.5v-84h301v-133h-301z" />
<glyph unicode="&#xa5;" horiz-adv-x="991" d="M582 0h-170v260q-47 0 -144.5 -2t-144.5 -2v121l289 -4v137q-47 0 -144.5 -1t-144.5 -1v121l256 -4l-352 755h186l283 -639l282 639h187l-353 -755q41 0 127 2t127 2v-121l-284 2v-137q45 0 141 2t143 2v-121l-284 4v-260z" />
<glyph unicode="&#xa9;" horiz-adv-x="1372" d="M360 680q0 -176 91.5 -294t244.5 -118q127 0 205 45h-4l-33 103q-72 -29 -149 -29q-127 0 -185.5 85t-58.5 208t58.5 207t185.5 84q82 0 149 -29l33 102h4q-76 47 -205 48q-154 0 -245 -118t-91 -294zM72 690q0 295 180 504t434 209t434 -209t180 -504t-180 -504 t-434 -209t-434 209t-180 504zM197 690q0 -244 142 -415t347 -171q203 0 346.5 172.5t143.5 414t-143.5 413.5t-346.5 172q-205 0 -347 -171t-142 -415z" />
<glyph unicode="&#xad;" horiz-adv-x="739" d="M668 455h-596v159h596v-159z" />
<glyph unicode="&#xae;" horiz-adv-x="1372" d="M954 838q0 -10 -4 -31t-14 -52.5t-36 -63.5t-60 -50q41 -25 63 -90l17 -53l12 -41q23 -86 59 -164h-141q-37 61 -64 156l-6 26l-20 70q-31 55 -68 55h-133v-307h-135v799h307q125 0 174 -75t49 -179zM559 719h176q84 0 84 119q0 137 -96 137h-164v-256zM72 690 q0 295 180 504t434 209t434 -209t180 -504t-180 -504t-434 -209t-434 209t-180 504zM197 690q0 -244 142 -415t347 -171q203 0 346.5 172.5t143.5 414t-143.5 413.5t-346.5 172q-205 0 -347 -171t-142 -415z" />
<glyph unicode="&#xb4;" horiz-adv-x="450" d="M66 1110l141 270h174l-182 -270h-133z" />
<glyph unicode="&#x2000;" horiz-adv-x="813" />
<glyph unicode="&#x2001;" horiz-adv-x="1626" />
<glyph unicode="&#x2002;" horiz-adv-x="813" />
<glyph unicode="&#x2003;" horiz-adv-x="1626" />
<glyph unicode="&#x2004;" horiz-adv-x="542" />
<glyph unicode="&#x2005;" horiz-adv-x="406" />
<glyph unicode="&#x2006;" horiz-adv-x="271" />
<glyph unicode="&#x2007;" horiz-adv-x="271" />
<glyph unicode="&#x2008;" horiz-adv-x="203" />
<glyph unicode="&#x2009;" horiz-adv-x="325" />
<glyph unicode="&#x200a;" horiz-adv-x="90" />
<glyph unicode="&#x2010;" horiz-adv-x="739" d="M668 455h-596v159h596v-159z" />
<glyph unicode="&#x2011;" horiz-adv-x="739" d="M668 455h-596v159h596v-159z" />
<glyph unicode="&#x2012;" horiz-adv-x="739" d="M668 455h-596v159h596v-159z" />
<glyph unicode="&#x2013;" horiz-adv-x="993" d="M72 614h850v-133h-850v133z" />
<glyph unicode="&#x2014;" horiz-adv-x="1560" d="M72 614h1417v-131h-1417v131z" />
<glyph unicode="&#x2018;" horiz-adv-x="501" d="M412 1380l-152 -340h-170l199 340h123z" />
<glyph unicode="&#x2019;" horiz-adv-x="501" d="M88 1040l152 340h170l-199 -340h-123z" />
<glyph unicode="&#x201c;" horiz-adv-x="768" d="M260 1380l152 -340h-123l-199 340h170zM528 1380l152 -340h-123l-199 340h170z" />
<glyph unicode="&#x201d;" horiz-adv-x="759" d="M88 1040l152 340h170l-199 -340h-123zM348 1040l152 340h170l-199 -340h-123z" />
<glyph unicode="&#x2022;" horiz-adv-x="575" d="M88 626.5q0 94.5 58.5 160t140.5 65.5q84 0 142 -65.5t58 -160t-58 -159t-142 -64.5t-141.5 64.5t-57.5 159z" />
<glyph unicode="&#x2026;" horiz-adv-x="1200" d="M88 0v193h168v-193h-168zM518 0v193h166v-193h-166zM946 0v193h166v-193h-166z" />
<glyph unicode="&#x202f;" horiz-adv-x="325" />
<glyph unicode="&#x205f;" horiz-adv-x="406" />
<glyph unicode="&#x20ac;" horiz-adv-x="1163" d="M236 741h-199l41 123h172q45 238 197.5 388.5t377.5 150.5q150 0 267 -72l-50 -141q-35 27 -93 45t-85 18q-180 0 -292.5 -110.5t-153.5 -278.5h530l-49 -123h-498q-8 -74 0 -125h459l-47 -122h-389q45 -156 158.5 -261.5t281.5 -105.5q82 0 187 61l41 -139 q-117 -72 -267 -72q-219 0 -370.5 143.5t-200.5 373.5h-217l41 122l160 7q-6 38 -2 118z" />
<glyph unicode="&#x2122;" horiz-adv-x="1392" d="M29 1380h684l213 -647l215 647h153l27 -819h-107l-20 666l-223 -666h-88l-224 666l-20 -666h-107l25 727h-199v-727h-106v727h-223v92z" />
<glyph unicode="&#xe000;" horiz-adv-x="990" d="M0 990h990v-990h-990v990z" />
<glyph unicode="&#xfb01;" horiz-adv-x="860" d="M23 991h106v96q0 111 27.5 182.5t76 97.5t75 31t61.5 5h6q70 0 135 -39l-14 -121q-66 25 -101 25q-102 0 -102 -158v-119h461v-991h-166v858q-51 0 -147.5 1t-147.5 1v-860h-164v860q-16 0 -54 -1t-52 -1v133z" />
<glyph unicode="&#xfb02;" horiz-adv-x="860" d="M588 0v1245h-197q-98 -2 -98 -158v-96h168v-133h-168v-858h-164v858h-106v133h106v74q0 109 30.5 180.5t81 97t77 31.5t57.5 6h379v-1380h-166z" />
<glyph unicode="&#xfb03;" horiz-adv-x="1308" d="M1036 0v858h-270v-858h-164v858h-309v-858h-164v858h-106v133h106v96q0 111 27.5 182.5t76 97.5t75 31t61.5 5h6q70 0 135 -39l-14 -121q-66 25 -101 25q-102 0 -102 -158v-119h309v74q0 88 22.5 152.5t51.5 95t70.5 47t61 18.5t42.5 2q70 0 133 -39l-14 -120 q-63 25 -101 24q-102 0 -102 -158v-96h436v-991h-166z" />
<glyph unicode="&#xfb04;" horiz-adv-x="1308" d="M1036 0v1245h-170q-100 -2 -100 -158v-96h168v-133h-168v-858h-164v858h-309v-858h-164v858h-106v133h106v96q0 111 27.5 182.5t76 97.5t75 31t61.5 5h6q70 0 135 -39l-14 -121q-66 25 -101 25q-102 0 -102 -158v-119h309v74q0 88 22.5 152.5t51.5 95t70.5 47t61 18.5 t42.5 2h352v-1380h-166z" />
</font>
</defs>
</svg>
