<?xml version="1.0" standalone="no"?>
<!DOCTYPE svg PUBLIC "-//W3C//DTD SVG 1.1//EN" "http://www.w3.org/Graphics/SVG/1.1/DTD/svg11.dtd" >
<svg xmlns="http://www.w3.org/2000/svg">
<metadata>
This is a custom SVG webfont generated by Fontspring.
</metadata>
<defs>
<font id="webfont9TGN48YA" horiz-adv-x="1208" >
<font-face units-per-em="2048" ascent="1536" descent="-512" />
<missing-glyph horiz-adv-x="569" />
<glyph unicode=" "  horiz-adv-x="569" />
<glyph unicode="&#x09;" horiz-adv-x="569" />
<glyph unicode="&#xa0;" horiz-adv-x="569" />
<glyph unicode="!" horiz-adv-x="550" d="M168 348l-16 1032h247l-16 -1032h-215zM143 0v217h265v-217h-265z" />
<glyph unicode="&#x22;" horiz-adv-x="802" d="M123 774l-21 606h240l-18 -606h-201zM481 774l-20 606h239l-18 -606h-201z" />
<glyph unicode="#" horiz-adv-x="1275" d="M532 1360h248l-123 -381h156l121 381h244l-123 -381h139v-176h-199l-75 -246h157l-2 -180h-215l-123 -377h-235l121 377h-156l-125 -377h-244l119 377h-135v180h192l74 246h-160l2 176h220zM598 803l-76 -246h158l76 246h-158z" />
<glyph unicode="$" d="M856 1362q123 -43 231 -127l-94 -184q-188 145 -407 145q-86 0 -144.5 -42t-68.5 -103q-14 -113 153 -179l351 -137q270 -102 270 -344q0 -178 -127 -285.5t-315 -123.5v-183h-203v187q-92 10 -160 37q-186 70 -281 157l111 185q88 -78 217 -126.5t250 -48.5 q172 0 231 127q25 63 -7 119t-101 88l-381 148q-147 57 -216 149t-69 191q0 158 117 258t289 125v174h203v-174q61 -8 151 -33z" />
<glyph unicode="%" horiz-adv-x="1708" d="M82 1008q0 -166 92 -260.5t250 -94.5q160 0 253 94.5t93 260.5t-93 259t-253 93t-251 -93t-91 -259zM551 1008q0 -78 -32 -130.5t-95 -52.5q-61 0 -92 51.5t-31 131t30.5 131t92.5 51.5q63 0 95 -51t32 -131zM938 332q0 -166 92 -260.5t250 -94.5q160 0 253 94.5 t93 260.5t-93 259t-253 93t-251 -93t-91 -259zM1407 332q0 -78 -32 -130t-95 -52q-61 0 -92 51t-31 131t31 131t92 51q63 0 95 -51t32 -131zM377 0l805 1380h155l-802 -1380h-158z" />
<glyph unicode="&#x26;" horiz-adv-x="1312" d="M338 389q0 -104 62.5 -168.5t174.5 -64.5q158 0 240 151l-293 303q-76 -25 -130 -82t-54 -139zM711 1061q-6 61 -39 103t-97 44q-63 -2 -98 -45t-39 -102q-4 -70 35 -139.5t98 -85.5q68 27 106 91t34 134zM741 709l166 -174q10 88 11 100v74h219q12 -215 -50 -353 q51 -51 74 -77.5t54.5 -72.5t43 -95.5t11.5 -110.5h-236q-6 117 -51 172q-47 -84 -153.5 -139.5t-254.5 -55.5q-242 0 -367.5 114t-125.5 284q0 129 71.5 223t194.5 147q-162 125 -153 322q10 147 122.5 229t257.5 82q143 0 255 -82t122 -227q6 -92 -42 -190t-169 -170z" />
<glyph unicode="'" horiz-adv-x="444" d="M123 774l-21 606h240l-18 -606h-201z" />
<glyph unicode="(" horiz-adv-x="813" d="M123 494q2 410 156.5 648t410.5 238v-168q-137 -2 -233.5 -182t-96.5 -541q0 -354 96.5 -533t233.5 -181v-168q-256 0 -410.5 238.5t-156.5 648.5z" />
<glyph unicode=")" horiz-adv-x="813" d="M690 494q-2 -410 -156.5 -648.5t-410.5 -238.5v168q137 2 233.5 181t96.5 533q0 360 -96.5 540.5t-233.5 182.5v168q256 0 410.5 -238t156.5 -648z" />
<glyph unicode="*" horiz-adv-x="862" d="M516 1192l162 102l102 -166l-194 -92l194 -88l-102 -168l-162 101l8 -187h-184l10 191l-168 -105l-100 168l192 88l-192 90l100 168l168 -104l-6 101q-4 67 -4 89h184z" />
<glyph unicode="+" horiz-adv-x="1191" d="M82 758h401v395h226v-395h401v-203h-401v-393h-226v393h-401v203z" />
<glyph unicode="," horiz-adv-x="636" d="M82 -160l194 400h279l-256 -400h-217z" />
<glyph unicode="-" horiz-adv-x="903" d="M821 416h-739v235h739v-235z" />
<glyph unicode="." horiz-adv-x="485" d="M102 0v240h281v-240h-281z" />
<glyph unicode="/" horiz-adv-x="786" d="M725 1380l-477 -1380h-187l476 1380h188z" />
<glyph unicode="0" d="M598 -27q-238 0 -375 187.5t-137 509t137 503t375 181.5q246 0 385 -180.5t139 -504t-139 -510t-385 -186.5zM598 1157q-123 0 -193.5 -144.5t-70.5 -342.5q0 -205 70.5 -352.5t193.5 -147.5q129 0 201.5 146.5t72.5 353.5q0 201 -72.5 344t-201.5 143z" />
<glyph unicode="1" d="M342 889l-113 145l334 297h217v-1331h-248v1049z" />
<glyph unicode="2" d="M602 1122q-162 0 -317 -194l-138 170q117 125 211 176q121 68 254 67q199 0 336 -113.5t137 -297.5q0 -57 -24.5 -111.5t-57 -94.5t-92 -86t-102.5 -74l-115 -70l-41 -25q-109 -66 -190.5 -137.5t-87.5 -120.5h686v-211h-940v131q0 74 25.5 139.5t57.5 110.5t94 97 t105 80l121 77q160 100 211 143q102 92 103 162q0 80 -63.5 131t-172.5 51z" />
<glyph unicode="3" d="M606 -27q-121 0 -224 37t-148.5 72t-100.5 88l105 166q168 -162 360 -162q102 0 157.5 57.5t55.5 139.5q0 84 -58.5 145.5t-164.5 61.5h-154v208h146q104 0 159.5 52.5t55.5 126.5q0 78 -55.5 135t-149.5 57q-96 0 -177 -51t-132 -113l-109 162q152 199 428 199 q195 2 324 -100.5t129 -284.5q0 -86 -55.5 -171t-163.5 -108q82 -12 139 -73.5t79.5 -125t22.5 -116.5q0 -180 -139.5 -292t-329.5 -110z" />
<glyph unicode="4" d="M938 0h-254v270q-96 0 -303 -1t-301 -1v187q111 240 248 432t362 444h248v-872h188v-191h-188v-268zM313 459h371v555q-115 -117 -224.5 -284t-146.5 -271z" />
<glyph unicode="5" d="M852 440q0 113 -69.5 176.5t-174.5 63.5q-166 0 -229 -123h-207l94 756h733v-223h-534l-39 -287q47 43 117.5 64.5t111.5 21.5q195 0 313.5 -124t118.5 -331q0 -211 -149.5 -336t-374.5 -125q-283 0 -448 242l143 152q133 -180 293 -181q158 0 229.5 78t71.5 176z" />
<glyph unicode="6" d="M1004 1262l-74 -164q-109 66 -230 65q-272 0 -323 -387q102 106 256 107q199 0 328 -124t129 -329q0 -211 -133.5 -333t-344.5 -122q-125 0 -218 44t-144 110t-83 158t-41 168.5t-9 162.5q0 356 152.5 546t402.5 190q189 0 332 -92zM608 166q109 0 165 83t56 181t-57 183 t-166 85q-98 0 -154.5 -74.5t-56.5 -181.5q0 -119 58.5 -197.5t154.5 -78.5z" />
<glyph unicode="7" d="M121 1118v213h964v-176q-211 -266 -346 -540.5t-243 -614.5h-289q133 350 278.5 620.5t348.5 497.5h-713z" />
<glyph unicode="8" d="M604 -27q-242 0 -367.5 113t-125.5 279q0 43 12 89t41 98t87 91t140 53q-119 31 -178 119t-59 186q0 150 102 235t246 110q61 8 102 8q80 0 105 -8h-2q143 -25 245.5 -110t102.5 -235q0 -98 -59.5 -186t-178.5 -119q82 -14 140.5 -53t87 -91t41 -98t12.5 -89 q0 -166 -126 -279t-368 -113zM604.5 166q108.5 0 175 63.5t66.5 147.5q0 90 -64.5 161.5t-177.5 73.5q-113 -2 -174 -73.5t-61 -161.5q0 -84 63.5 -147.5t172 -63.5zM604 797q98 0 153.5 49t57.5 135q0 72 -57.5 133.5t-153.5 61.5q-94 0 -152.5 -60.5t-58.5 -130.5 q2 -88 58.5 -138t152.5 -50z" />
<glyph unicode="9" d="M203 68l73 163q109 -66 230 -65q272 0 323 387q-102 -106 -256 -107q-199 0 -327.5 124t-128.5 329q0 211 133 333t344 122q125 0 218 -44t144.5 -109.5t83 -158t41 -169t9.5 -162.5q0 -356 -153 -546t-402 -190q-189 1 -332 93zM598 1163q-109 0 -165 -83t-56 -181 t57.5 -183t165.5 -85q98 0 154.5 74.5t56.5 181.5q0 119 -57.5 197.5t-155.5 78.5z" />
<glyph unicode=":" horiz-adv-x="485" d="M102 0v240h281v-240h-281zM102 752v239h281v-239h-281z" />
<glyph unicode=";" horiz-adv-x="677" d="M274 752v239h279v-239h-279zM102 -160l195 400h278l-256 -400h-217z" />
<glyph unicode="&#x3c;" horiz-adv-x="1220" d="M61 430v127l1037 459v-246l-662 -276l662 -277v-246z" />
<glyph unicode="=" horiz-adv-x="1054" d="M973 766h-891v182h891v-182zM973 391h-891v184h891v-184z" />
<glyph unicode="&#x3e;" horiz-adv-x="1220" d="M1159 557v-127l-1036 -459v246l661 277l-661 276v246z" />
<glyph unicode="?" horiz-adv-x="1136" d="M698 813q94 82 95 191q0 80 -58.5 131t-161.5 51q-104 0 -181 -60.5t-116 -128.5l-143 140q20 37 50 72.5t83 83.5t136 78t180 30q203 0 338 -105.5t135 -304.5q0 -178 -211 -356q-106 -86 -131 -123q-41 -59 -41 -164h-246q0 86 7 135t44 104.5t78 94.5zM420 0v217h264 v-217h-264z" />
<glyph unicode="@" horiz-adv-x="1722" d="M1475 178l57 -84q-109 -113 -283 -178.5t-348 -65.5q-352 0 -575.5 212t-223.5 561q0 344 225.5 559t555.5 215q152 0 277.5 -39t209.5 -103.5t141.5 -147.5t83 -170t25.5 -173q0 -150 -45 -266.5t-118 -183t-151.5 -99.5t-156.5 -33q-76 0 -117 45t-47 107 q-133 -113 -233 -113q-305 0 -306 303q0 193 122 328t263 135q143 0 191 -86l14 70h232l-109 -500q-14 -16 -2 -71.5t66 -55.5q23 0 58.5 23.5t75.5 69.5t67.5 129t27.5 186q0 127 -49 225t-132 156.5t-182.5 88t-205.5 29.5q-266 0 -437.5 -174t-171.5 -454 q0 -287 168 -464t465 -177q279 -1 568 196zM895 831q-90 0 -134 -62t-69 -171q-8 -39 -8 -82q0 -141 86 -141q47 0 104.5 34.5t71.5 98.5l39 235q6 49 -26.5 68.5t-63.5 19.5z" />
<glyph unicode="A" horiz-adv-x="1443" d="M303 0h-283l574 1380h256l573 -1380h-282l-127 311h-588zM723 1116l-219 -598h434z" />
<glyph unicode="B" horiz-adv-x="1294" d="M778 590h-377v-381h377q92 0 145.5 54t53.5 128q0 80 -53.5 139.5t-145.5 59.5zM1176 1001q0 -23 -5.5 -50t-20.5 -73.5t-55 -87t-98 -63.5q106 -20 176 -122.5t70 -215.5q0 -145 -108.5 -267t-305.5 -122h-696v1380h631q207 0 309.5 -109.5t102.5 -269.5zM401 799h349 q80 0 120.5 59.5t40.5 120.5q0 88 -47 140t-141 52h-322v-372z" />
<glyph unicode="C" horiz-adv-x="1286" d="M82 690q0 305 192.5 509t511.5 204q268 0 439 -88l-70 -182q-166 59 -326 59q-125 0 -220 -44t-148 -118t-80 -159t-27 -181t27 -182t80 -161t148.5 -119t219.5 -44q158 0 332 60l64 -183q-170 -88 -439 -88q-319 0 -511.5 205t-192.5 512z" />
<glyph unicode="D" horiz-adv-x="1413" d="M647 0h-514v1380h514q334 0 519.5 -175t185.5 -515t-185.5 -515t-519.5 -175zM399 209h256q190 0 311 120t121 361q0 248 -118.5 364.5t-319.5 116.5h-250v-962z" />
<glyph unicode="E" horiz-adv-x="1202" d="M1110 0h-977v1380h963v-209h-695v-370h643v-209h-643v-383h709v-209z" />
<glyph unicode="F" horiz-adv-x="1124" d="M403 -2l-270 2v1380h920v-209h-650v-370h598v-209h-598v-594z" />
<glyph unicode="G" horiz-adv-x="1437" d="M1092 551h-277v213h528v-680q-84 -49 -233 -80t-268 -31q-344 0 -552 206t-208 511t208 509t552 204q272 0 471 -125l-94 -182q-150 98 -330 98q-137 0 -243.5 -44t-168 -118t-92.5 -161t-31 -181t32 -182t92.5 -161t160.5 -118t225 -45q100 0 228 37v330z" />
<glyph unicode="H" horiz-adv-x="1398" d="M997 623h-596v-623h-268v1380h268v-546h596v546h269v-1380h-269v623z" />
<glyph unicode="I" horiz-adv-x="573" d="M154 0v1380h266v-1380h-266z" />
<glyph unicode="J" horiz-adv-x="921" d="M20 68l64 194q96 -49 152 -63q74 -18 129 -19q57 0 102 21q59 35 59 194v985h262v-997q0 -117 -32.5 -200t-92 -127t-127 -63.5t-149.5 -19.5t-166 19q-82 17 -201 76z" />
<glyph unicode="K" horiz-adv-x="1280" d="M1264 0h-322l-430 567l-111 -137v-430h-268v1380h268v-612l465 612h308l-492 -622z" />
<glyph unicode="L" horiz-adv-x="1134" d="M403 1380v-1169h650v-211h-920v1380h270z" />
<glyph unicode="M" horiz-adv-x="1792" d="M788 0l-364 975l-62 -975h-270l72 1380h352l381 -1007l379 1007h354l70 -1380h-268l-62 975l-369 -975h-213z" />
<glyph unicode="N" horiz-adv-x="1411" d="M942 0l-543 1049v-1049h-266v1380h354l525 -1038v1038h266v-1380h-336z" />
<glyph unicode="O" horiz-adv-x="1521" d="M760 -27q-313 0 -495.5 191.5t-182.5 525.5t181 523.5t496.5 189.5t498 -189.5t182.5 -523.5t-182.5 -525.5t-497.5 -191.5zM759.5 1198q-192.5 0 -296 -145.5t-103.5 -362.5q0 -225 103.5 -368.5t296.5 -143.5q195 0 298 143.5t103 368.5q0 217 -104.5 362.5t-297 145.5 z" />
<glyph unicode="P" horiz-adv-x="1234" d="M780 512h-379v-512h-268v1380h633q117 0 204 -42t133 -111.5t68.5 -143t22.5 -151.5q0 -25 -4 -60.5t-28.5 -103.5t-64.5 -121t-123 -94t-194 -41zM401 723h351q66 0 108.5 42t57 88t14.5 87q0 96 -55.5 163.5t-159.5 67.5h-316v-448z" />
<glyph unicode="Q" horiz-adv-x="1501" d="M760 -27q-303 0 -490.5 193.5t-187.5 523.5q0 334 181 523.5t496.5 189.5t498 -189.5t182.5 -523.5q0 -203 -80 -360.5t-217 -251.5q98 -51 178 -51h102v-201h-96q-66 0 -119 8t-85.5 16.5t-67.5 29t-46.5 28.5t-40 34.5t-32.5 30.5h-176zM759.5 1198 q-192.5 0 -296 -145.5t-103.5 -362.5q0 -225 102.5 -366.5t297 -141.5t298 141.5t103.5 366.5q0 217 -104.5 362.5t-297 145.5z" />
<glyph unicode="R" horiz-adv-x="1298" d="M1194 940q0 -20 -8 -54t-28.5 -89.5t-75 -108.5t-130.5 -84q100 -35 144 -151l166 -453h-281l-127 350q-33 94 -82 137t-125 43h-246v-530h-268v1380h612q131 0 224.5 -41t139.5 -109.5t65.5 -139t19.5 -150.5zM401 739h351q96 0 137 64.5t41 134.5q0 98 -48 165.5 t-149 67.5h-332v-432z" />
<glyph unicode="S" d="M856 1362q123 -43 231 -127l-94 -184q-188 145 -407 145q-86 0 -144.5 -42t-68.5 -103q-1 -9 -1 -18q0 -100 154 -161l351 -137q270 -102 270 -344q0 -193 -149.5 -303.5t-360.5 -110.5q-178 0 -295 46q-186 70 -281 157l111 185q88 -78 217 -126.5t250 -48.5 q172 0 231 127q11 28 11 54q0 34 -18 65q-32 55 -101 88l-381 148q-147 57 -216 149t-69 191q0 180 150.5 285.5t351.5 105.5q125 0 258 -41z" />
<glyph unicode="T" horiz-adv-x="1159" d="M1139 1171h-426v-1171h-267v1171h-426v209h1119v-209z" />
<glyph unicode="U" horiz-adv-x="1449" d="M725 -27q-289 0 -440.5 148.5t-151.5 494.5v764h270v-768q0 -215 76 -314t246 -99t247 99t77 314v768h268v-764q0 -348 -150.5 -495.5t-441.5 -147.5z" />
<glyph unicode="V" horiz-adv-x="1339" d="M20 1380h273l377 -1118l379 1118h270l-520 -1380h-256z" />
<glyph unicode="W" horiz-adv-x="1951" d="M1106 1331l272 -971l275 1020h278l-422 -1380h-260l-272 950l-275 -950h-260l-422 1380h277l276 -1018l273 969h260z" />
<glyph unicode="X" horiz-adv-x="1366" d="M1034 0l-352 510l-352 -510h-310l517 682l-494 698h309l330 -528l332 528h309l-494 -698l517 -682h-312z" />
<glyph unicode="Y" horiz-adv-x="1374" d="M825 0h-274v483l-531 897h310l358 -698l356 698h310l-529 -895v-485z" />
<glyph unicode="Z" horiz-adv-x="1253" d="M1157 0h-1096v203l787 968h-754v209h1098v-196l-799 -971h764v-213z" />
<glyph unicode="[" horiz-adv-x="671" d="M549 1198h-182v-1409h182v-182h-426v1773h426v-182z" />
<glyph unicode="\" horiz-adv-x="786" d="M539 0l-478 1380h189l475 -1380h-186z" />
<glyph unicode="]" horiz-adv-x="671" d="M305 1198h-182v182h426v-1773h-426v182h182v1409z" />
<glyph unicode="^" horiz-adv-x="976" d="M82 752l315 628h183l315 -628h-248l-160 378l-159 -378h-246z" />
<glyph unicode="_" horiz-adv-x="1320" d="M82 -63h1157v-191h-1157v191z" />
<glyph unicode="`" horiz-adv-x="643" d="M371 1430l190 -310h-221l-258 310h289z" />
<glyph unicode="a" horiz-adv-x="1062" d="M950 0h-270v113q-43 -76 -135 -108t-166 -32q-70 0 -139.5 29t-124 99.5t-54.5 168.5q0 166 166 267.5t459 121.5v25q-2 82 -59 120q-48 32 -114 32q-12 0 -26 -1q-82 -7 -157.5 -28t-132.5 -49l-66 155q0 4 44 28t139.5 49.5t197.5 25.5h48q30 0 104.5 -14.5t133 -44 t105.5 -99.5t47 -168v-690zM461 162q20 0 52 7t74 24.5t70.5 57.5t28.5 93v143q-168 -14 -274 -70q-104 -55 -105 -135q0 -57 45 -89q43 -31 109 -31z" />
<glyph unicode="b" horiz-adv-x="1157" d="M385 1380v-501q39 76 107.5 107.5t134.5 31.5q203 0 330.5 -134t127.5 -388q0 -256 -118.5 -389.5t-313.5 -133.5q-25 0 -66.5 7.5t-108 41t-95.5 91.5v-113h-260v1380h262zM571 821q-27 0 -66.5 -15t-79.5 -61.5t-40 -111.5v-281q0 -180 221 -180q109 0 158 93t49 231 q0 325 -242 325z" />
<glyph unicode="c" horiz-adv-x="978" d="M72 495.5q0 241.5 138 382t378 140.5q188 0 330 -74l-54 -180q-145 51 -241 51q-145 0 -219 -91t-74 -228.5t73.5 -230.5t219.5 -93q78 0 241 55l54 -180q-141 -74 -330 -74q-240 0 -378 140.5t-138 382z" />
<glyph unicode="d" horiz-adv-x="1157" d="M772 879v501h262v-1380h-260v113q-29 -57 -95.5 -91t-108.5 -41.5t-66 -7.5q-195 0 -313.5 133.5t-118.5 389.5q0 254 128 388t330 134q66 0 134.5 -31.5t107.5 -107.5zM586 821q-242 0 -242 -325q0 -137 49 -230.5t158 -93.5q221 0 221 180v295q0 55 -22.5 94 t-57.5 54.5t-59 20.5t-47 5z" />
<glyph unicode="e" horiz-adv-x="1124" d="M584 -25q-219 0 -365.5 141.5t-146.5 379.5q0 229 133 375.5t358 146.5t357.5 -136.5t132.5 -371.5l-6 -104h-717q18 -104 87.5 -168t182.5 -64q154 0 332 72l57 -174q-157 -97 -405 -97zM563 819q-88 0 -153.5 -68.5t-65.5 -158.5h453q0 104 -69 165.5t-165 61.5z" />
<glyph unicode="f" horiz-adv-x="595" d="M20 991h117v86q0 94 26.5 161t59.5 97.5t83 48t75 18.5t59 1h11q86 0 186 -53l-29 -152q-82 31 -129 31q-80 0 -80 -117v-121h185v-174h-185v-817h-262v817h-117v174z" />
<glyph unicode="g" horiz-adv-x="1161" d="M588 172q31 0 67.5 9t77.5 45t41 96v317q0 180 -221 180q-109 0 -158 -93t-49 -230q0 -324 242 -324zM776 -33v146q-41 -70 -114.5 -105t-145.5 -35q-170 0 -307 138.5t-137 384.5q0 252 129 387t319 135q16 0 39 -3t66 -14.5t84 -43t67 -78.5v112h262v-1052 q0 -92 -40 -160t-109.5 -103.5t-147 -52t-170.5 -16.5q-115 0 -226.5 28.5t-160.5 67.5l58 174q57 -33 142 -56.5t173 -28.5q9 -1 18 0q77 0 135 39q64 44 66 136z" />
<glyph unicode="h" horiz-adv-x="1155" d="M1032 580v-580h-264v580q0 240 -160 239q-29 0 -60.5 -8t-71.5 -30.5t-65.5 -73t-25.5 -121.5v-586h-262v1380h262v-501q47 76 126 107.5t146 31.5q375 0 375 -438z" />
<glyph unicode="i" horiz-adv-x="509" d="M123 0v991h264v-991h-264zM123 1143v237h264v-237h-264z" />
<glyph unicode="j" horiz-adv-x="526" d="M403 991l-2 -1059q0 -94 -26.5 -160.5t-60 -98t-84 -48t-77 -17.5t-59.5 -1q-94 0 -196 53l26 154q92 -35 144 -35q72 0 71 162v1050h264zM139 1143v237h264v-237h-264z" />
<glyph unicode="k" horiz-adv-x="1075" d="M625 612l430 -612h-295l-307 463l-58 -53v-410h-262v1380h262v-692l293 303h318z" />
<glyph unicode="l" horiz-adv-x="509" d="M123 0v1380h264v-1380h-264z" />
<glyph unicode="m" horiz-adv-x="1685" d="M715 0v608q0 211 -162 211q-66 0 -116 -59.5t-50 -198.5v-561h-264v991h252v-133q80 160 272 160q72 0 153 -37t122 -113q100 150 282 150q358 0 359 -408v-610h-263v578q0 121 -36.5 181t-122.5 60q-18 0 -40 -6t-54.5 -23.5t-53 -63.5t-20.5 -116v-610h-258z" />
<glyph unicode="n" horiz-adv-x="1155" d="M1032 575v-575h-264v575q0 244 -160 244q-29 0 -60.5 -9t-71.5 -31.5t-65.5 -74t-25.5 -122.5v-582h-262v991h250v-151q59 109 135 143.5t186 34.5q338 -1 338 -443z" />
<glyph unicode="o" horiz-adv-x="1138" d="M72 495.5q0 241.5 133 382t362 140.5q231 0 365.5 -140.5t134.5 -382t-134 -382t-366 -140.5q-229 0 -362 140.5t-133 382zM807 496q0 131 -65.5 229t-174 98t-172 -97t-63.5 -230.5t63.5 -230.5t172 -97t174 98.5t65.5 229.5z" />
<glyph unicode="p" horiz-adv-x="1157" d="M385 113v-506h-262v1384h260v-112q84 139 287 139q186 0 300.5 -133t114.5 -387q0 -256 -120.5 -390.5t-315.5 -134.5q-72 0 -148.5 32t-115.5 108zM571 170q242 0 242 328q0 137 -49 229t-158 92q-221 0 -221 -178v-297q0 -88 67.5 -131t118.5 -43z" />
<glyph unicode="q" horiz-adv-x="1157" d="M772 -393v506q-39 -76 -115.5 -108t-148.5 -32q-195 0 -315.5 134.5t-120.5 390.5q0 254 114.5 387t300.5 133q203 0 287 -139v112h260v-1384h-262zM586 170q29 0 66.5 12.5t78.5 55.5t41 106v297q0 178 -221 178q-109 0 -158 -92t-49 -229q0 -328 242 -328z" />
<glyph unicode="r" horiz-adv-x="747" d="M723 1008v-205h-111q-106 0 -162.5 -63.5t-56.5 -170.5v-569h-260v991h252v-160q72 176 260 177h78z" />
<glyph unicode="s" horiz-adv-x="974" d="M514 176q47 0 86 19.5t53 50.5q6 14 8.5 25.5t-1 20.5t-6.5 15t-9 11.5t-10 8.5t-10 5l-7 4q-2 0 -22 8l-291 109q-217 90 -217 260q0 141 117 223t278 82q211 0 400 -127l-95 -176q-6 2 -31.5 17.5t-34.5 20.5t-35 17l-39 18q-13 6 -36.5 15.5t-41 13.5t-38 7t-38.5 3 q-57 0 -100.5 -29.5t-47.5 -66.5q-2 -23 4 -38t32 -29.5t42 -20.5t72 -25q70 -23 206 -73q211 -90 211 -258q0 -72 -32 -133q-41 -84 -138.5 -130.5t-232.5 -46.5q-111 0 -225 35q-127 37 -224 125l107 174q160 -135 346 -135z" />
<glyph unicode="t" horiz-adv-x="722" d="M180 817h-155v174h155v238h260v-238h217v-174h-217v-512q0 -133 90 -133q39 0 132 29l20 -176q-96 -49 -188 -50q-37 0 -64 1t-78 17.5t-85 48.5t-60.5 98.5t-26.5 160.5v516z" />
<glyph unicode="u" horiz-adv-x="1155" d="M123 416v575h262v-575q0 -246 162 -246q23 0 49.5 6t70.5 23.5t72.5 63.5t28.5 116v612h264v-991h-252v113q-41 -61 -112.5 -95t-108.5 -39.5t-63 -5.5q-154 0 -263.5 107t-109.5 336z" />
<glyph unicode="v" horiz-adv-x="1146" d="M705 0h-263l-422 991h277l276 -751l277 751h276z" />
<glyph unicode="w" horiz-adv-x="1650" d="M20 991h277l197 -700l194 700h275l196 -698l197 698h274l-344 -991h-235l-226 702l-221 -702h-237z" />
<glyph unicode="x" horiz-adv-x="1124" d="M780 991h297l-356 -489l383 -502h-297l-246 354l-244 -354h-297l381 502l-358 489h299l219 -344z" />
<glyph unicode="y" horiz-adv-x="1146" d="M170 -356l31 194q6 -2 26.5 -12t31.5 -14.5t31.5 -8.5t35 0t31 16.5t28.5 35.5l68 165l-433 971h277l283 -669l270 669h276l-516 -1216q-29 -68 -89 -109t-104 -50t-85 -9q-62 0 -162 37z" />
<glyph unicode="z" horiz-adv-x="980" d="M51 0v170l553 625h-532v196h858v-170l-553 -624h534v-197h-860z" />
<glyph unicode="{" horiz-adv-x="770" d="M326 494q63 -20 120.5 -94t55.5 -169v-346q0 -104 84 -104h102v-174h-160q-90 0 -168.5 68.5t-78.5 170.5l2 359q0 104 -32 158.5t-128 64.5v131q96 10 128 64.5t32 158.5l-2 359q0 102 78.5 170.5t168.5 68.5h160v-174h-102q-84 0 -84 -104v-346q2 -92 -53 -162.5 t-123 -99.5z" />
<glyph unicode="|" horiz-adv-x="448" d="M123 -180v1720h203v-1720h-203z" />
<glyph unicode="}" horiz-adv-x="770" d="M444 494q-68 29 -123 99.5t-53 162.5v346q0 104 -84 104h-102v174h160q90 0 168.5 -68.5t78.5 -170.5l-2 -359q0 -104 32 -158.5t128 -64.5v-131q-96 -10 -128 -64.5t-32 -158.5l2 -359q0 -102 -78.5 -170.5t-168.5 -68.5h-160v174h102q84 0 84 104v346q-2 94 55.5 168.5 t120.5 94.5z" />
<glyph unicode="~" horiz-adv-x="1032" d="M369 745q53 0 149 -38.5t139 -38.5q27 0 61 26.5t54 81.5h178l-28 -93q-8 -26 -26.5 -74t-37 -66.5t-47.5 -42t-67.5 -31.5t-90.5 -8q-53 0 -149 40t-135 40q-25 0 -60 -31t-55 -84h-172q25 98 41 142t47 93.5t78 66.5t121 17z" />
<glyph unicode="&#xa2;" horiz-adv-x="978" d="M510 1014v157h172v-159q133 -16 236 -68l-54 -180q-145 51 -241 51q-145 0 -219 -91t-74 -228.5t73.5 -230.5t219.5 -93q78 0 241 55l54 -180q-94 -49 -236 -67v-177h-172v174q-207 23 -322.5 159t-115.5 360q0 221 115.5 358t322.5 160z" />
<glyph unicode="&#xa3;" horiz-adv-x="1118" d="M510 676v-469h526v-207h-921v207h129v469h-162v184h162v58q0 215 108.5 327.5t257.5 134.5q12 6 107 6q182 0 313 -88l-69 -168q-113 68 -244 68q-102 0 -154.5 -77t-52.5 -203v-58h336v-184h-336z" />
<glyph unicode="&#xa5;" horiz-adv-x="1212" d="M735 0h-256v221h-325v174h325v107h-325v174h266l-391 704h288l289 -604l291 604h287l-391 -704h262v-174h-320v-107h320v-174h-320v-221z" />
<glyph unicode="&#xa9;" horiz-adv-x="1617" d="M82 688q0 297 213 506t514 209t514 -209t213 -506t-213 -506t-514 -209t-514 209t-213 506zM412 684q0 -178 111.5 -296t295.5 -118q160 0 248 47l-37 103q-94 -33 -188 -33q-147 0 -214 85t-67 212q0 125 67.5 211t215.5 86q96 0 182 -35l41 105q-88 47 -248 47 q-184 0 -295.5 -118t-111.5 -296zM223 686q0 -242 173 -412t419 -170t419 170t173 412t-173 412t-419 170t-419 -170t-173 -412z" />
<glyph unicode="&#xad;" horiz-adv-x="903" d="M821 416h-739v235h739v-235z" />
<glyph unicode="&#xae;" horiz-adv-x="1617" d="M1110 844q0 -16 -3 -32.5t-13.5 -51.5t-41 -64.5t-77.5 -46.5q47 -23 76 -94l108 -258h-151l-109 252q-31 57 -88 57h-166v-309h-143v799h354q141 0 197.5 -74t56.5 -178zM645 723h213q61 0 86 38t25 83q0 139 -121 139h-203v-260zM82 688q0 297 213 506t514 209 t514 -209t213 -506t-213 -506t-514 -209t-514 209t-213 506zM223 686q0 -242 173 -412t419 -170t419 170t173 412t-173 412t-419 170t-419 -170t-173 -412z" />
<glyph unicode="&#xb4;" horiz-adv-x="643" d="M82 1120l190 310h289l-258 -310h-221z" />
<glyph unicode="&#x2000;" horiz-adv-x="784" />
<glyph unicode="&#x2001;" horiz-adv-x="1569" />
<glyph unicode="&#x2002;" horiz-adv-x="784" />
<glyph unicode="&#x2003;" horiz-adv-x="1569" />
<glyph unicode="&#x2004;" horiz-adv-x="523" />
<glyph unicode="&#x2005;" horiz-adv-x="392" />
<glyph unicode="&#x2006;" horiz-adv-x="261" />
<glyph unicode="&#x2007;" horiz-adv-x="261" />
<glyph unicode="&#x2008;" horiz-adv-x="196" />
<glyph unicode="&#x2009;" horiz-adv-x="313" />
<glyph unicode="&#x200a;" horiz-adv-x="87" />
<glyph unicode="&#x2010;" horiz-adv-x="903" d="M821 416h-739v235h739v-235z" />
<glyph unicode="&#x2011;" horiz-adv-x="903" d="M821 416h-739v235h739v-235z" />
<glyph unicode="&#x2012;" horiz-adv-x="903" d="M821 416h-739v235h739v-235z" />
<glyph unicode="&#x2013;" horiz-adv-x="1183" d="M82 647h1020v-205h-1020v205z" />
<glyph unicode="&#x2014;" horiz-adv-x="1560" d="M82 647h1397v-203h-1397v203z" />
<glyph unicode="&#x2018;" horiz-adv-x="681" d="M580 1380l-201 -379h-277l258 379h220z" />
<glyph unicode="&#x2019;" horiz-adv-x="684" d="M102 1004l201 376h279l-263 -376h-217z" />
<glyph unicode="&#x201c;" horiz-adv-x="1050" d="M377 1380l203 -376h-218l-260 376h275zM748 1380l200 -376h-215l-260 376h275z" />
<glyph unicode="&#x201d;" horiz-adv-x="1050" d="M471 1004l203 376h274l-260 -376h-217zM102 1004l201 376h275l-261 -376h-215z" />
<glyph unicode="&#x2022;" horiz-adv-x="724" d="M102 618q0 102 75 172t183.5 70t185.5 -70.5t77 -171t-77 -170t-185.5 -69.5t-183.5 69.5t-75 169.5z" />
<glyph unicode="&#x2026;" horiz-adv-x="1415" d="M102 0v240h265v-240h-265zM575 0v240h265v-240h-265zM1051 0v240h262v-240h-262z" />
<glyph unicode="&#x202f;" horiz-adv-x="313" />
<glyph unicode="&#x205f;" horiz-adv-x="392" />
<glyph unicode="&#x20ac;" horiz-adv-x="1388" d="M43 465l68 164h163q-4 8 -1 39.5t3 40.5h-235l70 161h184q57 231 233.5 369.5t440.5 138.5q176 0 338 -84l-84 -164q-90 49 -211 50q-348 0 -447 -310h592l-80 -161h-545q-2 -55 0 -80h529l-80 -164h-406q49 -127 160 -207t277 -80q106 0 231 66l64 -181 q-166 -86 -338 -86q-256 0 -431.5 133.5t-236.5 354.5h-258z" />
<glyph unicode="&#x2122;" horiz-adv-x="1671" d="M664 1255h-220v-694h-159v694h-254v125h852l227 -602l225 602h211l43 -819h-162l-36 578l-220 -578h-127l-217 578l-36 -578h-162z" />
<glyph unicode="&#xe000;" horiz-adv-x="990" d="M0 990h990v-990h-990v990z" />
<glyph unicode="&#xfb01;" horiz-adv-x="1105" d="M719 0v817h-320v-817h-264l2 817h-117v174h117v86q0 94 26.5 161t59.5 97.5t83 48t75 18.5t59 1h11q86 0 186 -53l-29 -152q-82 31 -129 31q-80 0 -80 -117v-121h584v-991h-264z" />
<glyph unicode="&#xfb02;" horiz-adv-x="1105" d="M719 0v1206h-240q-80 0 -80 -116v-99h185v-174h-185v-817h-264l2 817h-117v174h117v64q0 92 29 158.5t64.5 97t88 48t78 19.5t54.5 2h532v-1380h-264z" />
<glyph unicode="&#xfb03;" horiz-adv-x="1701" d="M20 991h117v86q0 94 26.5 161t59.5 97.5t83 48t75 18.5t59 1h11q86 0 186 -53l-29 -152q-82 31 -129 31q-80 0 -80 -117v-121h334v86q0 94 26.5 161t59.5 97.5t83 48t74.5 18.5t59.5 1h11q86 0 186 -53l-29 -152q-82 31 -129 31q-80 0 -80 -117v-121h584v-991h-264v817 h-320v-817h-262v817h-334v-817h-264l2 817h-117v174z" />
<glyph unicode="&#xfb04;" horiz-adv-x="1701" d="M1315 0v1229h-240q-80 0 -80 -117v-121h185v-174h-185v-817h-262v817h-334v-817h-264l2 817h-117v174h117v86q0 94 26.5 161t59.5 97.5t83 48t75 18.5t59 1h11q86 0 186 -53l-29 -152q-82 31 -129 31q-80 0 -80 -117v-121h334v86q0 92 29 159t64.5 97.5t88 48t78 19.5 t54.5 2h532v-1403h-264z" />
</font>
</defs>
</svg>
