<?xml version="1.0" standalone="no"?>
<!DOCTYPE svg PUBLIC "-//W3C//DTD SVG 1.1//EN" "http://www.w3.org/Graphics/SVG/1.1/DTD/svg11.dtd" >
<svg xmlns="http://www.w3.org/2000/svg">
<metadata>
This is a custom SVG webfont generated by Fontspring.
</metadata>
<defs>
<font id="webfontWUPCirIE" horiz-adv-x="1167" >
<font-face units-per-em="2048" ascent="1536" descent="-512" />
<missing-glyph horiz-adv-x="569" />
<glyph unicode=" "  horiz-adv-x="569" />
<glyph unicode="&#x09;" horiz-adv-x="569" />
<glyph unicode="&#xa0;" horiz-adv-x="569" />
<glyph unicode="!" horiz-adv-x="409" d="M152 291l-9 1089h123l-8 -1089h-106zM143 0v156h121v-156h-121z" />
<glyph unicode="&#x22;" horiz-adv-x="600" d="M117 795l-15 585h117l-12 -585h-90zM393 795l-12 585h117l-15 -585h-90z" />
<glyph unicode="#" horiz-adv-x="1169" d="M547 1380h106l-125 -389h289l125 389h102l-122 -389h196v-94h-229l-119 -381h217l-2 -94h-246l-137 -422h-96l133 422h-285l-143 -422h-100l133 422h-193v94h221l119 381h-223l2 94h252zM500 897l-119 -381h289l118 381h-288z" />
<glyph unicode="$" horiz-adv-x="1122" d="M510 -186v168q-254 23 -449 170l28 49q19 35 28 47q90 -68 217 -114t254 -46q117 0 215 54.5t123 156.5q43 178 -164 270l-418 156q-129 49 -195.5 143.5t-50.5 227.5q20 129 132 213t280 92v153h100v-153q223 -16 379 -133l-47 -97q-180 119 -389 119q-123 0 -212 -49 t-116 -156q-12 -57 2.5 -101t56.5 -77t78.5 -50t100.5 -42l358 -139q133 -49 186.5 -134t51.5 -171q-4 -176 -133 -282.5t-316 -111.5v-163h-100z" />
<glyph unicode="%" horiz-adv-x="1746" d="M385 0l815 1380h96l-813 -1380h-98zM82 1042q0 160 87 252t228 92q139 0 227.5 -93t88.5 -251q0 -162 -88 -255t-228 -93q-141 0 -228 93t-87 255zM596 1042q0 240 -199 240q-201 0 -200 -240q0 -242 200 -241q199 -1 199 241zM1034 324q0 160 87 252t229 92 q139 0 227 -93.5t88 -250.5q0 -162 -88 -255.5t-227 -93.5q-141 0 -228.5 93.5t-87.5 255.5zM1548 324q0 240 -198 239q-201 0 -201 -239q0 -242 201 -242q198 0 198 242z" />
<glyph unicode="&#x26;" horiz-adv-x="1239" d="M203 371q0 -143 88 -221t258 -78q221 0 342 235l-379 371q-121 -23 -215 -104.5t-94 -202.5zM772 1110q-8 86 -66.5 141.5t-156.5 55.5t-156.5 -60.5t-64.5 -134.5q-6 -121 48 -194.5t161 -131.5q131 66 183 135.5t52 188.5zM625 723l319 -322q51 109 51 279h107 q6 -215 -70 -344q88 -92 131 -166t45 -170h-110q-2 10 -4 32.5t-4.5 31t-7.5 27t-12 30.5t-19.5 31.5t-30.5 41.5l-43 48q-123 -268 -428 -269q-227 0 -347 112t-120 277q0 270 334 381q-203 135 -203 340q0 162 100.5 241t235.5 79q133 0 234.5 -76t101.5 -231 q0 -244 -260 -373z" />
<glyph unicode="'" horiz-adv-x="321" d="M117 795l-15 585h117l-12 -585h-90z" />
<glyph unicode="(" horiz-adv-x="667" d="M586 -289q-219 12 -341 224t-122 628q2 397 125 598t338 219v-94q-76 -8 -133.5 -44t-106.5 -114.5t-75.5 -223t-26.5 -351.5q0 -205 26.5 -351.5t75.5 -227t106.5 -118.5t133.5 -46v-99z" />
<glyph unicode=")" horiz-adv-x="667" d="M82 1380q215 -18 338 -218.5t125 -598.5q0 -416 -122 -630t-341 -226v96q160 16 251 185.5t91 564.5q0 207 -25.5 351.5t-76 223t-106.5 114.5t-134 44v94z" />
<glyph unicode="*" horiz-adv-x="765" d="M424 1108l211 145l49 -71l-211 -127l205 -125l-43 -76l-211 147v-274h-80v272l-217 -145l-41 76l203 125l-207 127l45 71l217 -143v270h80v-272z" />
<glyph unicode="+" horiz-adv-x="1134" d="M614 1159v-444h439v-111h-439v-438h-110v438h-422v111h422v444h110z" />
<glyph unicode="," horiz-adv-x="450" d="M47 -205l174 357h148l-209 -357h-113z" />
<glyph unicode="-" horiz-adv-x="817" d="M735 475h-653v119h653v-119z" />
<glyph unicode="." horiz-adv-x="350" d="M102 0v176h146v-176h-146z" />
<glyph unicode="/" horiz-adv-x="716" d="M647 1380l-477 -1380h-109l476 1380h110z" />
<glyph unicode="0" d="M578 -29q-225 0 -353.5 185.5t-128.5 515.5q0 332 128 516t354 184q233 0 362 -183t129 -517q0 -332 -130 -516.5t-361 -184.5zM578 1270q-121 0 -207 -88t-123 -219.5t-37 -290.5q0 -256 93 -428t274 -172q186 0 279 171t93 429q0 160 -36.5 291t-122.5 219t-213 88z " />
<glyph unicode="1" d="M438 999l-63 86l280 265h138v-1350h-121v1223z" />
<glyph unicode="2" d="M604 1260q-104 0 -201.5 -55.5t-148.5 -119.5l-74 86q47 68 158 134.5t258 66.5q197 0 318.5 -107.5t121.5 -271.5q0 -205 -164 -331q-61 -47 -184 -123l-204 -129q-81 -53 -148.5 -134t-69.5 -163h762v-113h-899v47q6 113 46 202t113.5 154.5t143.5 111.5t173.5 107.5 t166.5 108.5q84 63 113.5 123.5t29.5 134.5q0 98 -87 184.5t-224 86.5z" />
<glyph unicode="3" d="M582 -29q-266 0 -435 168l52 82q172 -139 370 -139q156 0 242 79t86 191.5t-90 196.5t-248 84h-86v115h78q158 0 243 74.5t85 178.5q0 106 -86 185.5t-232 79.5q-188 0 -321 -138q-10 14 -18.5 30t-15.5 27t-18 25q27 35 67 67t127 63.5t189 31.5q182 2 302 -96t120 -275 q0 -102 -70.5 -199t-205.5 -112q127 -4 214 -104.5t87 -227.5q0 -172 -131 -281.5t-305 -105.5z" />
<glyph unicode="4" d="M879 0h-115v293h-674v113l60 107l68 114l66 102l75 111l72 100l80 108l74 98l80 106q62 83 74 98h140v-955h196v-102h-196v-293zM209 395h555v809q-389 -471 -555 -809z" />
<glyph unicode="5" d="M922 418q0 154 -88.5 261t-245.5 107q-86 0 -150.5 -21.5t-118.5 -88.5h-141q18 125 43 361.5t35 312.5h680v-113h-582l-49 -440q94 98 283 98q186 0 314 -129t128 -332q0 -221 -136 -340t-347 -119q-135 0 -229.5 48.5t-180.5 136.5l56 112q51 -82 141 -136t190 -54 q117 0 201 32.5t124 88t56.5 108t16.5 107.5z" />
<glyph unicode="6" d="M930 1319l-31 -92q-113 49 -205 49q-225 0 -339.5 -160t-114.5 -444q100 215 368 215q199 0 315.5 -128t116.5 -337t-123.5 -329t-320.5 -120q-117 0 -205 46.5t-137 114t-79 161.5t-39 173t-9 165q0 367 146.5 553t388.5 186q153 0 268 -53zM592 76q164 0 249 108.5 t85 237.5q0 84 -29 160.5t-108.5 138t-198.5 61.5q-154 0 -240 -101t-86 -245q0 -156 89 -258t239 -102z" />
<glyph unicode="7" d="M131 1237v113h905v-129q-426 -547 -643 -1221h-141q154 403 295 683t362 554h-778z" />
<glyph unicode="8" d="M583.5 -29q-227.5 0 -346 103.5t-118.5 263.5q0 43 11 90t40 106.5t92.5 106.5t155.5 66q-123 12 -187.5 111.5t-64.5 209.5q0 137 95 231.5t220 106.5q45 6 103 6l102 -6q125 -12 220 -106.5t95 -231.5q0 -111 -64.5 -210t-186.5 -111q92 -18 155.5 -65.5t92 -107 t40 -106.5t11.5 -90q0 -160 -119 -263.5t-346.5 -103.5zM584 643q-168 -2 -259.5 -86t-91.5 -203q0 -117 94.5 -202.5t256 -85.5t256 86t94.5 202q0 119 -91 203t-259 86zM583.5 1278q-149.5 0 -225 -74t-75.5 -176q4 -262 301 -262t301 262q0 102 -76 176t-225.5 74z" />
<glyph unicode="9" d="M238 27l30 92q113 -49 205 -49q225 0 340 159.5t115 444.5q-100 -215 -369 -215q-199 0 -315.5 128t-116.5 337t124 328.5t320 119.5q117 0 205 -46t137.5 -113.5t79 -162t38.5 -173t9 -164.5q0 -367 -146 -553.5t-388 -186.5q-153 1 -268 54zM575 1270 q-164 0 -248.5 -108.5t-84.5 -237.5q0 -84 28.5 -161t108.5 -138.5t199 -61.5q154 0 239.5 101.5t85.5 244.5q0 156 -89 258.5t-239 102.5z" />
<glyph unicode=":" horiz-adv-x="329" d="M102 815v176h127v-176h-127zM102 0v176h127v-176h-127z" />
<glyph unicode=";" horiz-adv-x="512" d="M262 815v176h127v-176h-127zM84 -205l174 357h148l-209 -357h-113z" />
<glyph unicode="&#x3c;" d="M1044 969v-115l-833 -360l833 -361v-117l-983 439v80z" />
<glyph unicode="=" horiz-adv-x="1181" d="M1079 834h-977v104h977v-104zM1079 432h-977v105h977v-105z" />
<glyph unicode="&#x3e;" d="M123 854v115l983 -434v-80l-983 -439v117l829 361z" />
<glyph unicode="?" horiz-adv-x="1060" d="M555 291h-106q0 88 10 142t49 111.5t79 96.5l138 129q135 115 135 258q0 117 -89 197t-245 80q-98 0 -180 -55.5t-131 -121.5q-23 14 -47 35l-35 29q49 80 148.5 146.5t255.5 66.5q190 0 316 -100.5t126 -288.5q0 -178 -203 -348q-129 -106 -175 -172t-46 -168v-37z M446 0v156h121v-156h-121z" />
<glyph unicode="@" horiz-adv-x="1765" d="M1489 111l41 -66q-117 -86 -288 -142.5t-335 -56.5q-375 0 -590 217.5t-215 552.5q0 326 231.5 556.5t557.5 230.5q193 0 346.5 -60.5t242.5 -158t136 -208t47 -222.5q0 -125 -32 -225.5t-81 -164t-112.5 -107.5t-126 -61.5t-121.5 -17.5q-61 0 -108.5 36t-45.5 116 q-115 -106 -286 -107q-127 0 -197 72t-70 217q0 205 115 334t309 129q66 0 120 -32t79 -85q8 18 24 100h111q-20 -106 -61 -287l-52 -229q-20 -78 3.5 -126t79 -48t112.5 24.5t113.5 75t91.5 146.5t35 223q0 141 -57.5 254t-155 180.5t-214 102.5t-245.5 35 q-291 0 -486.5 -199t-195.5 -494q0 -309 194.5 -495.5t487.5 -186.5q334 1 598 177zM909 891q-246 0 -303 -291q-10 -51 -10 -102q0 -182 174 -183q35 0 69.5 6.5t78 22.5t76 52t44.5 89l47 254q-2 76 -64.5 114t-111.5 38z" />
<glyph unicode="A" horiz-adv-x="1331" d="M145 0h-125l574 1380h143l574 -1380h-125l-137 336h-768zM666 1270l-344 -824h686z" />
<glyph unicode="B" horiz-adv-x="1214" d="M745 639h-493v-528h493q141 0 216 74.5t75 181.5q0 113 -76 192.5t-215 79.5zM909 709q106 -14 180 -117t74 -227q0 -137 -94 -251t-266 -114h-670v1380h596q182 0 272.5 -103t90.5 -251q-1 -221 -183 -317zM252 752h471q94 8 152.5 54t74 93t15.5 102q0 268 -279 269 h-434v-518z" />
<glyph unicode="C" horiz-adv-x="1204" d="M82 688q0 307 185.5 511t492.5 204q250 0 383 -60q-6 -20 -20.5 -50.5t-18.5 -41.5q-135 39 -295 39q-158 0 -278.5 -52t-188.5 -140t-100.5 -191.5t-32.5 -218.5t32.5 -218t100.5 -191.5t188.5 -140.5t278.5 -52q168 0 299 39q6 -18 18.5 -48t16.5 -44 q-133 -59 -383 -60q-307 0 -492.5 204t-185.5 511z" />
<glyph unicode="D" horiz-adv-x="1345" d="M608 0h-475v1380h475q322 0 499 -175t177 -515t-177 -515t-499 -175zM254 111h362q244 0 397.5 143t153.5 436q0 299 -150.5 439.5t-406.5 140.5h-356v-1159z" />
<glyph unicode="E" horiz-adv-x="1112" d="M1020 0h-887v1380h873v-110h-754v-516h698v-113h-698v-530h768v-111z" />
<glyph unicode="F" horiz-adv-x="1028" d="M252 0h-119v1380h823v-110h-704v-516h649v-113h-649v-641z" />
<glyph unicode="G" horiz-adv-x="1372" d="M1176 596h-302v113h404v-650q-74 -39 -205 -60.5t-254 -21.5q-334 0 -535.5 204t-201.5 509t201.5 509t535.5 204q252 0 416 -94l-51 -99q-66 41 -158 61.5t-156 20.5q-170 0 -302 -52t-208.5 -140t-114.5 -191.5t-38 -218.5q0 -240 167 -420t470 -180q172 0 332 55v451z " />
<glyph unicode="H" horiz-adv-x="1318" d="M1067 670h-815v-670h-119v1380h119v-598h815v598h119v-1380h-119v670z" />
<glyph unicode="I" horiz-adv-x="425" d="M154 0v1380h118v-1380h-118z" />
<glyph unicode="J" horiz-adv-x="804" d="M20 39l27 96q129 -51 252 -51q96 0 150 29q63 35 86.5 93t23.5 171v1003h113v-1018q0 -111 -29 -188.5t-81 -118.5t-110.5 -59.5t-129.5 -18.5q-165 1 -302 62z" />
<glyph unicode="K" horiz-adv-x="1140" d="M1120 0h-155l-500 668l-213 -246v-422h-119v1380h119v-796l637 796h145l-493 -616z" />
<glyph unicode="L" horiz-adv-x="1038" d="M252 1380v-1269h704v-113h-823v1382h119z" />
<glyph unicode="M" horiz-adv-x="1705" d="M793 0l-539 1253l-41 -1253h-121l55 1380h166l541 -1249l539 1249h166l55 -1380h-119l-43 1253l-537 -1253h-122z" />
<glyph unicode="N" horiz-adv-x="1335" d="M1057 0l-805 1235v-1235h-119v1380h166l784 -1228v1228h119v-1380h-145z" />
<glyph unicode="O" horiz-adv-x="1464" d="M733 -27q-301 0 -476 191.5t-175 525.5t174 523.5t477 189.5q301 0 475 -189.5t174 -523.5t-174 -525.5t-475 -191.5zM733 1298q-250 0 -385 -174t-135 -434q0 -270 134 -441t386 -171t386 171t134 441q0 260 -135 434t-385 174z" />
<glyph unicode="P" horiz-adv-x="1150" d="M748 555h-496v-555h-119v1380h600q102 0 179 -40t118 -106.5t60.5 -136t19.5 -143.5q0 -25 -4 -58.5t-24.5 -98t-55.5 -114.5t-107.5 -89t-170.5 -39zM252 668h465q80 0 136 30.5t83 78.5t37 91t10 84q0 131 -72.5 224.5t-228.5 93.5h-430v-602z" />
<glyph unicode="Q" horiz-adv-x="1443" d="M733 -27q-301 0 -476 191.5t-175 525.5t174 523.5t477 189.5q301 0 475 -189.5t174 -523.5q0 -231 -95 -403t-271 -264q53 -57 141 -89t182 -32h41v-95h-32q-119 0 -217.5 31t-140.5 58.5t-103 76.5h-154zM733 1298q-250 0 -385 -174t-135 -434q0 -270 134 -441t386 -171 t386 171t134 441q0 260 -135 434t-385 174z" />
<glyph unicode="R" horiz-adv-x="1212" d="M850 614q66 -35 90.5 -67.5t63.5 -136.5q8 -20 21 -66.5t43 -130.5t81 -213h-127l-158 436q-63 139 -225 139h-387v-575h-119v1380h578q117 0 199.5 -38.5t123.5 -104.5t58.5 -132.5t17.5 -141.5q0 -27 -6 -62t-27.5 -98.5t-80 -114.5t-146.5 -74zM252 686h465 q80 0 137 28.5t86 75t41 88.5t12 83q0 131 -70.5 220t-226.5 89h-444v-584z" />
<glyph unicode="S" horiz-adv-x="1122" d="M551 1403q256 0 438 -135l-47 -97q-180 119 -389 119q-123 0 -212 -49t-116 -156q-6 -26 -5 -50q0 -28 7 -51q14 -44 56.5 -77t79 -50t100.5 -42l358 -139q133 -49 187 -134q51 -82 51 -165q0 -183 -138 -293q-134 -106 -327 -107q-303 0 -533 175l28 49q19 35 28 47 q90 -68 217 -114t254 -46q117 0 215 54.5t123 156.5q7 31 7 59q0 135 -171 211l-418 156q-129 49 -196 143q-53 76 -53 177q0 25 3 51q23 137 147 222t306 85z" />
<glyph unicode="T" horiz-adv-x="1060" d="M1051 1270h-461v-1270h-119v1270h-461v110h1041v-110z" />
<glyph unicode="U" horiz-adv-x="1378" d="M688 -27q-270 0 -412.5 139.5t-142.5 460.5v807h121v-794q0 -262 103.5 -387t330.5 -125q229 0 332.5 125t103.5 387v794h121v-807q0 -322 -143.5 -461t-413.5 -139z" />
<glyph unicode="V" horiz-adv-x="1230" d="M20 1380h121l475 -1261l235 621q163 425 239 640h120l-522 -1380h-145z" />
<glyph unicode="W" horiz-adv-x="1904" d="M1026 1327l365 -1180q55 203 183 620t183 613h127l-422 -1380h-143l-367 1171l-364 -1171h-146l-422 1380h127l369 -1233l365 1180h145z" />
<glyph unicode="X" horiz-adv-x="1202" d="M1034 0l-434 588l-219 -298l-215 -290h-146l515 682l-494 698h147l412 -606l414 606h145l-491 -698l514 -682h-148z" />
<glyph unicode="Y" horiz-adv-x="1224" d="M676 0h-127v483l-529 897h144l448 -782l445 782h147l-528 -897v-483z" />
<glyph unicode="Z" horiz-adv-x="1179" d="M1079 0h-1018v147l912 1123h-875v110h1020v-139l-930 -1126h891v-115z" />
<glyph unicode="[" horiz-adv-x="509" d="M428 1292h-199v-1495h199v-88h-305v1671h305v-88z" />
<glyph unicode="\" horiz-adv-x="708" d="M539 0l-478 1380h111l475 -1380h-108z" />
<glyph unicode="]" horiz-adv-x="509" d="M281 1292h-199v88h305v-1671h-305v88h199v1495z" />
<glyph unicode="^" horiz-adv-x="774" d="M72 797l276 583h78l276 -583h-106l-211 463l-209 -463h-104z" />
<glyph unicode="_" horiz-adv-x="1245" d="M61 -154h1123v-110h-1123v110z" />
<glyph unicode="`" horiz-adv-x="468" d="M223 1380l164 -264h-102l-203 264h141z" />
<glyph unicode="a" horiz-adv-x="966" d="M854 0h-123v113q-90 -139 -323 -140q-143 0 -245 77t-102 214q0 176 165 256t507 98v89q0 12 -1 27.5t-14 50t-37 60t-74 47t-120 21.5q-170 0 -309 -65l-31 96q10 6 47 21.5t123 34t179 18.5h39q25 0 86 -14.5t108 -42t86 -92t39 -156.5v-713zM430 76q33 0 74 8 t99.5 29.5t96 76t37.5 134.5v198q-563 -28 -563 -245q0 -94 75 -149q70 -52 181 -52z" />
<glyph unicode="b" horiz-adv-x="1099" d="M244 1380v-514q86 152 329 152q221 0 338 -142.5t117 -379.5q0 -236 -115.5 -379.5t-328.5 -143.5q-201 0 -342 140v-113h-119v1380h121zM541 915q-43 0 -108.5 -22.5t-127 -81.5t-61.5 -139v-326q0 -80 34.5 -137t91 -84t106.5 -37t102 -10q98 0 166.5 40t100.5 107.5 t44 132t12 138.5q0 47 -5 90t-25.5 106.5t-57.5 109.5t-106.5 79.5t-165.5 33.5z" />
<glyph unicode="c" horiz-adv-x="897" d="M72 496q0 244 131 383t360 139q172 0 273 -43l-25 -96q-102 33 -231 32q-381 0 -381 -415q0 -184 87 -301t294 -117q123 0 231 35q6 -20 13 -51l12 -46q-104 -45 -273 -45q-231 0 -361 139.5t-130 385.5z" />
<glyph unicode="d" horiz-adv-x="1099" d="M856 862v518h121v-1380h-119v113q-141 -139 -342 -140q-213 0 -328.5 143.5t-115.5 379.5q0 238 116.5 380t337.5 142q92 0 186.5 -35t143.5 -121zM559 915q-96 0 -165.5 -33.5t-106.5 -79.5t-57.5 -109.5t-25.5 -106.5t-5 -90q0 -74 12 -138.5t44 -132t100.5 -107.5 t166.5 -40q51 0 101.5 10t106.5 37t91 84t35 137v326q0 80 -61.5 139t-127 81.5t-108.5 22.5z" />
<glyph unicode="e" horiz-adv-x="1064" d="M555 -27q-209 0 -346 141.5t-137 381.5q0 223 132 372.5t328 149.5q201 0 331 -137.5t130 -370.5q0 -41 -2 -57h-792q0 -166 108.5 -269.5t284.5 -103.5q152 0 282 51l39 -90q-135 -68 -358 -68zM532 913q-135 0 -233 -108.5t-98 -251.5h671q-2 176 -98.5 268t-241.5 92z " />
<glyph unicode="f" horiz-adv-x="518" d="M25 991h151v107q0 88 22.5 150.5t50 91t69.5 45t62.5 17.5t49.5 1h8q61 0 121 -27l-16 -80q-43 16 -80 17q-168 0 -168 -191v-131h207v-96h-207v-895h-121l2 895h-151v96z" />
<glyph unicode="g" horiz-adv-x="1099" d="M561 78q31 0 75 10t96 31.5t88 69t36 108.5v360q0 80 -35 136.5t-92 80t-105.5 32.5t-101.5 9q-166 0 -242.5 -120.5t-76.5 -298.5q0 -418 358 -418zM858 -86v199q-111 -139 -313 -140q-217 0 -345 132.5t-128 390.5t122.5 390t323.5 132q20 0 48 -3t84.5 -13.5 t112.5 -41t95 -77.5v108h119v-1110q0 -115 -67.5 -187.5t-159 -98t-207.5 -25.5q-227 0 -340 65l28 99q129 -61 297 -62q92 0 157 16.5t97.5 38t51 57.5t21.5 62.5t3 67.5z" />
<glyph unicode="h" horiz-adv-x="1087" d="M965 590v-590h-121v590q0 326 -266 325q-33 0 -70 -6t-86 -26.5t-87 -53t-64.5 -93t-26.5 -140.5v-596h-121v1380h121v-532q47 76 121.5 117t123 47t115.5 6q168 0 264.5 -103.5t96.5 -324.5z" />
<glyph unicode="i" horiz-adv-x="366" d="M123 0v991h121v-991h-121zM123 1204v176h121v-176h-121z" />
<glyph unicode="j" horiz-adv-x="409" d="M287 991l-2 -1097q0 -88 -22.5 -150.5t-50.5 -91.5t-71 -44.5t-66.5 -16.5t-56.5 -1q-57 0 -120 25l16 86q61 -14 92 -14q45 0 78 15t48 33.5t23.5 52.5t9.5 55.5t1 58.5v1089h121zM166 1204v176h121v-176h-121z" />
<glyph unicode="k" horiz-adv-x="940" d="M487 631l443 -631h-139l-390 569l-157 -159v-410h-121v1380h121v-833l461 444h145z" />
<glyph unicode="l" horiz-adv-x="366" d="M123 0v1380h121v-1380h-121z" />
<glyph unicode="m" horiz-adv-x="1683" d="M782 0l2 621q0 119 -66.5 206.5t-199.5 87.5q-47 0 -92 -15t-88 -52t-68.5 -108.5t-25.5 -170.5v-569h-121v991h108v-149q94 176 320 176q88 0 177 -47t136 -156q45 104 137.5 153.5t196.5 49.5q362 0 363 -395v-623h-121v588q0 166 -61.5 246.5t-204.5 80.5 q-18 0 -47 -5t-70 -24.5t-75 -49t-58.5 -86t-24.5 -127.5v-623h-117z" />
<glyph unicode="n" horiz-adv-x="1087" d="M965 586v-586h-121v586q0 330 -266 329q-41 0 -89.5 -12t-107.5 -44t-98 -101.5t-39 -165.5v-592h-121v991h106v-162q104 188 332 189q195 0 299.5 -97t104.5 -335z" />
<glyph unicode="o" horiz-adv-x="1044" d="M51 496q0 244 126 383t345 139t345 -139.5t126 -382.5q0 -246 -126 -385.5t-345 -139.5t-345 139.5t-126 385.5zM874 496q0 170 -95 297t-257 127q-166 0 -259 -125t-93 -299t93 -300t259 -126q162 0 257 127t95 299z" />
<glyph unicode="p" horiz-adv-x="1099" d="M244 125v-535h-121v1401h119v-112q141 139 342 139q213 0 328.5 -143.5t115.5 -378.5q0 -238 -116.5 -380.5t-338.5 -142.5q-243 0 -329 152zM541 76q96 0 165.5 33.5t106.5 80t57.5 109.5t25.5 106.5t5 90.5q0 74 -12 138t-44 132t-100.5 107.5t-166.5 39.5 q-51 0 -101.5 -10t-107 -36.5t-91 -84t-34.5 -137.5v-326q0 -80 61.5 -139t127 -81.5t108.5 -22.5z" />
<glyph unicode="q" horiz-adv-x="1099" d="M856 -410v535q-86 -152 -330 -152q-221 0 -337.5 142.5t-116.5 380.5q0 236 115.5 379t328.5 143q201 0 342 -139v112h119v-1401h-121zM559 76q43 0 108.5 22.5t127 82t61.5 138.5v326q0 80 -35 137.5t-91 84t-106.5 36.5t-101.5 10q-98 0 -166.5 -39.5t-100.5 -107.5 t-44 -132.5t-12 -137.5q0 -47 5 -90.5t25.5 -106.5t57.5 -109.5t106.5 -80t165.5 -33.5z" />
<glyph unicode="r" horiz-adv-x="598" d="M539 1018h34v-121h-55q-113 0 -188.5 -72.5t-75.5 -210.5v-614h-121v991h109v-153q92 176 297 180z" />
<glyph unicode="s" horiz-adv-x="854" d="M659 193q9 32 10 59q0 85 -91 127q-23 10 -318 123q-102 47 -145 116q-33 54 -34 132q0 22 3 47q18 98 108.5 160.5t221.5 62.5q174 0 327 -94l-47 -92q-160 80 -266 79q-111 0 -168 -43t-57 -110q0 -63 44 -105.5t140 -74.5l211 -80q98 -39 146.5 -102.5t48.5 -131.5 q0 -135 -101.5 -215t-247.5 -80q-213 0 -383 125l54 92q184 -115 313 -114q80 0 143 31t88 88z" />
<glyph unicode="t" horiz-adv-x="643" d="M215 895h-170v96h170v264h119v-264h241v-96h-241v-610q0 -51 3 -79t18.5 -65t54.5 -54t102 -17q41 0 78 10l12 -80q-57 -27 -129 -27q-9 -1 -18 0q-26 0 -49 4q-31 6 -81.5 31t-80 93.5t-29.5 177.5v616z" />
<glyph unicode="u" horiz-adv-x="1087" d="M123 406v585h121v-585q0 -160 61.5 -246t224.5 -86q25 0 51.5 3t78 19.5t88 45t66.5 87t30 138.5v624h121v-991h-107v131q-27 -53 -80 -88t-111.5 -48t-90 -17.5t-50.5 -4.5q-197 0 -300 100t-103 333z" />
<glyph unicode="v" horiz-adv-x="1048" d="M606 0h-164l-422 991h127l377 -895l377 895h127z" />
<glyph unicode="w" horiz-adv-x="1624" d="M20 991h130l290 -868l291 868h164l293 -868l291 868h125l-342 -991h-142l-307 899l-303 -899h-143z" />
<glyph unicode="x" horiz-adv-x="972" d="M786 991h140l-355 -489l381 -502h-141l-324 438l-327 -438h-140l383 502l-356 489h139l301 -422z" />
<glyph unicode="y" horiz-adv-x="1048" d="M166 -416l8 92q34 -5 62 -4q43 0 74 11q52 18 89 98l76 184l-455 1026h127l383 -889l371 889h127l-541 -1272q-27 -59 -76 -96t-85.5 -45t-71.5 -8q-37 0 -88 14z" />
<glyph unicode="z" horiz-adv-x="913" d="M51 0v119l684 778h-661v94h788v-121l-682 -776h660v-94h-789z" />
<glyph unicode="{" horiz-adv-x="671" d="M123 487v72q106 18 143 93t37 206v313q0 88 62.5 148.5t134.5 60.5h90v-86h-47q-131 0 -131 -133v-332q2 -88 -29 -161.5t-54.5 -100t-45.5 -43.5q133 -109 129 -307v-291q0 -133 131 -133h47v-84h-90q-72 0 -134.5 60.5t-62.5 148.5v270q0 131 -37 205t-143 94z" />
<glyph unicode="|" horiz-adv-x="346" d="M123 -227v1767h100v-1767h-100z" />
<glyph unicode="}" horiz-adv-x="671" d="M549 559v-72q-106 -20 -143 -94t-37 -205v-270q0 -88 -62.5 -148.5t-134.5 -60.5h-90v84h47q131 0 131 133v291q-4 199 129 307q-23 16 -46.5 43t-54 100.5t-28.5 161.5v332q0 133 -131 133h-47v86h90q72 0 134.5 -60t62.5 -149v-313q0 -131 37 -206t143 -93z" />
<glyph unicode="~" horiz-adv-x="970" d="M324 741q55 0 159.5 -46t163.5 -46q123 0 125 127h94q4 -109 -52 -170t-171 -61q-55 0 -157.5 45t-159.5 45q-119 0 -129 -133h-95q11 239 222 239z" />
<glyph unicode="&#xa2;" horiz-adv-x="897" d="M621 1182v-166q137 -8 215 -41l-25 -96q-102 33 -231 32q-381 0 -381 -415q0 -184 87 -301t294 -117q123 0 231 35q6 -20 13 -51l12 -46q-84 -37 -215 -43v-186h-101v186q-213 12 -330.5 149.5t-117.5 373.5q0 231 118.5 369.5t329.5 150.5v166h101z" />
<glyph unicode="&#xa3;" horiz-adv-x="960" d="M348 752v-639h570v-113h-840v113h145l-2 639h-180v92h178v94q0 231 115 348t330 117q154 0 266 -64l-53 -79q-98 51 -213 51q-158 0 -238 -101.5t-80 -271.5v-94h375v-92h-373z" />
<glyph unicode="&#xa5;" horiz-adv-x="1101" d="M614 0h-125v270h-358v84h358v170h-358v86h336l-438 791h141l389 -731l371 731h143l-438 -791h332v-86h-353v-170h353v-84h-353v-270z" />
<glyph unicode="&#xa9;" horiz-adv-x="1576" d="M82 690q0 295 207 504t499.5 209t499.5 -209t207 -504t-207 -505t-500 -210q-291 0 -498.5 210t-207.5 505zM182 690q0 -254 178.5 -434t427.5 -180q252 0 429.5 180t177.5 434t-177.5 433.5t-429.5 179.5q-250 0 -428 -179.5t-178 -433.5zM387 684q0 184 110.5 306 t297.5 122q147 0 243 -45l-22 -57q-4 -10 -10 -39q-98 33 -185 33q-162 0 -240.5 -94.5t-78.5 -225.5q0 -133 78.5 -227.5t240.5 -94.5q90 0 187 29l14 -47q14 -43 16 -47q-92 -43 -243 -43q-186 0 -297 123t-111 307z" />
<glyph unicode="&#xad;" horiz-adv-x="817" d="M735 475h-653v119h653v-119z" />
<glyph unicode="&#xae;" horiz-adv-x="1576" d="M82 690q0 295 207 504t499.5 209t499.5 -209t207 -504t-207 -505t-500 -210q-291 0 -498.5 210t-207.5 505zM182 690q0 -254 178.5 -434t427.5 -180q252 0 429.5 180t177.5 434t-177.5 433.5t-429.5 179.5q-250 0 -428 -179.5t-178 -433.5zM1092 848q0 102 -55.5 178 t-188.5 76h-342v-819h98v327h203q86 0 113 -67q23 -49 38 -105q31 -92 66 -155h106q-41 84 -98 256q-18 51 -34.5 72.5t-47.5 35.5q142 49 142 201zM852 709h-248v297h236q80 0 116.5 -46.5t36.5 -113.5q0 -49 -31.5 -93t-109.5 -44z" />
<glyph unicode="&#xb4;" horiz-adv-x="468" d="M82 1116l164 264h141l-203 -264h-102z" />
<glyph unicode="&#x2000;" horiz-adv-x="777" />
<glyph unicode="&#x2001;" horiz-adv-x="1554" />
<glyph unicode="&#x2002;" horiz-adv-x="777" />
<glyph unicode="&#x2003;" horiz-adv-x="1554" />
<glyph unicode="&#x2004;" horiz-adv-x="518" />
<glyph unicode="&#x2005;" horiz-adv-x="388" />
<glyph unicode="&#x2006;" horiz-adv-x="259" />
<glyph unicode="&#x2007;" horiz-adv-x="259" />
<glyph unicode="&#x2008;" horiz-adv-x="194" />
<glyph unicode="&#x2009;" horiz-adv-x="310" />
<glyph unicode="&#x200a;" horiz-adv-x="86" />
<glyph unicode="&#x2010;" horiz-adv-x="817" d="M735 475h-653v119h653v-119z" />
<glyph unicode="&#x2011;" horiz-adv-x="817" d="M735 475h-653v119h653v-119z" />
<glyph unicode="&#x2012;" horiz-adv-x="817" d="M735 475h-653v119h653v-119z" />
<glyph unicode="&#x2013;" horiz-adv-x="1130" d="M82 594h967v-113h-967v113z" />
<glyph unicode="&#x2014;" horiz-adv-x="1835" d="M82 594h1671v-111h-1671v111z" />
<glyph unicode="&#x2018;" horiz-adv-x="528" d="M283 1038l-181 342h95l229 -342h-143z" />
<glyph unicode="&#x2019;" horiz-adv-x="528" d="M102 1038l181 342h143l-229 -342h-95z" />
<glyph unicode="&#x201c;" horiz-adv-x="823" d="M578 1038l-181 342h95l229 -342h-143zM283 1038l-181 342h95l229 -342h-143z" />
<glyph unicode="&#x201d;" horiz-adv-x="823" d="M397 1038l181 342h143l-229 -342h-95zM102 1038l181 342h143l-229 -342h-95z" />
<glyph unicode="&#x2022;" horiz-adv-x="612" d="M102 633q0 88 58.5 149.5t144.5 61.5t145.5 -61.5t59.5 -149.5q0 -86 -59.5 -147.5t-145.5 -61.5t-144.5 61.5t-58.5 147.5z" />
<glyph unicode="&#x2026;" horiz-adv-x="1384" d="M102 0v176h123v-176h-123zM590 0v176h125v-176h-125zM1120 0v176h125v-176h-125z" />
<glyph unicode="&#x202f;" horiz-adv-x="310" />
<glyph unicode="&#x205f;" horiz-adv-x="388" />
<glyph unicode="&#x20ac;" horiz-adv-x="1329" d="M279 778h-238l16 41l17 39h215q53 254 231 409.5t443 155.5q158 0 282 -59l-39 -88q-98 43 -192 43q-248 0 -399.5 -130t-204.5 -331h649l-37 -78h-623q-12 -111 2 -182h549l-37 -78h-497q59 -193 209.5 -315.5t388.5 -122.5q98 0 200 43q6 -14 12.5 -31.5l11.5 -30 t9 -26.5q-129 -61 -284 -62q-256 0 -432.5 149.5t-235.5 395.5h-254l33 78h207q-8 102 -2 180z" />
<glyph unicode="&#x2122;" horiz-adv-x="1771" d="M102 1380h820l276 -710l281 710h161l29 -811h-100l-23 742l-284 -733h-123l-285 733l-20 -742h-105l29 721h-309v-721h-99v721h-248v90z" />
<glyph unicode="&#xe000;" horiz-adv-x="990" d="M0 990h990v-990h-990v990z" />
<glyph unicode="&#xfb01;" horiz-adv-x="884" d="M641 0v895h-346v-895h-121l2 895h-151v96h151v107q0 88 22.5 150.5t50 91t69.5 45t62.5 17.5t49.5 1h8q61 0 121 -27l-16 -80q-43 16 -80 17q-168 0 -168 -191v-131h467v-991h-121z" />
<glyph unicode="&#xfb02;" horiz-adv-x="884" d="M641 0v1284h-178q-168 0 -168 -190v-103h207v-96h-207v-895h-121l2 895h-151v96h151v84q0 86 24.5 148.5t54.5 91t74 45t64.5 18.5t44.5 2h324v-1380h-121z" />
<glyph unicode="&#xfb03;" horiz-adv-x="1402" d="M1159 0v895h-346v-895h-121l2 895h-399v-895h-121l2 895h-151v96h151v107q0 88 22.5 150.5t50 91t69.5 45t62.5 17.5t49.5 1h8q61 0 121 -27l-16 -80q-43 16 -80 17q-168 0 -168 -191v-131h399v107q0 88 22.5 150.5t50.5 91t70 45t62.5 17.5t48.5 1h8q61 0 121 -27 l-16 -80q-43 16 -80 17q-168 0 -168 -191v-131h467v-991h-121z" />
<glyph unicode="&#xfb04;" horiz-adv-x="1402" d="M1159 0v1286h-180q-166 0 -166 -186v-109h207v-96h-207v-895h-121l2 895h-399v-895h-121l2 895h-151v96h151v107q0 88 22.5 150.5t50 91t69.5 45t62.5 17.5t49.5 1h8q61 0 121 -27l-16 -80q-43 16 -80 17q-168 0 -168 -191v-131h399v84q0 86 24.5 148.5t54.5 91t74 45 t64.5 18.5t44.5 2h324v-1380h-121z" />
</font>
</defs>
</svg>
