<?xml version="1.0" standalone="no"?>
<!DOCTYPE svg PUBLIC "-//W3C//DTD SVG 1.1//EN" "http://www.w3.org/Graphics/SVG/1.1/DTD/svg11.dtd" >
<svg xmlns="http://www.w3.org/2000/svg">
<metadata>
This is a custom SVG webfont generated by Fontspring.
</metadata>
<defs>
<font id="webfontfUYkIkSH" horiz-adv-x="991" >
<font-face units-per-em="2048" ascent="1536" descent="-512" />
<missing-glyph horiz-adv-x="483" />
<glyph unicode=" "  horiz-adv-x="483" />
<glyph unicode="&#x09;" horiz-adv-x="483" />
<glyph unicode="&#xa0;" horiz-adv-x="483" />
<glyph unicode="!" horiz-adv-x="290" d="M164 311l151 1069h50l-152 -1069h-49zM141 152l-20 -152h51l21 152h-52z" />
<glyph unicode="&#x22;" horiz-adv-x="389" d="M203 823l73 557h52l-80 -557h-45zM373 823l76 557h49l-78 -557h-47z" />
<glyph unicode="#" horiz-adv-x="993" d="M684 1380h49l-186 -438h297l184 438h51l-184 -438h190l-6 -43h-200l-174 -403h202l-6 -43h-215l-194 -453h-52l195 453h-295l-201 -453h-49l197 453h-183l7 43h194l174 403h-209l6 43h220zM530 899l-174 -403h297l176 403h-299z" />
<glyph unicode="$" horiz-adv-x="927" d="M412 -201l24 174q-219 12 -368 162l32 47q176 -160 383 -159q113 0 225.5 71.5t147.5 190.5q20 76 21 98q0 129 -129 205q-109 47 -236 114l-127 64q-47 25 -80 51.5t-60.5 70.5t-28.5 96t13 128q33 127 145.5 208t262.5 85l25 170h47l-25 -172q186 -10 303 -119l-29 -47 q-78 57 -146.5 87t-170.5 30q-117 0 -217 -60.5t-145 -181.5q-10 -41 -11.5 -76t6 -62.5t23.5 -53t32.5 -42t44 -36t47 -30.5l50.5 -28l297 -147q190 -92 158 -283q-29 -172 -155 -275.5t-288 -107.5l-24 -172h-47z" />
<glyph unicode="%" horiz-adv-x="1394" d="M188 961q0 199 98.5 322.5t248.5 123.5q111 0 176 -82t65 -223q0 -201 -100.5 -325t-247.5 -124q-111 0 -175.5 82.5t-64.5 225.5zM721 1096q0 115 -50 187.5t-145 72.5q-129 0 -206.5 -113t-77.5 -276q0 -119 49 -189.5t143 -70.5q129 0 208 111.5t79 277.5zM813 283 q0 201 97.5 324.5t246.5 123.5q111 0 177.5 -82t66.5 -223q0 -201 -100.5 -325t-249.5 -124q-111 0 -174.5 82.5t-63.5 223.5zM1343 420q0 115 -49 187.5t-143 72.5q-129 0 -207 -112.5t-78 -276.5q0 -119 49.5 -189.5t143.5 -70.5q129 0 206.5 111.5t77.5 277.5zM315 0 l893 1380h47l-893 -1380h-47z" />
<glyph unicode="&#x26;" horiz-adv-x="1021" d="M166 309q0 -139 83 -216t218 -77q117 0 217 87t162 202l-324 432q-74 -25 -149.5 -75t-141 -146t-65.5 -207zM856 1159q0 82 -51 140.5t-150 58.5q-123 0 -192.5 -84t-69.5 -189q0 -51 16.5 -97t33 -70.5t51.5 -67.5l43 -51q176 96 247.5 167.5t71.5 192.5zM569 764 l301 -408q61 111 84 271l7 37h49q-33 -225 -105 -338q76 -117 91.5 -182.5t-1.5 -143.5h-45l4 29q2 29 3 55.5t-17 73.5t-61 110q-86 -147 -184.5 -222t-233.5 -75q-174 0 -261 92.5t-87 235.5q0 162 99 286t284 189h-2q-154 160 -154 303q0 158 100.5 243t223.5 85 q98 0 168.5 -57.5t70.5 -178.5q0 -135 -67.5 -214.5t-266.5 -190.5z" />
<glyph unicode="'" horiz-adv-x="219" d="M203 823l73 557h52l-78 -557h-47z" />
<glyph unicode="(" horiz-adv-x="536" d="M141 178q0 506 143.5 833.5t379.5 368.5l-9 -49q-201 -33 -331.5 -359.5t-130.5 -789.5q0 -254 57 -404.5t164 -166.5l-6 -49q-127 23 -197 180t-70 436z" />
<glyph unicode=")" horiz-adv-x="536" d="M528 762q0 -508 -143 -833.5t-379 -366.5l6 49q201 31 333 356.5t132 790.5q0 256 -58.5 406.5t-164.5 166.5l8 49q127 -23 196.5 -181t69.5 -437z" />
<glyph unicode="*" horiz-adv-x="657" d="M666 838l-177 166l-18 -144q-12 -94 -20 -143h-43l43 287l-224 -166l-20 39l239 172l-188 174l27 34l178 -163q8 49 20 143l19 143h43l-43 -286l221 163l20 -34l-237 -174l190 -172z" />
<glyph unicode="+" horiz-adv-x="962" d="M639 991l-66 -469q51 0 199 -1t197 -1l-8 -57l-396 2l-65 -465h-51l65 463h-381l8 57h381l66 471h51z" />
<glyph unicode="," horiz-adv-x="333" d="M25 -170l211 363h57l-217 -363h-51z" />
<glyph unicode="-" horiz-adv-x="708" d="M694 508h-538l8 57h538z" />
<glyph unicode="." horiz-adv-x="227" d="M84 0l16 119h60l-17 -119h-59z" />
<glyph unicode="/" horiz-adv-x="624" d="M735 1380l-600 -1380h-51l602 1380h49z" />
<glyph unicode="0" d="M487 -29q-158 0 -242.5 134.5t-84.5 383.5q0 401 140 633t382 232q166 0 253 -128t87 -378q0 -397 -144.5 -637t-390.5 -240zM674 1300q-147 0 -256 -117.5t-159 -294.5t-50 -382q0 -215 71.5 -348t215.5 -133q154 0 264 122.5t158.5 300t48.5 379.5q0 213 -71.5 343 t-221.5 130z" />
<glyph unicode="1" d="M522 1042l-26 45l268 244h72l-189 -1331h-51l180 1274z" />
<glyph unicode="2" d="M690 1303q-98 0 -184 -47.5t-144 -118.5l-30 39q45 68 145.5 123t220.5 55q143 0 235.5 -79t92.5 -226q0 -76 -28.5 -145.5t-86 -131t-104.5 -100.5t-119 -92l-76 -56l-217 -164l-18 -14q-63 -49 -95 -76.5t-66 -78t-42 -105.5l-4 -31h702l-8 -55h-753l8 66 q16 113 94 198.5t227 196.5l168 125l84 63l88 67q25 19 72 62t65.5 74t36 79t17.5 101q0 119 -75 195t-206 76z" />
<glyph unicode="3" d="M483 -29q-229 0 -340 150l13 16q14 14 22 27q106 -141 301 -141q174 0 273.5 97t99.5 242q0 119 -76 197t-219 78h-49l8 55h39q172 0 271.5 101.5t99.5 238.5q0 113 -70 189.5t-199 76.5q-158 0 -295 -120l-26 39q127 137 334 137q137 0 222 -80t85 -227 q0 -115 -66.5 -225.5t-224.5 -157.5q109 -16 164 -103.5t55 -189.5q0 -186 -127 -295t-295 -105z" />
<glyph unicode="4" d="M741 0h-53l43 303h-614l8 62q184 293 629 833l110 133h66l-139 -979h178l-6 -49h-179zM172 352h565l127 905q-16 -20 -49 -57t-47 -57q-354 -435 -596 -791z" />
<glyph unicode="5" d="M899 446q0 141 -73.5 236.5t-209.5 95.5q-147 0 -254 -90h-69q43 158 100 410l56 233h548l-10 -53h-500l-135 -537q98 86 271 86q164 0 245.5 -108.5t81.5 -261.5q0 -199 -118.5 -340.5t-344.5 -141.5q-193 0 -307 164l41 45q41 -72 119 -115.5t154 -43.5 q201 0 303 127.5t102 293.5z" />
<glyph unicode="6" d="M936 1319l-23 -51q-76 33 -159 32q-199 0 -334 -160.5t-166 -477.5l-4 -46q35 74 87 128.5t108.5 82t104.5 40t91 12.5q145 0 227 -103.5t82 -275.5q0 -242 -135 -385.5t-315 -143.5q-92 0 -156.5 44t-97.5 120t-47.5 155t-14.5 167q0 453 157 675t415 222q106 0 180 -35 zM506 27q123 0 215 74.5t132 176t40 207.5q0 139 -63.5 238.5t-202.5 99.5q-123 0 -230.5 -91t-140.5 -214q-10 -39 -16 -76q-6 -186 59.5 -300.5t206.5 -114.5z" />
<glyph unicode="7" d="M291 1282l6 49h768l-8 -57q-250 -313 -428 -616.5t-328 -657.5h-59q195 416 356.5 698.5t405.5 583.5h-713z" />
<glyph unicode="8" d="M686 1354l90 -6q90 -12 153.5 -90t63.5 -195q0 -125 -73.5 -239.5t-214.5 -133.5q90 -20 146 -82.5t72.5 -122t16.5 -116.5q0 -162 -116.5 -280t-331.5 -118q-172 0 -258.5 87t-86.5 225q0 45 16.5 101t51.5 119.5t105.5 116t164.5 70.5q-104 12 -152 92t-48 185 q0 156 99 263t214 107q2 0 14.5 4.5t33 8.5t40.5 4zM500 23q180 0 283.5 99t103.5 251q0 125 -75 205.5t-222 83.5q-184 -2 -287.5 -115t-103.5 -264q0 -117 78 -188.5t223 -71.5zM680 1303q-168 0 -256 -97.5t-88 -240.5q0 -242 262 -242q344 0 344 338q0 106 -64.5 174 t-197.5 68z" />
<glyph unicode="9" d="M242 6l22 51q76 -33 160 -32q199 0 334 160.5t166 478.5l4 45q-35 -74 -87.5 -128.5t-108.5 -82t-104 -40t-91 -12.5q-145 0 -227.5 103.5t-82.5 275.5q0 242 135.5 385.5t315.5 143.5q92 0 156.5 -44t97.5 -120t47 -155t14 -167q0 -453 -156.5 -675t-414.5 -222 q-106 0 -180 35zM672 1298q-123 0 -215 -74.5t-132 -176t-40 -207.5q0 -139 63.5 -238.5t202.5 -99.5q123 0 230.5 91t140.5 214q10 39 16 76q6 186 -59.5 300.5t-206.5 114.5z" />
<glyph unicode=":" horiz-adv-x="227" d="M207 872l16 119h60l-17 -119h-59zM84 0l16 119h60l-17 -119h-59z" />
<glyph unicode=";" horiz-adv-x="356" d="M336 872l16 119h60l-17 -119h-59zM57 -190l156 282h68l-177 -282h-47z" />
<glyph unicode="&#x3c;" d="M168 496l729 -439l-8 -59l-774 473l8 51l905 473l-8 -59z" />
<glyph unicode="=" horiz-adv-x="1003" d="M1036 834h-835l8 53h835zM979 420h-836l9 53h835z" />
<glyph unicode="&#x3e;" d="M57 57l854 439l-731 440l8 59l775 -473l-9 -51l-905 -473z" />
<glyph unicode="?" horiz-adv-x="880" d="M469 311h-47q16 106 64.5 173t160.5 169q4 4 36 34l50 46q180 162 180 346q0 123 -71.5 201t-208.5 78q-178 0 -322 -201l-37 23q129 225 365 225q145 0 234.5 -80t89.5 -235q0 -217 -220 -410l-49 -43q-117 -100 -163 -162t-62 -164zM375 0l20 152h51l-20 -152h-51z" />
<glyph unicode="@" horiz-adv-x="1513" d="M1292 57l23 -41q-270 -199 -551 -198q-289 0 -447.5 187.5t-158.5 479.5q0 244 114.5 458t301 338t391.5 124q150 0 263 -48t180 -129t100.5 -180.5t33.5 -209.5q0 -276 -141 -470t-314 -194q-63 0 -101 57.5t-25 155.5q-29 -45 -69 -76.5t-73 -47t-69.5 -25t-51 -10.5 t-24.5 -1q-90 0 -141.5 60.5t-51.5 173.5q0 203 122 356.5t306 153.5q49 0 105.5 -31t64.5 -104l41 116h47q-4 -14 -98 -311l-55 -170q-18 -45 -19 -94q0 -63 28 -111.5t73 -48.5q150 0 275.5 175t125.5 448q0 254 -155.5 386t-383.5 132q-285 0 -518 -258t-233 -615 q0 -287 152.5 -455.5t410.5 -168.5q135 0 279.5 56t242.5 140zM905 928q-125 0 -217 -93.5t-137 -228.5q-25 -84 -25 -135q0 -88 41 -145.5t123 -57.5q68 0 157 61.5t130 174.5l65 207q27 96 -24.5 156.5t-112.5 60.5z" />
<glyph unicode="A" horiz-adv-x="1097" d="M68 0h-54l703 1380h55l311 -1380h-51l-84 352h-702zM735 1311l-465 -912h666z" />
<glyph unicode="B" horiz-adv-x="1017" d="M725 672h-469l-88 -625h512q133 0 214 105.5t81 242.5q0 117 -63.5 197t-186.5 80zM819 702q92 -4 151.5 -94t59.5 -211q0 -141 -95 -269t-253 -128h-571l194 1380h488q133 0 201.5 -83t68.5 -214q0 -35 -11.5 -84t-36 -110.5t-75.5 -114t-121 -72.5zM262 721h451 q143 25 220 132.5t77 219.5q0 119 -61.5 189.5t-166.5 70.5h-434z" />
<glyph unicode="C" horiz-adv-x="1001" d="M154 571q0 342 195.5 588t492.5 246q195 0 299 -49l-19 -43q-145 41 -241 41q-170 0 -304.5 -72t-212 -187.5t-117.5 -248.5t-40 -271q0 -236 118.5 -395.5t366.5 -159.5q117 0 256 43l4 -45q-119 -47 -311 -47q-227 0 -357 170t-130 430z" />
<glyph unicode="D" horiz-adv-x="1134" d="M508 0h-397l194 1380h397q236 0 365 -140t129 -411q0 -397 -185.5 -613t-502.5 -216zM174 51h350q266 0 442.5 194.5t176.5 581.5q0 258 -119 380t-328 122h-344z" />
<glyph unicode="E" horiz-adv-x="923" d="M848 0h-737l194 1380h725l-8 -51h-674l-84 -604h623l-8 -53h-623l-86 -621h686z" />
<glyph unicode="F" horiz-adv-x="851" d="M164 0h-53l194 1380h682l-8 -51h-629l-84 -604h580l-8 -53h-580z" />
<glyph unicode="G" horiz-adv-x="1157" d="M1118 623h-256l8 53h306l-89 -625q-154 -76 -391 -76q-254 0 -397 171t-143 436q0 342 208.5 582.5t532.5 240.5q195 0 322 -80l-25 -49q-57 37 -139 58.5t-135 21.5q-174 0 -314.5 -68.5t-224.5 -181.5t-129 -244t-45 -264q0 -238 130 -405.5t380 -167.5q168 0 327 61 h-2z" />
<glyph unicode="H" horiz-adv-x="1107" d="M1040 690h-782l-96 -690h-51l194 1380h51l-90 -639h783l90 639h51l-195 -1380h-51z" />
<glyph unicode="I" horiz-adv-x="256" d="M102 0l195 1380h51l-194 -1380h-52z" />
<glyph unicode="J" horiz-adv-x="649" d="M18 29l23 53l25 -10q106 -45 190 -45q123 0 188.5 81.5t92.5 251.5l143 1020h53l-145 -1034q-29 -203 -122 -289t-216 -86q-107 1 -232 58z" />
<glyph unicode="K" horiz-adv-x="927" d="M913 0h-63l-367 725l-262 -305l-59 -420h-51l194 1380h51l-125 -880l734 880h61l-504 -612z" />
<glyph unicode="L" horiz-adv-x="860" d="M358 1380l-186 -1327h629l-8 -53h-682l194 1380h53z" />
<glyph unicode="M" horiz-adv-x="1452" d="M698 0l-338 1286l-231 -1286h-53l250 1380h67l342 -1310l715 1310h63l-137 -1380h-51l129 1288l-700 -1288h-56z" />
<glyph unicode="N" horiz-adv-x="1120" d="M111 0l194 1380h76l588 -1312l184 1312h51l-194 -1380h-70l-594 1315l-184 -1315h-51z" />
<glyph unicode="O" horiz-adv-x="1241" d="M616 -29q-219 0 -341.5 155t-122.5 425q0 385 184 619.5t481 234.5q221 0 343 -152.5t122 -421.5q0 -387 -183.5 -623.5t-482.5 -236.5zM811 1356q-182 0 -323.5 -113t-213 -292t-71.5 -390q0 -242 107.5 -391.5t312.5 -149.5q186 0 327.5 111t211 288t69.5 392 q0 238 -107.5 391.5t-312.5 153.5z" />
<glyph unicode="P" horiz-adv-x="962" d="M715 584h-469l-82 -584h-53l194 1380h510q135 0 195.5 -100t60.5 -240q0 -43 -15.5 -108.5t-50 -149.5t-110.5 -141t-180 -57zM252 633h469q98 0 170 73.5t101.5 160.5t29.5 163q0 127 -55.5 215t-165.5 88h-451z" />
<glyph unicode="Q" horiz-adv-x="1224" d="M616 -29q-219 0 -341.5 155t-122.5 425q0 385 184 619.5t481 234.5q221 0 343 -152.5t122 -421.5q0 -285 -128 -517t-337 -306h2q104 -166 330 -166l-6 -45q-236 0 -373 191q-76 -17 -154 -17zM811 1358q-182 0 -323.5 -114t-213 -293t-71.5 -390q0 -244 107.5 -393.5 t312.5 -149.5q186 0 327.5 111t211 289t69.5 393q0 240 -107.5 393.5t-312.5 153.5z" />
<glyph unicode="R" horiz-adv-x="1013" d="M768 614q86 -49 121 -231l76 -383h-54l-90 436q-43 162 -203 162h-370l-84 -598h-53l194 1380h490q152 0 215 -93t63 -228q0 -43 -11 -97.5t-40 -128t-94.5 -134t-159.5 -85.5zM256 651h442q88 0 155 41t101.5 105.5t51 127t16.5 119.5q0 125 -56.5 207t-181.5 82h-434z " />
<glyph unicode="S" horiz-adv-x="927" d="M645 1405q209 0 342 -121l-29 -47q-78 57 -146.5 87t-170.5 30q-117 0 -217 -60.5t-145 -181.5q-10 -41 -11.5 -76t6 -62.5t23.5 -53t32.5 -42t44 -36t47 -30.5l50.5 -28l297 -147q163 -79 163 -229q0 -26 -5 -54q-29 -174 -155 -278.5t-288 -104.5q-250 0 -415 164 l32 47q176 -160 383 -159q113 0 225.5 71.5t147.5 190.5q20 76 21 98q0 129 -129 205q-109 47 -236 114l-127 64q-47 25 -80 51.5t-60 70.5q-29 46 -29 103q0 50 13 121q35 131 148.5 212t267.5 81z" />
<glyph unicode="T" horiz-adv-x="903" d="M1075 1329h-411l-187 -1329h-51l186 1329h-411l8 51h874z" />
<glyph unicode="U" horiz-adv-x="1159" d="M573 -29q-227 0 -327 140q-69 96 -69 277q0 81 13 179l115 813h53l-112 -800q-14 -99 -14 -179q0 -157 53 -244q80 -132 297 -132q221 0 337.5 132t157.5 423l113 800h53l-115 -813q-45 -317 -185.5 -456.5t-369.5 -139.5z" />
<glyph unicode="V" horiz-adv-x="962" d="M193 1380h55l244 -1312l612 1312h55l-647 -1380h-61z" />
<glyph unicode="W" horiz-adv-x="1622" d="M1024 1325l190 -1257l537 1312h51l-565 -1380h-63l-189 1235l-532 -1235h-68l-176 1380h51l170 -1312l543 1257h51z" />
<glyph unicode="X" horiz-adv-x="956" d="M567 621l-493 -621h-60l539 680l-324 700h60l295 -639l473 639h61l-518 -700l342 -680h-57z" />
<glyph unicode="Y" horiz-adv-x="989" d="M518 0h-51l70 487l-328 893h59l303 -835l535 835h61l-579 -893z" />
<glyph unicode="Z" horiz-adv-x="989" d="M903 0h-854l8 53l1016 1282h-801l7 45h854l-9 -51l-1009 -1280h794z" />
<glyph unicode="[" horiz-adv-x="401" d="M522 1335h-180l-244 -1728h181l-7 -45h-231l256 1818h231z" />
<glyph unicode="\" horiz-adv-x="624" d="M492 0l-213 1380h51l211 -1380h-49z" />
<glyph unicode="]" horiz-adv-x="401" d="M436 1335h-180l6 45h232l-256 -1818h-232l6 45h181z" />
<glyph unicode="^" horiz-adv-x="593" d="M459 1380h61l127 -514h-53l-115 459l-237 -459h-54z" />
<glyph unicode="_" horiz-adv-x="1101" d="M55 -96h967l-8 -51h-967z" />
<glyph unicode="`" horiz-adv-x="303" d="M319 1354l74 -228h-49l-86 228h61z" />
<glyph unicode="a" horiz-adv-x="829" d="M735 0h-49l25 178q-53 -96 -162 -151.5t-199 -55.5q-117 0 -193.5 63.5t-76.5 176.5q0 186 169 276.5t521 110.5l16 123q4 20 4.5 42.5t-9 63.5t-32 72t-74.5 54.5t-128 23.5q-117 0 -264 -64l-11 45q162 66 283 66h35q23 0 76 -14.5t92 -42t65 -88.5q18 -42 19 -97 q0 -25 -4 -53zM360 16q31 0 80 14.5t113.5 46.5t115 102.5t64.5 166.5l29 207q-295 -20 -455 -90t-178 -213q-2 -17 -2 -34q0 -78 56 -133q68 -67 177 -67z" />
<glyph unicode="b" horiz-adv-x="929" d="M348 1380l-74 -524q141 168 332 168q168 0 256 -115.5t88 -310.5q0 -268 -132 -447.5t-343 -179.5q-33 0 -65.5 5.5t-86 19.5t-94.5 54t-57 100l-20 -150h-50l195 1380h51zM598 975q-68 0 -138.5 -26.5t-133 -96.5t-76.5 -168l-47 -340q-5 -37 -6 -70q0 -54 15 -97 q24 -69 72 -100.5t95 -45t96 -13.5q117 0 204 59.5t131 154t64.5 184.5t20.5 174q0 66 -12.5 126t-43 121.5t-92 99.5t-149.5 38z" />
<glyph unicode="c" horiz-adv-x="743" d="M119 393q0 285 137 458t367 173q119 0 206 -41l-20 -51q-102 41 -178 41q-121 0 -212 -50.5t-142.5 -134t-77 -181t-25.5 -204.5q0 -170 79 -275t245 -105q96 0 190 32l4 -51q-90 -33 -217 -33q-170 0 -263 111.5t-93 310.5z" />
<glyph unicode="d" horiz-adv-x="929" d="M897 856l74 524h51l-195 -1380h-49l23 150q-96 -178 -355 -179q-156 0 -240.5 116t-84.5 306q0 270 132 450.5t359 180.5q191 0 285 -168zM606 975q-106 0 -187 -47t-126 -113.5t-74 -151.5t-37 -148.5t-8 -115.5q0 -96 22.5 -176t90 -142.5t174.5 -62.5q49 0 99 13.5 t108.5 45.5t100.5 100.5t56 166.5l47 340q4 27 4 52q0 106 -71 165q-88 74 -199 74z" />
<glyph unicode="e" horiz-adv-x="901" d="M469 -29q-156 0 -251 119t-95 320q0 258 140 436t333 178q176 0 266 -131q65 -95 65 -248q0 -59 -9 -127l-5 -33h-737q-6 -50 -6 -95q0 -145 64 -245q85 -131 264 -131q115 0 260 58l8 -45q-135 -56 -297 -56zM590 979q-135 0 -258 -133t-150 -318h688q8 60 9 112 q0 140 -61 224q-83 115 -228 115z" />
<glyph unicode="f" horiz-adv-x="405" d="M156 991h137l18 127q12 82 39 141.5t52.5 87t65.5 42t56.5 15.5t42.5 1q35 0 72 -14l-12 -43q-33 12 -68 12q-162 0 -194 -219l-21 -150h188l-6 -47h-188l-197 -1382h-51l197 1382h-137z" />
<glyph unicode="g" horiz-adv-x="929" d="M477 18q31 0 78 13.5t103.5 42t100.5 87t54 134.5l49 346q5 35 5 67q0 57 -16 102q-26 71 -76 104.5t-99 49t-98 15.5q-133 0 -229.5 -92t-139.5 -221t-43 -275q0 -168 73.5 -270.5t237.5 -102.5zM758 -115l37 262q-113 -176 -338 -176q-158 0 -248 104.5t-90 309.5 q0 303 130 471t331 168q41 0 80.5 -6t90 -24.5t88.5 -59.5t52 -100l22 157h52l-162 -1153q-23 -160 -138.5 -229.5t-271.5 -69.5q-147 0 -266 64l23 51q117 -66 239 -66q111 0 185.5 26t110.5 77t50.5 91t22.5 103z" />
<glyph unicode="h" horiz-adv-x="909" d="M891 596l-84 -596h-51l84 596q7 50 7 95q0 107 -42 180q-59 103 -205 104q-43 0 -89 -12.5t-105.5 -46t-104.5 -113.5t-61 -195l-86 -608h-52l195 1380h51l-78 -549q117 193 336 193q162 0 239 -104q55 -75 55 -208q0 -53 -9 -116z" />
<glyph unicode="i" horiz-adv-x="290" d="M119 0l139 991h51l-139 -991h-51zM291 1229l22 151h52l-23 -151h-51z" />
<glyph unicode="j" horiz-adv-x="305" d="M342 991l-166 -1163q-12 -84 -37.5 -142.5t-51.5 -86t-63.5 -43t-55 -16.5t-44.5 -1q-35 0 -78 15l17 45l20 -5q41 -10 56 -10q61 0 104 47t59.5 97.5t24.5 107.5l164 1155h51zM324 1229l20 151h51l-20 -151h-51z" />
<glyph unicode="k" horiz-adv-x="755" d="M457 645l293 -645h-58l-276 606l-205 -200l-57 -406h-52l195 1380h51l-127 -901l522 512h66z" />
<glyph unicode="l" horiz-adv-x="290" d="M119 0l194 1380h52l-195 -1380h-51z" />
<glyph unicode="m" horiz-adv-x="1449" d="M700 0l88 629q6 39 6 75q0 94 -38 168q-53 102 -189 103q-104 0 -201.5 -82t-119.5 -242l-92 -651h-52l140 991h53l-23 -153q104 186 301 186q104 0 172 -49t99 -184q111 233 360 233q241 0 241 -274q0 -54 -9 -119l-88 -631h-52l84 594q10 74 11 134q0 96 -27 154 q-43 93 -176 93q-20 0 -51 -6t-79 -27.5t-90 -56.5t-79 -101.5t-49 -152.5l-88 -631h-52z" />
<glyph unicode="n" horiz-adv-x="911" d="M893 592l-84 -592h-51l84 592q8 55 7 102q0 107 -38 178q-55 102 -201 103q-121 0 -231.5 -78t-132.5 -238l-92 -659h-52l140 991h53l-21 -151q104 184 338 184q160 0 237 -98q54 -69 54 -206q0 -58 -10 -128z" />
<glyph unicode="o" horiz-adv-x="901" d="M111 393q0 285 133 458t350 173q160 0 249 -112.5t89 -309.5q0 -285 -134 -459t-352 -174q-160 0 -247.5 112.5t-87.5 311.5zM881 586q0 172 -76 280.5t-217 108.5q-195 0 -310.5 -167t-115.5 -400q0 -170 74.5 -281t216.5 -111q190 0 309 167t119 403z" />
<glyph unicode="p" horiz-adv-x="929" d="M172 131l-80 -569h-51l201 1429h49l-21 -153q33 61 85.5 102t108.5 57.5t92 21.5t67 5q156 0 240.5 -119t84.5 -311q0 -272 -130 -447.5t-359 -175.5q-199 0 -287 160zM463 20q131 0 224 67t134 168t57.5 183t16.5 152q0 98 -22.5 179t-89 144.5t-173.5 63.5 q-49 0 -100 -14.5t-108.5 -48t-100.5 -103.5t-57 -168l-47 -340q-4 -27 -4 -52q0 -105 70 -161q87 -70 200 -70z" />
<glyph unicode="q" horiz-adv-x="929" d="M715 -438l80 569q-135 -160 -332 -160q-168 0 -256 113t-88 305q0 270 131 452.5t344 182.5q31 0 65.5 -6t86 -22.5t92.5 -57.5t57 -100l23 153h49l-201 -1429h-51zM471 20q68 0 137.5 25t133 92.5t77.5 165.5l47 340q5 37 6 70q0 54 -15 98q-24 70 -72 103.5t-95 48 t-96 14.5q-117 0 -204 -61.5t-131 -155.5t-64.5 -185.5t-20.5 -175.5q0 -66 12.5 -125t43 -119.5t92 -97.5t149.5 -37z" />
<glyph unicode="r" horiz-adv-x="471" d="M586 971h-23q-104 0 -202.5 -92.5t-120.5 -255.5l-88 -623h-50l140 991h49l-23 -164q47 98 139.5 146.5t170.5 50.5h14z" />
<glyph unicode="s" horiz-adv-x="698" d="M608 160q25 57 25 104q0 55 -24.5 93t-57.5 51l-270 129q-116 67 -117 197q0 38 10 81q29 92 112 150.5t191 58.5q154 0 252 -74l-27 -47q-111 70 -221 70q-125 0 -195.5 -65.5t-70.5 -164.5q0 -127 156 -188l184 -84q127 -57 127 -199q0 -135 -90 -218t-234 -83 q-172 0 -299 109l25 49q53 -37 79.5 -53.5t83 -36t113.5 -19.5q70 0 141.5 32t106.5 108z" />
<glyph unicode="t" horiz-adv-x="473" d="M281 944h-144l6 47h144l41 283h49l-41 -283h221l-6 -47h-221l-94 -674l-9 -111v-13q0 -49 28 -87q32 -43 101 -43q41 0 78 25q0 -10 2 -16q4 -25 4 -33q-47 -20 -94 -21q-18 0 -27.5 1t-31 3t-32.5 11l-29 20q-17 12 -26.5 34.5t-16.5 51.5t-7 73t8 97z" />
<glyph unicode="u" horiz-adv-x="911" d="M160 399l82 592h49l-82 -592q-7 -53 -7 -98q0 -107 40 -178q57 -100 200 -100q41 0 89.5 12t108.5 44t106.5 101.5t60.5 167.5l90 643h51l-139 -991h-51l22 160q-61 -106 -159.5 -147.5t-180.5 -41.5q-162 0 -237 98q-53 68 -53 202q0 58 10 128z" />
<glyph unicode="v" horiz-adv-x="841" d="M451 0h-60l-237 991h55l221 -930l479 930h58z" />
<glyph unicode="w" horiz-adv-x="1347" d="M782 958h54l174 -884l409 917h51l-442 -991h-53l-176 883l-424 -883h-58l-163 991h53l151 -917z" />
<glyph unicode="x" horiz-adv-x="737" d="M78 0h-64l394 494l-252 497h63l225 -450l353 450h61l-389 -497l254 -494h-64l-229 444z" />
<glyph unicode="y" horiz-adv-x="862" d="M70 -455l16 45q12 -2 27 -2q111 0 190 146l109 221l-258 1036h59l238 -960l477 960h57l-659 -1313q-37 -70 -100.5 -104.5t-104.5 -34.5q-26 0 -51 6z" />
<glyph unicode="z" horiz-adv-x="765" d="M41 0l6 45l752 899h-604l6 47h663l-6 -47l-747 -897h600l-6 -47h-664z" />
<glyph unicode="{" horiz-adv-x="538" d="M254 465l6 -6q100 -94 68 -324l-49 -354q-27 -178 90 -178h47l-6 -41h-56q-76 0 -110.5 46t-16.5 175l45 321q27 123 5.5 220.5t-111.5 128.5l6 36q98 31 140 116t63 233l45 321q18 129 66.5 175t123.5 46h56l-7 -41h-47q-117 0 -139 -178l-51 -354q-33 -231 -158 -324 l-8 -6z" />
<glyph unicode="|" horiz-adv-x="217" d="M59 -178l238 1694h49l-237 -1694h-50z" />
<glyph unicode="}" horiz-adv-x="538" d="M416 465l2 12l-8 6q-100 92 -68 324l51 354q12 94 -9.5 136t-80.5 42h-47l6 41h53q76 0 111 -46t16 -175l-45 -321q-27 -123 -5 -220.5t114 -128.5l-6 -36q-100 -31 -142.5 -116t-64.5 -233l-45 -321q-18 -129 -65.5 -175t-123.5 -46h-53l6 41h47q59 0 92 42t48 136 l49 354q35 231 160 324z" />
<glyph unicode="~" horiz-adv-x="800" d="M500 608l-29 17q-82 43 -121 43q-113 0 -170 -183h-45q72 233 219 234q49 0 123 -41l31 -16q78 -41 123 -41q111 0 170 186h45q-74 -238 -219 -238q-49 0 -127 39z" />
<glyph unicode="&#xa2;" horiz-adv-x="743" d="M473 -29l-24 -174h-48l25 176q-147 14 -227 125t-80 295q0 264 123 435t331 194l23 166h47l-18 -164q125 -4 204 -41l-22 -51q-98 41 -178 41q-121 0 -212 -50.5t-142.5 -134t-77 -181t-25.5 -204.5q0 -170 79 -275t245 -105q100 0 190 32l6 -51q-80 -29 -219 -33z" />
<glyph unicode="&#xa3;" horiz-adv-x="802" d="M362 784l-102 -731h526l-8 -53h-712l8 53h131l102 731h-164l7 50h161l17 108q33 229 145.5 346t294.5 117q119 0 197 -45l-25 -47q-70 41 -178 41q-158 0 -254 -109.5t-123 -302.5l-16 -108h344l-6 -50h-345z" />
<glyph unicode="&#xa5;" horiz-adv-x="876" d="M471 0h-59l41 289h-316l6 45h316l28 201h-315l6 49h316l-279 846h64l251 -791l469 791h64l-512 -846h309l-6 -49h-307l-29 -201h307l-6 -45h-307z" />
<glyph unicode="&#xa9;" horiz-adv-x="1372" d="M459 633q0 -152 74.5 -250t203.5 -98q117 0 185 28h-2l-5 41q-92 -27 -147 -26q-137 0 -201.5 88t-64.5 217q0 76 20.5 148.5t62.5 139t116.5 106.5t170.5 40q49 0 138 -27l16 41h2q-57 31 -176 31q-168 0 -280.5 -141t-112.5 -338zM156 584q0 330 221 575.5t506 245.5 q227 0 376.5 -180.5t149.5 -446.5q0 -330 -220 -568.5t-507 -238.5q-229 0 -377.5 175.5t-148.5 437.5zM201 590q0 -246 138 -411t349 -165q264 0 469 225.5t205 532.5q0 246 -138.5 415t-346.5 169q-262 0 -469 -229.5t-207 -536.5z" />
<glyph unicode="&#xad;" horiz-adv-x="708" d="M694 508h-538l8 57h538z" />
<glyph unicode="&#xae;" horiz-adv-x="1372" d="M156 584q0 330 221 575.5t506 245.5q227 0 376.5 -180.5t149.5 -446.5q0 -330 -220 -568.5t-507 -238.5q-229 0 -377.5 175.5t-148.5 437.5zM201 590q0 -246 138 -411t349 -165q264 0 469 225.5t205 532.5q0 246 -138.5 415t-346.5 169q-262 0 -469 -229.5t-207 -536.5z M1051 895q0 -25 -6.5 -54.5t-21.5 -70.5t-50 -76t-84 -51h2q39 -35 57 -129q16 -154 41 -225h-49q-16 53 -27 127q-12 82 -22 123q-18 88 -105 88h-202l-47 -338h-48l111 796h289q162 0 162 -190zM590 672h241q92 0 132.5 70.5t40.5 148.5q0 152 -121 151h-240z" />
<glyph unicode="&#xb4;" horiz-adv-x="303" d="M225 1126l140 228h61l-152 -228h-49z" />
<glyph unicode="&#x2000;" horiz-adv-x="787" />
<glyph unicode="&#x2001;" horiz-adv-x="1575" />
<glyph unicode="&#x2002;" horiz-adv-x="787" />
<glyph unicode="&#x2003;" horiz-adv-x="1575" />
<glyph unicode="&#x2004;" horiz-adv-x="525" />
<glyph unicode="&#x2005;" horiz-adv-x="393" />
<glyph unicode="&#x2006;" horiz-adv-x="262" />
<glyph unicode="&#x2007;" horiz-adv-x="262" />
<glyph unicode="&#x2008;" horiz-adv-x="196" />
<glyph unicode="&#x2009;" horiz-adv-x="315" />
<glyph unicode="&#x200a;" horiz-adv-x="87" />
<glyph unicode="&#x2010;" horiz-adv-x="708" d="M694 508h-538l8 57h538z" />
<glyph unicode="&#x2011;" horiz-adv-x="708" d="M694 508h-538l8 57h538z" />
<glyph unicode="&#x2012;" horiz-adv-x="708" d="M694 508h-538l8 57h538z" />
<glyph unicode="&#x2013;" horiz-adv-x="958" d="M145 565h824l-6 -49h-824z" />
<glyph unicode="&#x2014;" horiz-adv-x="1601" d="M145 565h1467l-6 -49h-1467z" />
<glyph unicode="&#x2018;" horiz-adv-x="374" d="M334 1380l100 -356h-51l-104 356h55z" />
<glyph unicode="&#x2019;" horiz-adv-x="374" d="M227 1024l201 356h53l-202 -356h-52z" />
<glyph unicode="&#x201c;" horiz-adv-x="532" d="M492 1380l102 -356h-51l-105 356h54zM334 1380l100 -356h-51l-104 356h55z" />
<glyph unicode="&#x201d;" horiz-adv-x="532" d="M227 1024l201 356h53l-202 -356h-52zM387 1024l199 356h55l-203 -356h-51z" />
<glyph unicode="&#x2022;" horiz-adv-x="485" d="M172 616q0 86 56.5 152t129.5 66q59 0 97.5 -47.5t38.5 -116.5q0 -88 -56.5 -151.5t-132.5 -63.5q-57 0 -95 46.5t-38 114.5z" />
<glyph unicode="&#x2026;" horiz-adv-x="843" d="M84 0l16 119h54l-17 -119h-53zM387 0l16 119h56l-17 -119h-55zM705 0l16 119h55l-16 -119h-55z" />
<glyph unicode="&#x202f;" horiz-adv-x="315" />
<glyph unicode="&#x205f;" horiz-adv-x="393" />
<glyph unicode="&#x20ac;" horiz-adv-x="1218" d="M459 584h542l-24 -43h-520q14 -219 134 -370t351 -151q100 0 199 33l10 -53q-113 -29 -258 -29q-221 0 -352 163t-138 407h-278l25 43h256q0 55 8 104q4 41 12 68h-217l22 45h205q72 258 250 431t408 173q137 0 237 -29l-22 -51q-76 29 -179 29q-252 0 -414.5 -160 t-223.5 -393h591l-22 -45h-580q-4 -8 -4 -13q-8 -45 -10 -57q-8 -69 -8 -102z" />
<glyph unicode="&#x2122;" horiz-adv-x="1472" d="M279 1380h624l191 -749l399 749h66l-89 -809h-51l82 736l-387 -736h-57l-183 736l-122 -736h-52l131 764h-262l-106 -764h-49l106 764h-248z" />
<glyph unicode="&#xe000;" horiz-adv-x="990" d="M0 990h990v-990h-990v990z" />
<glyph unicode="&#xfb01;" horiz-adv-x="696" d="M526 0l133 944h-321l-195 -1382h-51l195 1382h-137l6 47h137l18 127q12 82 39 141.5t52.5 87t65.5 42t56.5 15.5t42.5 1q35 0 72 -14l-12 -43q-33 12 -68 12q-162 0 -194 -219l-21 -150h371l-140 -991h-49z" />
<glyph unicode="&#xfb02;" horiz-adv-x="696" d="M526 0l189 1331h-162q-92 0 -136 -66.5t-55 -148.5l-18 -125h188l-6 -47h-188l-199 -1382h-51l199 1382h-137l6 47h137l14 103q12 80 41 139t57.5 86t66.5 42t55.5 17t35.5 2h207l-195 -1380h-49z" />
<glyph unicode="&#xfb03;" horiz-adv-x="1101" d="M932 0l133 944h-322l-194 -1382h-51l196 1382h-356l-195 -1382h-51l195 1382h-137l6 47h137l18 127q12 82 39 141.5t52.5 87t65.5 42t56.5 15.5t42.5 1q35 0 72 -14l-12 -43q-33 12 -68 12q-162 0 -194 -219l-21 -150h356l19 127q12 82 38.5 141.5t52.5 87t64.5 42 t55 15.5t43.5 1q35 0 71 -14l-12 -43q-33 12 -67 12q-162 0 -195 -219l-20 -150h372l-139 -991h-51z" />
<glyph unicode="&#xfb04;" horiz-adv-x="1101" d="M932 0l188 1333h-159q-49 0 -88 -25.5t-59.5 -65.5t-32 -70.5t-13.5 -55.5l-18 -125h188l-6 -47h-189l-196 -1382h-51l198 1382h-356l-197 -1382h-51l197 1382h-137l6 47h137l18 127q12 82 39 141.5t52.5 87t65.5 42t56.5 15.5t42.5 1q35 0 72 -14l-12 -43q-33 12 -68 12 q-162 0 -194 -219l-21 -150h356l15 103q12 80 39.5 139t56.5 86t66.5 42t55 17t36.5 2h209l-195 -1380h-51z" />
</font>
</defs>
</svg>
