<?xml version="1.0" standalone="no"?>
<!DOCTYPE svg PUBLIC "-//W3C//DTD SVG 1.1//EN" "http://www.w3.org/Graphics/SVG/1.1/DTD/svg11.dtd" >
<svg xmlns="http://www.w3.org/2000/svg">
<metadata>
This is a custom SVG webfont generated by Fontspring.
</metadata>
<defs>
<font id="webfontNVN2yYcq" horiz-adv-x="1167" >
<font-face units-per-em="2048" ascent="1536" descent="-512" />
<missing-glyph horiz-adv-x="569" />
<glyph unicode=" "  horiz-adv-x="569" />
<glyph unicode="&#x09;" horiz-adv-x="569" />
<glyph unicode="&#xa0;" horiz-adv-x="569" />
<glyph unicode="!" horiz-adv-x="499" d="M246 666l100 714h197l-101 -712l-77 -381h-150zM143 0l27 184h213l-27 -184h-213z" />
<glyph unicode="&#x22;" horiz-adv-x="722" d="M547 776l65 604h201l-102 -604h-164zM229 776l66 604h201l-103 -604h-164z" />
<glyph unicode="#" horiz-adv-x="1198" d="M729 1380h197l-187 -401h183l184 401h190l-184 -401h172l-20 -143h-222l-131 -297h191l-23 -146h-239l-183 -393h-184l180 393h-180l-186 -393h-193l180 393h-168l21 146h215l131 297h-194l22 143h242zM672 836l-131 -297h180l133 297h-182z" />
<glyph unicode="$" horiz-adv-x="1177" d="M512 -215l27 192q-115 6 -205 43q-174 68 -248 148l115 145q160 -158 446 -157q205 0 287 143q20 45 20 80q0 104 -116 160l-371 151q-229 86 -229 293q0 180 149.5 293t351.5 125l23 162h149l-24 -168q57 -8 145 -33q123 -47 197 -117l-103 -149q-141 135 -383 135 q-102 0 -175.5 -49t-96.5 -117q-14 -59 9.5 -102t53 -61.5t84.5 -41.5l343 -141q213 -86 213 -295q0 -94 -70 -221q-117 -199 -416 -226l-26 -192h-150z" />
<glyph unicode="%" horiz-adv-x="1611" d="M217 938q0 -133 72.5 -208t202.5 -75q168 0 270 107.5t102 286.5q0 133 -73.5 207.5t-204.5 74.5q-166 0 -267.5 -106.5t-101.5 -286.5zM715 1034q0 -106 -54.5 -184t-152.5 -78q-72 0 -107.5 50t-35.5 128q0 109 53 186.5t151 77.5q74 0 110 -50t36 -130zM936 283 q0 -133 72.5 -208t201.5 -75q168 0 270.5 107.5t102.5 285.5q0 133 -73.5 208t-204.5 75q-166 0 -267.5 -106.5t-101.5 -286.5zM1434 379q0 -106 -55.5 -184t-151.5 -78q-72 0 -108 50t-36 128q0 109 53.5 186.5t151.5 77.5q74 0 110 -50t36 -130zM330 0l1005 1380h127 l-1003 -1380h-129z" />
<glyph unicode="&#x26;" horiz-adv-x="1300" d="M338 346q0 -102 62.5 -163.5t181.5 -61.5q96 0 177 51t132 129l-281 338q-102 -25 -187 -101.5t-85 -191.5zM889 1100q0 66 -37 110.5t-111 46.5q-80 -2 -131 -52t-65 -120q-16 -82 21.5 -163.5t111.5 -94.5q98 29 154.5 108t56.5 165zM801 719l190 -240q23 47 43 187 l4 30h179q-20 -225 -103 -348q2 0 6 -6t6 -8q57 -70 80 -102.5t42.5 -96t8.5 -135.5h-202q10 45 2 82t-16.5 50t-30.5 40q-164 -195 -449 -195q-215 0 -323.5 97.5t-108.5 249.5q0 154 97.5 263t252.5 165q-88 63 -114.5 157.5t-10.5 182.5q27 141 147 222t259 81 q133 0 227 -75t94 -206q0 -94 -57 -197.5t-182 -173.5z" />
<glyph unicode="'" horiz-adv-x="405" d="M229 776l66 604h201l-103 -604h-164z" />
<glyph unicode="(" horiz-adv-x="755" d="M188 475l5 23q57 397 231 639.5t403 242.5l-18 -118q-135 -2 -263 -206t-179.5 -568.5t19.5 -569.5t206 -207l-17 -119q-229 0 -334.5 243t-52.5 640z" />
<glyph unicode=")" horiz-adv-x="755" d="M700 475q-59 -397 -232 -640t-402 -243l16 119q172 2 317.5 278.5t145.5 719.5q0 260 -69.5 405.5t-174.5 147.5l16 118q229 0 335 -242.5t50 -639.5z" />
<glyph unicode="*" horiz-adv-x="831" d="M653 1188l203 119l59 -127l-253 -113l223 -106l-97 -130l-170 117l-20 -213h-154l39 215l-207 -119l-59 130l248 106l-217 111l96 129l174 -119l19 215h153z" />
<glyph unicode="+" horiz-adv-x="1173" d="M184 737h420l60 422h172l-60 -422h418l-20 -149h-418l-60 -420h-172l60 420h-420z" />
<glyph unicode="," horiz-adv-x="565" d="M59 -166l234 375h221l-293 -375h-162z" />
<glyph unicode="-" horiz-adv-x="913" d="M868 414h-708l28 200h709z" />
<glyph unicode="." horiz-adv-x="434" d="M102 0l29 209h229l-28 -209h-230z" />
<glyph unicode="/" horiz-adv-x="757" d="M891 1380l-676 -1380h-154l674 1380h156z" />
<glyph unicode="0" d="M575 -27q-193 0 -298 142.5t-105 398.5q0 379 165 609.5t433 230.5q197 0 303.5 -142.5t106.5 -400.5q0 -381 -165.5 -609.5t-439.5 -228.5zM747.5 1190q-114.5 0 -202.5 -103.5t-128 -251t-40 -307.5q0 -172 54 -282.5t167 -110.5q119 0 207 102.5t128 248t40 307.5 q0 172 -55.5 284.5t-170 112.5z" />
<glyph unicode="1" d="M530 909l-86 129l344 293h201l-186 -1331h-213l151 1085z" />
<glyph unicode="2" d="M750 1176q-164 0 -342 -185l-101 131q231 231 477 232q176 0 292 -98.5t116 -260.5q0 -117 -81 -220t-200.5 -178t-240.5 -141.5t-216.5 -140t-113.5 -143.5h715l-25 -172h-917l16 113q16 121 99 223t175 160l232 139q139 82 211 137q76 57 105.5 104.5t29.5 108.5 q0 84 -60 137.5t-171 53.5z" />
<glyph unicode="3" d="M580 -27q-119 0 -216.5 37t-134 69t-82.5 81l101 131q145 -150 346 -150q133 0 210 76t77 176q0 86 -60.5 145.5t-173.5 59.5h-129l25 174h121q137 0 209.5 61.5t72.5 153.5q0 82 -55 142.5t-158 60.5q-172 0 -336 -152l-69 129q164 186 438 187q174 2 283.5 -88 t109.5 -250q0 -104 -64.5 -192.5t-195.5 -131.5q96 -27 146.5 -115t50.5 -178q0 -184 -158.5 -307t-357.5 -119z" />
<glyph unicode="4" d="M901 0l-203 2l39 279l-628 -2l24 170q184 291 331.5 459.5t416.5 422.5h206l-124 -895h196l-22 -157h-197zM317 436h443l90 645q-131 -111 -293 -306.5t-240 -338.5z" />
<glyph unicode="5" d="M940 461q0 109 -64.5 182.5t-175.5 73.5q-170 6 -258 -127h-178q31 121 98.5 364.5t100.5 376.5h711l-25 -180h-543l-98 -334q96 68 219 68q190 0 298 -109.5t108 -292.5q0 -252 -168 -387t-410 -135q-285 0 -408 217l129 115q98 -164 289 -164q109 0 186.5 33t116.5 87 t55.5 106.5t16.5 105.5z" />
<glyph unicode="6" d="M1149 1276l-74 -135q-94 55 -221 55q-168 0 -285.5 -125t-148.5 -338q49 66 131 103.5t164 37.5q199 0 304 -112.5t105 -278.5q0 -233 -152.5 -371.5t-381.5 -138.5q-96 0 -170 32t-118 81t-71.5 117.5t-38 134t-10.5 137.5q0 416 187.5 647.5t476.5 231.5q180 0 303 -78 zM608 131q141 0 223 106.5t82 223.5q0 102 -55 182t-168 80q-133 0 -215 -100.5t-82 -235.5q0 -113 57.5 -184.5t157.5 -71.5z" />
<glyph unicode="7" d="M274 1151l25 180h942l-22 -160q-258 -279 -436.5 -555t-336.5 -616h-235q184 356 363.5 628.5t412.5 522.5h-713z" />
<glyph unicode="8" d="M774 1354l103 -8q121 -20 205.5 -100.5t84.5 -211.5q0 -49 -8 -89t-32.5 -88t-79 -88t-138.5 -69q119 -41 166 -124.5t47 -172.5q0 -178 -145.5 -304t-394.5 -126q-215 0 -325 95.5t-110 242.5q0 74 26 143.5t99.5 140.5t186.5 105q-178 66 -178 244q0 170 118.5 273.5 t272.5 128.5q32 8 102 8zM602 131q141 0 229.5 82t88.5 184q0 90 -63.5 151.5t-186.5 63.5q-145 -2 -228.5 -81.5t-83.5 -184.5q0 -88 63.5 -151.5t180.5 -63.5zM694 778q131 0 197.5 66.5t66.5 173.5q0 78 -51 135t-151 57q-125 0 -196 -77.5t-71 -171.5q0 -86 51.5 -134.5 t153.5 -48.5z" />
<glyph unicode="9" d="M205 51l74 135q94 -55 221 -55q168 0 286.5 125t147.5 338q-49 -66 -130 -103.5t-163 -37.5q-199 0 -304.5 112.5t-105.5 278.5q0 233 153 371.5t380 138.5q96 0 170 -32t118 -81t71.5 -117.5t37.5 -134t10 -137.5q0 -416 -187 -647.5t-474 -231.5q-182 0 -305 78z M748 1196q-143 0 -224.5 -106.5t-81.5 -223.5q0 -102 55.5 -182t168.5 -80q131 0 214 100.5t83 235.5q0 111 -57.5 183.5t-157.5 72.5z" />
<glyph unicode=":" horiz-adv-x="434" d="M102 0l29 209h229l-28 -209h-230zM213 782l29 209h229l-29 -209h-229z" />
<glyph unicode=";" horiz-adv-x="606" d="M379 782l29 209h229l-29 -209h-229zM80 -166l233 375h222l-293 -375h-162z" />
<glyph unicode="&#x3c;" horiz-adv-x="1200" d="M1219 1001l-27 -180l-809 -327l717 -328l-25 -178l-952 452l14 109z" />
<glyph unicode="=" horiz-adv-x="1122" d="M1128 770h-917l20 150h918zM1073 381h-917l20 149h918z" />
<glyph unicode="&#x3e;" horiz-adv-x="1200" d="M238 821l26 180l953 -452l-17 -109l-1079 -452l24 178l811 328z" />
<glyph unicode="?" horiz-adv-x="1110" d="M649 287h-164q23 190 73 266t261 242q141 111 142 241q0 84 -60.5 141.5t-169.5 57.5q-106 0 -200.5 -66.5t-139.5 -130.5l-96 115q23 33 56.5 67.5t92 80t142.5 74t178 28.5q176 0 291.5 -98.5t115.5 -260.5q0 -213 -260 -401q-94 -68 -134 -100.5t-76.5 -86 t-45.5 -116.5zM426 0l27 184h213l-27 -184h-213z" />
<glyph unicode="@" horiz-adv-x="1757" d="M1503 162l45 -84q-115 -104 -297 -163.5t-360 -59.5q-334 0 -521.5 188t-187.5 481q0 231 126 432t334 317t441 116q174 0 310.5 -52.5t214.5 -138.5t117.5 -185.5t39.5 -203.5q0 -164 -58 -292t-148.5 -198.5t-184.5 -105.5t-182 -35q-84 0 -120 33t-40 70 q-96 -61 -246 -62q-125 0 -191.5 62.5t-66.5 185.5q0 217 147.5 369.5t346.5 152.5q47 0 93 -22.5t63 -73.5l24 80h197l-189 -522q-23 -57 -16.5 -97.5t35.5 -40.5q51 0 112.5 28t123 82t102.5 151.5t41 218.5q0 217 -165 346t-378 129q-279 0 -501 -221.5t-222 -511.5 q0 -248 154.5 -405t416.5 -157q289 1 590 189zM1024 850q-186 0 -266 -250q-27 -80 -27 -125q0 -119 94 -119q53 0 120 36t99 110l78 241q4 49 -32.5 78t-65.5 29z" />
<glyph unicode="A" horiz-adv-x="1402" d="M246 0h-226l768 1380h216l378 -1380h-225l-86 319h-653zM864 1157l-356 -665h524z" />
<glyph unicode="B" horiz-adv-x="1265" d="M852 608h-418l-61 -434h418q121 0 189.5 71.5t68.5 168.5q0 82 -50.5 138t-146.5 56zM1290 1061q0 -225 -215 -338q92 -25 144.5 -108t52.5 -189q0 -96 -49 -191.5t-157 -165t-247 -69.5h-686l195 1380h618q176 0 260 -91t84 -228zM459 782h393q119 14 167 88t48 158 q0 178 -188 178h-361z" />
<glyph unicode="C" horiz-adv-x="1257" d="M170 592q0 338 226.5 574.5t576.5 236.5q270 0 407 -78l-77 -151q-143 53 -310 53q-156 0 -275.5 -56.5t-188 -147.5t-103.5 -196.5t-35 -216.5q0 -195 109.5 -326.5t341.5 -131.5q166 0 329 53l33 -152q-162 -78 -432 -78q-281 0 -441.5 174.5t-160.5 442.5z" />
<glyph unicode="D" horiz-adv-x="1388" d="M633 0h-500l195 1380h499q291 0 450 -145t159 -426q0 -389 -215 -599t-588 -210zM371 174h295q240 0 398.5 154.5t158.5 457.5q0 215 -113 317.5t-305 102.5h-289z" />
<glyph unicode="E" horiz-adv-x="1169" d="M1077 0h-944l195 1380h929l-24 -174h-715l-59 -422h663l-24 -174h-664l-61 -436h729z" />
<glyph unicode="F" horiz-adv-x="1089" d="M348 -2l-215 2l195 1380h884l-24 -174h-670l-59 -422h616l-24 -174h-617z" />
<glyph unicode="G" horiz-adv-x="1411" d="M1198 567h-285l27 176h483l-94 -665q-84 -45 -232.5 -74t-267.5 -29q-307 0 -483 176.5t-176 448.5q0 336 241.5 569.5t618.5 233.5q264 0 434 -115l-96 -149q-119 90 -315 90q-164 0 -295 -55.5t-209 -144.5t-118 -192.5t-40 -211.5q0 -195 124 -334t362 -139 q117 0 270 45z" />
<glyph unicode="H" horiz-adv-x="1370" d="M1114 653h-674l-92 -653h-215l195 1380h215l-78 -551h674l78 551h215l-195 -1380h-215z" />
<glyph unicode="I" horiz-adv-x="499" d="M143 0l195 1380h213l-195 -1380h-213z" />
<glyph unicode="J" horiz-adv-x="880" d="M29 57l71 160q78 -41 123 -53q72 -18 139 -19q74 0 123 23q47 25 71 73t38 146l139 993h209l-141 -1005q-20 -150 -92 -244t-157 -126t-192 -32q-78 0 -161 19q-86 18 -170 65z" />
<glyph unicode="K" horiz-adv-x="1232" d="M1212 0h-258l-366 608l-180 -180l-60 -428h-215l195 1380h215l-99 -694l625 694h248l-584 -620z" />
<glyph unicode="L" horiz-adv-x="1099" d="M543 1380l-170 -1204h669l-24 -176h-885l195 1380h215z" />
<glyph unicode="M" horiz-adv-x="1730" d="M780 0l-274 1122l-199 -1122h-215l254 1380h291l272 -1073l576 1073h289l-136 -1380h-215l119 1122l-592 -1122h-170z" />
<glyph unicode="N" horiz-adv-x="1382" d="M954 0l-446 1151l-162 -1151h-213l195 1380h313l428 -1142l162 1142h213l-195 -1380h-295z" />
<glyph unicode="O" horiz-adv-x="1501" d="M745 -25q-272 0 -424.5 159t-152.5 437q0 379 214 605.5t564 226.5q272 0 426 -158t154 -436q0 -379 -215.5 -606.5t-565.5 -227.5zM922 1233q-242 0 -384.5 -189.5t-142.5 -453.5q0 -201 95.5 -323t279.5 -122q248 0 388 184.5t140 454.5q0 195 -95 322t-281 127z" />
<glyph unicode="P" horiz-adv-x="1214" d="M842 526h-420l-74 -526h-215l195 1380h620q184 0 268 -111.5t84 -264.5q0 -31 -9 -79t-38.5 -121t-77 -132.5t-134 -102.5t-199.5 -43zM446 702h392q90 0 148 56.5t74.5 114t16.5 110.5q0 96 -49 159.5t-154 63.5h-356z" />
<glyph unicode="Q" horiz-adv-x="1480" d="M745 -25q-266 0 -421.5 161t-155.5 442q0 375 213 600t565 225q272 0 426 -158t154 -436q0 -264 -109.5 -454.5t-312.5 -293.5q123 -80 219 -79h90l-22 -160h-82q-127 0 -218.5 30.5t-117 52t-74.5 70.5h-154zM922 1233q-244 0 -385.5 -189.5t-141.5 -453.5 q0 -199 95.5 -319.5t279.5 -120.5q248 0 388 183t140 451q0 195 -95 322t-281 127z" />
<glyph unicode="R" horiz-adv-x="1288" d="M1303 1020q0 -47 -11.5 -99.5t-40 -117t-93 -118.5t-154.5 -79q82 -39 116 -168l117 -438h-229l-115 434q-31 113 -150 113h-317l-78 -547h-215l195 1380h600q106 0 183 -31.5t117 -86t57.5 -113.5t17.5 -129zM449 721h391q90 0 149.5 50t80 107.5t20.5 112.5 q0 92 -48.5 153.5t-152.5 61.5h-371z" />
<glyph unicode="S" horiz-adv-x="1177" d="M1032 1362q123 -47 197 -117l-103 -149q-141 135 -383 135q-102 0 -175.5 -49t-96.5 -117q-5 -22 -5 -43q0 -33 14 -59q24 -43 53.5 -61.5t84.5 -41.5l343 -141q213 -86 213 -295q0 -94 -70 -221q-63 -106 -191.5 -167t-291.5 -61q-174 0 -287 45q-174 68 -248 148 l115 145q160 -158 446 -157q205 0 287 143q20 45 20 80q0 104 -116 160l-371 151q-229 86 -229 293q0 190 164.5 305t377.5 115q123 0 252 -41z" />
<glyph unicode="T" horiz-adv-x="1130" d="M1280 1206h-438l-170 -1206h-213l170 1206h-439l25 174h1090z" />
<glyph unicode="U" horiz-adv-x="1423" d="M709 -25q-279 0 -408 146q-96 108 -96 313q0 72 12 156l111 790h215l-107 -753q-9 -72 -9 -134q0 -139 48 -221q70 -119 258 -118q367 0 430 473l107 753h215l-111 -790q-45 -326 -214.5 -470.5t-450.5 -144.5z" />
<glyph unicode="V" horiz-adv-x="1300" d="M215 1380h219l250 -1144l573 1144h218l-717 -1380h-213z" />
<glyph unicode="W" horiz-adv-x="1935" d="M1264 1329l159 -1061l461 1112h225l-616 -1380h-219l-162 1020l-450 -1020h-220l-227 1380h223l154 -1112l452 1061h220z" />
<glyph unicode="X" horiz-adv-x="1306" d="M1034 0l-305 535l-457 -535h-252l613 682l-397 698h251l283 -551l438 551h252l-592 -698l418 -682h-252z" />
<glyph unicode="Y" horiz-adv-x="1316" d="M770 0h-221l69 489l-403 891h248l291 -714l487 714h250l-651 -891z" />
<glyph unicode="Z" horiz-adv-x="1226" d="M1128 0h-1067l27 184l975 1022h-797l25 174h1069l-27 -178l-987 -1024h807z" />
<glyph unicode="[" horiz-adv-x="628" d="M680 1243h-197l-213 -1515h197l-18 -138h-383l251 1790h383z" />
<glyph unicode="\" horiz-adv-x="757" d="M543 0l-287 1380h156l284 -1380h-153z" />
<glyph unicode="]" horiz-adv-x="628" d="M494 1243h-197l20 137h383l-251 -1790h-383l18 138h197z" />
<glyph unicode="^" horiz-adv-x="870" d="M180 768l377 612h145l205 -612h-176l-127 438l-250 -438h-174z" />
<glyph unicode="_" horiz-adv-x="1306" d="M63 -125h1143l-16 -123h-1143z" />
<glyph unicode="`" horiz-adv-x="548" d="M498 1380l127 -266h-160l-189 266h222z" />
<glyph unicode="a" horiz-adv-x="1050" d="M938 0h-215l14 102q-111 -127 -334 -127q-115 0 -210 68t-95 201q0 195 184.5 284.5t530.5 112.5l8 51q1 9 1 18q0 50 -40 93q-47 51 -168 51q-166 0 -311 -76l-45 133q0 4 45 27t140.5 49.5t195.5 26.5q0 -2 25 1q7 1 16 1q20 0 47 -5l84 -14.5t89 -31t79 -55t51 -87.5 q10 -34 10 -73q0 -25 -4 -52zM465 129q25 0 64.5 8t95 29.5t97.5 72t52 119.5l19 140q-215 -14 -350.5 -72.5t-135.5 -151.5q0 -66 43 -105.5t115 -39.5z" />
<glyph unicode="b" horiz-adv-x="1136" d="M530 1380l-71 -501q96 135 303 135q172 0 276.5 -108.5t104.5 -315.5q0 -293 -150.5 -454t-371.5 -161q-55 0 -154.5 33t-116.5 105l-16 -113h-211l194 1380h213zM678 850q-59 0 -147.5 -44t-98.5 -126l-47 -334q-3 -20 -3 -38q0 -164 234 -165q154 0 229 131.5t75 303.5 q0 272 -242 272z" />
<glyph unicode="c" horiz-adv-x="950" d="M133 412q0 276 161 440t429 164q190 0 299 -62l-66 -151q-117 43 -223 43q-190 0 -289.5 -119t-99.5 -287q0 -131 71.5 -215t219.5 -84q94 0 235 47l25 -151q-131 -63 -320 -64q-209 0 -325.5 117t-116.5 322z" />
<glyph unicode="d" horiz-adv-x="1136" d="M924 879l71 501h213l-194 -1380h-211l16 113q-37 -72 -145.5 -105t-165.5 -33q-168 0 -271.5 110t-103.5 316q0 293 150.5 453t378.5 160q207 0 262 -135zM696 850q-338 0 -338 -432q0 -121 48.5 -198t154.5 -77q260 0 289 203l47 334q1 10 1 20q0 70 -65 107 q-76 43 -137 43z" />
<glyph unicode="e" horiz-adv-x="1101" d="M571 -25q-195 0 -315.5 120t-120.5 325q0 254 155.5 425t403.5 171q195 0 305.5 -112.5t110.5 -311.5q0 -66 -25 -170h-749v-14q0 -119 66 -191q71 -76 208 -76q197 0 328 68l33 -148q-158 -86 -400 -86zM672 850q-109 0 -197 -83t-106 -187h536q2 20 2 39q0 99 -54 159 q-64 72 -181 72z" />
<glyph unicode="f" horiz-adv-x="593" d="M160 991h149l13 92q44 320 324 320h7h9q88 0 163 -45l-51 -133q-72 23 -100 22q-115 0 -139 -141l-15 -115h193l-21 -139h-192l-178 -1262h-213l180 1262h-150z" />
<glyph unicode="g" horiz-adv-x="1138" d="M598 141q33 0 84 15.5t103.5 56.5t60.5 98l47 334q3 20 3 39q0 166 -237 166q-104 0 -175.5 -70.5t-99.5 -165t-28 -200.5q0 -273 242 -273zM797 -55l24 168q-47 -61 -128 -99.5t-161 -38.5q-180 0 -289.5 111t-109.5 320q0 291 154.5 450.5t378.5 159.5q197 0 262 -137 l16 112h211l-151 -1075q-12 -90 -60.5 -156.5t-121 -101.5t-151.5 -51.5t-167 -16.5q-113 0 -215.5 26t-143.5 60l68 138q57 -37 146 -57q77 -17 157 -16h25q92 3 166 54.5t90 149.5z" />
<glyph unicode="h" horiz-adv-x="1130" d="M1090 584l-82 -584h-213l82 584q6 43 6 79q0 187 -168 187q-35 0 -73 -9.5t-89 -33t-88 -80.5t-49 -137l-82 -590h-211l194 1380h211l-75 -538q100 174 309 174q336 0 336 -323q0 -50 -8 -109z" />
<glyph unicode="i" horiz-adv-x="458" d="M123 0l139 991h213l-139 -991h-213zM289 1186l28 194h213l-28 -194h-213z" />
<glyph unicode="j" horiz-adv-x="473" d="M487 991l-151 -1081q-44 -320 -320 -320h-14q-86 0 -168 45l51 144q78 -27 113 -27q49 0 77.5 30t36 59.5t13.5 76.5l151 1073h211zM303 1186l29 194h213l-29 -194h-213z" />
<glyph unicode="k" horiz-adv-x="1034" d="M664 618l350 -618h-242l-264 502l-107 -96l-57 -406h-211l195 1380h211l-107 -755l404 366h256z" />
<glyph unicode="l" horiz-adv-x="458" d="M123 0l194 1380h213l-194 -1380h-213z" />
<glyph unicode="m" horiz-adv-x="1683" d="M737 0l88 612q5 34 5 63q0 175 -171 175q-80 0 -150.5 -65.5t-92.5 -221.5l-80 -563h-213l139 991h201l-21 -141q47 84 123 125t156 41q94 0 177 -41t110 -117q92 158 290 158q184 0 282 -89q74 -68 74 -213q0 -46 -7 -100l-86 -614h-211l82 582q6 46 6 83q0 76 -25 119 q-37 66 -143 66q-23 0 -49.5 -6t-68.5 -25.5t-75 -72t-45 -132.5l-86 -614h-209z" />
<glyph unicode="n" horiz-adv-x="1130" d="M1090 580l-82 -580h-213l82 580q6 44 6 81q0 191 -168 191q-33 0 -72 -10.5t-89 -35t-88 -82.5t-50 -138l-82 -586h-211l139 991h199l-21 -139q55 82 143.5 123t159.5 41q354 0 354 -332q1 -48 -7 -104z" />
<glyph unicode="o" horiz-adv-x="1120" d="M133 410q0 276 155.5 440t413.5 164q199 0 311.5 -115t112.5 -317q0 -276 -157.5 -440.5t-413.5 -164.5q-199 0 -310.5 115t-111.5 318zM911 551q0 127 -60 215t-171 88q-147 0 -239.5 -128t-92.5 -290q0 -127 58.5 -213t171.5 -86q145 0 239 128t94 286z" />
<glyph unicode="p" horiz-adv-x="1136" d="M352 113l-73 -523h-213l196 1401h211l-16 -112q109 137 319 137q176 0 272.5 -103.5t96.5 -308.5q0 -303 -153.5 -466t-397.5 -163q-72 0 -142.5 35t-99.5 103zM580 139q340 0 340 436q0 119 -49.5 198t-153.5 79q-262 0 -289 -205l-47 -334q-2 -12 -2 -22q0 -68 65 -107 q77 -45 136 -45z" />
<glyph unicode="q" horiz-adv-x="1136" d="M743 -410l74 523q-49 -68 -130 -103t-152 -35q-184 0 -293 110t-109 318q0 295 138.5 454t375.5 159q211 0 279 -137l16 112h211l-197 -1401h-213zM598 139q57 0 146.5 46t101.5 128l45 334q3 20 3 39q0 166 -235 166q-104 0 -175.5 -70.5t-99.5 -166t-28 -201.5 q0 -275 242 -275z" />
<glyph unicode="r" horiz-adv-x="686" d="M805 1016l-27 -189h-61q-256 0 -289 -227l-84 -600h-211l139 991h201l-24 -168q39 96 127 144.5t176 48.5h53z" />
<glyph unicode="s" horiz-adv-x="907" d="M676 231q11 26 11 48q0 50 -60 75l-277 115q-166 78 -166 223q0 147 114 236.5t294 89.5q98 0 194 -33q68 -25 152 -82l-96 -135q-156 82 -262 82q-72 0 -123 -31t-66 -76q-4 -14 -4 -26t4 -23l7 -17q3 -7 15.5 -16.5t19.5 -13.5t28.5 -13l33 -13.5t42.5 -14.5 q125 -47 192 -78q160 -70 160 -223q0 -72 -51 -158q-49 -80 -145.5 -125t-219.5 -45q-113 0 -211 35q-109 37 -182 113l102 139q111 -115 318 -114q131 -1 176 81z" />
<glyph unicode="t" horiz-adv-x="692" d="M309 850h-170l21 141h170l35 248h210l-34 -248h225l-21 -141h-225l-78 -551q-2 -21 -2 -40q0 -120 103 -120q49 0 119 21l-9 -146q-84 -41 -170 -41q-33 0 -59.5 1t-71.5 17.5t-72.5 47.5t-43.5 96q-9 37 -10 84q0 35 5 74z" />
<glyph unicode="u" horiz-adv-x="1130" d="M182 412l80 579h211l-80 -579q-6 -42 -6 -78q0 -189 166 -189q29 0 59.5 5.5t87 24t96.5 70.5t52 130l86 616h213l-139 -991h-201l18 131q-43 -63 -121.5 -102t-121.5 -45.5t-70 -6.5q-338 0 -338 325q0 51 8 110z" />
<glyph unicode="v" horiz-adv-x="1071" d="M649 0h-227l-283 991h223l195 -825l430 825h223z" />
<glyph unicode="w" horiz-adv-x="1617" d="M150 991h223l121 -772l335 772h238l121 -772l338 772h221l-483 -991h-197l-152 756l-362 -756h-197z" />
<glyph unicode="x" horiz-adv-x="1071" d="M922 991h241l-426 -489l314 -502h-242l-219 387l-328 -387h-242l453 502l-289 489h244l195 -370z" />
<glyph unicode="y" horiz-adv-x="1112" d="M113 -381l45 160q57 -23 102 -23q31 0 57.5 17.5t38 33t11.5 19.5l94 174l-301 991h223l211 -753l414 753h223l-701 -1239q-37 -66 -98 -104.5t-104 -48t-82 -9.5q-61 0 -133 29z" />
<glyph unicode="z" horiz-adv-x="956" d="M51 0l21 152l694 675h-578l23 164h833l-20 -151l-694 -676h577l-22 -164h-834z" />
<glyph unicode="{" horiz-adv-x="735" d="M182 420l19 131q102 10 144 71.5t58 178.5l50 350q14 102 86.5 165.5t175.5 63.5h133l-21 -141h-100q-31 0 -51.5 -9t-29.5 -29.5t-12 -32t-7 -33.5l-52 -361q-12 -115 -72.5 -193.5t-127.5 -91.5q63 -20 101 -100t20 -192l-52 -361q0 -20 -2 -43.5t16.5 -42t57.5 -18.5 h100l-20 -142h-133q-102 0 -156.5 63.5t-40.5 166.5l49 350q16 117 -8.5 178.5t-124.5 71.5z" />
<glyph unicode="|" horiz-adv-x="395" d="M92 -221l250 1784h150l-250 -1784h-150z" />
<glyph unicode="}" horiz-adv-x="735" d="M690 551l-18 -131q-102 -10 -144.5 -71.5t-58.5 -178.5l-49 -350q-14 -102 -87 -166t-175 -64h-133l20 142h100q88 0 101 104l51 361q12 113 72.5 192.5t130.5 99.5q-63 12 -102.5 92.5t-20.5 192.5l51 361q0 20 2 43.5t-16.5 42t-57.5 18.5h-100l20 141h134 q102 0 156.5 -63.5t39.5 -165.5l-49 -350q-16 -117 8.5 -178.5t124.5 -71.5z" />
<glyph unicode="~" horiz-adv-x="993" d="M446 743q53 0 144.5 -39.5t144.5 -39.5q72 0 131 112h154l-37 -85.5t-34.5 -67.5t-42 -59.5t-49.5 -40t-66.5 -29t-83.5 -7.5q-53 0 -143.5 42t-139.5 42q-66 0 -127 -118h-152q35 88 54.5 126.5t54.5 85t79.5 62.5t112.5 16z" />
<glyph unicode="&#xa2;" horiz-adv-x="950" d="M485 -201l25 178q-180 16 -278.5 131t-98.5 304q0 256 141.5 416.5t380.5 183.5l25 168h149l-24 -168q143 -14 217 -58l-66 -151q-117 43 -223 43q-190 0 -290.5 -120t-100.5 -286q0 -131 72.5 -215t218.5 -84q96 0 237 47l23 -151q-90 -45 -234 -60l-24 -178h-150z" />
<glyph unicode="&#xa3;" horiz-adv-x="1013" d="M524 705l-71 -549h530l-22 -156h-920l22 156h173l71 549h-168l23 149h168l10 82q31 215 151.5 326.5t270.5 134.5q25 6 106 6q184 0 299 -86l-110 -119q-90 49 -209 49q-121 0 -195.5 -85t-95.5 -226l-10 -82h348l-23 -149h-348z" />
<glyph unicode="&#xa5;" horiz-adv-x="1177" d="M698 0h-217l33 229h-334l21 140h334l18 137h-334l21 139h290l-305 735h238l231 -635l412 635h235l-510 -735h287l-20 -139h-328l-18 -137h327l-20 -140h-328z" />
<glyph unicode="&#xa9;" horiz-adv-x="1617" d="M172 606q0 213 117 397.5t309.5 292t407.5 107.5q272 0 453 -183.5t181 -449.5q0 -322 -252.5 -559.5t-582.5 -237.5q-272 0 -452.5 183.5t-180.5 449.5zM504 627q0 -156 94 -256.5t260 -100.5q160 0 254 47l-22 103q-98 -33 -193 -33q-129 0 -186.5 69.5t-57.5 176.5 q0 139 80 243.5t248 104.5q96 0 178 -35l55 105q-82 47 -241 47q-205 0 -337 -137t-132 -334zM313 621q0 -219 146.5 -368t369.5 -149q270 0 475 192.5t205 455.5q0 219 -146 367.5t-370 148.5q-270 0 -475 -192.5t-205 -454.5z" />
<glyph unicode="&#xad;" horiz-adv-x="913" d="M868 414h-708l28 200h709z" />
<glyph unicode="&#xae;" horiz-adv-x="1617" d="M1249 887q0 -23 -5 -48.5t-19.5 -64.5t-51 -73.5t-90.5 -51.5q43 -23 62 -94l65 -258h-151l-66 252q-25 57 -80 57h-165l-46 -309h-143l113 799h354q121 0 172 -60.5t51 -148.5zM764 723h213q72 0 100.5 47t28.5 100q0 113 -105 113h-202zM172 606q0 213 117 397.5 t309.5 292t407.5 107.5q272 0 453 -183.5t181 -449.5q0 -322 -252.5 -559.5t-582.5 -237.5q-272 0 -452.5 183.5t-180.5 449.5zM313 621q0 -219 146.5 -368t369.5 -149q270 0 475 192.5t205 455.5q0 219 -146 367.5t-370 148.5q-270 0 -475 -192.5t-205 -454.5z" />
<glyph unicode="&#xb4;" horiz-adv-x="548" d="M238 1114l200 266h221l-262 -266h-159z" />
<glyph unicode="&#x2000;" horiz-adv-x="781" />
<glyph unicode="&#x2001;" horiz-adv-x="1563" />
<glyph unicode="&#x2002;" horiz-adv-x="781" />
<glyph unicode="&#x2003;" horiz-adv-x="1563" />
<glyph unicode="&#x2004;" horiz-adv-x="521" />
<glyph unicode="&#x2005;" horiz-adv-x="390" />
<glyph unicode="&#x2006;" horiz-adv-x="260" />
<glyph unicode="&#x2007;" horiz-adv-x="260" />
<glyph unicode="&#x2008;" horiz-adv-x="195" />
<glyph unicode="&#x2009;" horiz-adv-x="312" />
<glyph unicode="&#x200a;" horiz-adv-x="86" />
<glyph unicode="&#x2010;" horiz-adv-x="913" d="M868 414h-708l28 200h709z" />
<glyph unicode="&#x2011;" horiz-adv-x="913" d="M868 414h-708l28 200h709z" />
<glyph unicode="&#x2012;" horiz-adv-x="913" d="M868 414h-708l28 200h709z" />
<glyph unicode="&#x2013;" horiz-adv-x="1165" d="M168 623h1001l-20 -152h-1002z" />
<glyph unicode="&#x2014;" horiz-adv-x="1818" d="M168 623h1655l-21 -150h-1655z" />
<glyph unicode="&#x2018;" horiz-adv-x="612" d="M705 1380l-236 -352h-221l291 352h166z" />
<glyph unicode="&#x2019;" horiz-adv-x="612" d="M248 1028l235 352h222l-293 -352h-164z" />
<glyph unicode="&#x201c;" horiz-adv-x="919" d="M516 1380l139 -352h-166l-192 352h219zM825 1380l138 -352h-164l-193 352h219z" />
<glyph unicode="&#x201d;" horiz-adv-x="909" d="M248 1028l235 352h219l-290 -352h-164zM547 1028l235 352h219l-290 -352h-164z" />
<glyph unicode="&#x2022;" horiz-adv-x="686" d="M188 598q0 104 82 180t193 76q92 0 151.5 -58.5t59.5 -146.5q0 -104 -83 -179t-194 -75q-92 0 -150.5 58.5t-58.5 144.5z" />
<glyph unicode="&#x2026;" horiz-adv-x="1404" d="M102 0l29 209h213l-29 -209h-213zM596 0l29 209h213l-29 -209h-213zM1090 0l28 209h213l-28 -209h-213z" />
<glyph unicode="&#x202f;" horiz-adv-x="312" />
<glyph unicode="&#x205f;" horiz-adv-x="390" />
<glyph unicode="&#x20ac;" horiz-adv-x="1366" d="M184 625h178q0 16 15 102h-234l74 139h195q88 238 285.5 383.5t463.5 145.5q168 0 305 -76l-73 -133q-121 43 -211 43q-205 0 -344.5 -100.5t-208.5 -262.5h612l-82 -139h-573q-6 -29 -10.5 -61.5t-4.5 -40.5h537l-84 -142h-440q27 -150 138.5 -244t307.5 -94 q127 0 225 48l35 -140q-158 -76 -329 -76q-256 0 -413 139.5t-183 366.5h-256z" />
<glyph unicode="&#x2122;" horiz-adv-x="1632" d="M225 1380h817l156 -635l336 635h176l-80 -817h-127l68 647l-348 -647h-101l-166 647l-112 -647h-129l131 715h-250l-100 -715h-125l100 715h-260z" />
<glyph unicode="&#xe000;" horiz-adv-x="990" d="M0 990h990v-990h-990v990z" />
<glyph unicode="&#xfb01;" horiz-adv-x="1052" d="M717 0l119 852h-336l-183 -1262h-213l185 1262h-150l21 139h149l13 92q43 324 331 320h9q88 0 163 -45l-51 -133q-72 23 -100 22q-121 0 -139 -141l-17 -115h551l-139 -991h-213z" />
<glyph unicode="&#xfb02;" horiz-adv-x="1052" d="M717 0l172 1225h-217q-121 0 -140 -142l-12 -92h193l-21 -139h-192l-176 -1262h-213l178 1262h-150l21 139h147l10 70q12 90 49 155.5t75 95t90.5 47t76 19.5t49.5 2h465l-192 -1380h-213z" />
<glyph unicode="&#xfb03;" horiz-adv-x="1646" d="M1311 0l119 852h-336l-179 -1262h-213l181 1262h-383l-178 -1262h-213l180 1262h-150l21 139h149l13 92q43 324 331 320h9q88 0 163 -45l-51 -133q-72 23 -100 22q-121 0 -139 -141l-17 -115h385l12 92q43 324 332 320h8q88 0 164 -45l-51 -133q-72 23 -100 22 q-121 0 -140 -141l-16 -115h551l-139 -991h-213z" />
<glyph unicode="&#xfb04;" horiz-adv-x="1646" d="M1311 0l172 1225h-217q-121 0 -140 -142l-12 -92h193l-21 -139h-192l-179 -1262h-213l181 1262h-383l-178 -1262h-213l180 1262h-150l21 139h149l13 92q43 324 331 320h9q88 0 163 -45l-51 -133q-72 23 -100 22q-121 0 -139 -141l-17 -115h383l10 70q12 90 49 155.5 t75 95t90.5 47t76 19.5t49.5 2h465l-192 -1380h-213z" />
</font>
</defs>
</svg>
