<?xml version="1.0" standalone="no"?>
<!DOCTYPE svg PUBLIC "-//W3C//DTD SVG 1.1//EN" "http://www.w3.org/Graphics/SVG/1.1/DTD/svg11.dtd" >
<svg xmlns="http://www.w3.org/2000/svg">
<metadata>
This is a custom SVG webfont generated by Fontspring.
</metadata>
<defs>
<font id="webfontXzHTJMnM" horiz-adv-x="1044" >
<font-face units-per-em="2048" ascent="1536" descent="-512" />
<missing-glyph horiz-adv-x="483" />
<glyph unicode=" "  horiz-adv-x="483" />
<glyph unicode="&#x09;" horiz-adv-x="483" />
<glyph unicode="&#xa0;" horiz-adv-x="483" />
<glyph unicode="!" horiz-adv-x="507" d="M193 377l116 1003h279l-166 -1003h-229zM106 0l35 246h295l-35 -246h-295z" />
<glyph unicode="&#x22;" horiz-adv-x="751" d="M205 731l61 649h273l-121 -649h-213zM539 731l63 649h272l-122 -649h-213z" />
<glyph unicode="#" horiz-adv-x="1095" d="M625 1380h247l-157 -391h112l156 391h244l-156 -391h109l-29 -205h-166l-82 -200h125l-31 -211h-182l-156 -373h-237l156 373h-113l-158 -373h-246l154 373h-106l28 211h162l80 200h-125l29 205h184zM629 784l-82 -200h115l81 200h-114z" />
<glyph unicode="$" horiz-adv-x="1052" d="M389 -221l29 207h12q-74 14 -131 39q-156 74 -233 168l127 221q63 -80 175.5 -138.5t219.5 -58.5q66 0 124 44t58 124q0 86 -57 113l-295 143q-213 104 -213 311q0 172 118.5 293t303.5 150h-13l27 180h213l-25 -178h-12q170 -25 322 -174l-109 -205q-82 68 -160.5 101.5 t-101.5 34.5t-72 1q-86 0 -139 -44t-53 -103q0 -76 76 -121l290 -137q205 -96 205 -308q0 -195 -135 -319.5t-324 -145.5h13l-27 -198h-213z" />
<glyph unicode="%" horiz-adv-x="1425" d="M219 942q0 -127 59.5 -200.5t163.5 -73.5q141 0 231.5 111.5t90.5 291.5q0 127 -60.5 199.5t-166.5 72.5q-141 0 -229.5 -110.5t-88.5 -290.5zM602 1044q0 -78 -40 -150.5t-99 -72.5q-41 0 -60.5 43t-19.5 105q0 80 37 152.5t96 72.5q43 0 64.5 -44.5t21.5 -105.5z M848 252q0 -129 58.5 -202t162.5 -73q145 0 234.5 112t89.5 292q0 127 -60.5 199.5t-167.5 72.5q-141 0 -229 -110.5t-88 -290.5zM1229 354q0 -78 -39 -150.5t-98 -72.5q-41 0 -61.5 45t-20.5 105q0 78 38.5 150.5t96.5 72.5q43 0 63.5 -44.5t20.5 -105.5zM279 0l886 1380 h152l-885 -1380h-153z" />
<glyph unicode="&#x26;" horiz-adv-x="1126" d="M393 352q0 -76 34 -121t97 -45q104 0 185 133h2l-187 256q-131 -53 -131 -223zM723 1063q0 111 -59 111q-72 0 -99 -134q-10 -59 3.5 -117.5t43.5 -76.5q49 27 80 87t31 130zM772 696l55 -75q-2 -25 2 -25q16 25 31 123h238q-2 -25 -6.5 -51.5t-4.5 -32.5 q-20 -152 -77 -273h-4q25 -35 34 -51l29 -48q18 -32 24.5 -54.5t13.5 -56t5 -71.5t-8 -81h-254q12 94 4 129q-53 -70 -149.5 -111t-208.5 -41q-195 0 -293.5 98.5t-98.5 250.5q0 270 273 415h-4q-111 133 -78 306q29 150 145.5 233.5t249.5 83.5q127 0 217 -86t84 -227 q-10 -86 -66.5 -186.5t-154.5 -168.5h2z" />
<glyph unicode="'" horiz-adv-x="417" d="M205 731l61 649h273l-121 -649h-213z" />
<glyph unicode="(" horiz-adv-x="720" d="M160 502q57 403 239.5 640.5t425.5 237.5l-24 -163q-141 -2 -273.5 -261.5t-132.5 -664.5q0 -238 59.5 -372t145.5 -136l-22 -164q-244 0 -358.5 240t-59.5 643z" />
<glyph unicode=")" horiz-adv-x="720" d="M702 502q-59 -406 -241 -644.5t-424 -238.5l22 164q141 2 274.5 260t133.5 664q0 238 -59.5 372.5t-145.5 137.5l23 163q244 0 358 -237.5t59 -640.5z" />
<glyph unicode="*" horiz-adv-x="733" d="M623 1208l143 97l68 -175l-185 -94l158 -90l-117 -176l-117 94l-14 -170h-186l33 172l-148 -96l-65 176l180 90q-27 14 -83.5 49t-70.5 43l115 177l119 -99q2 10 4 45t6 56q0 43 6 73h186z" />
<glyph unicode="+" horiz-adv-x="1028" d="M170 809h330l53 381h262l-53 -381h325l-32 -231h-326l-53 -379h-262l53 379h-330z" />
<glyph unicode="," horiz-adv-x="618" d="M31 -190l260 456h307l-317 -456h-250z" />
<glyph unicode="-" horiz-adv-x="792" d="M795 401h-682l37 263h681z" />
<glyph unicode="." horiz-adv-x="450" d="M72 0l37 266h307l-37 -266h-307z" />
<glyph unicode="/" horiz-adv-x="710" d="M866 1380l-602 -1380h-227l602 1380h227z" />
<glyph unicode="0" d="M512 -27q-176 0 -274.5 143.5t-98.5 395.5q0 373 159 607.5t409 234.5q184 0 283.5 -142.5t99.5 -394.5q0 -375 -159 -609.5t-419 -234.5zM676 1128q-104 0 -181 -194.5t-77 -413.5q0 -137 31.5 -229t95.5 -92q76 0 137 94t94 231.5t33 276.5t-33.5 233t-99.5 94z" />
<glyph unicode="1" d="M485 776l-102 193l354 362h238l-187 -1331h-280l131 944z" />
<glyph unicode="2" d="M649 1077q-70 0 -148.5 -55t-133.5 -121l-107 184q111 119 193 168q115 70 239 70q158 0 260.5 -99.5t102.5 -262.5q0 -68 -27 -132.5t-57.5 -106.5t-98 -97.5t-100.5 -77.5l-115 -76q-242 -164 -260 -227h541l-35 -244h-821l20 152q23 152 130.5 270.5t275.5 228.5 q115 76 182 133q88 76 88 154q0 57 -34 98t-95 41z" />
<glyph unicode="3" d="M526 -23q-256 0 -405 193l131 180q119 -143 248 -143q119 0 168 58.5t49 142.5q0 63 -32 108t-91 45h-164l33 236h155q76 0 120 58t44 130q0 59 -27.5 101t-78.5 42q-174 0 -301 -147l-84 176q14 20 44 48t82 64t132 60.5t166 24.5q158 2 258 -87t100 -247 q0 -98 -56 -196.5t-165 -137.5h-2q78 -27 118 -112t40 -164q0 -184 -149 -309.5t-333 -123.5z" />
<glyph unicode="4" d="M834 0l-283 2l35 246h-496l29 211q117 231 288 464.5t347 407.5h266l-119 -854h156l-33 -231h-156zM379 477h239l64 455q-178 -203 -303 -455z" />
<glyph unicode="5" d="M774 496q0 80 -37 136t-112 56q-106 0 -174 -98h-240l207 743h655l-33 -246h-438l-67 -235q104 57 192 57q131 0 220 -103.5t89 -277.5q0 -141 -49 -252.5t-130 -176t-174 -98.5t-191 -34q-250 0 -371 195l141 207q109 -162 248 -162q137 0 200.5 89t63.5 200z" />
<glyph unicode="6" d="M1065 1239l-88 -190q-100 86 -217 86q-86 0 -169 -89.5t-108 -236.5q90 76 203 76q147 0 242.5 -104.5t95.5 -280.5q0 -240 -143.5 -383.5t-356.5 -143.5q-106 0 -183 45t-115 121t-54 155t-16 169q0 406 175 648.5t437 242.5q170 0 297 -115zM553 193q80 0 129 93 t49 189q0 78 -27.5 137.5t-85.5 59.5q-76 0 -125 -87t-49 -202q0 -82 29 -136t80 -54z" />
<glyph unicode="7" d="M242 1090l32 241h867l-27 -190q-209 -254 -358.5 -525.5t-290.5 -615.5h-313q309 666 667 1090h-577z" />
<glyph unicode="8" d="M518 -27q-197 0 -294 97.5t-97 246.5q0 100 63.5 212t190.5 161q-66 39 -98.5 114t-32.5 150q0 164 110.5 260.5t260.5 126.5q49 8 92 9q59 0 92 -9h-2q113 -25 190.5 -100.5t77.5 -204.5q0 -94 -57.5 -193.5t-157.5 -152.5q59 -27 98 -79t52.5 -103t13.5 -102 q0 -174 -132 -303.5t-370 -129.5zM551 209q84 0 136 60.5t52 150.5q0 74 -34.5 116t-100.5 44q-90 -2 -138 -65.5t-48 -160.5q0 -70 38 -107.5t95 -37.5zM633 821q66 0 109.5 48.5t43.5 136.5q0 119 -106 118q-74 0 -112 -49t-38 -133q1 -121 103 -121z" />
<glyph unicode="9" d="M164 88l88 191q100 -86 217 -86q90 0 176 90t103 237q-82 -78 -205 -78q-150 0 -245 104.5t-95 280.5q0 240 144.5 383.5t357.5 143.5q106 0 183 -45t114.5 -121t54 -155t16.5 -169q0 -406 -175 -648.5t-437 -242.5q-174 0 -297 115zM676 1135q-80 0 -129 -93.5 t-49 -189.5q0 -78 27.5 -137.5t84.5 -59.5q74 0 123 87t49 202q0 84 -27.5 137.5t-78.5 53.5z" />
<glyph unicode=":" horiz-adv-x="415" d="M55 0l37 266h305l-37 -266h-305zM158 725l37 266h305l-37 -266h-305z" />
<glyph unicode=";" horiz-adv-x="618" d="M360 725l37 266h305l-36 -266h-306zM31 -190l260 456h307l-317 -456h-250z" />
<glyph unicode="&#x3c;" horiz-adv-x="1052" d="M1110 1040l-41 -286l-602 -260l528 -263l-39 -282l-858 481l19 129z" />
<glyph unicode="=" horiz-adv-x="911" d="M961 743h-801l28 213h801zM903 342h-801l31 213h801z" />
<glyph unicode="&#x3e;" horiz-adv-x="1052" d="M195 754l41 286l858 -481l-19 -129l-993 -481l39 282l588 263z" />
<glyph unicode="?" horiz-adv-x="980" d="M686 831q90 82 90 199q0 63 -30.5 106.5t-86.5 43.5q-84 0 -156.5 -56.5t-101.5 -107.5l-139 141q20 35 53 71t85.5 79t130 69.5t163.5 26.5q166 0 270.5 -90t104.5 -262q0 -209 -235 -412q-14 -12 -58 -45q-41 -31 -59.5 -51.5t-36.5 -61.5t-27 -104h-260 q10 74 23.5 119t24 75.5t55.5 77.5l70 72zM328 0l32 246h295l-32 -246h-295z" />
<glyph unicode="@" horiz-adv-x="1468" d="M1286 207l51 -105q-106 -113 -271 -181t-316 -68q-272 0 -436 178t-164 475q0 260 113.5 468t294.5 318.5t390 110.5q147 0 260 -50t176.5 -134t95 -179.5t31.5 -197.5q0 -133 -33.5 -246t-87 -187.5t-122 -128t-135 -77t-127.5 -23.5q-72 0 -107 41t-35 101 q-84 -102 -190 -103q-242 0 -242 250q0 215 137.5 371.5t290.5 156.5q31 0 70 -14t57 -45q4 8 8 22.5t6 20.5h240l-168 -508q-4 -8 -7 -25.5t-5 -38t5 -36t24 -15.5q20 0 57 30t78 83t69.5 149.5t28.5 208.5q0 203 -114.5 307.5t-282.5 104.5q-246 0 -415 -206t-169 -523 q0 -233 111.5 -373.5t320.5 -140.5q231 0 512 209zM881 825q-92 0 -148.5 -119.5t-56.5 -236.5q0 -80 39 -80q31 0 72.5 33t70.5 94l64 229q10 33 0.5 50.5t-20.5 23.5t-21 6z" />
<glyph unicode="A" horiz-adv-x="1257" d="M313 0h-311l682 1380h277l292 -1380h-311l-59 315h-424zM772 1020l-205 -479h271z" />
<glyph unicode="B" horiz-adv-x="1122" d="M735 582h-256l-49 -349h256q68 0 118 59.5t50 129.5q0 63 -33 111.5t-86 48.5zM1184 1051q0 -53 -15.5 -108.5t-63.5 -117t-124 -96.5h-4q88 -14 132 -100t44 -187q0 -158 -120 -300t-320 -142h-615l195 1380h561q166 0 248 -94t82 -235zM510 807h219q72 0 114 64.5 t42 128t-31 105.5t-82 42h-213z" />
<glyph unicode="C" horiz-adv-x="1118" d="M143 582q0 340 207 580.5t524 240.5q98 0 206 -26.5t182 -76.5l-99 -213q-164 74 -286 74q-143 0 -245 -90t-144 -213t-42 -256q0 -164 72 -275.5t225 -111.5q113 0 314 76l33 -215q-86 -49 -202 -76t-214 -27q-248 0 -389.5 172.5t-141.5 436.5z" />
<glyph unicode="D" horiz-adv-x="1222" d="M563 0h-465l195 1380h465q256 0 395 -142t139 -417q0 -395 -195.5 -608t-533.5 -213zM428 240h174q168 0 280.5 140t112.5 415q0 176 -72.5 261t-199.5 85h-168z" />
<glyph unicode="E" horiz-adv-x="1048" d="M983 0h-885l195 1380h874l-34 -239h-576l-45 -326h532l-34 -240h-533l-47 -335h586z" />
<glyph unicode="F" horiz-adv-x="970" d="M399 -2l-301 2l195 1380h827l-35 -239h-526l-45 -326h483l-34 -240h-484z" />
<glyph unicode="G" horiz-adv-x="1241" d="M975 545l-236 -4l33 239h512l-94 -684q-86 -53 -226.5 -88t-244.5 -35q-268 0 -422 174.5t-154 442.5q0 338 220.5 575.5t556.5 237.5q240 0 409 -139l-121 -207q-68 55 -160 80.5t-145 25.5q-119 0 -212 -52t-143 -135t-76 -174t-26 -184q0 -166 83 -284.5t243 -118.5 q76 0 172 31h-10z" />
<glyph unicode="H" horiz-adv-x="1212" d="M897 588h-418l-82 -588h-299l195 1380h299l-78 -551h418l78 551h297l-195 -1380h-297z" />
<glyph unicode="I" horiz-adv-x="493" d="M98 0l195 1380h297l-195 -1380h-297z" />
<glyph unicode="J" horiz-adv-x="817" d="M16 82l90 207q111 -90 218 -90q129 0 157 204l137 977h293l-139 -989q-57 -418 -428 -418q-150 0 -328 109z" />
<glyph unicode="K" horiz-adv-x="1126" d="M1120 0h-348l-254 506l-61 -76h2l-62 -430h-299l195 1380h299l-68 -483l387 483h334l-514 -624z" />
<glyph unicode="L" horiz-adv-x="991" d="M594 1380l-160 -1138h537l-35 -242h-838l195 1380h301z" />
<glyph unicode="M" horiz-adv-x="1554" d="M655 0l-123 848l-165 -848h-295l286 1380h332l146 -956l417 956h332l-102 -1380h-291l74 858l-367 -858h-244z" />
<glyph unicode="N" horiz-adv-x="1222" d="M780 0l-260 891l-125 -891h-297l195 1380h360l246 -876l123 876h295l-195 -1380h-342z" />
<glyph unicode="O" horiz-adv-x="1310" d="M653 -27q-242 0 -377 156t-135 430q0 383 197 613.5t516 230.5q240 0 375 -154.5t135 -429.5q0 -383 -197 -614.5t-514 -231.5zM819 1167q-115 0 -201 -87t-126.5 -219t-40.5 -283q0 -166 59 -267.5t176 -101.5q172 0 270.5 174t98.5 414q0 162 -59.5 266t-176.5 104z " />
<glyph unicode="P" horiz-adv-x="1073" d="M741 498h-274l-70 -498h-299l195 1380h561q121 0 198.5 -61.5t106.5 -143t29 -180.5q0 -33 -9.5 -84t-39 -125.5t-75.5 -136t-130 -106.5t-193 -45zM502 739h219q86 0 130 80t44 151.5t-30.5 121t-88.5 49.5h-219z" />
<glyph unicode="Q" horiz-adv-x="1294" d="M651 -27q-233 0 -371.5 159t-138.5 433q0 379 197 608.5t514 229.5q242 0 377 -154.5t135 -429.5q0 -233 -91 -418.5t-245 -304.5q25 -47 98 -47h134l-31 -219h-129q-86 0 -139.5 17.5t-71 36t-39.5 55.5l-23 36v-2h-176zM819 1167q-170 0 -270 -177t-100 -412 q0 -164 59 -264.5t178 -100.5q172 0 270.5 172t98.5 412q0 162 -59.5 266t-176.5 104z" />
<glyph unicode="R" horiz-adv-x="1142" d="M1194 1032q0 -43 -8 -89t-34 -113.5t-87 -123t-154 -83.5q102 -45 121 -144q68 -348 90 -479h-303l-82 393q-23 121 -102 123h-166l-72 -516h-299l195 1380h545q195 0 275.5 -100.5t80.5 -247.5zM504 756h217q78 0 128 71.5t50 143.5q0 74 -30.5 122t-96.5 48h-215z" />
<glyph unicode="S" horiz-adv-x="1052" d="M719 1403q141 0 233 -43t187 -137l-111 -209q-82 68 -158.5 102.5t-102.5 36.5t-71 2q-86 0 -139 -45t-53 -106q0 -74 76 -117l290 -137q205 -96 205 -308q0 -213 -158.5 -341t-365.5 -128q-145 0 -254 52q-152 72 -231 168l127 225q66 -80 178 -140.5t217 -60.5 q66 0 124 44t58 124q0 86 -57 113l-295 143q-213 104 -213 311q0 201 148.5 326t365.5 125z" />
<glyph unicode="T" horiz-adv-x="1007" d="M1165 1141h-354l-160 -1141h-297l160 1141h-352l33 239h1003z" />
<glyph unicode="U" horiz-adv-x="1253" d="M623 -27q-258 0 -373 149q-80 104 -80 306q0 86 14 190l109 762h301l-109 -766q-12 -85 -12 -151q0 -93 24 -151q40 -99 158 -99q121 0 190.5 99.5t98.5 301.5l109 766h297l-109 -762q-49 -350 -203.5 -497.5t-414.5 -147.5z" />
<glyph unicode="V" horiz-adv-x="1169" d="M197 1380h305l139 -995l420 995h301l-635 -1380h-278z" />
<glyph unicode="W" horiz-adv-x="1675" d="M1167 1333l68 -880l321 927h310l-553 -1380h-281l-67 891l-320 -891h-283l-165 1380h307l63 -936l320 889h280z" />
<glyph unicode="X" horiz-adv-x="1206" d="M864 0l-196 465l-330 -465h-334l537 682l-322 698h332l180 -467l313 467h330l-518 -698l346 -682h-338z" />
<glyph unicode="Y" horiz-adv-x="1210" d="M758 0h-303l69 485h2l-327 895h333l183 -610l350 610h334l-574 -893h2z" />
<glyph unicode="Z" horiz-adv-x="1071" d="M1014 0h-985l30 217l768 924h-610l35 239h983l-31 -211l-776 -925h621z" />
<glyph unicode="[" horiz-adv-x="606" d="M682 1182h-180l-191 -1362h181l-29 -199h-426l248 1759h426z" />
<glyph unicode="\" horiz-adv-x="712" d="M449 0l-218 1380h230l215 -1380h-227z" />
<glyph unicode="]" horiz-adv-x="606" d="M436 1182h-180l29 198h426l-248 -1759h-426l29 199h180z" />
<glyph unicode="^" horiz-adv-x="806" d="M143 739l351 641h211l167 -641h-266l-53 326l-143 -326h-267z" />
<glyph unicode="_" horiz-adv-x="1134" d="M49 -41h1024l-26 -188h-1024z" />
<glyph unicode="`" horiz-adv-x="591" d="M573 1450l121 -315h-227l-184 315h290z" />
<glyph unicode="a" horiz-adv-x="923" d="M844 0h-291l14 102q-84 -119 -254 -118q-84 0 -160.5 67.5t-76.5 202.5q0 174 154.5 279.5t422.5 130.5l2 16q-1 2 0.5 10t2.5 19t1 18q0 24 -20 50q-25 32 -78 32q-141 0 -280 -86l-54 188q0 4 51.5 30t150.5 54.5t196 28.5h26q14 0 52 -6t70 -17.5t70 -37t61.5 -60.5 t34.5 -91q6 -30 6 -63q0 -31 -5 -65zM422 199q25 0 59.5 9t77.5 49t51 101l19 134q-123 -23 -199 -74t-76 -125q0 -41 19.5 -67.5t48.5 -26.5z" />
<glyph unicode="b" horiz-adv-x="1001" d="M575 1380l-67 -477q98 117 240 117q125 0 205.5 -107.5t80.5 -306.5q0 -301 -131 -467t-336 -166q-16 0 -44.5 7.5t-70.5 36t-61 73.5l-12 -90h-289l195 1380h290zM606 791q-18 0 -42.5 -11.5t-55.5 -52.5t-39 -104l-37 -265q-3 -21 -3 -39q0 -116 124 -116q88 0 134 123 t46 260q0 205 -127 205z" />
<glyph unicode="c" horiz-adv-x="856" d="M109 406q0 276 149.5 445t392.5 169q164 0 299 -86l-84 -207q-94 61 -219 61q-117 0 -183.5 -106.5t-66.5 -245.5q0 -100 42 -165.5t126 -65.5q115 0 236 55l26 -203q-162 -84 -323 -84q-186 0 -290.5 115t-104.5 318z" />
<glyph unicode="d" horiz-adv-x="1001" d="M748 903l67 477h291l-195 -1380h-288l12 90q-31 -45 -81 -73.5t-81 -36t-47 -7.5q-147 0 -233.5 104.5t-86.5 305.5q0 297 129.5 467t305.5 170q141 0 207 -117zM616 791q-98 0 -153 -101.5t-55 -283.5q0 -203 98 -203q143 0 166 155l37 265q2 20 2 37q0 26 -5 48 q-9 36 -28 52t-34.5 23.5t-27.5 7.5z" />
<glyph unicode="e" horiz-adv-x="974" d="M502 -25q-188 0 -289.5 125t-101.5 316q0 254 146 429t374 175q178 0 276.5 -122t98.5 -312q0 -41 -3.5 -74t-6.5 -48t-9 -35.5t-8 -25.5h-602q4 -98 54 -156.5t147 -58.5q125 0 278 86l31 -188q-162 -111 -385 -111zM403 592h347q2 19 2 36q0 64 -30 109q-38 57 -116 58 q-76 0 -131.5 -57.5t-71.5 -145.5z" />
<glyph unicode="f" horiz-adv-x="555" d="M164 991h94l12 80q12 96 47 164t70 99.5t85 49t73.5 18.5t56.5 1h8q86 0 183 -66l-66 -174q-80 35 -113 35q-37 0 -49 -94l-16 -113h151l-26 -194h-152l-168 -1176h-291l168 1176h-94z" />
<glyph unicode="g" horiz-adv-x="1003" d="M535 203q41 0 84 36.5t55 122.5l37 271q4 24 3 44q0 56 -29 82q-40 34 -95 34q-61 0 -105.5 -68t-61.5 -152t-17 -167q0 -203 129 -203zM639 4l10 76q-98 -106 -205 -107q-135 0 -235 115t-100 320q0 283 133 447.5t313 164.5q18 0 44 -5t75 -36t76 -84l14 96h289 l-146 -1032q-16 -123 -93 -203t-169 -107.5t-205 -27.5q-106 0 -202.5 32t-139.5 75l92 204q49 -37 125 -65.5t140 -28.5q159 0 184 166z" />
<glyph unicode="h" horiz-adv-x="1001" d="M993 578l-82 -578h-293l82 578q7 51 7 89q0 124 -70 124q-27 0 -57.5 -12.5t-68.5 -62.5t-48 -134l-82 -582h-291l195 1380h290l-67 -477q49 66 114.5 91.5t116.5 25.5q263 0 264 -313q-1 -59 -10 -129z" />
<glyph unicode="i" horiz-adv-x="473" d="M90 0l139 991h293l-139 -991h-293zM248 1128l37 252h293l-37 -252h-293z" />
<glyph unicode="j" horiz-adv-x="493" d="M543 991l-148 -1038q-47 -332 -338 -332q-94 0 -202 72l67 182q20 -8 41 -15l35 -13q14 -5 18 -7l17 -6h-2q18 -6 32.5 4t21.5 36t10 43t7 44l146 1030h295zM268 1128l35 252h295l-35 -252h-295z" />
<glyph unicode="k" horiz-adv-x="927" d="M655 606l277 -606h-318l-168 420l-12 -12h4l-57 -408h-291l195 1380h290l-88 -624l211 235h330l-375 -385h2z" />
<glyph unicode="l" horiz-adv-x="473" d="M90 0l195 1380h293l-195 -1380h-293z" />
<glyph unicode="m" horiz-adv-x="1419" d="M565 0l86 604q6 42 7 74q0 110 -76 110q-39 0 -75 -52t-54 -177l-78 -559h-293l139 991h283l-17 -110q117 139 242 139q57 0 109.5 -38t85.5 -99q51 61 118.5 99t126.5 38q129 0 207 -95q56 -68 56 -203q0 -53 -9 -116l-86 -606h-290l79 575q8 55 9 96q0 117 -70 117 q-8 0 -17.5 -2t-26.5 -12t-30.5 -28.5t-28 -54.5t-20.5 -85l-86 -606h-291z" />
<glyph unicode="n" horiz-adv-x="983" d="M981 573l-80 -573h-291l80 573q8 57 9 100q0 122 -70 122q-45 0 -101.5 -49.5t-72.5 -167.5l-82 -578h-291l139 991h281l-17 -112q106 141 250 141q152 0 216 -102q42 -67 42 -192q0 -68 -12 -153z" />
<glyph unicode="o" horiz-adv-x="985" d="M109 403q0 276 145 446.5t381 170.5q180 0 280.5 -114.5t100.5 -315.5q0 -276 -146.5 -446.5t-382.5 -170.5q-178 0 -278 115.5t-100 314.5zM725 565q0 96 -31.5 164t-89.5 68q-88 0 -146.5 -116t-58.5 -253q0 -98 31 -164.5t88 -66.5q86 0 146.5 116.5t60.5 251.5z" />
<glyph unicode="p" horiz-adv-x="1001" d="M391 92l-65 -471h-289l192 1370h289l-14 -100q106 129 237 129q133 0 213 -104.5t80 -303.5q0 -301 -133 -470t-321 -169q-45 0 -103.5 30t-85.5 89zM522 201q98 0 153.5 102.5t55.5 286.5q0 201 -96 201q-145 0 -166 -156l-37 -262q-4 -25 -4 -47q0 -24 5 -43 q9 -37 27.5 -53.5t34 -22.5t27.5 -6z" />
<glyph unicode="q" horiz-adv-x="1001" d="M569 -379l66 471q-43 -59 -109.5 -89t-111.5 -30q-137 0 -222.5 108.5t-85.5 309.5q0 295 128 462t313 167q131 0 201 -129l14 100h289l-193 -1370h-289zM535 201q12 0 28.5 6t41 22.5t44 53t25.5 90.5l37 262q3 21 3 39q0 117 -126 117q-61 0 -104.5 -69t-59.5 -152 t-16 -164q0 -205 127 -205z" />
<glyph unicode="r" horiz-adv-x="661" d="M784 1020l-34 -246h-64q-193 0 -223 -227l-76 -547h-289l140 991h280l-18 -125q106 154 235 154h49z" />
<glyph unicode="s" horiz-adv-x="823" d="M459 201q55 0 82 55q14 31 14 52q0 31 -29 44l-207 99q-160 90 -159 233q0 150 112.5 243t282.5 93q96 0 167 -29.5t161 -111.5l-105 -181q-119 109 -246 109q-53 0 -75 -57q-3 -11 -4 -22q0 -49 71 -85l131 -61q80 -37 126 -108t46 -155q0 -68 -47 -161 q-47 -82 -142 -133.5t-210 -51.5q-104 0 -201.5 47.5t-167.5 126.5l134 193q114 -139 266 -139z" />
<glyph unicode="t" horiz-adv-x="649" d="M254 799h-135l26 192h136l32 234h289l-33 -234h179l-27 -192h-178l-72 -514q-10 -29 -2 -60.5t45 -31.5q27 0 141 51l-20 -207q-111 -61 -201 -62q-37 0 -59.5 1t-70.5 18.5t-74.5 49.5t-43.5 99q-9 36 -8 81q0 39 6 83z" />
<glyph unicode="u" horiz-adv-x="1001" d="M150 418l79 573h291l-80 -573q-8 -53 -7 -93q0 -122 71 -122q14 0 32.5 4t49 19.5t55.5 56.5t33 100l84 608h293l-140 -991h-282l16 104q-43 -53 -101.5 -85.5t-89 -39t-48.5 -6.5q-55 0 -105.5 22.5t-91.5 72t-58 140.5q-9 47 -9 101q0 51 8 109z" />
<glyph unicode="v" horiz-adv-x="1003" d="M641 0h-279l-221 991h305l103 -655l287 655h303z" />
<glyph unicode="w" horiz-adv-x="1411" d="M141 991h305l46 -585l208 585h291l47 -577l209 577h301l-432 -991h-258l-72 569l-229 -569h-260z" />
<glyph unicode="x" horiz-adv-x="999" d="M788 991h320l-371 -489q225 -449 256 -502h-319l-131 311l-217 -311h-322l395 502l-233 489h319l111 -295l68 105z" />
<glyph unicode="y" horiz-adv-x="1005" d="M88 -332l47 193q35 -25 101 -25q39 0 73 76l60 123q-49 223 -228 956h305l111 -620l281 620h305l-602 -1198q-51 -98 -136.5 -135t-152.5 -37q-62 0 -164 47z" />
<glyph unicode="z" horiz-adv-x="851" d="M29 0l26 184l533 590h-434l30 217h779l-27 -184l-528 -590h432l-31 -217h-780z" />
<glyph unicode="{" horiz-adv-x="684" d="M377 500q57 -18 96 -101.5t25 -167.5l-47 -333q-12 -84 26 -84h125l-27 -193h-167q-86 0 -154 71.5t-53 176.5l49 336q6 55 6 100t-26.5 78t-79.5 39l22 156q80 10 113.5 64t48.5 153l45 338q14 104 102 175.5t174 71.5h168l-26 -192h-125q-27 0 -36 -20.5t-15 -63.5 l-48 -336q-8 -84 -71.5 -168t-124.5 -100z" />
<glyph unicode="|" horiz-adv-x="393" d="M59 -221l252 1798h213l-252 -1798h-213z" />
<glyph unicode="}" horiz-adv-x="684" d="M446 500q-55 18 -94 101t-24 167l47 336q8 33 4 58.5t-31 25.5h-125l27 192h168q86 0 153.5 -71.5t53.5 -175.5l-50 -338q-6 -55 -6 -100.5t27 -78t80 -38.5l-23 -156q-82 -10 -115.5 -65.5t-45.5 -151.5l-46 -336q-14 -104 -102 -176t-174 -72h-168l27 193h125 q39 0 51 84l47 333q8 84 71.5 167.5t122.5 101.5z" />
<glyph unicode="~" horiz-adv-x="905" d="M436 745q49 0 123 -47q66 -43 92 -43q47 0 97 121h213q-25 -170 -106 -255t-228 -85q-45 0 -123 47q-70 43 -96 43q-45 0 -86 -123h-209q25 176 101.5 259t221.5 83z" />
<glyph unicode="&#xa2;" horiz-adv-x="856" d="M397 -217l27 194h12q-158 18 -242.5 131t-84.5 295q0 254 128 419t347 194h-13l25 184h213l-27 -194h-10q96 -23 176 -72l-82 -207q-94 61 -219 61q-117 0 -183.5 -106.5t-66.5 -245.5q0 -100 42 -165.5t126 -65.5q115 0 236 55l24 -203q-90 -49 -198 -69h12l-29 -205 h-213z" />
<glyph unicode="&#xa3;" horiz-adv-x="946" d="M541 668l-68 -475h416l-31 -220h-815l31 220h106l68 475h-135l26 196h135l7 35q20 145 86.5 250.5t143.5 154t161 62.5h-2q25 6 100 6q158 0 272 -104l-100 -189q-104 76 -203 76q-63 0 -106 -70.5t-60 -185.5l-6 -35h275l-27 -196h-274z" />
<glyph unicode="&#xa5;" horiz-adv-x="1060" d="M674 0h-287l27 186h-267l25 179h266l21 143h-266l24 180h213l-221 692h311l131 -528l279 528h313l-420 -692h209l-24 -180h-263l-20 -143h262l-24 -179h-263z" />
<glyph unicode="&#xa9;" horiz-adv-x="1374" d="M150 594q0 326 223 567.5t512 241.5q231 0 381.5 -179.5t150.5 -441.5q0 -326 -223 -567.5t-510 -241.5q-231 0 -382.5 179.5t-151.5 441.5zM289 606q0 -213 117.5 -357.5t300.5 -144.5q229 0 406 198t177 462q0 215 -118.5 359.5t-301.5 144.5q-229 0 -405 -198 t-176 -464zM444 621q0 -154 81 -252.5t222.5 -98.5t225.5 49l-19 105q-96 -37 -172 -37q-102 0 -148 67.5t-46 170.5q0 141 68.5 248.5t209.5 107.5q80 0 158 -39l51 107q-72 49 -213 49q-180 0 -299 -140t-119 -337z" />
<glyph unicode="&#xad;" horiz-adv-x="792" d="M795 401h-682l37 263h681z" />
<glyph unicode="&#xae;" horiz-adv-x="1374" d="M1087 891q0 -35 -7 -73t-44 -92t-100 -77h2q39 -25 55 -94l49 -258h-145l-49 252q-20 57 -60 57h-131l-45 -309h-139l113 799h309q104 0 148 -59.5t44 -145.5zM674 723h172q59 0 81.5 50t22.5 104q0 106 -78 106h-163zM150 594q0 326 223 567.5t512 241.5 q231 0 381.5 -179.5t150.5 -441.5q0 -326 -223 -567.5t-510 -241.5q-231 0 -382.5 179.5t-151.5 441.5zM289 606q0 -213 117.5 -357.5t300.5 -144.5q229 0 406 198t177 462q0 215 -118.5 359.5t-301.5 144.5q-229 0 -405 -198t-176 -464z" />
<glyph unicode="&#xb4;" horiz-adv-x="591" d="M217 1135l211 315h291l-275 -315h-227z" />
<glyph unicode="&#x2000;" horiz-adv-x="788" />
<glyph unicode="&#x2001;" horiz-adv-x="1577" />
<glyph unicode="&#x2002;" horiz-adv-x="788" />
<glyph unicode="&#x2003;" horiz-adv-x="1577" />
<glyph unicode="&#x2004;" horiz-adv-x="525" />
<glyph unicode="&#x2005;" horiz-adv-x="394" />
<glyph unicode="&#x2006;" horiz-adv-x="262" />
<glyph unicode="&#x2007;" horiz-adv-x="262" />
<glyph unicode="&#x2008;" horiz-adv-x="197" />
<glyph unicode="&#x2009;" horiz-adv-x="315" />
<glyph unicode="&#x200a;" horiz-adv-x="87" />
<glyph unicode="&#x2010;" horiz-adv-x="792" d="M795 401h-682l37 263h681z" />
<glyph unicode="&#x2011;" horiz-adv-x="792" d="M795 401h-682l37 263h681z" />
<glyph unicode="&#x2012;" horiz-adv-x="792" d="M795 401h-682l37 263h681z" />
<glyph unicode="&#x2013;" horiz-adv-x="1021" d="M147 649h912l-35 -243h-911z" />
<glyph unicode="&#x2014;" horiz-adv-x="1308" d="M147 649h1199l-35 -241h-1198z" />
<glyph unicode="&#x2018;" horiz-adv-x="655" d="M774 1380l-282 -487h-293l336 487h239z" />
<glyph unicode="&#x2019;" horiz-adv-x="655" d="M199 893l282 487h293l-334 -487h-241z" />
<glyph unicode="&#x201c;" horiz-adv-x="1026" d="M932 1380l145 -487h-239l-199 487h293zM561 1380l148 -487h-240l-201 487h293z" />
<glyph unicode="&#x201d;" horiz-adv-x="1026" d="M199 893l282 487h293l-334 -487h-241zM569 893l281 487h293l-334 -487h-240z" />
<glyph unicode="&#x2022;" horiz-adv-x="647" d="M156 584q0 115 86 197.5t200 82.5q96 0 159 -63.5t63 -157.5q0 -115 -87.5 -196.5t-203.5 -81.5q-94 0 -155.5 62.5t-61.5 156.5z" />
<glyph unicode="&#x2026;" horiz-adv-x="1212" d="M72 0l37 266h294l-36 -266h-295zM461 0l37 266h290l-36 -266h-291zM850 0l37 266h291l-37 -266h-291z" />
<glyph unicode="&#x202f;" horiz-adv-x="315" />
<glyph unicode="&#x205f;" horiz-adv-x="394" />
<glyph unicode="&#x20ac;" horiz-adv-x="1212" d="M86 436l86 170h129q2 14 21 111h-199l94 170h148q84 215 256 346t399 131q201 0 311 -100l-112 -203q-86 76 -197 76q-238 0 -358 -250h487l-104 -170h-441l-18 -111h416l-105 -170h-293q29 -100 101.5 -164.5t183.5 -64.5q102 0 211 82l49 -211q-176 -100 -326 -101 q-213 0 -349 128t-169 331h-221z" />
<glyph unicode="&#x2122;" horiz-adv-x="1443" d="M770 1239h-188l-95 -676h-186l94 676h-209l21 141h803l82 -546l239 546h209l-72 -817h-184l45 449l-196 -449h-156l-70 441l-80 -441h-186z" />
<glyph unicode="&#xe000;" horiz-adv-x="990" d="M0 990h990v-990h-990v990z" />
<glyph unicode="&#xfb01;" horiz-adv-x="1028" d="M645 0l113 797h-236l-168 -1176h-291l168 1176h-94l27 194h94l12 80q12 96 47 164t70 99.5t85 49t73.5 18.5t56.5 1h8q86 0 183 -66l-66 -174q-80 35 -113 35q-37 0 -49 -94l-16 -113h528l-139 -991h-293z" />
<glyph unicode="&#xfb02;" horiz-adv-x="1028" d="M645 0l166 1176h-199q-39 0 -47 -72l-16 -113h151l-26 -194h-152l-168 -1176h-291l168 1176h-94l27 194h94l12 80q12 88 48 150.5t74 92t89 46t76 18.5t51 2h525l-195 -1380h-293z" />
<glyph unicode="&#xfb03;" horiz-adv-x="1583" d="M1200 0l113 797h-236l-166 -1176h-290l167 1176h-266l-166 -1176h-290l165 1176h-94l27 194h94l12 80q12 96 47 164t70 99.5t85 49t73.5 18.5t56.5 1h8q86 0 183 -66l-66 -174q-80 35 -113 35q-37 0 -49 -94l-16 -113h266l12 80q12 96 47 164t70 99.5t85 49t72.5 18.5 t55.5 1h8q88 0 183 -66l-66 -174q-80 35 -113 35q-37 0 -49 -94l-16 -113h528l-139 -991h-293z" />
<glyph unicode="&#xfb04;" horiz-adv-x="1583" d="M1200 0l166 1176h-199q-39 0 -51 -95l-12 -90h151l-26 -194h-152l-168 -1176h-291l170 1176h-266l-168 -1176h-291l168 1176h-94l27 194h94l12 80q12 96 47 164t70 99.5t85 49t73.5 18.5t56.5 1h8q86 0 183 -66l-66 -174q-80 35 -113 35q-37 0 -49 -94l-16 -113h266l8 58 q10 78 37 139t62.5 95t68.5 55.5t74 29.5t58.5 10t39.5 2h525l-195 -1380h-293z" />
</font>
</defs>
</svg>
