<?xml version="1.0" standalone="no"?>
<!DOCTYPE svg PUBLIC "-//W3C//DTD SVG 1.1//EN" "http://www.w3.org/Graphics/SVG/1.1/DTD/svg11.dtd" >
<svg xmlns="http://www.w3.org/2000/svg">
<metadata>
This is a custom SVG webfont generated by Fontspring.
</metadata>
<defs>
<font id="webfontcADmbyY3" horiz-adv-x="1146" >
<font-face units-per-em="2048" ascent="1536" descent="-512" />
<missing-glyph horiz-adv-x="569" />
<glyph unicode=" "  horiz-adv-x="569" />
<glyph unicode="&#x09;" horiz-adv-x="569" />
<glyph unicode="&#xa0;" horiz-adv-x="569" />
<glyph unicode="!" horiz-adv-x="462" d="M207 276l139 1104h160l-172 -1104h-127zM143 0l25 168h176l-25 -168h-176z" />
<glyph unicode="&#x22;" horiz-adv-x="1247" d="M530 774l74 606h164l-98 -606h-140zM795 774l73 606h164l-98 -606h-139z" />
<glyph unicode="#" horiz-adv-x="1179" d="M731 1380h158l-184 -401h229l182 401h152l-183 -401h181l-19 -127h-225l-143 -324h198l-18 -127h-242l-186 -401h-146l185 401h-228l-190 -401h-154l187 401h-176l16 127h217l143 324h-202l20 127h244zM645 852l-143 -324h227l143 324h-227z" />
<glyph unicode="$" horiz-adv-x="1150" d="M498 -246l30 228q-117 10 -209 43q-147 51 -235 141l96 131q59 -57 158.5 -100t211.5 -60.5t220.5 20.5t169.5 136q33 63 20.5 114.5t-44 85t-82.5 54.5l-377 153q-84 33 -136.5 80t-68.5 100.5t-16 103.5t16 101q39 135 169 220.5t308 95.5l29 213h112l-30 -217 q94 -10 174 -35q113 -41 184 -111l-84 -129q-53 51 -148.5 87t-199.5 45.5t-199.5 -35.5t-136.5 -146q-6 -25 -8 -46t5 -39.5t11 -33t21.5 -28t23.5 -20.5t32 -19.5t31 -15.5t34.5 -15t31.5 -12l328 -135q100 -39 152.5 -106.5t53.5 -141.5t-16.5 -137.5t-50.5 -118.5 q-59 -100 -175 -159.5t-263 -65.5l-31 -226h-112z" />
<glyph unicode="%" horiz-adv-x="1640" d="M336 0l1016 1380h116l-1013 -1380h-119zM217 942q0 -137 69.5 -214t198.5 -77q166 0 266.5 114t100.5 304q0 137 -70.5 214t-197.5 77q-168 0 -267.5 -112.5t-99.5 -305.5zM725 1044q0 -109 -63.5 -193.5t-159.5 -84.5q-76 0 -117 57.5t-41 143.5q0 109 62.5 194.5 t162.5 85.5q74 0 115 -59.5t41 -143.5zM977 270q0 -137 69.5 -213.5t198.5 -76.5q166 0 266.5 113.5t100.5 303.5q0 137 -71 214t-198 77q-168 0 -267 -112.5t-99 -305.5zM1485 373q0 -109 -64.5 -194t-160.5 -85q-76 0 -116 57.5t-40 143.5q0 111 61.5 195.5t161.5 84.5 q74 0 116 -59t42 -143z" />
<glyph unicode="&#x26;" horiz-adv-x="1273" d="M301 342q0 -109 69.5 -174.5t198.5 -65.5q213 0 338 195l-295 356q-115 -20 -213 -103t-98 -208zM905 1112q0 74 -42 122t-128 50q-92 -2 -150.5 -55t-72.5 -131q-18 -88 27 -175t131 -102q109 33 172 117t63 174zM774 725l221 -274q39 63 62 239h141q-20 -233 -106 -344 l91 -109q24 -30 46 -96.5t12 -140.5h-166q8 72 -3 103.5t-52 76.5l-10 13q-170 -215 -459 -216q-209 0 -315.5 97.5t-106.5 247.5q0 160 102.5 271.5t264.5 162.5q-96 63 -125 158.5t-11 189.5q29 141 142.5 220t249 79t227.5 -79t80 -220q-8 -94 -63.5 -189.5 t-168.5 -158.5z" />
<glyph unicode="'" horiz-adv-x="368" d="M223 774l74 606h164l-99 -606h-139z" />
<glyph unicode="(" horiz-adv-x="706" d="M190 492v-11q59 424 228.5 661.5t398.5 237.5l-16 -123q-190 -2 -330.5 -265t-140.5 -750q0 -266 69.5 -396.5t184.5 -132.5l-19 -125q-229 0 -331.5 240t-43.5 664z" />
<glyph unicode=")" horiz-adv-x="706" d="M651 481l2 11q-78 -430 -240.5 -667t-387.5 -237l18 125q188 2 329.5 264.5t141.5 749.5q0 266 -70.5 397t-183.5 133l16 123q229 0 332.5 -237.5t42.5 -661.5z" />
<glyph unicode="*" horiz-adv-x="798" d="M602 1126l229 144l48 -107l-244 -114l213 -111l-78 -109l-190 144l-17 -254h-125l56 256l-232 -146l-49 109l244 111l-213 114l80 107l190 -144l16 254h125z" />
<glyph unicode="+" horiz-adv-x="1155" d="M186 745h430l62 431h133l-61 -431h428l-19 -133h-428l-59 -428h-133l59 428h-430z" />
<glyph unicode="," horiz-adv-x="501" d="M29 -193l235 386h187l-287 -386h-135z" />
<glyph unicode="-" horiz-adv-x="845" d="M827 455h-682l23 159h682z" />
<glyph unicode="." horiz-adv-x="397" d="M102 0l27 193h193l-27 -193h-193z" />
<glyph unicode="/" horiz-adv-x="739" d="M872 1380l-671 -1380h-140l670 1380h141z" />
<glyph unicode="0" d="M565 -27q-193 0 -299 142.5t-106 398.5q0 383 164.5 611.5t435.5 228.5q199 0 306.5 -141.5t107.5 -399.5q0 -383 -166.5 -611.5t-442.5 -228.5zM739 1206q-127 0 -222 -104.5t-139 -254t-44 -315.5q0 -182 62.5 -298.5t189.5 -116.5q133 0 229 103.5t139 253t43 314.5 q0 180 -64.5 299t-193.5 119z" />
<glyph unicode="1" d="M502 909l-84 99l364 323h164l-186 -1331h-164l160 1139z" />
<glyph unicode="2" d="M674 1204q-111 0 -212.5 -52t-154.5 -105l-47 124q168 180 445 181q197 0 299 -97.5t102 -242.5q0 -135 -61.5 -223.5t-241.5 -192.5q-248 -131 -375 -232.5t-141 -207.5h702l-22 -156h-871l2 18l11 64q18 115 68 206t143.5 169t178.5 130t230 130q213 115 213 278 q0 106 -74.5 157.5t-193.5 51.5z" />
<glyph unicode="3" d="M569 -27q-68 0 -129 12.5t-101 29t-78 41t-55.5 41t-37.5 38.5l-21 21l80 120q113 -102 217 -133q66 -20 138 -20q154 0 240.5 72.5t86.5 189.5q0 98 -74.5 152.5t-189.5 54.5h-133l23 158h133q131 0 203.5 61t86.5 152q14 94 -47 168.5t-186 74.5q-104 0 -201.5 -51 t-150.5 -104l-41 123q18 20 43.5 41.5t78 57.5t132.5 58.5t170 22.5q158 0 269.5 -84t111.5 -250q0 -119 -70 -216t-223 -132q117 -25 174 -98.5t57 -172.5q0 -195 -142.5 -311.5t-363.5 -116.5z" />
<glyph unicode="4" d="M877 0h-168l41 285h-639l22 164q41 63 89 128l86 113q38 49 98 118l91 105l101 112l93 99l104 107q80 82 96 100h174l-127 -907h201l-21 -139h-200zM272 424h498l98 706q-436 -454 -596 -706z" />
<glyph unicode="5" d="M932 469q0 104 -63.5 182t-206.5 78q-195 0 -259 -133h-165l192 735h696l-22 -160h-559l-111 -395q104 100 307 101q152 0 253.5 -106.5t101.5 -281.5q0 -248 -162 -382t-402 -134q-272 0 -395 183l94 127q35 -68 124 -117t177 -49q193 0 296.5 101t103.5 251z" />
<glyph unicode="6" d="M375 696q45 92 148.5 137.5t195.5 45.5q172 0 278.5 -105.5t106.5 -281.5q0 -238 -150.5 -377.5t-373.5 -139.5q-92 0 -165 32t-116 81t-69.5 118.5t-37 135.5t-10.5 137q0 420 184.5 647.5t471.5 227.5q96 0 161.5 -14.5t91 -29t56.5 -40.5l-80 -129q-76 72 -219 71 q-190 0 -314 -136t-159 -380zM596 121q156 0 244 110.5t88 233.5q0 109 -60.5 193.5t-185.5 84.5q-145 0 -235.5 -105.5t-90.5 -248.5q0 -117 63.5 -192.5t176.5 -75.5z" />
<glyph unicode="7" d="M276 1167l23 164h922l-21 -153q-266 -285 -447.5 -561.5t-338.5 -616.5h-197q182 352 371.5 628.5t437.5 538.5h-750z" />
<glyph unicode="8" d="M764 1354l102 -6q115 -12 198 -97.5t83 -210.5q0 -262 -285 -342q92 -27 148.5 -84t73 -110t16.5 -111q0 -176 -142.5 -298t-388.5 -122q-211 0 -317.5 92.5t-106.5 235.5q0 78 28 150.5t106.5 144.5t201.5 102q-229 70 -194 303q18 143 133 240.5t242 97.5q43 15 102 15 zM590 113q152 0 248 83t96 193q0 96 -69.5 164t-202.5 70q-160 -2 -251.5 -89.5t-91.5 -197.5q0 -92 71 -157.5t200 -65.5zM682 772q143 0 217 70.5t74 183.5q0 82 -56.5 142.5t-171.5 60.5q-125 0 -199.5 -68.5t-86.5 -159.5q-14 -109 41 -169t182 -60z" />
<glyph unicode="9" d="M956 633q-45 -92 -147 -137t-195 -45q-174 0 -279.5 105.5t-105.5 281.5q0 238 150.5 377t374.5 139q92 0 164.5 -32t115.5 -81t69.5 -118.5t37 -135t10.5 -137.5q0 -420 -184.5 -647.5t-470.5 -227.5q-96 0 -162 14.5t-91.5 29t-56.5 40.5l80 129q76 -72 219 -71 q190 0 313 136t158 380zM737 1208q-156 0 -245 -110.5t-89 -233.5q0 -109 62.5 -193.5t185.5 -84.5q147 0 236.5 105.5t89.5 248.5q0 117 -63.5 192.5t-176.5 75.5z" />
<glyph unicode=":" horiz-adv-x="397" d="M102 0l27 193h193l-27 -193h-193zM215 799l27 192h192l-26 -192h-193z" />
<glyph unicode=";" horiz-adv-x="563" d="M379 799l29 192h192l-29 -192h-192zM78 -170l227 363h182l-282 -363h-127z" />
<glyph unicode="&#x3c;" horiz-adv-x="1179" d="M1196 989l-22 -158l-840 -337l743 -338l-20 -156l-934 442l14 105z" />
<glyph unicode="=" horiz-adv-x="1196" d="M1206 807h-991l18 133h992zM1151 410h-991l18 133h991z" />
<glyph unicode="&#x3e;" horiz-adv-x="1179" d="M240 831l22 158l934 -442l-16 -105l-1057 -442l22 156l840 338z" />
<glyph unicode="?" horiz-adv-x="1087" d="M637 276h-158q27 190 80 270.5t266 246.5q115 88 144.5 197.5t-38 188t-210.5 78.5q-104 0 -196.5 -68.5t-114.5 -115.5l-113 96q31 45 79 90.5t152.5 94.5t223.5 49q172 0 285.5 -94.5t113.5 -253.5q0 -211 -256 -402q-131 -96 -184.5 -159.5t-65.5 -157.5zM436 0 l23 168h176l-23 -168h-176z" />
<glyph unicode="@" horiz-adv-x="1748" d="M1505 127l31 -57q-113 -102 -293 -159.5t-358 -57.5q-332 0 -517.5 189t-185.5 482q0 354 271.5 613.5t625.5 259.5q174 0 309.5 -52.5t214 -139.5t117.5 -186t39 -204q0 -133 -39 -242.5t-99 -180t-137 -120t-149.5 -70t-140.5 -20.5q-61 0 -101 32t-49 91 q-98 -82 -264 -82q-244 0 -243 242q0 221 139 372.5t360 151.5q45 0 94.5 -18.5t71.5 -50.5l19 53h159l-188 -520q-25 -63 -12.5 -108.5t49.5 -45.5q53 0 119.5 28.5t133 85t111.5 158t45 228.5q0 225 -173 360t-400 135q-188 0 -364.5 -103.5t-286 -280.5t-109.5 -373 q0 -260 164 -426t438 -166q311 0 598 182zM1022 868q-207 0 -293 -264q-27 -80 -27 -129q0 -131 115 -131q66 0 139.5 36t106.5 120l80 245q6 59 -39 91t-82 32z" />
<glyph unicode="A" horiz-adv-x="1368" d="M205 0h-187l768 1380h185l379 -1380h-187l-88 324h-694zM852 1200l-391 -721h579z" />
<glyph unicode="B" horiz-adv-x="1239" d="M840 616h-445l-63 -460h444q133 0 208 75.5t75 178.5q0 88 -55 147t-164 59zM1034 719q98 -14 154.5 -97t56.5 -196q0 -156 -118.5 -291t-317.5 -135h-676l195 1380h606q168 0 250 -90t82 -223q0 -94 -50.5 -190.5t-181.5 -157.5zM418 774h422q74 8 125 37t73.5 71 t30.5 77.5t8 72.5q0 193 -209 193h-387z" />
<glyph unicode="C" horiz-adv-x="1230" d="M178 690q45 307 259 510t526 203q268 0 393 -70l-70 -135q-123 47 -299 47q-143 0 -260 -48t-190.5 -130t-117.5 -176t-59 -201q-6 -48 -6 -94q0 -55 10 -107q17 -94 67 -176t153.5 -130t246.5 -48q174 0 318 47l27 -135q-145 -70 -414 -70q-311 0 -469 204 q-124 160 -124 383q0 61 9 126z" />
<glyph unicode="D" horiz-adv-x="1366" d="M621 0h-488l195 1380h487q285 0 441.5 -145t156.5 -424q0 -391 -211.5 -601t-580.5 -210zM332 156h319q252 0 419 159.5t167 475.5q0 223 -119 328.5t-323 105.5h-314z" />
<glyph unicode="E" horiz-adv-x="1142" d="M1051 0h-918l195 1380h903l-23 -155h-727l-63 -449h643l-23 -158h-643l-63 -462h741z" />
<glyph unicode="F" horiz-adv-x="1060" d="M309 -2l-176 2l195 1380h856l-23 -155h-680l-63 -449h626l-22 -158h-627z" />
<glyph unicode="G" horiz-adv-x="1390" d="M1217 575h-291l22 158h451l-94 -663q-76 -41 -219.5 -67t-266.5 -26q-301 0 -475 175.5t-174 445.5q0 336 239.5 570.5t610.5 234.5q264 0 422 -109l-92 -143q-53 47 -144.5 71.5t-158.5 24.5q-172 0 -309.5 -56t-218.5 -148.5t-123 -200t-42 -219.5q0 -201 130 -344.5 t382 -143.5q154 0 295 45z" />
<glyph unicode="H" horiz-adv-x="1343" d="M1124 637h-725l-90 -637h-176l195 1380h176l-82 -585h725l82 585h176l-195 -1380h-176z" />
<glyph unicode="I" horiz-adv-x="483" d="M154 0l194 1380h176l-194 -1380h-176z" />
<glyph unicode="J" horiz-adv-x="847" d="M27 49l61 144q70 -33 109 -43q81 -21 146 -22q75 0 132 28q55 27 82 78t41 153l139 993h170l-141 -1005q-16 -117 -62.5 -200t-105.5 -125t-136 -59q-65 -15 -123 -15h-21q-67 3 -138 20q-92 20 -153 53z" />
<glyph unicode="K" horiz-adv-x="1198" d="M1178 0h-220l-385 633l-204 -207l-60 -426h-176l195 1380h176l-103 -727l670 727h211l-584 -618z" />
<glyph unicode="L" horiz-adv-x="1071" d="M504 1380l-172 -1224h680l-23 -158h-856l195 1382h176z" />
<glyph unicode="M" horiz-adv-x="1712" d="M786 0l-305 1223l-213 -1223h-176l248 1380h272l279 -1132l598 1132h272l-141 -1380h-176l131 1223l-649 -1223h-140z" />
<glyph unicode="N" horiz-adv-x="1359" d="M961 0l-482 1217l-170 -1217h-176l195 1380h284l463 -1210l170 1210h176l-194 -1380h-266z" />
<glyph unicode="O" horiz-adv-x="1478" d="M737 -23q-305 0 -454 190q-114 144 -114 372q0 72 11 151q45 334 249 523.5t509 189.5q268 0 417.5 -158t149.5 -434q0 -381 -211 -607.5t-557 -226.5zM915 1251q-227 0 -371.5 -160.5t-176.5 -400.5q-9 -65 -10 -124q0 -166 73 -281q98 -156 328 -156q264 0 411.5 189.5 t147.5 465.5q0 205 -101.5 336t-300.5 131z" />
<glyph unicode="P" horiz-adv-x="1177" d="M831 535h-446l-76 -535h-176l195 1380h608q92 0 161.5 -33.5t105.5 -90t53.5 -118t17.5 -130.5q0 -31 -9.5 -79t-38 -120t-73.5 -130t-130.5 -101t-191.5 -43zM408 692h417q76 0 132.5 33t83 84t38 95t11.5 83q0 100 -54.5 169t-171.5 69h-383z" />
<glyph unicode="Q" horiz-adv-x="1458" d="M735 -23q-268 0 -417.5 158t-149.5 434q0 381 210 607.5t558 226.5q268 0 418.5 -158t150.5 -434q0 -268 -114.5 -466t-319.5 -296q133 -92 248 -92h70l-21 -139h-61q-41 0 -78 3t-66.5 8t-59.5 14l-49 16q-19 6 -43 19l-36 19.5t-32 21.5l-25 21q-6 5 -22.5 20t-18.5 17 h-142zM915 1251q-260 0 -409.5 -194.5t-149.5 -466.5q0 -207 101.5 -334t300.5 -127q176 0 305 92t190.5 237.5t61.5 325.5q0 205 -101.5 336t-298.5 131z" />
<glyph unicode="R" horiz-adv-x="1243" d="M946 604q29 -4 50.5 -15t48 -51t45.5 -108l102 -430h-188l-107 434q-18 63 -56 92t-112 29h-342l-78 -555h-176l195 1380h587q197 0 280 -103t83 -251q0 -49 -13.5 -104.5t-45 -123t-102.5 -121t-171 -73.5zM410 711h417q98 0 164 53t87.5 113.5t21.5 119.5 q0 98 -53.5 163t-167.5 65h-398z" />
<glyph unicode="S" horiz-adv-x="1150" d="M1014 1362q113 -41 184 -111l-84 -129q-53 51 -148.5 87t-199.5 45q-18 2 -35 2q-85 0 -165 -37q-95 -45 -136 -146q-6 -23 -6 -43v-36q0 -15 10 -31.5t14.5 -25.5t22.5 -21.5t23.5 -17.5t29 -16.5t28.5 -13.5l32 -13q27 -11 28 -11l326 -135q102 -39 155 -107 q53 -69 53 -149q0 -69 -17 -129q-17 -63 -50 -119q-92 -156 -303 -208q-83 -21 -172 -21q-136 0 -285 49q-147 51 -235 141l96 131q59 -57 158.5 -100t211.5 -61q35 -5 70 -5q76 0 150 26q109 38 170 136q24 46 24 86q0 15 -3 29q-12 51 -44 84.5t-83 54.5l-377 153 q-84 33 -136.5 80t-68.5 100.5t-16 103.5t16 101q57 190 276 276q110 43 233 43q121 0 253 -42z" />
<glyph unicode="T" horiz-adv-x="1085" d="M1247 1225h-444l-172 -1225h-176l172 1225h-445l23 155h1065z" />
<glyph unicode="U" horiz-adv-x="1400" d="M696.5 -27q-276.5 0 -401.5 142q-92 104 -92 305q0 73 12 158l113 802h178l-111 -790q-11 -75 -11 -138q0 -139 53 -218q77 -114 280 -113q205 0 313.5 114.5t143.5 354.5l110 790h178l-112 -802q-45 -322 -211 -463.5t-442.5 -141.5z" />
<glyph unicode="V" horiz-adv-x="1269" d="M215 1380h180l267 -1198l602 1198h180l-717 -1380h-184z" />
<glyph unicode="W" horiz-adv-x="1912" d="M1235 1329l174 -1120l494 1171h184l-617 -1380h-184l-176 1096l-483 -1096h-185l-227 1380h182l168 -1171l486 1120h184z" />
<glyph unicode="X" horiz-adv-x="1267" d="M1034 0l-321 571l-480 -571h-213l611 682l-395 698h213l296 -583l463 583h213l-592 -698l418 -682h-213z" />
<glyph unicode="Y" horiz-adv-x="1298" d="M741 0h-184l70 485l-404 895h209l307 -747l512 747h213l-653 -895z" />
<glyph unicode="Z" horiz-adv-x="1202" d="M1104 0h-1043l25 174l999 1051h-817l23 155h1044l-24 -168l-1014 -1052h829z" />
<glyph unicode="[" horiz-adv-x="555" d="M649 1247h-188l-215 -1523h188l-18 -134h-350l251 1790h351z" />
<glyph unicode="\" horiz-adv-x="739" d="M539 0l-283 1380h141l281 -1380h-139z" />
<glyph unicode="]" horiz-adv-x="555" d="M446 1247h-188l18 133h351l-252 -1790h-350l18 134h188z" />
<glyph unicode="^" horiz-adv-x="837" d="M180 776l373 604h117l204 -604h-147l-139 436l-262 -436h-146z" />
<glyph unicode="_" horiz-adv-x="1249" d="M41 -147h1126l-14 -105h-1126z" />
<glyph unicode="`" horiz-adv-x="505" d="M459 1380l127 -270h-140l-176 270h189z" />
<glyph unicode="a" horiz-adv-x="995" d="M883 0h-183l15 113q-121 -135 -295 -136q-141 0 -232.5 69t-91.5 194q0 199 177.5 287.5t521.5 107.5l8 61q2 12 3 23.5t-5 42.5t-24.5 53.5t-64.5 40.5t-116 18q-37 0 -72 -4t-55 -7t-53 -15l-41 -15q-8 -3 -44 -19.5t-38 -16.5l-33 123q0 4 43 25.5t134 46t186 24.5h43 q27 0 94 -14.5t116.5 -43t82.5 -95.5q25 -49 25 -112q0 -23 -3 -49zM444 121q29 0 67 7t93 25.5t96 64.5t52 114l24 176q-236 -12 -374 -74.5t-138 -165.5q0 -70 49 -108.5t131 -38.5z" />
<glyph unicode="b" horiz-adv-x="1116" d="M494 1380l-76 -528q43 82 132 123t175 41q182 0 289.5 -108.5t107.5 -317.5q0 -297 -150.5 -455t-385.5 -158q-20 0 -45 3.5t-75 13.5t-91 41t-62 78l-16 -113h-174l194 1380h177zM672 870q-63 0 -159.5 -54t-121.5 -154l-45 -320q-3 -19 -3 -37q0 -33 10 -60 q15 -42 42 -64.5t67 -36t72.5 -17.5t67.5 -4q117 0 196 73.5t108.5 172t29.5 211.5q0 290 -264 290z" />
<glyph unicode="c" horiz-adv-x="923" d="M141 496q33 244 185.5 382t386.5 138q188 0 284 -53l-57 -136q-104 39 -213 39q-182 0 -287.5 -105.5t-128.5 -264.5q-5 -37 -5 -71q0 -114 59 -196q76 -106 258 -106q102 0 223 41l20 -135q-115 -55 -301 -56q-231 0 -344 140q-87 108 -87 278q0 50 7 105z" />
<glyph unicode="d" horiz-adv-x="1116" d="M938 852l74 528h176l-195 -1380h-174l17 113q-43 -61 -122 -94t-118 -37.5t-72 -4.5q-180 0 -285.5 108t-105.5 314q0 299 152.5 458t392.5 159q86 0 163 -41t97 -123zM690 870q-369 0 -368 -452q0 -129 54 -212t173 -83q285 0 317 219l45 320q4 100 -77 154t-144 54z " />
<glyph unicode="e" horiz-adv-x="1081" d="M559 -27q-188 0 -306 120t-118 325q0 254 152.5 426t396.5 172q236 0 340 -157q66 -99 66 -243q0 -85 -23 -186h-758q-4 -29 -4 -55q0 -100 62 -168q78 -86 231 -86q147 0 313 63l37 -129q-149 -82 -389 -82zM664 868q-121 0 -215.5 -90t-112.5 -203h582q2 24 2 46 q0 107 -58 171q-69 76 -198 76z" />
<glyph unicode="f" horiz-adv-x="557" d="M184 991h125l15 96q47 315 308 316h7h8q76 0 144 -37l-33 -119q-59 20 -105 20q-129 0 -153 -157l-17 -119h197l-18 -133h-197l-178 -1268h-174l178 1268h-125z" />
<glyph unicode="g" horiz-adv-x="1116" d="M586 123q27 0 64.5 8t84.5 26.5t83 58.5t42 91l49 342q3 22 4 42q0 43 -16 75q-23 47 -70 68.5t-88 28.5t-86 7q-117 0 -195.5 -74.5t-108.5 -173t-30 -210.5q1 -289 267 -289zM811 -57l23 170q-39 -70 -126 -103t-176 -33q-182 0 -290.5 108t-108.5 316q0 295 151.5 455 t385.5 160q20 0 45.5 -4t74 -16.5t90.5 -50.5t60 -93l18 139h175l-152 -1079q-25 -170 -163 -246t-324 -76q-113 0 -211.5 24t-135.5 56l60 125q106 -70 291 -69q96 0 160.5 19t94 57t41 67t17.5 74z" />
<glyph unicode="h" horiz-adv-x="1107" d="M1067 586l-82 -586h-176l82 586q6 43 6 79q0 206 -188 205q-37 0 -80 -10t-97.5 -36.5t-95.5 -86t-53 -145.5l-84 -592h-176l194 1380h177l-76 -528q127 164 336 164q322 0 322 -318q0 -51 -9 -112z" />
<glyph unicode="i" horiz-adv-x="421" d="M123 0l139 991h176l-139 -991h-176zM291 1202l26 178h177l-27 -178h-176z" />
<glyph unicode="j" horiz-adv-x="452" d="M469 991l-156 -1091q-44 -309 -302 -310h-13h-10q-88 0 -144 31l39 129q53 -18 95 -22q10 -1 19 -1q29 0 50 10q27 13 44.5 27.5t27.5 45t13 47.5l9 51l152 1083h176zM322 1202l26 178h176l-26 -178h-176z" />
<glyph unicode="k" horiz-adv-x="983" d="M625 623l348 -623h-203l-278 526l-136 -120l-57 -406h-176l194 1380h177l-109 -772l444 383h218z" />
<glyph unicode="l" horiz-adv-x="421" d="M123 0l194 1380h177l-195 -1380h-176z" />
<glyph unicode="m" horiz-adv-x="1673" d="M750 0l88 614q6 38 5 70q0 186 -192 186q-90 0 -170 -70.5t-102 -234.5l-80 -565h-176l139 991h164l-27 -184q94 209 303 209q100 0 185.5 -41t109.5 -127q119 168 316 168q176 0 265 -88q66 -65 66 -206q0 -48 -8 -106l-86 -616h-176l82 584q7 48 7 88q0 80 -27 128 q-41 71 -162 70q-27 0 -55.5 -6t-76.5 -27.5t-85 -79t-49 -141.5l-86 -616h-172z" />
<glyph unicode="n" horiz-adv-x="1087" d="M1057 582l-82 -582h-176l82 582q7 46 7 85q0 204 -190 203q-35 0 -77.5 -11t-98 -37.5t-97.5 -87t-54 -146.5l-82 -588h-176l139 991h164l-27 -184q55 115 148.5 161t185.5 46q186 0 276 -100q66 -73 67 -217q0 -53 -9 -115z" />
<glyph unicode="o" horiz-adv-x="1099" d="M141 496q33 244 181.5 382t369.5 138t330 -138q83 -106 83 -275q0 -51 -7 -107q-33 -244 -182.5 -383.5t-370.5 -139.5t-329 140q-82 107 -82 274q-1 52 7 109zM924 496q5 36 4 70q0 110 -50 196q-67 113 -206 112q-143 0 -239.5 -111.5t-117.5 -266.5q-6 -40 -5 -78 q0 -107 47 -191q65 -113 208 -112q139 0 239 113.5t120 267.5z" />
<glyph unicode="p" horiz-adv-x="1116" d="M315 115l-73 -525h-176l196 1403h174l-16 -141q117 164 346 164q172 0 265 -102.5t93 -307.5q0 -305 -153.5 -469t-392.5 -164q-86 0 -164.5 36t-98.5 106zM565 119q94 0 164 31.5t109 78.5t62.5 113t29.5 119t6 114q0 129 -54.5 212t-172.5 83q-57 0 -122 -22.5 t-127.5 -85t-74.5 -152.5l-43 -301q-2 -13 -2 -25q0 -80 72 -119q81 -46 153 -46z" />
<glyph unicode="q" horiz-adv-x="1116" d="M760 -410l74 525q-39 -70 -128.5 -106t-175.5 -36q-182 0 -289.5 110t-107.5 320q0 297 134 455t370 158q229 0 299 -164l22 141h175l-197 -1403h-176zM584 119q39 0 93 14t113.5 60.5t69.5 115.5l43 301q3 23 3 45q0 98 -69 151q-85 65 -184 64q-117 0 -195.5 -73.5 t-108.5 -173t-30 -211.5q1 -293 265 -293z" />
<glyph unicode="r" horiz-adv-x="651" d="M770 1014l-25 -162h-96q-94 0 -165.5 -62.5t-88.5 -181.5l-86 -608h-176l139 991h164l-22 -162q41 88 119.5 136.5t164.5 48.5h72z" />
<glyph unicode="s" horiz-adv-x="880" d="M682 217q8 18 11 35.5t2 30t-7 24.5t-11 19.5t-14.5 14.5t-14.5 10t-13 7l-10 4l-283 117q-156 72 -156 213q0 44 15 94q43 141 203 201q79 29 169 29q93 0 197 -31q68 -23 141 -74l-88 -120q-63 49 -171 67q-42 7 -81 7q-61 0 -116 -17q-90 -29 -99 -100q-4 -35 1 -55.5 t36 -40t62 -31.5l107 -42q77 -30 147 -61q74 -33 112 -84q40 -53 40 -113q0 -50 -12 -94q-13 -47 -38 -88q-68 -113 -223 -150q-62 -15 -128 -15q-100 0 -208 34q-100 31 -174 105l90 123q51 -49 155 -83q76 -25 153 -25q28 0 58 3q107 12 148 86z" />
<glyph unicode="t" horiz-adv-x="634" d="M283 850h-140l21 141h139l35 252h174l-35 -252h230l-21 -141h-229l-78 -555q-4 -23 -4 -41t3 -46t17.5 -45.5t36.5 -31.5q20 -13 55 -12h11q43 2 100 20l-4 -129q-68 -33 -152 -33h-8q-31 0 -53.5 1.5t-66.5 16.5t-68.5 45t-39.5 94q-9 36 -9 80q0 35 6 75z" />
<glyph unicode="u" horiz-adv-x="1107" d="M180 410l82 581h176l-82 -581q-7 -46 -6 -86q0 -206 191 -205q29 0 64.5 6t95 27.5t104.5 79t57 141.5l86 618h176l-139 -991h-164l21 139q-57 -88 -157.5 -127t-168.5 -39q-344 0 -344 330q0 50 8 107z" />
<glyph unicode="v" horiz-adv-x="1044" d="M623 0h-201l-283 991h187l217 -839l454 839h187z" />
<glyph unicode="w" horiz-adv-x="1605" d="M150 991h186l133 -798l371 798h204l148 -798l358 798h185l-484 -991h-172l-157 842l-394 -842h-172z" />
<glyph unicode="x" horiz-adv-x="1036" d="M924 991h204l-426 -489l314 -502h-205l-238 397l-348 -397h-205l453 502l-287 489h205l213 -383z" />
<glyph unicode="y" horiz-adv-x="1085" d="M115 -385l39 139q23 -14 90 -14q39 0 70.5 19.5t45 37t13.5 21.5l94 172l-307 1001h186l229 -809l443 809h188l-704 -1243q-90 -158 -273 -158q-55 0 -114 25z" />
<glyph unicode="z" horiz-adv-x="933" d="M51 0l21 145l719 699h-601l21 147h811l-21 -145l-716 -699h598l-21 -147h-811z" />
<glyph unicode="{" horiz-adv-x="710" d="M184 434l15 109q104 10 149 76.5t62 187.5l47 352q12 94 89 158.5t156 64.5h119l-16 -122h-76q-47 0 -80 -42t-41 -102l-47 -336q-10 -88 -51 -158.5t-66.5 -93t-50.5 -39.5q14 -10 36 -52t39 -127t3 -173l-41 -280q-8 -61 12.5 -104.5t67.5 -43.5h78l-17 -119h-120 q-78 0 -138.5 64.5t-46.5 159.5l45 295q43 309 -127 325z" />
<glyph unicode="|" horiz-adv-x="358" d="M86 -258l264 1884h113l-264 -1884h-113z" />
<glyph unicode="}" horiz-adv-x="710" d="M664 543l-15 -109q-174 -16 -217 -325l-41 -295q-12 -94 -90 -159t-156 -65h-120l16 119h78q47 0 79.5 43t41.5 105l41 280q10 88 51 173t74.5 127t50.5 52q-119 92 -86 291l47 336q8 59 -12.5 101.5t-67.5 42.5h-76l17 122h118q80 0 138.5 -64.5t46.5 -158.5l-54 -352 q-18 -121 8 -187.5t128 -76.5z" />
<glyph unicode="~" horiz-adv-x="960" d="M428 743q41 0 95.5 -19t97.5 -36.5t88 -25t87 19.5t76 94h115q-61 -152 -98 -196q-66 -78 -193 -78q-37 0 -74.5 12t-80.5 33l-47 22q-86 33 -135.5 8.5t-96.5 -110.5h-115q6 14 21.5 53t22 53.5t21.5 45t28 43.5l31 32q19 20 41 27.5t51.5 14.5t64.5 7z" />
<glyph unicode="&#xa2;" horiz-adv-x="923" d="M639 -23l-29 -204h-112l28 202q-186 10 -289.5 125t-103.5 310q0 264 146.5 426.5t392.5 177.5l28 194h113l-29 -196q141 -10 213 -49l-57 -136q-104 39 -213 39q-207 0 -314.5 -126t-107.5 -302q0 -137 79 -226t239 -89q102 0 223 41l20 -135q-88 -42 -227 -52z" />
<glyph unicode="&#xa3;" horiz-adv-x="980" d="M494 719l-80 -572h555l-19 -147h-874l20 147h135l80 572h-170l19 133h170l12 84q33 223 149.5 333.5t262.5 127.5q219 27 358 -80l-92 -111q-66 59 -178 60q-135 0 -215 -90.5t-103 -239.5l-12 -84h354l-18 -133h-354z" />
<glyph unicode="&#xa5;" horiz-adv-x="1142" d="M662 0h-181l37 260l-340 -4l17 121l340 -4l18 137l-340 -2l18 121l301 -4l-309 755h201l250 -657l434 657h201l-523 -755l301 4l-18 -121l-336 2l-18 -137l336 4l-17 -121l-336 4z" />
<glyph unicode="&#xa9;" horiz-adv-x="1589" d="M494 625q0 -156 93 -256.5t257 -100.5q156 0 254 45l-25 107q-98 -33 -188 -33q-127 0 -184.5 69.5t-57.5 174.5q0 137 79 238.5t245 101.5q96 0 176 -33l57 106q-82 47 -239 48q-203 0 -335 -136t-132 -331zM172 608q0 211 115.5 395.5t304 292t399.5 107.5 q268 0 444.5 -182.5t176.5 -448.5q0 -211 -116 -395t-305.5 -292t-399.5 -108q-266 0 -442.5 182.5t-176.5 448.5zM301 623q0 -219 144.5 -369t363.5 -150q266 0 470 195t204 459q0 219 -144.5 368.5t-363.5 149.5q-266 0 -470 -194.5t-204 -458.5z" />
<glyph unicode="&#xad;" horiz-adv-x="845" d="M827 455h-682l23 159h682z" />
<glyph unicode="&#xae;" horiz-adv-x="1589" d="M1223 881q0 -33 -6.5 -69t-46.5 -91t-109 -80q37 -16 57 -90q8 -33 21 -94q16 -88 47 -164h-150q-33 61 -49 156q-16 84 -20 96q-27 55 -80 55h-166l-43 -307h-141l112 799h352q121 0 171.5 -60.5t50.5 -150.5zM737 719h215q70 0 99.5 47t29.5 98q0 111 -104 111h-203z M172 608q0 211 115.5 395.5t304 292t399.5 107.5q268 0 444.5 -182.5t176.5 -448.5q0 -211 -116 -395t-305.5 -292t-399.5 -108q-266 0 -442.5 182.5t-176.5 448.5zM301 623q0 -219 144.5 -369t363.5 -150q266 0 470 195t204 459q0 219 -144.5 368.5t-363.5 149.5 q-266 0 -470 -194.5t-204 -458.5z" />
<glyph unicode="&#xb4;" horiz-adv-x="505" d="M231 1110l205 270h189l-254 -270h-140z" />
<glyph unicode="&#x2000;" horiz-adv-x="813" />
<glyph unicode="&#x2001;" horiz-adv-x="1626" />
<glyph unicode="&#x2002;" horiz-adv-x="813" />
<glyph unicode="&#x2003;" horiz-adv-x="1626" />
<glyph unicode="&#x2004;" horiz-adv-x="542" />
<glyph unicode="&#x2005;" horiz-adv-x="406" />
<glyph unicode="&#x2006;" horiz-adv-x="271" />
<glyph unicode="&#x2007;" horiz-adv-x="271" />
<glyph unicode="&#x2008;" horiz-adv-x="203" />
<glyph unicode="&#x2009;" horiz-adv-x="325" />
<glyph unicode="&#x200a;" horiz-adv-x="90" />
<glyph unicode="&#x2010;" horiz-adv-x="845" d="M827 455h-682l23 159h682z" />
<glyph unicode="&#x2011;" horiz-adv-x="845" d="M827 455h-682l23 159h682z" />
<glyph unicode="&#x2012;" horiz-adv-x="845" d="M827 455h-682l23 159h682z" />
<glyph unicode="&#x2013;" horiz-adv-x="1144" d="M168 614h981l-19 -133h-980z" />
<glyph unicode="&#x2014;" horiz-adv-x="1812" d="M168 614h1649l-19 -131h-1648z" />
<glyph unicode="&#x2018;" horiz-adv-x="565" d="M655 1380l-225 -340h-182l280 340h127z" />
<glyph unicode="&#x2019;" horiz-adv-x="565" d="M248 1040l225 340h182l-280 -340h-127z" />
<glyph unicode="&#x201c;" horiz-adv-x="880" d="M479 1380l131 -340h-127l-186 340h182zM795 1380l131 -340h-127l-187 340h183z" />
<glyph unicode="&#x201d;" horiz-adv-x="870" d="M248 1040l225 340h182l-280 -340h-127zM553 1040l225 340h183l-281 -340h-127z" />
<glyph unicode="&#x2022;" horiz-adv-x="653" d="M188 600q0 102 77 177t179 75q86 0 141.5 -57.5t55.5 -141.5q0 -102 -78 -176t-180 -74q-86 0 -140.5 56.5t-54.5 140.5z" />
<glyph unicode="&#x2026;" horiz-adv-x="1388" d="M102 0l27 193h176l-26 -193h-177zM606 0l27 193h176l-27 -193h-176zM1110 0l27 193h176l-27 -193h-176z" />
<glyph unicode="&#x202f;" horiz-adv-x="325" />
<glyph unicode="&#x205f;" horiz-adv-x="406" />
<glyph unicode="&#x20ac;" horiz-adv-x="1345" d="M379 741h-234l66 123h201q86 242 283.5 390.5t459.5 148.5q170 0 297 -70l-76 -135q-33 23 -97.5 39t-96.5 16q-221 0 -370.5 -109.5t-221.5 -279.5h624l-73 -123h-586q-16 -66 -18 -125h540l-73 -122h-457q27 -160 145.5 -263.5t331.5 -103.5q98 0 219 55l27 -135 q-145 -70 -314 -70q-258 0 -412.5 142.5t-176.5 374.5h-256l65 122h186q3 35 17 125z" />
<glyph unicode="&#x2122;" horiz-adv-x="1613" d="M223 1380h787l166 -671l356 671h162l-84 -819h-105l76 713l-383 -713h-84l-182 713l-125 -713h-105l132 727h-254l-103 -727h-104l102 727h-264z" />
<glyph unicode="&#xe000;" horiz-adv-x="990" d="M0 990h990v-990h-990v990z" />
<glyph unicode="&#xfb01;" horiz-adv-x="987" d="M164 991h125l14 96q47 319 315 316h9q76 0 143 -37l-33 -119q-225 76 -258 -137l-16 -119h541l-140 -991h-176l121 860h-365l-182 -1270h-174l182 1268h-125z" />
<glyph unicode="&#xfb02;" horiz-adv-x="987" d="M688 0l176 1245h-239q-123 -2 -148 -158l-14 -96h196l-18 -133h-197l-180 -1268h-174l180 1268h-125l19 133h125l10 74q12 88 47 152.5t72 95t86 47t71.5 18.5t49.5 2h434l-195 -1380h-176z" />
<glyph unicode="&#xfb03;" horiz-adv-x="1515" d="M1217 0l120 858h-336l-184 -1268h-170l180 1268h-383l-180 -1268h-174l180 1268h-125l19 133h125l14 96q47 319 315 316h9q76 0 143 -37l-33 -119q-225 76 -258 -137l-16 -119h383l10 74q12 88 47 152.5t72 95t86 47t71.5 18.5t49.5 2q76 0 141 -37l-33 -118 q-59 20 -104 20q-129 0 -152 -158l-14 -96h512l-139 -991h-176z" />
<glyph unicode="&#xfb04;" horiz-adv-x="1515" d="M1217 0l176 1245h-209q-125 -2 -150 -158l-14 -96h197l-19 -133h-197l-182 -1268h-174l182 1268h-383l-182 -1268h-174l182 1268h-125l19 133h125l14 96q47 319 315 316h9q76 0 143 -37l-33 -119q-225 76 -258 -137l-16 -119h383l10 74q12 88 47 152.5t72 95t86 47 t71.5 18.5t49.5 2h405l-194 -1380h-176z" />
</font>
</defs>
</svg>
