<?xml version="1.0" standalone="no"?>
<!DOCTYPE svg PUBLIC "-//W3C//DTD SVG 1.1//EN" "http://www.w3.org/Graphics/SVG/1.1/DTD/svg11.dtd" >
<svg xmlns="http://www.w3.org/2000/svg">
<metadata>
This is a custom SVG webfont generated by Fontspring.
</metadata>
<defs>
<font id="webfont1pDSc1rZ" horiz-adv-x="991" >
<font-face units-per-em="2048" ascent="1536" descent="-512" />
<missing-glyph horiz-adv-x="483" />
<glyph unicode=" "  horiz-adv-x="483" />
<glyph unicode="&#x09;" horiz-adv-x="483" />
<glyph unicode="&#xa0;" horiz-adv-x="483" />
<glyph unicode="!" horiz-adv-x="423" d="M215 666l100 714h183l-101 -712l-73 -381h-144zM113 0l26 184h199l-27 -184h-198z" />
<glyph unicode="&#x22;" horiz-adv-x="614" d="M473 776l68 604h188l-100 -604h-156zM203 776l67 604h189l-101 -604h-155z" />
<glyph unicode="#" horiz-adv-x="1017" d="M641 1380h182l-166 -401h140l164 401h178l-164 -401h145l-20 -143h-189l-116 -297h161l-22 -146h-203l-164 -393h-174l162 393h-137l-166 -393h-180l161 393h-143l21 146h182l119 297h-166l22 143h205zM596 836l-117 -297h137l119 297h-139z" />
<glyph unicode="$" horiz-adv-x="1001" d="M422 -215l27 192q-102 12 -168 43q-143 66 -211 148l108 154q135 -166 375 -166q166 0 240 143q18 51 18 82q0 109 -92 158l-311 151q-193 90 -193 291q0 180 132 294t310 126h-8l23 162h143l-24 -168h-5q45 -6 121 -33q109 -47 172 -119l-96 -158q-125 145 -326 146 q-80 0 -141 -50.5t-84 -115.5q-20 -137 117 -205l287 -141q180 -88 180 -291q0 -102 -66 -225q-104 -199 -366 -226h8l-27 -192h-143z" />
<glyph unicode="%" horiz-adv-x="1370" d="M272 0l883 1380h125l-883 -1380h-125zM203 979q0 -129 62.5 -201.5t172.5 -72.5q147 0 239.5 109.5t92.5 291.5q0 129 -62.5 201.5t-172.5 72.5q-150 0 -241 -108.5t-91 -292.5zM629 1092q0 -106 -47 -188.5t-127 -82.5q-55 0 -83 47t-28 123q0 109 46 191t128 82 q55 0 83 -48t28 -124zM788 274q0 -127 62.5 -200.5t175.5 -73.5q147 0 239.5 109.5t92.5 291.5q0 129 -63.5 202t-174.5 73q-150 0 -241 -109t-91 -293zM1214 387q0 -106 -46 -188t-126 -82q-55 0 -82.5 47t-27.5 123q0 111 45 191.5t127 80.5q55 0 82.5 -48t27.5 -124z" />
<glyph unicode="&#x26;" horiz-adv-x="1105" d="M303 338q0 -100 50 -158.5t145 -58.5q150 0 260 180h2l-230 336q-88 -25 -157.5 -103.5t-69.5 -195.5zM772 1102q0 66 -28.5 109.5t-86.5 45.5q-66 -2 -107.5 -51t-55.5 -121q-14 -76 16.5 -157.5t85.5 -100.5q80 29 128 110t48 165zM702 719l150 -227q16 47 31 157l8 47 h168q-25 -227 -94 -348l2 -8l4 -6q45 -63 67.5 -101t35.5 -99.5t3 -133.5h-188q6 82 2 106.5t-27 57.5q-141 -186 -387 -187q-184 0 -276 95.5t-92 242.5q0 154 87 266.5t224 170.5q-72 66 -95.5 161t-9.5 179q27 141 133.5 222t229.5 81q115 0 197.5 -83t74.5 -220 q-14 -88 -70.5 -187.5t-144.5 -161.5l-35 -24h2z" />
<glyph unicode="'" horiz-adv-x="344" d="M203 776l67 604h189l-101 -604h-155z" />
<glyph unicode="(" horiz-adv-x="643" d="M162 475l4 23q57 397 215 639.5t360 242.5l-18 -118q-150 -2 -283 -290t-133 -734q0 -248 56.5 -386.5t142.5 -140.5l-17 -119q-203 0 -291.5 242t-35.5 641z" />
<glyph unicode=")" horiz-adv-x="643" d="M614 475q-59 -399 -215.5 -641t-359.5 -242l16 119q152 2 285 291t133 735q0 246 -56.5 384.5t-142.5 140.5l17 118q203 0 292 -242.5t33 -639.5z" />
<glyph unicode="*" horiz-adv-x="706" d="M588 1198l172 115l51 -131l-223 -115q35 -18 102 -57l90 -52l-88 -133l-139 115l-21 -205h-147l37 207l-174 -117l-51 133l217 109q-31 20 -97 59l-90 54l88 133l142 -117l20 207h148z" />
<glyph unicode="+" horiz-adv-x="997" d="M164 737h356l60 422h163l-59 -422h354l-20 -149h-354l-60 -420h-164l60 420h-357z" />
<glyph unicode="," horiz-adv-x="481" d="M39 -166l207 375h205l-258 -375h-154z" />
<glyph unicode="-" horiz-adv-x="776" d="M756 414h-621l29 200h620z" />
<glyph unicode="." horiz-adv-x="368" d="M78 0l28 209h213l-28 -209h-213z" />
<glyph unicode="/" horiz-adv-x="643" d="M795 1380l-605 -1380h-147l602 1380h150z" />
<glyph unicode="0" d="M489 -27q-162 0 -252 138.5t-90 386.5q0 383 149.5 619.5t387.5 236.5q164 0 254 -138.5t90 -386.5q0 -383 -149.5 -619.5t-389.5 -236.5zM662 1190q-98 0 -175 -108.5t-114 -262t-37 -313.5q0 -162 44 -266.5t132 -104.5q102 0 178 108.5t111 261t35 312.5 q0 162 -43 267.5t-131 105.5z" />
<glyph unicode="1" d="M469 901l-76 137l299 293h185l-187 -1331h-196l149 1071z" />
<glyph unicode="2" d="M662 1176q-123 0 -297 -193l-86 139q199 231 415 232q152 0 250 -96.5t98 -253.5q0 -72 -29.5 -139.5t-63.5 -113.5t-107.5 -107.5t-111.5 -88.5l-126 -86q-127 -86 -203.5 -155.5t-99.5 -141.5h608l-24 -172h-797l16 113q10 70 40 134t66 111.5t95.5 98.5t102.5 82.5 l112 78.5q150 100 209 154q68 59 92.5 106.5t24.5 112.5q0 80 -48 132.5t-136 52.5z" />
<glyph unicode="3" d="M492 -27q-80 0 -145.5 18.5t-111 53.5t-67 57.5t-47.5 59.5l92 129q121 -150 295 -150q111 0 175.5 78t64.5 180q0 84 -47.5 141.5t-137.5 57.5h-119l25 174h111q115 0 176 63.5t61 157.5q0 80 -44 138.5t-124 58.5t-158.5 -47t-130.5 -103l-63 127q16 23 38.5 45.5 t71 59.5t120 59.5t153.5 22.5q147 2 240.5 -86t93.5 -244q0 -109 -57.5 -197t-176.5 -135h-2q84 -27 127 -112.5t43 -176.5q0 -186 -140 -310t-316 -120z" />
<glyph unicode="4" d="M774 0l-188 2l39 279q-88 0 -267.5 -1t-267.5 -1l25 170q111 199 220 355.5t189 250.5l246 276h191l-125 -895h168l-23 -157h-168zM287 436h360l88 629q-109 -109 -241.5 -297.5t-206.5 -331.5z" />
<glyph unicode="5" d="M803 469q0 106 -51.5 177t-141.5 71q-137 6 -213 -127h-168q27 119 88 352l97 389h620l-24 -180h-463l-86 -320q82 53 176 54q162 0 254 -107.5t92 -283.5q0 -256 -149.5 -394.5t-362.5 -138.5q-250 0 -348 217l119 123q88 -172 241 -172q92 0 159 35t99.5 90t47 108.5 t14.5 106.5z" />
<glyph unicode="6" d="M1012 1274l-68 -139q-88 61 -192 61q-135 0 -233.5 -116.5t-133.5 -319.5q92 115 242 114q168 0 257 -109.5t89 -272.5q0 -236 -136.5 -377.5t-336.5 -141.5q-98 0 -170 44t-108 119t-51 154t-15 167q0 420 169 658.5t423 238.5q155 0 264 -80zM520 131 q117 0 187.5 110.5t70.5 227.5q0 98 -44 176t-134 78q-111 0 -181.5 -103.5t-70.5 -242.5q0 -109 45 -177.5t127 -68.5z" />
<glyph unicode="7" d="M250 1151l24 180h818l-21 -157q-227 -276 -385 -553t-299 -621h-215q319 694 686 1151h-608z" />
<glyph unicode="8" d="M686 1354l88 -8q100 -20 174 -100.5t74 -205.5q0 -49 -8 -90t-29.5 -90t-71 -90t-122.5 -70h-3q70 -29 114 -84t56.5 -104t12.5 -102q0 -180 -129 -308.5t-350 -128.5q-182 0 -275.5 94.5t-93.5 237.5q0 121 65.5 231.5t212.5 163.5h-2q-152 66 -151 238 q0 166 105.5 271.5t242.5 136.5q33 8 90 8zM514 131q117 0 192.5 84t75.5 188q0 88 -52 147.5t-148 61.5q-121 -2 -193 -84t-72 -188q0 -86 51.5 -147.5t145.5 -61.5zM604 778q111 0 166 70t55 176q0 76 -40 131t-119 55q-102 0 -163 -79.5t-61 -174.5q0 -84 41 -131 t121 -47z" />
<glyph unicode="9" d="M168 53l70 140q82 -61 190 -62q135 0 234.5 118t132.5 318q-92 -115 -242 -114q-170 0 -259 109.5t-89 273.5q0 236 136 377t337 141q100 0 171 -44t106.5 -119t51 -152.5t15.5 -166.5q0 -422 -168 -660.5t-422 -238.5q-164 0 -264 80zM659 1196q-119 0 -188.5 -110.5 t-69.5 -229.5q0 -98 44 -175t135 -77q111 0 180 104.5t69 241.5q0 109 -45 177.5t-125 68.5z" />
<glyph unicode=":" horiz-adv-x="368" d="M78 0l28 209h213l-28 -209h-213zM188 782l29 209h213l-29 -209h-213z" />
<glyph unicode=";" horiz-adv-x="516" d="M330 782l28 209h213l-28 -209h-213zM55 -166l207 375h205l-256 -375h-156z" />
<glyph unicode="&#x3c;" horiz-adv-x="1019" d="M1065 1008l-27 -185l-698 -329l606 -330l-26 -182l-816 460l15 105z" />
<glyph unicode="=" horiz-adv-x="954" d="M983 770h-797l21 150h797zM928 381h-797l21 149h796z" />
<glyph unicode="&#x3e;" horiz-adv-x="1019" d="M213 823l25 185l817 -461l-15 -105l-946 -460l27 182l698 330z" />
<glyph unicode="?" horiz-adv-x="944" d="M563 287h-155q27 190 70.5 266t228.5 242q123 111 122 245q0 84 -48 139.5t-136 55.5q-86 0 -166 -67.5t-125 -139.5l-88 127q31 49 73 96t137 99.5t202 52.5q150 0 249 -97.5t99 -254.5q0 -211 -231 -408q-74 -61 -110 -97t-69.5 -90.5t-44.5 -115.5zM354 0l25 184h199 l-25 -184h-199z" />
<glyph unicode="@" horiz-adv-x="1492" d="M1284 168l41 -88q-100 -104 -259 -164.5t-314 -60.5q-281 0 -438.5 184t-157.5 471q0 356 241.5 617.5t550.5 261.5q147 0 263 -51.5t182.5 -136.5t99.5 -182t33 -200q0 -166 -52.5 -296t-133 -201.5t-164.5 -107.5t-160 -36q-125 0 -142 94q-88 -53 -202 -53 q-223 0 -223 242q0 217 133 372.5t307 155.5q100 0 129 -69l16 53h185l-172 -522q-18 -43 -19 -84q0 -53 23 -54q102 0 213.5 129t111.5 363q0 211 -134 337t-310 126q-238 0 -430.5 -226.5t-192.5 -521.5q0 -242 126 -394.5t339 -152.5q242 0 510 195zM887 850 q-84 0 -136.5 -66.5t-86.5 -183.5q-25 -82 -25 -133q0 -111 70 -111q39 0 95 38t87 108l70 241q2 49 -24.5 78t-49.5 29z" />
<glyph unicode="A" horiz-adv-x="1191" d="M217 0h-209l682 1380h201l293 -1380h-209l-66 319h-538zM758 1130l-307 -638h428z" />
<glyph unicode="B" horiz-adv-x="1075" d="M737 608h-348l-61 -434h348q100 0 157.5 74t57.5 172q0 80 -39 134t-115 54zM1128 1069q0 -227 -194 -346h-2q78 -25 122 -106.5t44 -184.5q0 -156 -109.5 -294t-292.5 -138h-592l195 1380h535q150 0 222 -89t72 -222zM414 782h325q90 16 135.5 92t45.5 162 q0 170 -148 170h-299z" />
<glyph unicode="C" horiz-adv-x="1069" d="M150 578q0 342 200.5 583.5t505.5 241.5q236 0 354 -80l-73 -154q-129 57 -267 58q-131 0 -234.5 -58.5t-162.5 -152.5t-90 -201.5t-31 -218.5q0 -188 89 -316t278 -128q137 0 287 57l26 -154q-139 -80 -376.5 -80t-371.5 170.5t-134 432.5z" />
<glyph unicode="D" horiz-adv-x="1179" d="M539 0h-435l195 1380h434q244 0 378 -141t134 -414q0 -395 -189 -610t-517 -215zM328 174h241q205 0 341.5 160t136.5 469q0 207 -90.5 305t-247.5 98h-236z" />
<glyph unicode="E" horiz-adv-x="993" d="M924 0h-820l195 1380h807l-25 -174h-608l-59 -422h565l-25 -174h-565l-61 -436h620z" />
<glyph unicode="F" horiz-adv-x="925" d="M303 -2l-199 2l195 1380h768l-25 -174h-569l-59 -422h524l-25 -174h-524z" />
<glyph unicode="G" horiz-adv-x="1200" d="M1024 567h-242l25 176h426l-92 -663q-74 -45 -205 -75t-231 -30q-258 0 -406.5 172t-148.5 439q0 340 214 578.5t541 238.5q236 0 375 -117l-90 -156q-106 98 -270 99q-139 0 -251 -56.5t-178.5 -147.5t-101.5 -197.5t-35 -215.5q0 -190 100.5 -325t293.5 -135 q100 0 231 45h-6z" />
<glyph unicode="H" horiz-adv-x="1165" d="M952 653h-557l-92 -653h-199l195 1380h199l-78 -551h557l78 551h198l-194 -1380h-199z" />
<glyph unicode="I" horiz-adv-x="423" d="M113 0l194 1380h199l-195 -1380h-198z" />
<glyph unicode="J" horiz-adv-x="747" d="M16 59l68 164q68 -45 111 -59q61 -18 116 -19q53 0 99 23q72 41 94 219l141 993h193l-142 -1005q-31 -219 -138 -310.5t-253 -91.5q-68 0 -141 19q-72 18 -148 67z" />
<glyph unicode="K" horiz-adv-x="1048" d="M1036 0h-231l-295 598l-150 -170h2l-59 -428h-199l195 1380h199l-95 -671l529 671h223l-510 -620z" />
<glyph unicode="L" horiz-adv-x="933" d="M498 1380l-170 -1204h569l-25 -176h-768l195 1380h199z" />
<glyph unicode="M" horiz-adv-x="1470" d="M655 0l-200 1077l-187 -1077h-198l245 1380h265l204 -1046l498 1046h262l-143 -1380h-199l119 1075l-506 -1075h-160z" />
<glyph unicode="N" horiz-adv-x="1175" d="M803 0l-342 1116l-158 -1116h-199l195 1380h283l329 -1104l156 1104h197l-195 -1380h-266z" />
<glyph unicode="O" horiz-adv-x="1275" d="M633 -25q-231 0 -359.5 154t-128.5 426q0 383 189.5 615.5t499.5 232.5q231 0 360 -153.5t129 -426.5q0 -383 -191.5 -615.5t-498.5 -232.5zM809 1233q-205 0 -330 -196.5t-125 -463.5q0 -193 77 -310.5t226 -117.5q211 0 334 191.5t123 462.5q0 190 -77.5 312 t-227.5 122z" />
<glyph unicode="P" horiz-adv-x="1032" d="M727 526h-350l-74 -526h-199l195 1380h537q158 0 229.5 -109.5t71.5 -256.5q0 -33 -9.5 -84t-37 -124t-69.5 -133.5t-119 -103.5t-175 -43zM401 702h326q74 0 123 57.5t64.5 118t15.5 113.5q0 92 -39 153.5t-123 61.5h-295z" />
<glyph unicode="Q" horiz-adv-x="1259" d="M635 -25q-223 0 -355.5 157t-132.5 429q0 379 190.5 610.5t498.5 231.5q229 0 358 -153.5t129 -426.5q0 -264 -100.5 -459.5t-278.5 -302.5q102 -80 182 -79h84l-22 -160h-78q-102 0 -177 25.5t-105.5 52t-61.5 65.5q0 2 -4 6l-2 4h-125zM811 1233q-207 0 -331 -195.5 t-124 -462.5q0 -193 76 -309t225 -116q211 0 334 189t123 460q0 190 -76.5 312t-226.5 122z" />
<glyph unicode="R" horiz-adv-x="1095" d="M1139 1028q0 -27 -2 -56.5t-17.5 -89t-42 -107.5t-81 -96t-128.5 -73h2q74 -43 99 -168l90 -438h-211l-88 434q-12 57 -39 85t-78 28h-262l-78 -547h-199l195 1380h518q90 0 156.5 -30.5t100.5 -84t49.5 -111.5t15.5 -126zM403 721h326q57 0 100 29.5t66 74.5t33 90.5 t10 83.5q0 90 -38 148.5t-120 58.5h-307z" />
<glyph unicode="S" horiz-adv-x="1001" d="M907 1362h2q102 -47 170 -119l-96 -158q-125 145 -326 146q-80 0 -141 -50.5t-84 -115.5q-3 -18 -3 -35q0 -112 120 -170l287 -141q180 -88 180 -291q0 -102 -66 -225q-57 -106 -169.5 -167t-254.5 -61q-147 0 -245 45q-143 66 -211 148l108 154q135 -166 375 -166 q166 0 240 143q18 51 18 82q0 109 -92 158l-311 151q-193 90 -193 291q0 190 145.5 306t331.5 116q109 0 215 -41z" />
<glyph unicode="T" horiz-adv-x="960" d="M1122 1206h-372l-170 -1206h-199l170 1206h-373l25 174h944z" />
<glyph unicode="U" horiz-adv-x="1210" d="M602 -25q-242 0 -350 146q-77 103 -77 294q0 80 13 175l111 790h199l-107 -753q-11 -83 -11 -152q0 -322 247 -321q303 0 366 473l107 753h198l-110 -790q-45 -326 -194.5 -470.5t-391.5 -144.5z" />
<glyph unicode="V" horiz-adv-x="1105" d="M203 1380h203l184 -1120l500 1120h200l-639 -1380h-196z" />
<glyph unicode="W" horiz-adv-x="1644" d="M1110 1329l111 -1024l401 1075h209l-553 -1380h-203l-112 985l-392 -985h-202l-166 1380h207l102 -1075l395 1024h203z" />
<glyph unicode="X" horiz-adv-x="1110" d="M872 0l-243 524l-391 -524h-228l537 682l-324 698h230l223 -538l375 538h225l-518 -698l342 -682h-228z" />
<glyph unicode="Y" horiz-adv-x="1120" d="M664 0h-205l69 489l-325 891h227l227 -696l418 696h230l-572 -891z" />
<glyph unicode="Z" horiz-adv-x="1042" d="M967 0h-924l27 182l854 1024h-680l24 174h926l-25 -176l-866 -1026h688z" />
<glyph unicode="[" horiz-adv-x="534" d="M612 1243h-168l-213 -1515h168l-18 -138h-342l252 1790h342z" />
<glyph unicode="\" horiz-adv-x="643" d="M453 0l-215 1380h149l213 -1380h-147z" />
<glyph unicode="]" horiz-adv-x="534" d="M438 1243h-168l21 137h342l-252 -1790h-342l18 138h168z" />
<glyph unicode="^" horiz-adv-x="739" d="M162 768l332 612h141l160 -612h-166l-92 418l-211 -418h-164z" />
<glyph unicode="_" horiz-adv-x="1110" d="M43 -125h987l-16 -123h-987z" />
<glyph unicode="`" horiz-adv-x="466" d="M461 1380l102 -266h-151l-154 266h203z" />
<glyph unicode="a" horiz-adv-x="892" d="M805 0h-199l15 104q-53 -66 -135.5 -97.5t-145.5 -31.5q-98 0 -180 65.5t-82 197.5q0 102 45 176.5t131 121t192.5 71t249.5 34.5l6 51l2 22q0 47 -30 89q-37 51 -135 51q-63 0 -131 -20.5t-105 -40.5l-37 -21l-37 139q0 4 40 27t123 49.5t171 26.5q0 -2 21 1q6 1 13 1 q17 0 41 -5q34 -7 74 -14.5t77.5 -31t66.5 -55t42 -87.5q8 -31 8 -67q0 -28 -5 -58zM395 129q20 0 53 8t79 29.5t82 72t46 119.5l21 148q-170 -16 -281.5 -73.5t-122.5 -143.5q-1 -11 -1 -22q0 -57 29 -94q34 -44 95 -44z" />
<glyph unicode="b" horiz-adv-x="966" d="M487 1380l-67 -473q90 106 250 107q145 0 234 -105.5t89 -308.5q0 -295 -135 -460t-332 -165q-39 0 -114.5 31t-104.5 96l-14 -102h-197l195 1380h196zM594 850q-49 0 -122 -44t-83 -126l-47 -334q-3 -24 -3 -45q0 -157 187 -158q70 0 122 43t81 112t42 143.5t13 150.5 q0 258 -190 258z" />
<glyph unicode="c" horiz-adv-x="806" d="M115 399q0 281 143 449t379 168q170 0 260 -64l-61 -153q-106 47 -195 47q-162 0 -247 -124t-85 -294q0 -125 57.5 -206t176.5 -81q80 0 207 52l20 -154q-113 -66 -281 -66q-178 0 -276 113.5t-98 312.5z" />
<glyph unicode="d" horiz-adv-x="966" d="M801 907l65 473h197l-193 -1380h-196l14 102q-47 -66 -131 -96.5t-125 -30.5q-143 0 -231 106.5t-88 307.5q0 297 135 461t334 164q160 -1 219 -107zM610 850q-139 0 -213.5 -118t-74.5 -329q0 -260 157 -260q213 0 242 203l47 334q2 14 2 27q0 63 -50 99q-61 44 -110 44 z" />
<glyph unicode="e" horiz-adv-x="935" d="M483 -25q-164 0 -266 117t-102 318q0 256 139 431t356 175q166 0 260.5 -109.5t94.5 -304.5q0 -43 -4.5 -76.5t-12.5 -66.5t-8 -37h-637v-17q0 -115 52 -187q56 -77 165 -77q162 0 287 74l27 -152q-144 -88 -351 -88zM588 850q-88 0 -162 -83t-94 -187h440q2 21 2 40 q0 96 -42 157q-50 73 -144 73z" />
<glyph unicode="f" horiz-adv-x="503" d="M147 991h129l13 92q12 92 44 158t62.5 96.5t75.5 47t65.5 17.5t49.5 1h6q78 0 145 -47l-47 -135q-70 27 -92 26q-88 0 -113 -141l-14 -115h164l-21 -139h-163l-177 -1262h-196l178 1262h-129z" />
<glyph unicode="g" horiz-adv-x="968" d="M512 141q49 0 122 44t83 126l47 334q3 24 3 45q0 159 -189 160q-127 0 -193 -139.5t-66 -311.5q0 -258 193 -258zM668 -55l20 141q-43 -49 -108.5 -80t-126.5 -31q-152 0 -245 107.5t-93 310.5q0 295 138 459t335 164q154 0 213 -125l14 100h197l-152 -1075 q-25 -174 -148.5 -250t-291.5 -76q-100 0 -189.5 27t-121.5 61l63 142q104 -80 248 -80q94 0 163 49.5t85 155.5z" />
<glyph unicode="h" horiz-adv-x="960" d="M946 584l-82 -584h-196l82 584q7 51 7 92q0 174 -132 174q-29 0 -61 -9.5t-72.5 -33t-72.5 -79.5t-44 -138l-82 -590h-197l195 1380h196l-71 -499q92 135 254 135q286 0 286 -310q-1 -56 -10 -122z" />
<glyph unicode="i" horiz-adv-x="389" d="M96 0l140 991h196l-139 -991h-197zM262 1186l29 194h196l-28 -194h-197z" />
<glyph unicode="j" horiz-adv-x="401" d="M442 991l-151 -1081q-14 -92 -45 -157.5t-61.5 -96.5t-76 -47.5t-64.5 -17.5t-50 -1q-78 0 -152 48l47 145q76 -31 105 -31q37 0 60.5 31t28.5 57.5t13 77.5l152 1073h194zM274 1186l29 194h197l-29 -194h-197z" />
<glyph unicode="k" horiz-adv-x="878" d="M584 618l284 -618h-219l-209 494l-84 -88h2l-57 -406h-197l195 1380h197l-105 -737l334 348h229z" />
<glyph unicode="l" horiz-adv-x="389" d="M96 0l195 1380h196l-194 -1380h-197z" />
<glyph unicode="m" horiz-adv-x="1431" d="M618 0l89 612q6 40 5 74q0 164 -134 164q-63 0 -123 -65.5t-82 -221.5l-80 -563h-197l140 991h186l-14 -104q86 129 227 129q84 0 142.5 -25.5t101.5 -103.5q100 129 245 129q304 0 305 -300q0 -47 -8 -102l-86 -614h-196l82 582q7 55 7 98q0 65 -17 104q-28 66 -113 66 q-18 0 -40 -6t-56.5 -25.5t-62.5 -72t-40 -132.5l-86 -614h-195z" />
<glyph unicode="n" horiz-adv-x="960" d="M946 580l-82 -580h-196l82 580q7 52 7 94q0 178 -132 178q-27 0 -58.5 -10.5t-73.5 -35t-74 -82.5t-44 -138l-82 -586h-197l140 991h184l-19 -131q109 156 252 156q301 0 302 -320q0 -53 -9 -116z" />
<glyph unicode="o" horiz-adv-x="952" d="M115 397q0 281 138 449t365 168q168 0 263.5 -111.5t95.5 -310.5q0 -279 -139.5 -447t-366.5 -168q-168 0 -262 111.5t-94 308.5zM780 563q0 123 -48 207t-136 84q-125 0 -205 -132t-80 -298q0 -121 47.5 -204t135.5 -83q123 0 204.5 132t81.5 294z" />
<glyph unicode="p" horiz-adv-x="966" d="M305 84l-69 -494h-197l197 1401h196l-14 -98q102 123 264 123q150 0 231.5 -101.5t81.5 -298.5q0 -307 -138 -474t-353 -167q-148 0 -199 109zM496 139q139 0 213.5 120t74.5 331q0 115 -37.5 188.5t-119.5 73.5q-215 0 -242 -205l-47 -334q-2 -14 -2 -27q0 -64 50 -102 q61 -45 110 -45z" />
<glyph unicode="q" horiz-adv-x="966" d="M614 -410l70 494q-82 -109 -229 -109q-158 0 -250 106.5t-92 309.5q0 297 123.5 461t332.5 164q162 0 230 -123l14 98h197l-199 -1401h-197zM510 139q49 0 122 45t85 129l47 334q3 24 3 46q0 159 -187 159q-90 0 -151.5 -76t-85.5 -173t-24 -202q1 -262 191 -262z" />
<glyph unicode="r" horiz-adv-x="583" d="M715 1016l-27 -189h-61q-209 0 -242 -227l-84 -600h-197l140 991h188l-16 -114q41 72 109.5 105.5t133.5 33.5h56z" />
<glyph unicode="s" horiz-adv-x="772" d="M571 231q10 27 10 50q0 48 -44 73l-236 115q-139 78 -139 219q0 150 102.5 240t259.5 90q88 0 168 -33q47 -18 131 -84l-86 -139q-147 88 -227 88q-57 0 -100 -31t-54 -76q-4 -21 -4 -37q0 -28 14 -42q22 -23 95 -54q6 -2 10 -4q82 -37 164 -78q135 -78 135 -221 q0 -80 -47 -160q-45 -78 -130 -124t-192 -46q-88 0 -182 35q-106 51 -158 115l95 147q102 -125 272 -124q104 -1 143 81z" />
<glyph unicode="t" horiz-adv-x="587" d="M272 850h-145l20 141h146l35 248h196l-35 -248h191l-21 -141h-190l-78 -551q-3 -27 -3 -49q0 -111 77 -111q41 0 108 25l-10 -148q-76 -43 -153 -43h-23q-8 0 -27.5 2t-31.5 7l-33 11q-20 7 -33 19l-29 29q-16 16 -24 40.5t-15 54.5q-6 26 -7 60q0 41 8 97z" />
<glyph unicode="u" horiz-adv-x="960" d="M156 412l80 579h196l-80 -579q-7 -50 -7 -92q0 -175 128 -175q23 0 48.5 5.5t71.5 24t81 70.5t47 130l86 616h197l-140 -991h-186l16 113q-41 -55 -105.5 -89t-100 -40.5t-54.5 -6.5q-288 0 -288 312q1 57 10 123z" />
<glyph unicode="v" horiz-adv-x="911" d="M559 0h-209l-219 991h207l143 -798l371 798h207z" />
<glyph unicode="w" horiz-adv-x="1374" d="M139 991h207l82 -737l289 737h219l82 -737l291 737h204l-432 -991h-182l-108 727l-314 -727h-182z" />
<glyph unicode="x" horiz-adv-x="911" d="M799 991h217l-373 -489l115 -226l141 -276h-217l-174 377l-279 -377h-219l396 502l-234 489h219l152 -360z" />
<glyph unicode="y" horiz-adv-x="946" d="M80 -379l41 162q55 -27 94 -27q25 0 45.5 17.5t29.5 33t9 19.5l84 174q-41 186 -152 639l-84 352h207l160 -731l354 731h207l-620 -1239q-33 -66 -88.5 -104.5t-93 -48t-72.5 -9.5q-55 0 -121 31z" />
<glyph unicode="z" horiz-adv-x="813" d="M35 0l20 150l607 677h-492l23 164h725l-21 -149l-608 -678h493l-22 -164h-725z" />
<glyph unicode="{" horiz-adv-x="624" d="M156 420l18 131q88 10 125 72.5t53 177.5l49 350q14 102 80 165.5t156 63.5h121l-21 -141h-94q-61 0 -78 -104l-51 -361q-12 -111 -66.5 -190.5t-115.5 -94.5q55 -20 87 -101t15 -191l-51 -361q-18 -104 49 -104h94l-20 -142h-121q-90 0 -137 63.5t-33 166.5l49 350 q16 115 -4 177.5t-104 72.5z" />
<glyph unicode="|" horiz-adv-x="335" d="M66 -221l249 1784h144l-250 -1784h-143z" />
<glyph unicode="}" horiz-adv-x="624" d="M606 551l-18 -131q-88 -10 -125 -72.5t-53 -177.5l-50 -350q-14 -102 -79.5 -166t-155.5 -64h-121l21 142h94q61 0 78 104l51 361q12 111 66.5 191.5t117.5 100.5q-57 14 -89 93.5t-15 191.5l51 361q12 104 -49 104h-94l20 141h121q90 0 137 -63.5t33 -165.5l-49 -350 q-16 -115 4 -177.5t104 -72.5z" />
<glyph unicode="~" horiz-adv-x="843" d="M395 743q47 0 125 -41q74 -39 119 -38q53 0 104 112h148l-40 -101.5t-38 -75.5t-49.5 -63.5t-63 -34t-90.5 -14.5q-45 0 -127 43q-78 41 -110 41q-47 0 -103 -118h-145q31 88 48 126.5t49 85t73 62.5t100 16z" />
<glyph unicode="&#xa2;" horiz-adv-x="806" d="M399 -201l27 178h8q-152 14 -235.5 127t-83.5 295q0 260 126 425t339 188h-9l23 168h143l-22 -168h-8q129 -14 192 -60l-63 -153q-106 47 -195 47q-162 0 -247 -124t-85 -294q0 -125 57.5 -206t176.5 -81q80 0 207 52l20 -154q-80 -47 -209 -62h8l-26 -178h-144z" />
<glyph unicode="&#xa3;" horiz-adv-x="862" d="M469 705l-74 -549h453l-23 -156h-798l22 156h146q25 195 36 274l37 275h-143l22 149h144l10 82q29 209 137.5 322.5t237.5 138.5q31 6 92 6q162 0 258 -88l-98 -121q-84 53 -180 53q-98 0 -162 -85t-84 -226l-10 -82h294l-22 -149h-295z" />
<glyph unicode="&#xa5;" horiz-adv-x="1001" d="M602 0h-201l33 229h-284l20 140h285l18 137h-285l21 139h248l-244 735h217l180 -614l351 614h217l-449 -735h244l-21 -139h-278l-19 -137h279l-21 -140h-278z" />
<glyph unicode="&#xa9;" horiz-adv-x="1374" d="M150 594q0 326 223 567.5t512 241.5q231 0 381.5 -179.5t150.5 -441.5q0 -326 -223 -567.5t-510 -241.5q-231 0 -382.5 179.5t-151.5 441.5zM289 606q0 -213 117.5 -357.5t300.5 -144.5q229 0 406 198t177 462q0 215 -118.5 359.5t-301.5 144.5q-229 0 -405 -198 t-176 -464zM444 621q0 -154 81 -252.5t222.5 -98.5t225.5 49l-19 105q-96 -37 -172 -37q-102 0 -148 67.5t-46 170.5q0 141 68.5 248.5t209.5 107.5q80 0 158 -39l51 107q-72 49 -213 49q-180 0 -299 -140t-119 -337z" />
<glyph unicode="&#xad;" horiz-adv-x="776" d="M756 414h-621l29 200h620z" />
<glyph unicode="&#xae;" horiz-adv-x="1374" d="M1087 891q0 -35 -7 -73t-44 -92t-100 -77h2q39 -25 55 -94l49 -258h-145l-49 252q-20 57 -60 57h-131l-45 -309h-139l113 799h309q104 0 148 -59.5t44 -145.5zM674 723h172q59 0 81.5 50t22.5 104q0 106 -78 106h-163zM150 594q0 326 223 567.5t512 241.5 q231 0 381.5 -179.5t150.5 -441.5q0 -326 -223 -567.5t-510 -241.5q-231 0 -382.5 179.5t-151.5 441.5zM289 606q0 -213 117.5 -357.5t300.5 -144.5q229 0 406 198t177 462q0 215 -118.5 359.5t-301.5 144.5q-229 0 -405 -198t-176 -464z" />
<glyph unicode="&#xb4;" horiz-adv-x="466" d="M217 1114l176 266h203l-229 -266h-150z" />
<glyph unicode="&#x2000;" horiz-adv-x="781" />
<glyph unicode="&#x2001;" horiz-adv-x="1563" />
<glyph unicode="&#x2002;" horiz-adv-x="781" />
<glyph unicode="&#x2003;" horiz-adv-x="1563" />
<glyph unicode="&#x2004;" horiz-adv-x="521" />
<glyph unicode="&#x2005;" horiz-adv-x="390" />
<glyph unicode="&#x2006;" horiz-adv-x="260" />
<glyph unicode="&#x2007;" horiz-adv-x="260" />
<glyph unicode="&#x2008;" horiz-adv-x="195" />
<glyph unicode="&#x2009;" horiz-adv-x="312" />
<glyph unicode="&#x200a;" horiz-adv-x="86" />
<glyph unicode="&#x2010;" horiz-adv-x="776" d="M756 414h-621l29 200h620z" />
<glyph unicode="&#x2011;" horiz-adv-x="776" d="M756 414h-621l29 200h620z" />
<glyph unicode="&#x2012;" horiz-adv-x="776" d="M756 414h-621l29 200h620z" />
<glyph unicode="&#x2013;" d="M147 623h869l-21 -152h-868z" />
<glyph unicode="&#x2014;" horiz-adv-x="1546" d="M147 623h1424l-21 -150h-1423z" />
<glyph unicode="&#x2018;" horiz-adv-x="520" d="M637 1380l-209 -352h-203l256 352h156z" />
<glyph unicode="&#x2019;" horiz-adv-x="520" d="M223 1028l209 352h203l-258 -352h-154z" />
<glyph unicode="&#x201c;" horiz-adv-x="811" d="M477 1380l113 -352h-156l-158 352h201zM766 1380l108 -352h-153l-156 352h201z" />
<glyph unicode="&#x201d;" horiz-adv-x="811" d="M512 1028l211 352h201l-256 -352h-156zM227 1028l207 352h201l-254 -352h-154z" />
<glyph unicode="&#x2022;" horiz-adv-x="583" d="M164 596q0 104 74.5 181t173.5 77q80 0 131 -57.5t51 -143.5q0 -104 -75 -181t-173 -77q-80 0 -131 57.5t-51 143.5z" />
<glyph unicode="&#x2026;" horiz-adv-x="1193" d="M78 0l28 209h199l-29 -209h-198zM498 0l28 209h199l-29 -209h-198zM918 0l28 209h199l-29 -209h-198z" />
<glyph unicode="&#x202f;" horiz-adv-x="312" />
<glyph unicode="&#x205f;" horiz-adv-x="390" />
<glyph unicode="&#x20ac;" horiz-adv-x="1161" d="M162 625h151q0 31 4 55q0 4 4.5 19.5t6.5 27.5h-199l66 139h165q82 236 256.5 382.5t399.5 146.5q150 0 266 -78l-68 -135q-111 47 -184 47q-160 0 -280.5 -104.5t-188.5 -258.5h520l-71 -139h-488q-14 -55 -14 -94v-8h455l-74 -142h-375q25 -150 114 -244t251 -94 q106 0 198 54l31 -144q-141 -78 -293 -78q-215 0 -346 142.5t-158 363.5h-217z" />
<glyph unicode="&#x2122;" horiz-adv-x="1386" d="M213 1380h711l114 -612l287 612h166l-86 -817h-123l64 598l-287 -598h-101l-120 602l-101 -602h-127l127 715h-194l-101 -715h-123l101 715h-221z" />
<glyph unicode="&#xe000;" horiz-adv-x="990" d="M0 990h990v-990h-990v990z" />
<glyph unicode="&#xfb01;" horiz-adv-x="894" d="M600 0l119 852h-268l-179 -1262h-196l180 1262h-129l20 139h129l13 92q12 92 44 158t62.5 96.5t75.5 47t65.5 17.5t49.5 1h6q78 0 145 -47l-47 -135q-70 27 -92 26q-88 0 -113 -141l-14 -115h467l-139 -991h-199z" />
<glyph unicode="&#xfb02;" horiz-adv-x="894" d="M600 0l172 1225h-176q-94 0 -113 -142l-12 -92h164l-21 -139h-163l-170 -1262h-197l172 1262h-129l20 139h129l9 70q12 90 46 155.5t66.5 95t78.5 47t66.5 19.5t45.5 2h403l-192 -1380h-199z" />
<glyph unicode="&#xfb03;" horiz-adv-x="1398" d="M1106 0l119 852h-269l-174 -1262h-198l176 1262h-309l-175 -1262h-196l176 1262h-129l20 139h129l13 92q12 92 44 158t62.5 96.5t75.5 47t65.5 17.5t49.5 1h6q78 0 145 -47l-47 -135q-70 27 -92 26q-88 0 -113 -141l-14 -115h309l13 92q12 92 43.5 158t62.5 96.5t76 47 t65.5 17.5t49.5 1h6q80 0 147 -47l-49 -135q-70 27 -90 26q-88 0 -113 -141l-14 -115h465l-139 -991h-197z" />
<glyph unicode="&#xfb04;" horiz-adv-x="1398" d="M1106 0l172 1225h-176q-94 0 -113 -142l-12 -92h162l-21 -139h-162l-176 -1262h-198l178 1262h-309l-177 -1262h-196l178 1262h-129l20 139h129l13 92q12 92 44 158t62.5 96.5t75.5 47t65.5 17.5t49.5 1h6q78 0 145 -47l-47 -135q-70 27 -92 26q-88 0 -113 -141l-14 -115 h309l8 70q12 90 46 155.5t67 95t79 47t66.5 19.5t45.5 2h403l-192 -1380h-197z" />
</font>
</defs>
</svg>
